<svg width="24" height="24" viewBox="0 0 24 24"  xmlns="http://www.w3.org/2000/svg">
<g clip-path="url(#clip0_22_248)">
<g opacity="0.7">
<path opacity="0.7" d="M6.29997 20.42L5.61003 16.96H3.68999C3.52914 16.9605 3.37311 16.9048 3.24895 16.8026C3.12478 16.7003 3.04024 16.5579 3.00993 16.3999L0.519943 3.90995C0.495896 3.79985 0.497003 3.68577 0.523117 3.57615C0.549231 3.46652 0.599722 3.3642 0.670822 3.27677C0.741922 3.18933 0.831762 3.119 0.933761 3.07108C1.03576 3.02316 1.14724 2.99888 1.25993 2.99997H22.56C22.6825 2.99915 22.8037 3.02647 22.914 3.07987C23.0243 3.13326 23.1208 3.21126 23.1962 3.3079C23.2716 3.40453 23.3237 3.51719 23.3487 3.63718C23.3736 3.75717 23.3707 3.88131 23.34 3.99997L20.87 16.4099C20.8336 16.5767 20.7414 16.726 20.6087 16.8333C20.476 16.9406 20.3106 16.9994 20.1399 17H12.34L7.7 21C7.57963 21.0984 7.43485 21.1623 7.28105 21.185C7.12725 21.2076 6.97021 21.1881 6.82658 21.1286C6.68296 21.0691 6.5581 20.9718 6.46538 20.847C6.37266 20.7222 6.31549 20.5746 6.29997 20.42ZM4.17998 15.6599H6.04997C6.22685 15.6568 6.39918 15.7164 6.53642 15.828C6.67366 15.9396 6.76698 16.0962 6.79997 16.27L7.42998 19.43L11.69 15.8C11.8001 15.7099 11.9378 15.6605 12.08 15.6599H19.68L21.95 4.29996H1.95L4.17998 15.6599Z" />
</g>
<path opacity="0.7" d="M7.94988 10.38C8.40276 10.38 8.76988 10.0129 8.76988 9.55999C8.76988 9.10712 8.40276 8.73999 7.94988 8.73999C7.49701 8.73999 7.12988 9.10712 7.12988 9.55999C7.12988 10.0129 7.49701 10.38 7.94988 10.38Z" />
<path opacity="0.7" d="M1.29 4.59001C1.72631 4.59001 2.08 4.23631 2.08 3.80001C2.08 3.3637 1.72631 3.01001 1.29 3.01001C0.853695 3.01001 0.5 3.3637 0.5 3.80001C0.5 4.23631 0.853695 4.59001 1.29 4.59001Z" />
<path opacity="0.7" d="M12.1099 17.04C12.491 17.04 12.7999 16.7311 12.7999 16.35C12.7999 15.9689 12.491 15.66 12.1099 15.66C11.7288 15.66 11.4199 15.9689 11.4199 16.35C11.4199 16.7311 11.7288 17.04 12.1099 17.04Z" />
<path opacity="0.7" d="M6.0801 17.13C6.48327 17.13 6.8101 16.8032 6.8101 16.4C6.8101 15.9968 6.48327 15.67 6.0801 15.67C5.67693 15.67 5.3501 15.9968 5.3501 16.4C5.3501 16.8032 5.67693 17.13 6.0801 17.13Z" />
<path opacity="0.7" d="M7.16005 21.12C7.63501 21.12 8.02005 20.735 8.02005 20.26C8.02005 19.785 7.63501 19.4 7.16005 19.4C6.68508 19.4 6.30005 19.785 6.30005 20.26C6.30005 20.735 6.68508 21.12 7.16005 21.12Z" />
<path opacity="0.7" d="M3.70998 16.95C4.11315 16.95 4.43998 16.6232 4.43998 16.22C4.43998 15.8168 4.11315 15.49 3.70998 15.49C3.30681 15.49 2.97998 15.8168 2.97998 16.22C2.97998 16.6232 3.30681 16.95 3.70998 16.95Z" />
<path opacity="0.7" d="M22.56 4.59001C22.9963 4.59001 23.35 4.23631 23.35 3.80001C23.35 3.3637 22.9963 3.01001 22.56 3.01001C22.1237 3.01001 21.77 3.3637 21.77 3.80001C21.77 4.23631 22.1237 4.59001 22.56 4.59001Z" />
<path opacity="0.7" d="M20.1499 16.97C20.5586 16.97 20.8899 16.6387 20.8899 16.23C20.8899 15.8213 20.5586 15.49 20.1499 15.49C19.7412 15.49 19.4099 15.8213 19.4099 16.23C19.4099 16.6387 19.7412 16.97 20.1499 16.97Z" />
<path opacity="0.7" d="M12.2399 10.38C12.6928 10.38 13.0599 10.0129 13.0599 9.55999C13.0599 9.10712 12.6928 8.73999 12.2399 8.73999C11.787 8.73999 11.4199 9.10712 11.4199 9.55999C11.4199 10.0129 11.787 10.38 12.2399 10.38Z" />
<path opacity="0.7" d="M16.52 10.38C16.9728 10.38 17.34 10.0129 17.34 9.55999C17.34 9.10712 16.9728 8.73999 16.52 8.73999C16.0671 8.73999 15.7 9.10712 15.7 9.55999C15.7 10.0129 16.0671 10.38 16.52 10.38Z" />
</g>
<defs>
<clipPath id="clip0_22_248">
<rect width="22.86" height="18.12"  transform="translate(0.5 3)"/>
</clipPath>
</defs>
</svg>
