<svg width="23" height="31" viewBox="0 0 23 31" fill="none" xmlns="http://www.w3.org/2000/svg">
<g clip-path="url(#clip0_22_284)">
<g opacity="0.7">
<path d="M19.89 14.89V0.790026C19.89 0.685435 19.8693 0.581843 19.829 0.485339C19.7887 0.388834 19.7296 0.301322 19.6551 0.227831C19.5807 0.154341 19.4924 0.096346 19.3954 0.0572379C19.2984 0.0181299 19.1947 -0.00133696 19.0901 -1.30265e-05H1.54004C1.4089 -0.00139801 1.2792 0.0275717 1.16113 0.0846427C1.04306 0.141714 0.939873 0.225345 0.859493 0.328966C0.779114 0.432588 0.72379 0.553438 0.697872 0.681994C0.671954 0.810549 0.676129 0.943323 0.710079 1.06999L3.61999 12.29C3.6591 12.443 3.74107 12.5816 3.8562 12.6897C3.97133 12.7977 4.11487 12.8707 4.27001 12.9L18.86 15.71C18.9835 15.7407 19.1125 15.7426 19.2368 15.7155C19.3612 15.6884 19.4776 15.6331 19.5771 15.5538C19.6767 15.4746 19.7567 15.3735 19.8109 15.2584C19.8652 15.1433 19.8922 15.0172 19.89 14.89ZM18.54 1.33V14.26L4.88 11.63L2.21008 1.33H18.54Z" fill="#FFD515"/>
</g>
<path opacity="0.7" d="M4.39989 12.91C3.9912 12.91 3.65989 12.5787 3.65989 12.17C3.65989 11.7613 3.9912 11.43 4.39989 11.43C4.80858 11.43 5.13989 11.7613 5.13989 12.17C5.13989 12.5787 4.80858 12.91 4.39989 12.91Z" fill="#FACB41"/>
<path opacity="0.7" d="M19.0999 1.58C18.6636 1.58 18.3099 1.22631 18.3099 0.79C18.3099 0.353695 18.6636 0 19.0999 0C19.5362 0 19.8899 0.353695 19.8899 0.79C19.8899 1.22631 19.5362 1.58 19.0999 1.58Z" fill="#FACB41"/>
<path opacity="0.7" d="M1.54989 1.68C1.08597 1.68 0.709892 1.30392 0.709892 0.84C0.709892 0.376081 1.08597 0 1.54989 0C2.01381 0 2.38989 0.376081 2.38989 0.84C2.38989 1.30392 2.01381 1.68 1.54989 1.68Z" fill="#FACB41"/>
<path opacity="0.7" d="M19.0599 15.72C18.607 15.72 18.2399 15.3529 18.2399 14.9C18.2399 14.4471 18.607 14.08 19.0599 14.08C19.5128 14.08 19.8799 14.4471 19.8799 14.9C19.8799 15.3529 19.5128 15.72 19.0599 15.72Z" fill="#FACB41"/>
<path d="M19 1H2L5.09091 12.3077L19 15V1Z" fill="#FFD515" fill-opacity="0.5"/>
</g>
<path opacity="0.7" d="M21.65 -1.22628e-06L23 0.000183105L22.9958 30.9828L21.6458 30.9826L21.65 -1.22628e-06Z" fill="#808184"/>
<defs>
<clipPath id="clip0_22_284">
<rect width="21.29" height="22.49" fill="white" transform="matrix(-1 0 0 1 22 0)"/>
</clipPath>
</defs>
</svg>
