<svg width="24" height="24" viewBox="0 0 24 24" xmlns="http://www.w3.org/2000/svg">
<g clip-path="url(#clip0_22_282)">
<path opacity="0.7" d="M15.6799 11.4L11.47 7.16998C11.3374 7.03737 11.1575 6.96289 10.97 6.96289C10.7824 6.96289 10.6026 7.03737 10.47 7.16998C10.3374 7.30259 10.2628 7.48245 10.2628 7.66998C10.2628 7.85752 10.3374 8.03737 10.47 8.16998L13.84 11.54H1.98999V12.89H13.84L10.4299 16.31C10.3661 16.3716 10.3153 16.4454 10.2806 16.527C10.246 16.6086 10.2281 16.6963 10.2281 16.785C10.2281 16.8736 10.246 16.9614 10.2806 17.043C10.3153 17.1246 10.3661 17.1984 10.4299 17.26C10.4919 17.3319 10.5686 17.3896 10.6549 17.4291C10.7412 17.4687 10.835 17.4892 10.9299 17.4892C11.0249 17.4892 11.1187 17.4687 11.205 17.4291C11.2912 17.3896 11.368 17.3319 11.4299 17.26L15.6499 13.03C15.856 12.8091 15.9766 12.5219 15.99 12.22C15.9771 11.9206 15.8684 11.6331 15.6799 11.4Z" />
<g opacity="0.7">
<path opacity="0.7" d="M22.21 21.55C22.21 21.7622 22.1256 21.9656 21.9756 22.1157C21.8256 22.2657 21.6221 22.35 21.4099 22.35H9.67993V21H20.86V3.34998H9.67993V2H21.3699C21.4806 1.99866 21.5905 2.01948 21.693 2.06122C21.7955 2.10296 21.8886 2.16477 21.9669 2.24304C22.0452 2.32131 22.1069 2.41445 22.1487 2.51697C22.1904 2.61949 22.2113 2.72934 22.21 2.84003V21.55Z" />
</g>
<path opacity="0.7" d="M21.4199 3.57C21.8452 3.57 22.1899 3.22526 22.1899 2.8C22.1899 2.37474 21.8452 2.03 21.4199 2.03C20.9946 2.03 20.6499 2.37474 20.6499 2.8C20.6499 3.22526 20.9946 3.57 21.4199 3.57Z" />
<path opacity="0.7" d="M21.4199 22.35C21.8452 22.35 22.1899 22.0053 22.1899 21.58C22.1899 21.1547 21.8452 20.81 21.4199 20.81C20.9946 20.81 20.6499 21.1547 20.6499 21.58C20.6499 22.0053 20.9946 22.35 21.4199 22.35Z" />
<path opacity="0.7" d="M14.7801 13.33C15.4208 13.33 15.9401 12.8106 15.9401 12.17C15.9401 11.5293 15.4208 11.01 14.7801 11.01C14.1395 11.01 13.6201 11.5293 13.6201 12.17C13.6201 12.8106 14.1395 13.33 14.7801 13.33Z"  fill-opacity="0.7"/>
</g>
<defs>
<clipPath id="clip0_22_282">
<rect width="20.21" height="20.35"  transform="translate(2 2)"/>
</clipPath>
</defs>
</svg>
