<svg width="49" height="49" viewBox="0 0 49 49" fill="none" xmlns="http://www.w3.org/2000/svg">
<path d="M21.5298 41.7563C20.3598 41.9463 19.3998 41.9863 17.6498 41.9863V40.9563H20.7698V40.3263H17.6498V39.3663H20.9298V38.7163H16.8298V42.6363H17.5098C19.3698 42.6363 20.3898 42.6063 21.6198 42.4063L21.5298 41.7563ZM18.5098 45.4963H23.3798V43.3863H17.6798V44.0263H22.5698V44.8863H17.7098V47.1363H23.7098V46.4963H18.5098V45.4963ZM23.3798 40.2263V38.2763H22.5598V42.9563H23.3798V40.8963H24.7098V40.2263H23.3798ZM29.4191 43.2363H31.4191V42.5763H27.5691V41.4563H31.1891V40.8063H27.5691V39.7363H31.3791V39.0763H26.7491V43.2363H28.5991V44.7263C27.6891 44.7563 26.8191 44.7563 26.0791 44.7563L26.1791 45.4363C27.7891 45.4363 29.9791 45.4263 31.9891 45.0463L31.9191 44.4363C31.1191 44.5663 30.2591 44.6363 29.4191 44.6863V43.2363ZM32.5091 38.2563V47.2563H33.3291V38.2563H32.5091Z" fill="#F6F6F6" fill-opacity="0.5"/>
<g clip-path="url(#clip0_375_566)">
<path opacity="0.7" d="M25.0288 21.4638L20.8188 17.2338C20.6862 17.1012 20.5064 17.0267 20.3188 17.0267C20.1313 17.0267 19.9515 17.1012 19.8188 17.2338C19.6862 17.3664 19.6117 17.5463 19.6117 17.7338C19.6117 17.9213 19.6862 18.1012 19.8188 18.2338L23.1888 21.6038H11.3389V22.9538H23.1888L19.7788 26.3738C19.715 26.4354 19.6642 26.5092 19.6295 26.5908C19.5949 26.6724 19.577 26.7601 19.577 26.8488C19.577 26.9375 19.5949 27.0252 19.6295 27.1068C19.6642 27.1885 19.715 27.2623 19.7788 27.3238C19.8408 27.3957 19.9175 27.4534 20.0038 27.493C20.0901 27.5325 20.1839 27.553 20.2788 27.553C20.3737 27.553 20.4675 27.5325 20.5538 27.493C20.6401 27.4534 20.7168 27.3957 20.7788 27.3238L24.9988 23.0938C25.2049 22.8729 25.3255 22.5857 25.3389 22.2838C25.326 21.9844 25.2173 21.6969 25.0288 21.4638Z" fill="white"/>
<path opacity="0.7" d="M31.5588 31.6138C31.5588 31.826 31.4745 32.0294 31.3245 32.1795C31.1744 32.3295 30.971 32.4138 30.7588 32.4138H19.0288V31.0638H30.2089V13.4138H19.0288V12.0638H30.7188C30.8294 12.0625 30.9394 12.0833 31.0419 12.125C31.1444 12.1668 31.2375 12.2286 31.3158 12.3069C31.3941 12.3851 31.4558 12.4783 31.4976 12.5808C31.5393 12.6833 31.5602 12.7932 31.5588 12.9038V31.6138Z" fill="white"/>
<path d="M30.7685 13.6338C31.1938 13.6338 31.5385 13.2891 31.5385 12.8638C31.5385 12.4386 31.1938 12.0938 30.7685 12.0938C30.3433 12.0938 29.9985 12.4386 29.9985 12.8638C29.9985 13.2891 30.3433 13.6338 30.7685 13.6338Z" fill="white"/>
<path d="M30.7685 32.4138C31.1938 32.4138 31.5385 32.0691 31.5385 31.6438C31.5385 31.2186 31.1938 30.8738 30.7685 30.8738C30.3433 30.8738 29.9985 31.2186 29.9985 31.6438C29.9985 32.0691 30.3433 32.4138 30.7685 32.4138Z" fill="white"/>
<path d="M24.1287 23.3938C24.7694 23.3938 25.2887 22.8745 25.2887 22.2338C25.2887 21.5932 24.7694 21.0738 24.1287 21.0738C23.4881 21.0738 22.9688 21.5932 22.9688 22.2338C22.9688 22.8745 23.4881 23.3938 24.1287 23.3938Z" fill="white"/>
</g>
<defs>
<clipPath id="clip0_375_566">
<rect width="20.21" height="20.35" fill="white" transform="translate(11.3486 12.0638)"/>
</clipPath>
</defs>
</svg>
