<svg width="49" height="49" viewBox="0 0 49 49" fill="none" xmlns="http://www.w3.org/2000/svg">
<g clip-path="url(#clip0_375_565)">
<path opacity="0.7" d="M32.946 16.2815L29.2026 13.4194C29.073 13.3166 28.9125 13.2607 28.7471 13.2607C28.5816 13.2607 28.4211 13.3166 28.2915 13.4194L18.6755 21.6094C18.551 21.7207 18.4566 21.8617 18.4012 22.0193C18.3458 22.1768 18.3311 22.3458 18.3586 22.5105L18.527 23.4118C18.8411 24.9544 18.7281 26.5534 18.2002 28.0365L18.0912 28.4228L15.249 32.4435H20.1412L21.2305 30.8292L21.587 30.6411C23.2109 29.7498 25.008 29.2195 26.8555 29.0863C27.0342 29.0832 27.2087 29.0319 27.3606 28.9378C27.4998 28.8449 27.6097 28.7144 27.6775 28.5614L33.1738 17.153C33.2438 17.004 33.2594 16.8352 33.2177 16.6759C33.1761 16.5167 33.08 16.3771 32.946 16.2815ZM25.7959 28.0464C24.2531 28.2768 22.756 28.748 21.3593 29.4428L19.5272 28.0266C19.9072 26.4785 19.9945 24.8731 19.7847 23.2929C22.0467 24.5083 24.086 26.0989 25.8157 27.9969L25.7959 28.0464ZM26.9447 27.4027C25.0167 25.2147 22.6955 23.4075 20.1016 22.0748L28.8461 14.7564L31.817 17.0044L26.9447 27.4027Z" fill="white"/>
<path d="M28.7864 14.7068C29.1857 14.7068 29.5093 14.3831 29.5093 13.9838C29.5093 13.5846 29.1857 13.2609 28.7864 13.2609C28.3871 13.2609 28.0635 13.5846 28.0635 13.9838C28.0635 14.3831 28.3871 14.7068 28.7864 14.7068Z" fill="white"/>
<path d="M32.5203 17.5588C32.9196 17.5588 33.2432 17.2351 33.2432 16.8358C33.2432 16.4366 32.9196 16.1129 32.5203 16.1129C32.121 16.1129 31.7974 16.4366 31.7974 16.8358C31.7974 17.2351 32.121 17.5588 32.5203 17.5588Z" fill="white"/>
<path d="M19.2594 23.2134C19.7517 23.2134 20.1507 22.8144 20.1507 22.3222C20.1507 21.8299 19.7517 21.4309 19.2594 21.4309C18.7672 21.4309 18.3682 21.8299 18.3682 22.3222C18.3682 22.8144 18.7672 23.2134 19.2594 23.2134Z" fill="white"/>
<path d="M26.8946 29.1059C27.3813 29.1059 27.7759 28.7113 27.7759 28.2246C27.7759 27.7378 27.3813 27.3432 26.8946 27.3432C26.4078 27.3432 26.0132 27.7378 26.0132 28.2246C26.0132 28.7113 26.4078 29.1059 26.8946 29.1059Z" fill="white"/>
</g>
<path d="M23.1994 41.6863C21.5694 41.4463 19.9694 40.3363 19.9694 39.0863V38.5863H19.1094V39.0863C19.1094 40.3663 17.5294 41.4463 15.8994 41.6863L16.2294 42.3463C17.6294 42.1063 18.9794 41.3363 19.5394 40.2463C20.1194 41.3263 21.4694 42.1063 22.8594 42.3463L23.1994 41.6863ZM23.5894 43.3163H15.4894V43.9963H19.1094V47.2463H19.9294V43.9963H23.5994L23.5894 43.3163ZM29.8686 40.5963V41.2663H31.6386V43.6163H32.4686V38.2763H31.6386V40.5963H29.8686ZM30.3686 42.6363C29.0686 42.1763 28.1886 41.0463 28.1886 39.8963V39.5863H30.1586V38.9263H25.3686V39.5863H27.3686V39.8963C27.3686 41.1863 26.4486 42.3963 25.1086 42.8863L25.5386 43.5363C26.5886 43.1363 27.4186 42.2963 27.7986 41.2563C28.1886 42.1763 28.9586 42.9163 29.9586 43.2763L30.3686 42.6363ZM29.5086 46.5963C28.1586 46.5963 27.3386 46.2163 27.3386 45.5663C27.3386 44.9163 28.1586 44.5263 29.5086 44.5263C30.8586 44.5263 31.6786 44.9163 31.6786 45.5663C31.6786 46.2163 30.8586 46.5963 29.5086 46.5963ZM29.5086 43.8963C27.6686 43.8963 26.5186 44.5063 26.5186 45.5663C26.5186 46.6263 27.6686 47.2363 29.5086 47.2363C31.3486 47.2363 32.4986 46.6263 32.4986 45.5663C32.4986 44.5063 31.3486 43.8963 29.5086 43.8963Z" fill="white" fill-opacity="0.5"/>
<defs>
<clipPath id="clip0_375_565">
<rect width="24" height="20.62" fill="white" transform="translate(12.3486 13.0733)"/>
</clipPath>
</defs>
</svg>
