<svg width="49" height="49" viewBox="0 0 49 49" fill="none" xmlns="http://www.w3.org/2000/svg">
<path d="M30.5645 28.8009C30.1047 28.8029 29.6505 28.8999 29.2301 29.086C28.8097 29.2721 28.4323 29.5433 28.1218 29.8823L20.398 25.3639C20.5096 25.0374 20.5685 24.6951 20.5719 24.3501C20.5644 24.0212 20.5056 23.6955 20.398 23.3846L28.1218 18.8856C28.639 19.4625 29.3412 19.841 30.1074 19.9561C30.8736 20.0712 31.656 19.9155 32.3198 19.516C32.9836 19.1164 33.4874 18.4979 33.7444 17.767C34.0014 17.0361 33.9957 16.2384 33.7279 15.5113C33.4602 14.7842 32.9472 14.1732 32.2776 13.7834C31.608 13.3937 30.8235 13.2496 30.0591 13.3759C29.2947 13.5022 28.5981 13.8911 28.0895 14.4755C27.5808 15.06 27.2918 15.8035 27.2723 16.5781C27.281 16.906 27.3362 17.2311 27.4363 17.5435L19.7125 22.0426C19.258 21.5502 18.6656 21.2063 18.0126 21.0559C17.3595 20.9055 16.6763 20.9556 16.0522 21.1997C15.4281 21.4437 14.892 21.8703 14.5142 22.4237C14.1363 22.9772 13.9341 23.6317 13.9341 24.3019C13.9341 24.972 14.1363 25.6266 14.5142 26.18C14.892 26.7335 15.4281 27.16 16.0522 27.4041C16.6763 27.6481 17.3595 27.6982 18.0126 27.5478C18.6656 27.3974 19.258 27.0535 19.7125 26.5611L27.4363 31.0795C27.3365 31.392 27.2813 31.717 27.2723 32.045C27.2742 32.7033 27.4711 33.3463 27.8382 33.8928C28.2054 34.4393 28.7264 34.8648 29.3352 35.1154C29.944 35.366 30.6134 35.4306 31.2589 35.301C31.9044 35.1714 32.497 34.8534 32.9619 34.3872C33.4267 33.921 33.743 33.3274 33.8708 32.6816C33.9985 32.0357 33.932 31.3665 33.6796 30.7584C33.4272 30.1503 33.0003 29.6307 32.4527 29.2651C31.9052 28.8995 31.2615 28.7044 30.6031 28.7044L30.5645 28.8009ZM28.6818 16.5781C28.7132 16.0774 28.9383 15.6086 29.3093 15.2709C29.6803 14.9332 30.1679 14.7531 30.6693 14.7688C31.1708 14.7844 31.6466 14.9947 31.9957 15.3549C32.3448 15.7151 32.54 16.1971 32.54 16.6988C32.54 17.2004 32.3448 17.6824 31.9957 18.0426C31.6466 18.4028 31.1708 18.6131 30.6693 18.6288C30.1679 18.6444 29.6803 18.4643 29.3093 18.1266C28.9383 17.7889 28.7132 17.3201 28.6818 16.8194C28.6771 16.7391 28.6771 16.6585 28.6818 16.5781ZM17.2218 26.2328C16.7225 26.2328 16.2436 26.0344 15.8905 25.6814C15.5374 25.3283 15.3389 24.8494 15.3389 24.3501C15.3389 23.8508 15.5374 23.372 15.8905 23.0189C16.2436 22.6658 16.7225 22.4674 17.2218 22.4674C17.6338 22.4667 18.0344 22.6025 18.361 22.8537C18.7561 23.1622 19.0158 23.6122 19.0851 24.1088C19.0904 24.1891 19.0904 24.2698 19.0851 24.3501C19.0898 24.4337 19.0898 24.5175 19.0851 24.6012C19.015 25.0484 18.79 25.4568 18.4494 25.7551C18.1088 26.0533 17.6744 26.2224 17.2218 26.2328ZM30.5645 34.0242C30.0608 34.0116 29.5821 33.8026 29.2303 33.4418C28.8786 33.081 28.6817 32.5971 28.6818 32.0932C28.6771 32.0096 28.6771 31.9258 28.6818 31.8422C28.7143 31.5947 28.796 31.3561 28.922 31.1406C29.048 30.925 29.2158 30.7368 29.4156 30.5871C29.6557 30.38 29.9433 30.2353 30.2526 30.1657C30.5619 30.096 30.8836 30.1036 31.1893 30.1878C31.495 30.272 31.7753 30.4301 32.0054 30.6483C32.2354 30.8665 32.4081 31.138 32.5084 31.4388C32.6086 31.7396 32.6334 32.0605 32.5803 32.3731C32.5271 32.6857 32.3979 32.9804 32.2038 33.2311C32.0098 33.4819 31.757 33.681 31.4677 33.8109C31.1784 33.9408 30.8615 33.9975 30.5451 33.9759L30.5645 34.0242Z" fill="#C5C5C5"/>
</svg>
