<svg width="14" height="16" viewBox="0 0 14 16" fill="none" xmlns="http://www.w3.org/2000/svg">
<g clip-path="url(#clip0_314_625)">
<g opacity="0.7">
<path opacity="0.7" d="M10.0348 0.88208H3.46268C3.37891 0.882554 3.29663 0.903589 3.2233 0.943271C3.14997 0.982952 3.08799 1.04001 3.04297 1.10923L0.330146 5.198C0.293868 5.25279 0.269575 5.31438 0.258792 5.37883C0.248009 5.44329 0.250985 5.50925 0.267511 5.57252L1.44535 10.0296C1.45947 10.0748 1.48292 10.1166 1.51425 10.1524L6.35721 15.5612C6.40717 15.6162 6.46844 15.6602 6.53701 15.6904C6.60557 15.7205 6.67981 15.7361 6.75497 15.7361C6.83012 15.7361 6.90444 15.7205 6.97301 15.6904C7.04157 15.6602 7.10285 15.6162 7.15281 15.5612L11.883 10.3427C11.9253 10.2975 11.9555 10.2427 11.9707 10.1831L13.2237 5.59092C13.2423 5.52247 13.2458 5.45093 13.2339 5.38105C13.2221 5.31116 13.1951 5.24458 13.1548 5.18574L10.4608 1.11538C10.4147 1.0453 10.3517 0.987393 10.2775 0.946718C10.2032 0.906043 10.1199 0.883842 10.0348 0.88208ZM9.84054 1.74156L12.3466 5.5234L11.2188 9.78408L8.98533 12.2398L6.75183 14.6955L2.29111 9.78408L1.16345 5.5234L3.66947 1.74156H9.84054Z" fill="#808184"/>
<path opacity="0.7" d="M6.7521 9.44029L8.91359 8.42114C8.98201 8.39064 9.04206 8.34473 9.08888 8.2871C9.1357 8.22948 9.16793 8.1618 9.18295 8.08963L9.66537 6.00839C9.68034 5.94491 9.68082 5.87899 9.66674 5.8153C9.65266 5.75162 9.62436 5.69177 9.58392 5.64005L8.19937 3.94559C8.15949 3.89508 8.10819 3.85437 8.04947 3.82666C7.99075 3.79895 7.92619 3.78501 7.86103 3.78597H5.59935C5.54885 3.78548 5.49895 3.79628 5.45335 3.81755C5.40776 3.83883 5.36771 3.87003 5.33627 3.90876L3.95164 5.60322C3.90212 5.66479 3.86743 5.73649 3.85007 5.81302C3.83272 5.88954 3.8332 5.9689 3.85145 6.04523L4.34007 8.13261C4.35338 8.19011 4.37937 8.24408 4.41616 8.29074C4.45295 8.3374 4.49971 8.37561 4.55313 8.40274L6.7521 9.44029ZM7.64804 4.64548L8.76951 6.01454L8.36853 7.72739L6.7521 8.4887L5.14201 7.72739L4.74104 6.01454L5.86251 4.64548H7.64804Z" fill="#808184"/>
</g>
<path opacity="0.7" d="M3.45043 1.79686C3.70648 1.79686 3.91405 1.59346 3.91405 1.34255C3.91405 1.09165 3.70648 0.888245 3.45043 0.888245C3.19438 0.888245 2.98682 1.09165 2.98682 1.34255C2.98682 1.59346 3.19438 1.79686 3.45043 1.79686Z" fill="#808184"/>
<path opacity="0.7" d="M6.75869 15.7454C7.04933 15.7454 7.28495 15.5145 7.28495 15.2297C7.28495 14.9448 7.04933 14.714 6.75869 14.714C6.46804 14.714 6.23242 14.9448 6.23242 15.2297C6.23242 15.5145 6.46804 15.7454 6.75869 15.7454Z" fill="#808184"/>
<path opacity="0.7" d="M10.0603 1.79686C10.3163 1.79686 10.5239 1.59346 10.5239 1.34255C10.5239 1.09165 10.3163 0.888245 10.0603 0.888245C9.80425 0.888245 9.59668 1.09165 9.59668 1.34255C9.59668 1.59346 9.80425 1.79686 10.0603 1.79686Z" fill="#808184"/>
<path opacity="0.7" d="M12.804 5.89179C13.0566 5.89179 13.2614 5.69114 13.2614 5.44362C13.2614 5.19611 13.0566 4.99545 12.804 4.99545C12.5514 4.99545 12.3467 5.19611 12.3467 5.44362C12.3467 5.69114 12.5514 5.89179 12.804 5.89179Z" fill="#808184"/>
<path opacity="0.7" d="M9.21459 6.37059C9.47064 6.37059 9.6782 6.16719 9.6782 5.91628C9.6782 5.66538 9.47064 5.46198 9.21459 5.46198C8.95854 5.46198 8.75098 5.66538 8.75098 5.91628C8.75098 6.16719 8.95854 6.37059 9.21459 6.37059Z" fill="#808184"/>
<path opacity="0.7" d="M7.84252 4.69457C8.09857 4.69457 8.30614 4.49117 8.30614 4.24026C8.30614 3.98935 8.09857 3.78595 7.84252 3.78595C7.58647 3.78595 7.37891 3.98935 7.37891 4.24026C7.37891 4.49117 7.58647 4.69457 7.84252 4.69457Z" fill="#808184"/>
<path opacity="0.7" d="M5.65608 4.68229C5.90867 4.68229 6.11343 4.48164 6.11343 4.23412C6.11343 3.9866 5.90867 3.78595 5.65608 3.78595C5.40349 3.78595 5.19873 3.9866 5.19873 4.23412C5.19873 4.48164 5.40349 4.68229 5.65608 4.68229Z" fill="#808184"/>
<path opacity="0.7" d="M4.29622 6.36451C4.5488 6.36451 4.75357 6.16386 4.75357 5.91634C4.75357 5.66882 4.5488 5.46817 4.29622 5.46817C4.04363 5.46817 3.83887 5.66882 3.83887 5.91634C3.83887 6.16386 4.04363 6.36451 4.29622 6.36451Z" fill="#808184"/>
<path opacity="0.7" d="M4.77864 8.45802C5.03123 8.45802 5.23599 8.25736 5.23599 8.00985C5.23599 7.76233 5.03123 7.56168 4.77864 7.56168C4.52605 7.56168 4.32129 7.76233 4.32129 8.00985C4.32129 8.25736 4.52605 8.45802 4.77864 8.45802Z" fill="#808184"/>
<path opacity="0.7" d="M6.74592 9.38502C6.99851 9.38502 7.20327 9.18437 7.20327 8.93685C7.20327 8.68933 6.99851 8.48868 6.74592 8.48868C6.49334 8.48868 6.28857 8.68933 6.28857 8.93685C6.28857 9.18437 6.49334 9.38502 6.74592 9.38502Z" fill="#808184"/>
<path opacity="0.7" d="M8.73852 8.45189C8.99456 8.45189 9.20213 8.24849 9.20213 7.99758C9.20213 7.74668 8.99456 7.54327 8.73852 7.54327C8.48247 7.54327 8.2749 7.74668 8.2749 7.99758C8.2749 8.24849 8.48247 8.45189 8.73852 8.45189Z" fill="#808184"/>
<path opacity="0.7" d="M0.712721 5.89781C0.965308 5.89781 1.17007 5.69715 1.17007 5.44963C1.17007 5.20212 0.965308 5.00146 0.712721 5.00146C0.460133 5.00146 0.255371 5.20212 0.255371 5.44963C0.255371 5.69715 0.460133 5.89781 0.712721 5.89781Z" fill="#808184"/>
<path opacity="0.7" d="M11.5577 10.4901C11.7999 10.4901 11.9962 10.2977 11.9962 10.0603C11.9962 9.82299 11.7999 9.63058 11.5577 9.63058C11.3155 9.63058 11.1191 9.82299 11.1191 10.0603C11.1191 10.2977 11.3155 10.4901 11.5577 10.4901Z" fill="#808184"/>
<path opacity="0.7" d="M1.86531 10.312C2.10752 10.312 2.30387 10.1196 2.30387 9.8823C2.30387 9.64495 2.10752 9.45255 1.86531 9.45255C1.62311 9.45255 1.42676 9.64495 1.42676 9.8823C1.42676 10.1196 1.62311 10.312 1.86531 10.312Z" fill="#808184"/>
</g>
<defs>
<clipPath id="clip0_314_625">
<rect width="13" height="14.8571" fill="white" transform="translate(0.255371 0.88208)"/>
</clipPath>
</defs>
</svg>
