<svg width="15" height="15" viewBox="0 0 15 15" fill="none" xmlns="http://www.w3.org/2000/svg">
<g clip-path="url(#clip0_314_610)">
<path opacity="0.5" d="M1.84288 11.6956C1.76401 11.6587 1.69454 11.6037 1.63993 11.5348C1.58531 11.4659 1.54696 11.3851 1.52799 11.2986L0.275358 5.67805C0.249053 5.56803 0.248089 5.45328 0.272496 5.34281C0.296904 5.23234 0.346075 5.12916 0.416084 5.04138L3.94616 0.516162C3.99572 0.452104 4.05887 0.400346 4.13079 0.364777C4.20272 0.329207 4.28156 0.310758 4.36147 0.310791H10.1557C10.2268 0.311036 10.297 0.327823 10.3608 0.359846C10.4246 0.391869 10.4805 0.438303 10.5242 0.495645L14.1481 5.13719C14.1945 5.19589 14.2271 5.26471 14.2433 5.3383C14.2596 5.41188 14.259 5.48827 14.2418 5.56163L12.9692 11.2643C12.9459 11.3616 12.9021 11.4525 12.8407 11.5305C12.7794 11.6086 12.702 11.672 12.6141 11.7162L7.44287 14.2629C7.38122 14.2932 7.31365 14.309 7.24523 14.309C7.17681 14.309 7.10924 14.2932 7.0476 14.2629L1.84288 11.6956ZM1.2467 5.53427L2.43228 10.8536L7.24188 13.2223L12.0515 10.8536L13.2438 5.53427L9.89449 1.26924H4.53563L1.2467 5.53427Z" fill="#808184"/>
<path opacity="0.7" d="M0.757764 5.98609C1.03523 5.98609 1.26016 5.75621 1.26016 5.47265C1.26016 5.18908 1.03523 4.9592 0.757764 4.9592C0.4803 4.9592 0.255371 5.18908 0.255371 5.47265C0.255371 5.75621 0.4803 5.98609 0.757764 5.98609Z" fill="#808184"/>
<path opacity="0.7" d="M4.35479 1.35138C4.63596 1.35138 4.86388 1.11843 4.86388 0.831084C4.86388 0.543734 4.63596 0.310791 4.35479 0.310791C4.07363 0.310791 3.8457 0.543734 3.8457 0.831084C3.8457 1.11843 4.07363 1.35138 4.35479 1.35138Z" fill="#808184"/>
<path opacity="0.7" d="M10.1224 1.35138C10.4035 1.35138 10.6315 1.11843 10.6315 0.831084C10.6315 0.543734 10.4035 0.310791 10.1224 0.310791C9.84121 0.310791 9.61328 0.543734 9.61328 0.831084C9.61328 1.11843 9.84121 1.35138 10.1224 1.35138Z" fill="#808184"/>
<path opacity="0.7" d="M2.03741 11.7367C2.31857 11.7367 2.5465 11.5037 2.5465 11.2164C2.5465 10.929 2.31857 10.6961 2.03741 10.6961C1.75625 10.6961 1.52832 10.929 1.52832 11.2164C1.52832 11.5037 1.75625 11.7367 2.03741 11.7367Z" fill="#808184"/>
<path opacity="0.7" d="M7.242 14.2971C7.52316 14.2971 7.75109 14.0642 7.75109 13.7768C7.75109 13.4895 7.52316 13.2565 7.242 13.2565C6.96084 13.2565 6.73291 13.4895 6.73291 13.7768C6.73291 14.0642 6.96084 14.2971 7.242 14.2971Z" fill="#808184"/>
<path opacity="0.7" d="M12.4603 11.7093C12.7414 11.7093 12.9694 11.4764 12.9694 11.1891C12.9694 10.9017 12.7414 10.6688 12.4603 10.6688C12.1791 10.6688 11.9512 10.9017 11.9512 11.1891C11.9512 11.4764 12.1791 11.7093 12.4603 11.7093Z" fill="#808184"/>
<path opacity="0.7" d="M13.7463 5.98607C14.0311 5.98607 14.262 5.75006 14.262 5.45893C14.262 5.1678 14.0311 4.93179 13.7463 4.93179C13.4614 4.93179 13.2305 5.1678 13.2305 5.45893C13.2305 5.75006 13.4614 5.98607 13.7463 5.98607Z" fill="#808184"/>
<path opacity="0.7" d="M7.06767 7.83454C7.32294 7.83454 7.52987 7.62306 7.52987 7.36217C7.52987 7.10129 7.32294 6.8898 7.06767 6.8898C6.8124 6.8898 6.60547 7.10129 6.60547 7.36217C6.60547 7.62306 6.8124 7.83454 7.06767 7.83454Z" fill="#808184"/>
<g opacity="0.7">
<path opacity="0.7" d="M9.17114 9.9841C9.0514 9.98562 8.93591 9.93889 8.84962 9.85403L6.74627 7.69757C6.70333 7.65492 6.66929 7.6038 6.64626 7.54731C6.62323 7.49083 6.61172 7.43013 6.61233 7.36894V3.26136C6.62579 3.14849 6.67916 3.04458 6.76246 2.9692C6.84575 2.89382 6.95317 2.8522 7.06443 2.8522C7.17569 2.8522 7.28311 2.89382 7.36641 2.9692C7.4497 3.04458 7.50315 3.14849 7.51662 3.26136V7.21835L9.52619 9.23106C9.57159 9.27519 9.6077 9.32828 9.6324 9.38713C9.6571 9.44597 9.66986 9.50933 9.66986 9.57336C9.66986 9.63739 9.6571 9.70075 9.6324 9.75959C9.6077 9.81844 9.57159 9.87153 9.52619 9.91566C9.47438 9.9505 9.41631 9.97448 9.35537 9.98623C9.29443 9.99798 9.23181 9.99725 9.17114 9.9841V9.9841Z" fill="#808184"/>
</g>
</g>
<defs>
<clipPath id="clip0_314_610">
<rect width="14" height="14" fill="white" transform="translate(0.255371 0.310791)"/>
</clipPath>
</defs>
</svg>
