<svg width="13" height="14" viewBox="0 0 13 14" fill="none" xmlns="http://www.w3.org/2000/svg">
<g opacity="0.7">
<path opacity="0.7" d="M12.9459 12.9831H0.255371V13.8108H12.9459V12.9831Z" fill="#808184"/>
</g>
<g opacity="0.7">
<path opacity="0.7" d="M9.37912 0.81076H8.62549V2.5468H9.37912V0.81076Z" fill="#808184"/>
</g>
<g opacity="0.7">
<path opacity="0.7" d="M4.56857 0.81076H3.81494V2.5468H4.56857V0.81076Z" fill="#808184"/>
</g>
<g opacity="0.7">
<path opacity="0.7" d="M6.97775 0.81076H6.22412V2.5468H6.97775V0.81076Z" fill="#808184"/>
</g>
<g opacity="0.7">
<path opacity="0.7" d="M12.1847 13.0303L11.2965 2.05558H1.87613L1.00139 13.0303H0.26123L1.13597 1.67876C1.14452 1.57288 1.19314 1.47425 1.27191 1.40298C1.35068 1.33171 1.45368 1.29316 1.55989 1.29521H11.5858C11.6923 1.29458 11.7953 1.33342 11.8748 1.40425C11.9544 1.47509 12.0048 1.5729 12.0165 1.67876L12.9451 13.0236L12.1847 13.0303Z" fill="#808184"/>
</g>
<path opacity="0.7" d="M1.5614 2.17666C1.80295 2.17666 1.99877 1.98084 1.99877 1.73928C1.99877 1.49773 1.80295 1.30191 1.5614 1.30191C1.31984 1.30191 1.12402 1.49773 1.12402 1.73928C1.12402 1.98084 1.31984 2.17666 1.5614 2.17666Z" fill="#808184"/>
<path opacity="0.7" d="M11.58 2.17666C11.8215 2.17666 12.0173 1.98084 12.0173 1.73928C12.0173 1.49773 11.8215 1.30191 11.58 1.30191C11.3384 1.30191 11.1426 1.49773 11.1426 1.73928C11.1426 1.98084 11.3384 2.17666 11.58 2.17666Z" fill="#808184"/>
<g opacity="0.7">
<path opacity="0.7" d="M5.60483 9.13423L3.81494 7.34434L4.3465 6.81278L5.9278 8.39404L8.85483 5.46701L9.39313 5.99857L6.25751 9.13423C6.21492 9.17757 6.16413 9.21197 6.1081 9.23547C6.05207 9.25896 5.99193 9.27108 5.93117 9.27108C5.87041 9.27108 5.81028 9.25896 5.75424 9.23547C5.69821 9.21197 5.64742 9.17757 5.60483 9.13423Z" fill="#808184"/>
</g>
<path opacity="0.7" d="M5.92701 9.28265C6.17228 9.28265 6.37112 9.08381 6.37112 8.83854C6.37112 8.59327 6.17228 8.39444 5.92701 8.39444C5.68174 8.39444 5.48291 8.59327 5.48291 8.83854C5.48291 9.08381 5.68174 9.28265 5.92701 9.28265Z" fill="#808184"/>
</svg>
