<svg width="14" height="17" viewBox="0 0 14 17" fill="none" xmlns="http://www.w3.org/2000/svg">
<g opacity="0.7">
<path opacity="0.65" d="M13.8372 15.9126H0.260254V16.8801H13.8372V15.9126Z" fill="#808184"/>
</g>
<g opacity="0.7">
<path opacity="0.7" fill-rule="evenodd" clip-rule="evenodd" d="M4.8378 9.59605H9.26644C9.34967 9.59916 9.43244 9.5822 9.50774 9.5466C9.58304 9.511 9.64865 9.45782 9.69907 9.39152L11.9488 5.57647C11.9915 5.49944 12.0139 5.41281 12.0139 5.32474C12.0139 5.23667 11.9915 5.15005 11.9488 5.07302L9.76988 1.21859C9.72762 1.14055 9.66518 1.07529 9.58907 1.02962C9.51297 0.98396 9.42601 0.959609 9.33725 0.959047L4.91644 0.919678C4.82746 0.919678 4.74005 0.942891 4.6628 0.987037C4.58554 1.03118 4.52111 1.09474 4.47594 1.1714L2.22624 4.98651C2.18354 5.06353 2.16113 5.15011 2.16113 5.23818C2.16113 5.32625 2.18354 5.41288 2.22624 5.4899L4.40517 9.34433C4.44781 9.42146 4.51057 9.48562 4.58675 9.52994C4.66293 9.57426 4.74967 9.5971 4.8378 9.59605ZM5.13715 1.89786C5.17821 1.87596 5.2239 1.86421 5.27043 1.86362L5.28617 1.84788H8.88101C8.92769 1.84681 8.97376 1.85878 9.01404 1.8824C9.05433 1.90601 9.08723 1.94038 9.10911 1.98164L10.879 5.12809C10.9026 5.16728 10.915 5.21213 10.915 5.25786C10.915 5.3036 10.9026 5.34845 10.879 5.38764L9.05404 8.4869C9.02903 8.52715 8.99435 8.56052 8.95312 8.58388C8.91189 8.60724 8.86544 8.61989 8.81806 8.62066H5.22323C5.17591 8.62009 5.12968 8.60658 5.08947 8.58162C5.04927 8.55667 5.01664 8.52122 4.99513 8.47907L3.22525 5.33262C3.20012 5.29254 3.18679 5.24616 3.18679 5.19886C3.18679 5.15156 3.20012 5.10522 3.22525 5.06515L5.03445 1.98951C5.06086 1.95119 5.09609 1.91975 5.13715 1.89786Z" fill="#808184"/>
</g>
<path opacity="0.5" d="M11.6269 10.6343C11.5872 10.5459 11.5248 10.4694 11.4461 10.4128C11.3674 10.3561 11.275 10.3213 11.1785 10.3118H2.90333C2.80778 10.3174 2.71557 10.3489 2.63658 10.403C2.55758 10.457 2.49483 10.5316 2.455 10.6186L0.252441 15.9125H1.3301L3.21012 11.358H10.8796L12.7675 15.9519H13.8373L11.6269 10.6343Z" fill="#808184"/>
<path opacity="0.7" d="M4.88548 1.94992C5.1809 1.94992 5.42038 1.71044 5.42038 1.41502C5.42038 1.11961 5.1809 0.880127 4.88548 0.880127C4.59007 0.880127 4.35059 1.11961 4.35059 1.41502C4.35059 1.71044 4.59007 1.94992 4.88548 1.94992Z" fill="#808184"/>
<path opacity="0.7" d="M9.27513 1.98947C9.57055 1.98947 9.81003 1.74999 9.81003 1.45458C9.81003 1.15916 9.57055 0.919678 9.27513 0.919678C8.97972 0.919678 8.74023 1.15916 8.74023 1.45458C8.74023 1.74999 8.97972 1.98947 9.27513 1.98947Z" fill="#808184"/>
<path opacity="0.7" d="M11.446 5.82037C11.7414 5.82037 11.9809 5.58089 11.9809 5.28548C11.9809 4.99006 11.7414 4.75058 11.446 4.75058C11.1506 4.75058 10.9111 4.99006 10.9111 5.28548C10.9111 5.58089 11.1506 5.82037 11.446 5.82037Z" fill="#808184"/>
<path opacity="0.7" d="M11.1551 11.3973C11.4548 11.3973 11.6978 11.1543 11.6978 10.8546C11.6978 10.5548 11.4548 10.3118 11.1551 10.3118C10.8553 10.3118 10.6123 10.5548 10.6123 10.8546C10.6123 11.1543 10.8553 11.3973 11.1551 11.3973Z" fill="#808184"/>
<path opacity="0.7" d="M2.94218 11.3973C3.24194 11.3973 3.48494 11.1543 3.48494 10.8546C3.48494 10.5548 3.24194 10.3118 2.94218 10.3118C2.64242 10.3118 2.39941 10.5548 2.39941 10.8546C2.39941 11.1543 2.64242 11.3973 2.94218 11.3973Z" fill="#808184"/>
<path opacity="0.7" d="M9.22728 9.59598C9.5227 9.59598 9.76218 9.3565 9.76218 9.06108C9.76218 8.76567 9.5227 8.52618 9.22728 8.52618C8.93186 8.52618 8.69238 8.76567 8.69238 9.06108C8.69238 9.3565 8.93186 9.59598 9.22728 9.59598Z" fill="#808184"/>
<path opacity="0.7" d="M4.80638 9.55679C5.1018 9.55679 5.34128 9.31731 5.34128 9.0219C5.34128 8.72648 5.1018 8.487 4.80638 8.487C4.51097 8.487 4.27148 8.72648 4.27148 9.0219C4.27148 9.31731 4.51097 9.55679 4.80638 9.55679Z" fill="#808184"/>
<path opacity="0.7" d="M2.6516 5.74164C2.94701 5.74164 3.18649 5.50216 3.18649 5.20674C3.18649 4.91133 2.94701 4.67184 2.6516 4.67184C2.35618 4.67184 2.1167 4.91133 2.1167 5.20674C2.1167 5.50216 2.35618 5.74164 2.6516 5.74164Z" fill="#808184"/>
</svg>
