<svg width="9" height="9" viewBox="0 0 9 9" fill="none" xmlns="http://www.w3.org/2000/svg">
<path d="M1.42593 5.8001L6.43461 0.794801C6.45089 0.777639 6.47051 0.763977 6.49225 0.754638C6.51398 0.745298 6.53732 0.740479 6.56098 0.740479C6.58463 0.740479 6.60806 0.745298 6.62979 0.754638C6.65153 0.763977 6.67115 0.777639 6.68743 0.794801L8.61435 2.72176C8.63119 2.73857 8.6446 2.75854 8.65372 2.78052C8.66283 2.8025 8.66748 2.82608 8.66748 2.84988C8.66748 2.87368 8.66283 2.89723 8.65372 2.91921C8.6446 2.9412 8.63119 2.96118 8.61435 2.978L4.78438 6.80457L3.60909 7.98327C3.58604 8.00563 3.5579 8.02205 3.5271 8.03111L0.896348 8.73493C0.865831 8.7441 0.833359 8.74492 0.802426 8.73726C0.771492 8.7296 0.743223 8.71374 0.720515 8.69138C0.697807 8.66903 0.681526 8.64097 0.673387 8.61016C0.665249 8.57935 0.665516 8.54694 0.674221 8.51628L1.38148 5.88209C1.38929 5.85151 1.40459 5.82335 1.42593 5.8001ZM6.43461 1.51911L5.42674 2.54409C5.39376 2.57791 5.37527 2.62327 5.37527 2.6705C5.37527 2.71773 5.39376 2.76309 5.42674 2.79691L6.62938 3.99955C6.6462 4.01639 6.66612 4.02975 6.6881 4.03886C6.71008 4.04798 6.7337 4.05267 6.7575 4.05267C6.7813 4.05267 6.80483 4.04798 6.82682 4.03886C6.8488 4.02975 6.8688 4.01639 6.88562 3.99955L7.89008 2.99508C7.90691 2.97826 7.92025 2.9583 7.92936 2.93631C7.93848 2.91433 7.94321 2.89076 7.94321 2.86696C7.94321 2.84316 7.93848 2.8196 7.92936 2.79762C7.92025 2.77564 7.90691 2.75565 7.89008 2.73883L6.68743 1.53619C6.67235 1.51788 6.65365 1.50285 6.63255 1.492C6.61144 1.48116 6.5884 1.47475 6.56473 1.47315C6.54106 1.47155 6.51729 1.4748 6.49492 1.4827C6.47255 1.49061 6.45202 1.503 6.43461 1.51911ZM6.2672 4.34463L5.06456 3.14199C5.03017 3.1088 4.98423 3.09025 4.93644 3.09025C4.88864 3.09025 4.84271 3.1088 4.80831 3.14199L1.88712 6.06658C1.8636 6.08872 1.84703 6.1172 1.83933 6.14857L1.39858 7.78855C1.39026 7.8193 1.3902 7.85169 1.39841 7.88247C1.40662 7.91325 1.42276 7.94133 1.44529 7.96386C1.46781 7.98639 1.49591 8.00257 1.5267 8.01078C1.55748 8.01899 1.58987 8.01893 1.62062 8.01061L3.26401 7.56988C3.29385 7.56272 3.32107 7.54733 3.34259 7.52546L6.2672 4.60087C6.28404 4.58406 6.29737 4.56407 6.30649 4.54209C6.3156 4.52011 6.32033 4.49655 6.32033 4.47275C6.32033 4.44895 6.3156 4.42538 6.30649 4.4034C6.29737 4.38141 6.28404 4.36145 6.2672 4.34463Z" fill="#949497"/>
</svg>
