<svg width="17" height="17" viewBox="0 0 17 17" xmlns="http://www.w3.org/2000/svg">
<g clip-path="url(#clip0_2_3670)">
<g opacity="0.7">
<path opacity="0.7" d="M16.2114 14.7252H0.211426V15.5452H16.2114V14.7252Z"/>
</g>
<g opacity="0.7">
<path opacity="0.7" d="M10.3982 2.2852L12.2449 5.55188C12.2742 5.60131 12.2897 5.65773 12.2897 5.71521C12.2897 5.77269 12.2742 5.82911 12.2449 5.87854L10.3382 9.11186C10.3083 9.161 10.2662 9.20158 10.2159 9.22961C10.1657 9.25765 10.1091 9.27219 10.0516 9.27185L6.29822 9.23853C6.2409 9.23837 6.18467 9.22284 6.13542 9.19352C6.08616 9.1642 6.0457 9.12217 6.01823 9.07186L4.17155 5.80518C4.14352 5.7553 4.12878 5.69906 4.12878 5.64185C4.12878 5.58464 4.14352 5.52839 4.17155 5.47852L6.07821 2.25187C6.10785 2.20051 6.15067 2.15796 6.20223 2.12866C6.25379 2.09937 6.31224 2.08438 6.37154 2.08521H10.1182C10.1787 2.08993 10.2367 2.11104 10.286 2.14628C10.3353 2.18152 10.3742 2.22955 10.3982 2.2852ZM11.5382 5.54521L10.0382 2.87854C10.0094 2.82993 9.96843 2.7896 9.91935 2.76156C9.87027 2.73351 9.81474 2.71871 9.75822 2.71855H6.71155C6.65462 2.71658 6.59828 2.73049 6.54883 2.75875C6.49937 2.78701 6.45877 2.8285 6.43156 2.87854L4.88489 5.49854C4.85685 5.54841 4.84212 5.60465 4.84212 5.66187C4.84212 5.71908 4.85685 5.77532 4.88489 5.8252L6.38489 8.49186C6.41433 8.54046 6.45524 8.58109 6.50407 8.61015C6.55289 8.63921 6.60812 8.65582 6.66488 8.65853H9.71155C9.76907 8.65886 9.8257 8.64429 9.87594 8.61625C9.92617 8.58821 9.9683 8.54768 9.99821 8.49854L11.5382 5.87187C11.5702 5.82092 11.5871 5.762 11.5871 5.70186C11.5871 5.64173 11.5702 5.58281 11.5382 5.53186V5.54521Z"/>
<path opacity="0.7" d="M10.0914 9.37192H6.33809C6.2634 9.37281 6.18989 9.35345 6.12533 9.31589C6.06076 9.27833 6.00757 9.22395 5.97144 9.15858L4.12476 5.8919C4.08857 5.82662 4.06958 5.7532 4.06958 5.67856C4.06958 5.60392 4.08857 5.53054 4.12476 5.46526L6.03141 2.23191C6.0697 2.16694 6.1243 2.11307 6.18978 2.07566C6.25525 2.03824 6.32933 2.01857 6.40474 2.01857L10.1514 2.05194C10.2267 2.05241 10.3004 2.07305 10.3649 2.11175C10.4294 2.15045 10.4823 2.20576 10.5181 2.27191L12.3647 5.53859C12.4009 5.60387 12.4199 5.67729 12.4199 5.75193C12.4199 5.82657 12.4009 5.89998 12.3647 5.96526L10.4581 9.19858C10.4154 9.25476 10.3598 9.29984 10.2959 9.33001C10.2321 9.36018 10.162 9.37456 10.0914 9.37192ZM6.36475 2.19858C6.32381 2.19928 6.2838 2.21072 6.2487 2.23179C6.21359 2.25285 6.18463 2.28279 6.16475 2.31858L4.2581 5.53191C4.2382 5.56637 4.22774 5.60545 4.22774 5.64524C4.22774 5.68503 4.2382 5.72414 4.2581 5.7586L6.10478 9.02524C6.12442 9.05927 6.15255 9.08761 6.18644 9.10747C6.22034 9.12734 6.25881 9.13805 6.2981 9.13856L10.0581 9.17193C10.0977 9.17283 10.1367 9.16269 10.1709 9.14267C10.205 9.12266 10.2329 9.09353 10.2514 9.05857L12.1581 5.82525C12.178 5.79079 12.1885 5.75172 12.1885 5.71193C12.1885 5.67214 12.178 5.63302 12.1581 5.59857L10.3114 2.33192C10.2926 2.29002 10.2615 2.25482 10.2222 2.23101C10.1829 2.2072 10.1373 2.19589 10.0914 2.19858H6.33809H6.36475ZM9.69808 8.7719H6.65145C6.57652 8.77007 6.50335 8.74886 6.43909 8.7103C6.37482 8.67174 6.32162 8.61718 6.28475 8.55193L4.78475 5.88527C4.7473 5.82041 4.72762 5.74682 4.72762 5.67193C4.72762 5.59703 4.7473 5.52345 4.78475 5.45859L6.33142 2.83192C6.36895 2.76826 6.42264 2.71562 6.48702 2.67934C6.5514 2.64305 6.62418 2.6244 6.69808 2.62526H9.74475C9.81944 2.62437 9.893 2.64373 9.95756 2.68129C10.0221 2.71885 10.0753 2.77323 10.1115 2.8386L11.6115 5.50526C11.6489 5.57012 11.6686 5.64371 11.6686 5.7186C11.6686 5.7935 11.6489 5.86704 11.6115 5.9319L10.0914 8.54526C10.052 8.61222 9.99535 8.66731 9.92733 8.70485C9.8593 8.74238 9.78241 8.76097 9.70475 8.7586L9.69808 8.7719ZM6.70475 2.81858C6.66532 2.81907 6.6266 2.82903 6.5918 2.84759C6.557 2.86615 6.52714 2.89279 6.50476 2.92527L4.97144 5.53191C4.95014 5.56588 4.93884 5.60515 4.93884 5.64524C4.93884 5.68533 4.95014 5.72463 4.97144 5.7586L6.47144 8.42526C6.48966 8.46099 6.51732 8.49103 6.55139 8.51218C6.58547 8.53333 6.62465 8.54478 6.66475 8.54526H9.71143C9.75158 8.54461 9.79095 8.53389 9.82589 8.51409C9.86083 8.49429 9.89023 8.46601 9.91142 8.4319L11.4581 5.80523C11.4781 5.77202 11.4886 5.73401 11.4886 5.69524C11.4886 5.65648 11.4781 5.61847 11.4581 5.58526L9.95809 2.91859C9.93955 2.88363 9.91167 2.8545 9.87752 2.83449C9.84338 2.81447 9.80434 2.80433 9.76477 2.80523H6.7181L6.70475 2.81858Z"/>
</g>
<path opacity="0.7" d="M12.0914 10.2519C12.0578 10.1769 12.0049 10.1121 11.9382 10.0641C11.8715 10.0162 11.7932 9.98664 11.7114 9.97858H4.69808C4.6171 9.98332 4.53895 10.01 4.47201 10.0558C4.40506 10.1017 4.35188 10.1648 4.31812 10.2386L2.45142 14.7252H3.36475L4.95809 10.8653H11.4581L13.0581 14.7586H13.9648L12.0914 10.2519Z" fill-opacity="0.7"/>
<path opacity="0.7" d="M6.37802 2.89185C6.62838 2.89185 6.83135 2.68889 6.83135 2.43852C6.83135 2.18815 6.62838 1.98518 6.37802 1.98518C6.12765 1.98518 5.92468 2.18815 5.92468 2.43852C5.92468 2.68889 6.12765 2.89185 6.37802 2.89185Z"/>
<path opacity="0.7" d="M10.0981 2.92525C10.3485 2.92525 10.5514 2.72229 10.5514 2.47192C10.5514 2.22155 10.3485 2.01859 10.0981 2.01859C9.84774 2.01859 9.64478 2.22155 9.64478 2.47192C9.64478 2.72229 9.84774 2.92525 10.0981 2.92525Z"/>
<path opacity="0.7" d="M11.9382 6.17188C12.1886 6.17188 12.3915 5.96892 12.3915 5.71855C12.3915 5.46818 12.1886 5.26521 11.9382 5.26521C11.6878 5.26521 11.4849 5.46818 11.4849 5.71855C11.4849 5.96892 11.6878 6.17188 11.9382 6.17188Z"/>
<path opacity="0.7" d="M11.6913 10.8984C11.9454 10.8984 12.1513 10.6925 12.1513 10.4384C12.1513 10.1844 11.9454 9.97844 11.6913 9.97844C11.4373 9.97844 11.2313 10.1844 11.2313 10.4384C11.2313 10.6925 11.4373 10.8984 11.6913 10.8984Z"/>
<path opacity="0.7" d="M4.73148 10.8984C4.98554 10.8984 5.19148 10.6925 5.19148 10.4384C5.19148 10.1844 4.98554 9.97844 4.73148 9.97844C4.47743 9.97844 4.27148 10.1844 4.27148 10.4384C4.27148 10.6925 4.47743 10.8984 4.73148 10.8984Z"/>
<path opacity="0.7" d="M10.0581 9.37177C10.3084 9.37177 10.5114 9.16881 10.5114 8.91844C10.5114 8.66807 10.3084 8.4651 10.0581 8.4651C9.8077 8.4651 9.60474 8.66807 9.60474 8.91844C9.60474 9.16881 9.8077 9.37177 10.0581 9.37177Z"/>
<path opacity="0.7" d="M6.31137 9.33854C6.56173 9.33854 6.7647 9.13557 6.7647 8.8852C6.7647 8.63483 6.56173 8.43187 6.31137 8.43187C6.061 8.43187 5.85803 8.63483 5.85803 8.8852C5.85803 9.13557 6.061 9.33854 6.31137 9.33854Z"/>
<path opacity="0.7" d="M4.48483 6.10524C4.7352 6.10524 4.93816 5.90228 4.93816 5.65191C4.93816 5.40154 4.7352 5.19858 4.48483 5.19858C4.23446 5.19858 4.03149 5.40154 4.03149 5.65191C4.03149 5.90228 4.23446 6.10524 4.48483 6.10524Z"/>
</g>
<defs>
<clipPath id="clip0_2_3670">
<rect width="16" height="13.5667" transform="translate(0.211426 1.98518)"/>
</clipPath>
</defs>
</svg>
