<svg width="17" height="17" viewBox="0 0 17 17" xmlns="http://www.w3.org/2000/svg">
<g clip-path="url(#clip0_2_3648)">
<g opacity="0.7">
<path opacity="0.7" d="M16.7329 13.5519H0.73291V14.3719H16.7329V13.5519Z" />
</g>
<g opacity="0.7">
<path opacity="0.7" d="M11.4863 1.49187H10.7396V3.21187H11.4863V1.49187Z" />
</g>
<g opacity="0.7">
<path opacity="0.7" d="M6.71957 1.49187H5.9729V3.21187H6.71957V1.49187Z" />
</g>
<g opacity="0.7">
<path opacity="0.7" d="M9.10629 1.49187H8.35962V3.21187H9.10629V1.49187Z" />
</g>
<g opacity="0.7">
<path opacity="0.7" d="M14.2663 13.5986L13.3863 2.72525H4.05298L3.18632 13.5986H2.453L3.31966 2.35191C3.32813 2.24701 3.3763 2.14929 3.45435 2.07868C3.53239 2.00807 3.63444 1.96987 3.73966 1.97191H13.673C13.7785 1.97128 13.8805 2.00976 13.9593 2.07994C14.0381 2.15012 14.0881 2.24703 14.0997 2.35191L15.0197 13.5919L14.2663 13.5986Z" />
</g>
<path opacity="0.7" d="M3.73961 2.84521C3.97893 2.84521 4.17294 2.6512 4.17294 2.41188C4.17294 2.17256 3.97893 1.97855 3.73961 1.97855C3.50028 1.97855 3.30627 2.17256 3.30627 2.41188C3.30627 2.6512 3.50028 2.84521 3.73961 2.84521Z" />
<path opacity="0.7" d="M13.6662 2.84521C13.9056 2.84521 14.0996 2.6512 14.0996 2.41188C14.0996 2.17256 13.9056 1.97855 13.6662 1.97855C13.4269 1.97855 13.2329 2.17256 13.2329 2.41188C13.2329 2.6512 13.4269 2.84521 13.6662 2.84521Z" />
<g opacity="0.7">
<path opacity="0.7" d="M7.74626 9.73856L5.9729 7.96521L6.49955 7.43856L8.06624 9.00521L10.9662 6.10522L11.4996 6.63188L8.3929 9.73856C8.35071 9.7815 8.30039 9.81559 8.24487 9.83887C8.18936 9.86214 8.12978 9.87414 8.06958 9.87414C8.00938 9.87414 7.9498 9.86214 7.89429 9.83887C7.83877 9.81559 7.78845 9.7815 7.74626 9.73856Z" />
</g>
<path opacity="0.7" d="M8.06622 9.88519C8.30923 9.88519 8.50622 9.68819 8.50622 9.44519C8.50622 9.20218 8.30923 9.00519 8.06622 9.00519C7.82322 9.00519 7.62622 9.20218 7.62622 9.44519C7.62622 9.68819 7.82322 9.88519 8.06622 9.88519Z" />
</g>
<defs>
<clipPath id="clip0_2_3648">
<rect width="16" height="12.88" transform="translate(0.73291 1.49187)"/>
</clipPath>
</defs>
</svg>
