<svg width="25" height="25" viewBox="0 0 25 25" xmlns="http://www.w3.org/2000/svg">
<rect x="0.0859375" y="0.126465" width="24" height="24" rx="12" />
<path opacity="0.7" d="M12.0859 0.626465C18.4372 0.626465 23.5859 5.77519 23.5859 12.1265C23.5859 18.4777 18.4372 23.6265 12.0859 23.6265C5.73466 23.6265 0.585938 18.4777 0.585938 12.1265C0.585938 5.77519 5.73466 0.626465 12.0859 0.626465Z" fill="#C6C6C6" stroke="white"/>
<g opacity="0.7">
<path opacity="0.7" d="M11.996 19.7565C11.8141 19.7529 11.6384 19.6896 11.496 19.5764L4.76601 14.0164C4.67458 13.939 4.60127 13.8424 4.55117 13.7336C4.50106 13.6247 4.47534 13.5062 4.47597 13.3864L3.83596 9.17645C3.82883 9.07902 3.84107 8.98111 3.87197 8.88843C3.90286 8.79575 3.95185 8.71008 4.01601 8.63641L7.70595 5.44641C7.78055 5.36929 7.86999 5.30799 7.96877 5.26611C8.06755 5.22423 8.17373 5.20264 8.28102 5.20264C8.38832 5.20264 8.4945 5.22423 8.59328 5.26611C8.69206 5.30799 8.78138 5.36929 8.85598 5.44641L11.996 8.22644L15.166 5.42645C15.3139 5.28456 15.511 5.20564 15.716 5.20642C15.8178 5.20383 15.9191 5.222 16.0137 5.25983C16.1082 5.29765 16.1941 5.35436 16.266 5.42645L20.116 8.56647C20.1848 8.63045 20.2398 8.70779 20.2776 8.79376C20.3154 8.87974 20.3352 8.97254 20.336 9.06647L19.706 13.3765C19.7037 13.477 19.6794 13.5757 19.6344 13.6656C19.5895 13.7556 19.525 13.8344 19.4459 13.8964L12.4459 19.5764C12.3172 19.6799 12.1606 19.7426 11.996 19.7565ZM11.996 18.0565L18.246 12.9464L18.8159 9.41644L15.716 6.93646L12.546 9.71643C12.4753 9.79081 12.3899 9.84969 12.2952 9.88928C12.2005 9.92888 12.0986 9.94831 11.996 9.94641C11.8873 9.94687 11.7797 9.92491 11.68 9.8819C11.5802 9.83888 11.4903 9.77573 11.416 9.69641L8.28603 6.95642L5.34597 9.43646L5.93593 13.0464L11.996 18.0565Z" />
</g>
<path opacity="0.7" d="M8.26555 6.83629C8.16645 6.84006 8.06762 6.82304 7.97551 6.7863C7.87636 6.74756 7.7858 6.68968 7.70903 6.61595C7.63225 6.54222 7.57083 6.45405 7.52812 6.35655C7.4854 6.25905 7.46228 6.15414 7.46013 6.04771C7.45798 5.94129 7.47681 5.83546 7.51555 5.73631C7.55429 5.63716 7.6121 5.54661 7.68583 5.46983C7.75957 5.39306 7.84773 5.33158 7.94523 5.28886C8.04274 5.24615 8.14777 5.22302 8.25419 5.22087C8.36062 5.21872 8.46633 5.23755 8.56547 5.27629C8.66378 5.31222 8.75367 5.36808 8.82939 5.44035C8.9051 5.51262 8.96507 5.59974 9.00554 5.69627C9.06339 5.81942 9.08892 5.95531 9.07963 6.09105C9.07035 6.22679 9.02651 6.35791 8.95244 6.47203C8.87836 6.58615 8.77637 6.67953 8.65617 6.74327C8.53597 6.80701 8.40158 6.83899 8.26555 6.83629Z" />
<path opacity="0.7" d="M4.59618 9.90625C4.50346 9.92137 4.40887 9.92137 4.31615 9.90625C4.15348 9.8381 4.01922 9.71618 3.93566 9.56085C3.8521 9.40553 3.82438 9.22622 3.85717 9.05292C3.88996 8.87962 3.98119 8.72283 4.11571 8.60876C4.25024 8.4947 4.41985 8.43028 4.59618 8.42627C4.68941 8.42698 4.78145 8.44742 4.8662 8.48627C4.9618 8.52163 5.04931 8.57582 5.12353 8.64569C5.19774 8.71556 5.25716 8.79971 5.29821 8.89301C5.33926 8.9863 5.36116 9.08686 5.36254 9.18878C5.36392 9.2907 5.34478 9.39189 5.30627 9.48627C5.23994 9.61641 5.13792 9.72501 5.0122 9.79938C4.88648 9.87375 4.74218 9.91079 4.59618 9.90625Z" />
<path opacity="0.7" d="M11.996 19.7466C11.9033 19.7617 11.8087 19.7617 11.716 19.7466C11.5183 19.6686 11.3575 19.5184 11.2661 19.3265C11.213 19.205 11.191 19.0723 11.202 18.9402C11.213 18.8081 11.2567 18.6808 11.329 18.5697C11.4014 18.4586 11.5002 18.3673 11.6166 18.304C11.7331 18.2406 11.8635 18.2071 11.996 18.2065C12.0947 18.2077 12.1927 18.2246 12.2861 18.2566C12.3835 18.2941 12.4725 18.3505 12.548 18.4225C12.6236 18.4946 12.6841 18.581 12.726 18.6766C12.7818 18.7979 12.806 18.9314 12.7962 19.0645C12.7864 19.1977 12.743 19.3262 12.6701 19.438C12.5972 19.5499 12.4971 19.6415 12.3792 19.7042C12.2613 19.7669 12.1295 19.7986 11.996 19.7966V19.7466Z" />
<path opacity="0.7" d="M11.9961 9.94655C11.8965 9.94501 11.7981 9.92466 11.7061 9.88656C11.6078 9.85062 11.518 9.79477 11.4423 9.72249C11.3666 9.65022 11.3066 9.56311 11.2661 9.46657C11.186 9.26767 11.186 9.04549 11.2661 8.84658C11.3271 8.69722 11.4308 8.56919 11.5642 8.47848C11.6976 8.38776 11.8548 8.33837 12.0161 8.33657C12.1122 8.3214 12.2101 8.3214 12.3062 8.33657C12.5068 8.41519 12.6685 8.56966 12.7561 8.76656C12.8367 8.96191 12.8367 9.18125 12.7561 9.37661C12.703 9.53798 12.6016 9.67916 12.4657 9.78109C12.3298 9.88302 12.1659 9.94074 11.9961 9.94655Z" />
<path opacity="0.7" d="M5.27149 14.2223C5.17191 14.2207 5.07347 14.2004 4.98145 14.1623C4.88314 14.1263 4.79337 14.0705 4.71766 13.9982C4.64194 13.9259 4.58198 13.8388 4.54151 13.7423C4.46142 13.5434 4.46142 13.3212 4.54151 13.1223C4.60249 12.9729 4.7062 12.8449 4.83961 12.7542C4.97301 12.6635 5.13019 12.6141 5.29151 12.6123C5.38758 12.5971 5.48548 12.5971 5.58155 12.6123C5.78223 12.6909 5.94384 12.8454 6.0315 13.0423C6.11206 13.2376 6.11206 13.457 6.0315 13.6523C5.97838 13.8137 5.87701 13.9549 5.7411 14.0568C5.60519 14.1587 5.44128 14.2164 5.27149 14.2223Z" />
<path opacity="0.7" d="M15.7159 6.82625C15.6168 6.83002 15.5181 6.813 15.4259 6.77627C15.2374 6.69818 15.0852 6.55182 14.9999 6.36641C14.9146 6.18101 14.9025 5.97024 14.9659 5.77627C15.0234 5.62452 15.1262 5.49416 15.2604 5.40291C15.3946 5.31167 15.5536 5.26394 15.7159 5.26626C15.8119 5.25109 15.9098 5.25109 16.0059 5.26626C16.2066 5.34488 16.3682 5.49935 16.4558 5.69625C16.5087 5.81915 16.5303 5.95323 16.5187 6.08651C16.5071 6.21978 16.4627 6.34813 16.3894 6.46004C16.3161 6.57196 16.2162 6.66396 16.0987 6.72786C15.9811 6.79177 15.8496 6.82558 15.7159 6.82625Z" />
<path opacity="0.7" d="M18.9958 14.0765C18.8631 14.073 18.733 14.0388 18.6158 13.9766C18.4387 13.8733 18.3093 13.7045 18.2558 13.5066C18.2172 13.3908 18.2071 13.2675 18.2262 13.147C18.2454 13.0265 18.2933 12.9123 18.3659 12.8143C18.4385 12.7162 18.5336 12.637 18.6432 12.5834C18.7529 12.5299 18.8738 12.5035 18.9958 12.5066C19.1299 12.5091 19.261 12.547 19.3758 12.6166C19.4646 12.6638 19.5425 12.7292 19.6045 12.8084C19.6665 12.8876 19.7112 12.979 19.7358 13.0765C19.7743 13.1923 19.7845 13.3156 19.7653 13.4362C19.7461 13.5567 19.6982 13.6708 19.6256 13.7689C19.5531 13.8669 19.4579 13.9461 19.3483 13.9997C19.2387 14.0532 19.1177 14.0796 18.9958 14.0765Z" />
<path opacity="0.7" d="M19.5757 9.86626C19.4829 9.88054 19.3885 9.88054 19.2958 9.86626C19.2027 9.8308 19.1176 9.77716 19.0455 9.70848C18.9734 9.6398 18.9157 9.55745 18.8757 9.46623C18.8005 9.27675 18.8005 9.06575 18.8757 8.87627C18.932 8.73412 19.0299 8.61223 19.1566 8.52659C19.2833 8.44096 19.4328 8.39553 19.5857 8.39622C19.6746 8.37639 19.7668 8.37639 19.8557 8.39622C20.0462 8.46751 20.2009 8.61134 20.2857 8.79625C20.3603 8.98239 20.3603 9.19012 20.2857 9.37627C20.2322 9.52109 20.1352 9.64587 20.0082 9.73356C19.8811 9.82126 19.7301 9.86759 19.5757 9.86626Z" />
</svg>
