<svg width="17" height="10" viewBox="0 0 17 10"  xmlns="http://www.w3.org/2000/svg">
<path d="M15.5189 3.93782C15.8595 4.28799 16.0509 4.76293 16.0509 5.25814C16.0509 5.75336 15.8595 6.2283 15.5189 6.57847C13.5375 8.60672 10.8543 9.74416 8.05798 9.74119C5.26169 9.73822 2.58075 8.59507 0.603478 6.56261C0.262812 6.21244 0.0714348 5.7375 0.0714349 5.24228C0.0714349 4.74707 0.262813 4.27213 0.603478 3.92196C2.58484 1.89371 5.26808 0.756274 8.06438 0.759245C10.8607 0.762215 13.5416 1.90536 15.5189 3.93782Z" fill-opacity="0.7"  />
<path d="M8.06596 8.44045C9.78351 8.44045 11.1759 7.00925 11.1759 5.24377C11.1759 3.47829 9.78351 2.04709 8.06596 2.04709C6.3484 2.04709 4.95605 3.47829 4.95605 5.24377C4.95605 7.00925 6.3484 8.44045 8.06596 8.44045Z" fill-opacity="0.7"  />
<path d="M8.066 8.76165C7.39088 8.76018 6.73131 8.55303 6.17066 8.16641C5.61001 7.77979 5.17344 7.23105 4.91608 6.58948C4.65871 5.94792 4.59212 5.24232 4.72471 4.56187C4.8573 3.88141 5.18311 3.25663 5.66101 2.76645C6.1389 2.27626 6.74742 1.94265 7.40968 1.80781C8.07194 1.67296 8.75823 1.74294 9.38183 2.00885C10.0054 2.27476 10.5384 2.72468 10.9133 3.30179C11.2882 3.87891 11.4883 4.5573 11.4883 5.25127C11.4864 6.18297 11.125 7.07582 10.4834 7.73393C9.84177 8.39204 8.97241 8.76166 8.066 8.76165ZM8.066 2.36829C7.51128 2.36829 6.96899 2.53737 6.50776 2.85415C6.04653 3.17094 5.68707 3.62121 5.47479 4.14801C5.2625 4.67481 5.20695 5.25447 5.31517 5.81372C5.4234 6.37296 5.69052 6.88666 6.08277 7.28985C6.47501 7.69304 6.97476 7.96762 7.51883 8.07886C8.06289 8.1901 8.62684 8.13302 9.13933 7.91482C9.65183 7.69661 10.0899 7.32708 10.398 6.85297C10.7062 6.37887 10.8707 5.82147 10.8707 5.25127C10.8707 4.87267 10.7982 4.49779 10.6572 4.14801C10.5163 3.79823 10.3097 3.4804 10.0492 3.21269C9.7888 2.94498 9.47962 2.73263 9.13933 2.58775C8.79905 2.44286 8.43432 2.36829 8.066 2.36829Z" fill='white' />
</svg>
