<svg width="15" height="17" viewBox="0 0 15 17" xmlns="http://www.w3.org/2000/svg">
<g clip-path="url(#clip0_2_3692)">
<g opacity="0.7">
<path opacity="0.7" d="M10.618 0.651367H3.54031C3.4501 0.651878 3.36149 0.674531 3.28252 0.717265C3.20355 0.759999 3.1368 0.821447 3.08831 0.895992L0.166812 5.29928C0.127743 5.35829 0.101582 5.42461 0.0899692 5.49403C0.0783567 5.56344 0.0815613 5.63447 0.0993583 5.70262L1.3678 10.5026C1.38301 10.5512 1.40826 10.5962 1.442 10.6348L6.65749 16.4596C6.7113 16.5189 6.77728 16.5663 6.85112 16.5987C6.92497 16.6312 7.00492 16.648 7.08585 16.648C7.16679 16.648 7.24682 16.6312 7.32066 16.5987C7.3945 16.5663 7.46049 16.5189 7.51429 16.4596L12.6083 10.8398C12.6539 10.7911 12.6864 10.732 12.7028 10.6679L14.0522 5.72243C14.0722 5.64871 14.076 5.57166 14.0632 5.49641C14.0504 5.42115 14.0213 5.34944 13.978 5.28608L11.0767 0.90261C11.0271 0.827145 10.9593 0.764781 10.8793 0.720978C10.7993 0.677174 10.7096 0.653265 10.618 0.651367ZM10.4088 1.57696L13.1076 5.64971L11.8931 10.2381L7.08248 15.5274L2.27862 10.2381L1.06421 5.64971L3.76301 1.57696H10.4088Z"/>
<path opacity="0.7" d="M7.08239 9.86787L9.41015 8.77033C9.48383 8.73748 9.54849 8.68803 9.59892 8.62598C9.64934 8.56393 9.68405 8.49104 9.70022 8.41331L10.2198 6.17198C10.2359 6.10361 10.2364 6.03262 10.2212 5.96404C10.2061 5.89546 10.1756 5.83101 10.132 5.77531L8.64098 3.95051C8.59804 3.8961 8.54279 3.85226 8.47955 3.82242C8.41631 3.79259 8.3468 3.77757 8.27662 3.7786H5.84096C5.78658 3.77807 5.73284 3.7897 5.68374 3.81262C5.63463 3.83553 5.5915 3.86913 5.55764 3.91084L4.0665 5.73564C4.01318 5.80194 3.97582 5.87917 3.95713 5.96158C3.93844 6.04399 3.93896 6.12945 3.95861 6.21165L4.48481 8.4596C4.49915 8.52153 4.52714 8.57965 4.56676 8.62989C4.60638 8.68014 4.65674 8.7213 4.71427 8.75051L7.08239 9.86787ZM8.04724 4.70423L9.25498 6.1786L8.82316 8.02321L7.08239 8.84308L5.34845 8.02321L4.91663 6.1786L6.12437 4.70423H8.04724Z"/>
</g>
<path opacity="0.7" d="M3.52686 1.63655C3.80261 1.63655 4.02614 1.4175 4.02614 1.14729C4.02614 0.877083 3.80261 0.658035 3.52686 0.658035C3.25112 0.658035 3.02759 0.877083 3.02759 1.14729C3.02759 1.4175 3.25112 1.63655 3.52686 1.63655Z"/>
<path opacity="0.7" d="M7.08933 16.658C7.40234 16.658 7.65608 16.4093 7.65608 16.1026C7.65608 15.7959 7.40234 15.5472 7.08933 15.5472C6.77632 15.5472 6.52258 15.7959 6.52258 16.1026C6.52258 16.4093 6.77632 16.658 7.08933 16.658Z"/>
<path opacity="0.7" d="M10.6449 1.63655C10.9207 1.63655 11.1442 1.4175 11.1442 1.14729C11.1442 0.877083 10.9207 0.658035 10.6449 0.658035C10.3692 0.658035 10.1456 0.877083 10.1456 1.14729C10.1456 1.4175 10.3692 1.63655 10.6449 1.63655Z"/>
<path opacity="0.7" d="M13.6001 6.04643C13.8721 6.04643 14.0926 5.83035 14.0926 5.56379C14.0926 5.29723 13.8721 5.08115 13.6001 5.08115C13.3281 5.08115 13.1075 5.29723 13.1075 5.56379C13.1075 5.83035 13.3281 6.04643 13.6001 6.04643Z"/>
<path opacity="0.7" d="M9.73426 6.56208C10.01 6.56208 10.2335 6.34304 10.2335 6.07283C10.2335 5.80262 10.01 5.58357 9.73426 5.58357C9.45852 5.58357 9.23499 5.80262 9.23499 6.07283C9.23499 6.34304 9.45852 6.56208 9.73426 6.56208Z"/>
<path opacity="0.7" d="M8.2566 4.75715C8.53234 4.75715 8.75588 4.53811 8.75588 4.2679C8.75588 3.99769 8.53234 3.77864 8.2566 3.77864C7.98086 3.77864 7.75732 3.99769 7.75732 4.2679C7.75732 4.53811 7.98086 4.75715 8.2566 4.75715Z"/>
<path opacity="0.7" d="M5.90195 4.74393C6.17397 4.74393 6.39448 4.52784 6.39448 4.26129C6.39448 3.99473 6.17397 3.77864 5.90195 3.77864C5.62994 3.77864 5.40942 3.99473 5.40942 4.26129C5.40942 4.52784 5.62994 4.74393 5.90195 4.74393Z"/>
<path opacity="0.7" d="M4.43772 6.55551C4.70974 6.55551 4.93025 6.33943 4.93025 6.07287C4.93025 5.80631 4.70974 5.59023 4.43772 5.59023C4.1657 5.59023 3.94519 5.80631 3.94519 6.07287C3.94519 6.33943 4.1657 6.55551 4.43772 6.55551Z"/>
<path opacity="0.7" d="M4.95725 8.81006C5.22927 8.81006 5.44978 8.59397 5.44978 8.32742C5.44978 8.06086 5.22927 7.84477 4.95725 7.84477C4.68523 7.84477 4.46472 8.06086 4.46472 8.32742C4.46472 8.59397 4.68523 8.81006 4.95725 8.81006Z"/>
<path opacity="0.7" d="M7.07578 9.80838C7.3478 9.80838 7.56831 9.5923 7.56831 9.32574C7.56831 9.05918 7.3478 8.84309 7.07578 8.84309C6.80376 8.84309 6.58325 9.05918 6.58325 9.32574C6.58325 9.5923 6.80376 9.80838 7.07578 9.80838Z"/>
<path opacity="0.7" d="M9.22145 8.80346C9.49719 8.80346 9.72072 8.58442 9.72072 8.31421C9.72072 8.044 9.49719 7.82495 9.22145 7.82495C8.9457 7.82495 8.72217 8.044 8.72217 8.31421C8.72217 8.58442 8.9457 8.80346 9.22145 8.80346Z"/>
<path opacity="0.7" d="M0.578468 6.05294C0.850485 6.05294 1.071 5.83685 1.071 5.57029C1.071 5.30373 0.850485 5.08765 0.578468 5.08765C0.306451 5.08765 0.0859375 5.30373 0.0859375 5.57029C0.0859375 5.83685 0.306451 6.05294 0.578468 6.05294Z"/>
<path opacity="0.7" d="M12.2576 10.9984C12.5184 10.9984 12.7299 10.7912 12.7299 10.5356C12.7299 10.28 12.5184 10.0728 12.2576 10.0728C11.9967 10.0728 11.7853 10.28 11.7853 10.5356C11.7853 10.7912 11.9967 10.9984 12.2576 10.9984Z"/>
<path opacity="0.7" d="M1.81995 10.8067C2.08078 10.8067 2.29223 10.5995 2.29223 10.3439C2.29223 10.0883 2.08078 9.88109 1.81995 9.88109C1.55911 9.88109 1.34766 10.0883 1.34766 10.3439C1.34766 10.5995 1.55911 10.8067 1.81995 10.8067Z"/>
</g>
<defs>
<clipPath id="clip0_2_3692">
<rect width="14" height="16"  transform="translate(0.0859375 0.651367)"/>
</clipPath>
</defs>
</svg>
