<svg width="25" height="25" viewBox="0 0 25 25" fill="none" xmlns="http://www.w3.org/2000/svg">
<g clip-path="url(#clip0_10_894)">
<path d="M12.6226 1.14355C18.9738 1.14355 24.1226 6.29228 24.1226 12.6436C24.1226 18.9948 18.9738 24.1436 12.6226 24.1436C6.27128 24.1436 1.12256 18.9948 1.12256 12.6436C1.12256 6.29228 6.27128 1.14355 12.6226 1.14355Z" fill="white" stroke="#FFD515"/>
<path opacity="0.7" d="M12.5326 20.2736C12.3507 20.27 12.175 20.2067 12.0326 20.0935L5.30263 14.5335C5.2112 14.4561 5.13789 14.3595 5.08779 14.2507C5.03768 14.1418 5.01196 14.0233 5.01259 13.9035L4.37258 9.69354C4.36545 9.59611 4.37769 9.4982 4.40859 9.40552C4.43948 9.31284 4.48847 9.22717 4.55263 9.1535L8.24257 5.9635C8.31717 5.88638 8.40661 5.82508 8.50539 5.7832C8.60417 5.74132 8.71035 5.71973 8.81765 5.71973C8.92494 5.71973 9.03112 5.74132 9.1299 5.7832C9.22868 5.82508 9.318 5.88638 9.3926 5.9635L12.5326 8.74353L15.7027 5.94354C15.8505 5.80165 16.0477 5.72273 16.2526 5.72351C16.3544 5.72092 16.4558 5.73909 16.5503 5.77692C16.6449 5.81474 16.7307 5.87145 16.8026 5.94354L20.6526 9.08356C20.7214 9.14754 20.7764 9.22488 20.8142 9.31085C20.8521 9.39683 20.8719 9.48963 20.8726 9.58356L20.2426 13.8936C20.2404 13.9941 20.216 14.0928 20.171 14.1827C20.1261 14.2727 20.0616 14.3514 19.9826 14.4135L12.9826 20.0935C12.8538 20.1969 12.6972 20.2597 12.5326 20.2736ZM12.5326 18.5735L18.7826 13.4635L19.3526 9.93353L16.2526 7.45355L13.0827 10.2335C13.0119 10.3079 12.9265 10.3668 12.8318 10.4064C12.7371 10.446 12.6352 10.4654 12.5326 10.4635C12.4239 10.464 12.3164 10.442 12.2166 10.399C12.1168 10.356 12.0269 10.2928 11.9527 10.2135L8.82265 7.47351L5.88259 9.95355L6.47255 13.5635L12.5326 18.5735Z" fill="#FFD515"/>
<path d="M8.80266 7.35353C8.70356 7.3573 8.60473 7.34028 8.51262 7.30354C8.41347 7.2648 8.32291 7.20693 8.24614 7.13319C8.16936 7.05946 8.10794 6.97129 8.06523 6.87379C8.02251 6.77629 7.99939 6.67138 7.99724 6.56495C7.99508 6.45853 8.01392 6.3527 8.05266 6.25355C8.0914 6.1544 8.14921 6.06385 8.22294 5.98707C8.29668 5.9103 8.38484 5.84882 8.48234 5.8061C8.57984 5.76339 8.68488 5.74026 8.7913 5.73811C8.89773 5.73596 9.00343 5.75479 9.10258 5.79353C9.20089 5.82946 9.29078 5.88532 9.3665 5.95759C9.44221 6.02987 9.50218 6.11698 9.54265 6.21351C9.6005 6.33666 9.62603 6.47255 9.61674 6.60829C9.60746 6.74403 9.56362 6.87515 9.48955 6.98927C9.41547 7.10339 9.31348 7.19677 9.19328 7.26051C9.07308 7.32425 8.93868 7.35624 8.80266 7.35353Z" fill="#FACB41"/>
<path d="M5.13232 10.4236C5.03959 10.4387 4.94501 10.4387 4.85229 10.4236C4.68961 10.3554 4.55535 10.2335 4.47179 10.0782C4.38823 9.92283 4.36052 9.74352 4.3933 9.57022C4.42609 9.39692 4.51732 9.24013 4.65185 9.12607C4.78637 9.012 4.95599 8.94759 5.13232 8.94357C5.22554 8.94428 5.31758 8.96473 5.40234 9.00357C5.49794 9.03893 5.58545 9.09312 5.65966 9.16299C5.73387 9.23287 5.79329 9.31701 5.83434 9.41031C5.87539 9.50361 5.8973 9.60416 5.89867 9.70609C5.90005 9.80801 5.88092 9.9092 5.8424 10.0036C5.77608 10.1337 5.67405 10.2423 5.54833 10.3167C5.42261 10.391 5.27831 10.4281 5.13232 10.4236Z" fill="#FACB41"/>
<path d="M5.77261 14.6836C5.67927 14.6838 5.58703 14.6633 5.50259 14.6236C5.31204 14.5523 5.15752 14.4084 5.07266 14.2235C5.02342 14.1072 5.0035 13.9805 5.0148 13.8546C5.02609 13.7288 5.06818 13.6077 5.13735 13.502C5.20653 13.3963 5.30074 13.3091 5.41152 13.2484C5.5223 13.1876 5.64627 13.155 5.77261 13.1535C5.86805 13.1547 5.96268 13.1717 6.05264 13.2036C6.14735 13.2399 6.23377 13.2948 6.30691 13.3651C6.38005 13.4354 6.43847 13.5197 6.47854 13.6129C6.51862 13.7061 6.5396 13.8064 6.54031 13.9078C6.54102 14.0093 6.52134 14.1098 6.48257 14.2036C6.4251 14.3449 6.327 14.466 6.20059 14.5515C6.07418 14.6369 5.9252 14.6829 5.77261 14.6836Z" fill="#FACB41"/>
<path d="M12.5327 20.2636C12.4399 20.2787 12.3454 20.2787 12.2526 20.2636C12.0549 20.1856 11.8941 20.0354 11.8027 19.8435C11.7497 19.722 11.7276 19.5893 11.7386 19.4572C11.7496 19.3251 11.7933 19.1978 11.8657 19.0867C11.9381 18.9756 12.0368 18.8843 12.1533 18.821C12.2697 18.7576 12.4001 18.7241 12.5327 18.7235C12.6314 18.7247 12.7293 18.7416 12.8227 18.7736C12.9202 18.811 13.0091 18.8675 13.0847 18.9395C13.1602 19.0116 13.2207 19.098 13.2626 19.1936C13.3184 19.3149 13.3426 19.4484 13.3328 19.5815C13.3231 19.7147 13.2796 19.8432 13.2067 19.955C13.1338 20.0669 13.0337 20.1585 12.9158 20.2212C12.798 20.2839 12.6662 20.3156 12.5327 20.3136V20.2636Z" fill="#FACB41"/>
<path d="M12.5327 10.4636C12.4331 10.462 12.3347 10.4417 12.2427 10.4036C12.1444 10.3676 12.0546 10.3118 11.9789 10.2395C11.9032 10.1672 11.8432 10.0801 11.8027 9.98357C11.7227 9.78466 11.7227 9.56248 11.8027 9.36358C11.8637 9.21422 11.9674 9.08619 12.1008 8.99547C12.2342 8.90476 12.3914 8.85537 12.5527 8.85357C12.6488 8.8384 12.7467 8.8384 12.8428 8.85357C13.0435 8.93219 13.2051 9.08666 13.2927 9.28356C13.3733 9.47891 13.3733 9.69825 13.2927 9.89361C13.2396 10.055 13.1382 10.1962 13.0023 10.2981C12.8664 10.4 12.7025 10.4577 12.5327 10.4636Z" fill="#FACB41"/>
<path d="M16.2525 7.34356C16.1534 7.34733 16.0547 7.33031 15.9626 7.29357C15.774 7.21549 15.6218 7.06912 15.5365 6.88372C15.4512 6.69832 15.4391 6.48755 15.5025 6.29357C15.56 6.14182 15.6628 6.01147 15.797 5.92022C15.9312 5.82897 16.0902 5.78125 16.2525 5.78356C16.3485 5.7684 16.4464 5.7684 16.5425 5.78356C16.7432 5.86218 16.9048 6.01665 16.9925 6.21355C17.0453 6.33645 17.0669 6.47054 17.0553 6.60381C17.0437 6.73709 16.9994 6.86543 16.9261 6.97735C16.8528 7.08926 16.7528 7.18126 16.6353 7.24517C16.5178 7.30908 16.3863 7.34288 16.2525 7.34356Z" fill="#FACB41"/>
<path d="M19.5324 14.5935C19.3997 14.59 19.2696 14.5558 19.1524 14.4936C18.9753 14.3903 18.846 14.2215 18.7924 14.0236C18.7538 13.9078 18.7437 13.7845 18.7629 13.664C18.782 13.5435 18.8299 13.4293 18.9025 13.3313C18.9751 13.2332 19.0702 13.154 19.1798 13.1004C19.2895 13.0469 19.4104 13.0205 19.5324 13.0236C19.6665 13.0261 19.7977 13.064 19.9124 13.1336C20.0012 13.1808 20.0791 13.2462 20.1411 13.3254C20.2032 13.4046 20.2478 13.496 20.2724 13.5935C20.3109 13.7093 20.3211 13.8326 20.3019 13.9531C20.2827 14.0737 20.2348 14.1878 20.1623 14.2859C20.0897 14.3839 19.9946 14.4631 19.8849 14.5167C19.7753 14.5702 19.6544 14.5966 19.5324 14.5935Z" fill="#FACB41"/>
<path d="M20.1123 10.3836C20.0195 10.3978 19.9252 10.3978 19.8324 10.3836C19.7393 10.3481 19.6542 10.2945 19.5821 10.2258C19.51 10.1571 19.4523 10.0748 19.4123 9.98353C19.3372 9.79405 19.3372 9.58305 19.4123 9.39357C19.4687 9.25143 19.5666 9.12953 19.6932 9.0439C19.8199 8.95826 19.9694 8.91283 20.1223 8.91353C20.2112 8.89369 20.3034 8.89369 20.3923 8.91353C20.5829 8.98482 20.7375 9.12865 20.8224 9.31355C20.8969 9.4997 20.8969 9.70742 20.8224 9.89357C20.7689 10.0384 20.6719 10.1632 20.5448 10.2509C20.4177 10.3386 20.2667 10.3849 20.1123 10.3836Z" fill="#FACB41"/>
</g>
<defs>
<clipPath id="clip0_10_894">
<rect width="24" height="24" fill="white" transform="translate(0.622559 0.643555)"/>
</clipPath>
</defs>
</svg>
