<svg width="24" height="24" viewBox="0 0 24 24" fill="none" xmlns="http://www.w3.org/2000/svg">
<g clip-path="url(#clip0_2_4325)">
<g opacity="0.7">
<path opacity="0.7" d="M21.4301 20.43H2.57007V21.66H21.4301V20.43Z" fill="#808184"/>
</g>
<g opacity="0.7">
<path opacity="0.7" d="M16.13 2.34H15.01V4.92H16.13V2.34Z" fill="#808184"/>
</g>
<g opacity="0.7">
<path opacity="0.7" d="M8.97998 2.34H7.85999V4.92H8.97998V2.34Z" fill="#808184"/>
</g>
<g opacity="0.7">
<path opacity="0.7" d="M12.5599 2.34H11.4399V4.92H12.5599V2.34Z" fill="#808184"/>
</g>
<g opacity="0.7">
<path opacity="0.7" d="M20.3 20.5L18.98 4.18999H4.98004L3.68005 20.5H2.58008L3.88007 3.62999C3.89277 3.47263 3.96502 3.32606 4.08209 3.22014C4.19916 3.11422 4.35223 3.05693 4.51007 3.05998H19.41C19.5683 3.05903 19.7213 3.11676 19.8395 3.22203C19.9577 3.3273 20.0327 3.47266 20.05 3.62999L21.4301 20.49L20.3 20.5Z" fill="#808184"/>
</g>
<path opacity="0.7" d="M4.50999 4.37C4.86897 4.37 5.15999 4.07898 5.15999 3.72C5.15999 3.36101 4.86897 3.07 4.50999 3.07C4.151 3.07 3.85999 3.36101 3.85999 3.72C3.85999 4.07898 4.151 4.37 4.50999 4.37Z" fill="#808184"/>
<path opacity="0.7" d="M19.4 4.37C19.759 4.37 20.05 4.07898 20.05 3.72C20.05 3.36101 19.759 3.07 19.4 3.07C19.041 3.07 18.75 3.36101 18.75 3.72C18.75 4.07898 19.041 4.37 19.4 4.37Z" fill="#808184"/>
<g opacity="0.7">
<path opacity="0.7" d="M10.52 14.71L7.85999 12.05L8.64996 11.26L11 13.61L15.35 9.26L16.15 10.05L11.49 14.71C11.4267 14.7744 11.3512 14.8255 11.2679 14.8605C11.1847 14.8954 11.0953 14.9134 11.005 14.9134C10.9147 14.9134 10.8253 14.8954 10.7421 14.8605C10.6588 14.8255 10.5833 14.7744 10.52 14.71Z" fill="#808184"/>
</g>
<path opacity="0.7" d="M11 14.93C11.3645 14.93 11.66 14.6345 11.66 14.27C11.66 13.9055 11.3645 13.61 11 13.61C10.6355 13.61 10.34 13.9055 10.34 14.27C10.34 14.6345 10.6355 14.93 11 14.93Z" fill="#808184"/>
</g>
<defs>
<clipPath id="clip0_2_4325">
<rect width="24" height="19.32" fill="white" transform="translate(0 2.34)"/>
</clipPath>
</defs>
</svg>
