<svg width="24" height="24" viewBox="0 0 24 24" fill="none" xmlns="http://www.w3.org/2000/svg">
<g clip-path="url(#clip0_19_286)">
<path opacity="0.7" d="M3.92022 18.405C3.80247 18.3511 3.69877 18.2707 3.61724 18.1701C3.53571 18.0695 3.47845 17.9513 3.45012 17.825L1.58013 9.61501C1.54086 9.45431 1.53942 9.28669 1.57586 9.12533C1.61229 8.96396 1.6857 8.81325 1.79021 8.68502L7.06011 2.07497C7.1341 1.9814 7.22836 1.9058 7.33574 1.85384C7.44312 1.80188 7.56082 1.77494 7.6801 1.77498H16.3301C16.4363 1.77534 16.541 1.79986 16.6363 1.84664C16.7316 1.89342 16.815 1.96124 16.8802 2.045L22.2902 8.82497C22.3594 8.91071 22.408 9.01124 22.4323 9.11873C22.4566 9.22623 22.4558 9.3378 22.4301 9.44497L20.5302 17.775C20.4955 17.9171 20.43 18.0498 20.3384 18.1638C20.2469 18.2779 20.1314 18.3705 20.0002 18.435L12.2802 22.155C12.1882 22.1993 12.0873 22.2223 11.9852 22.2223C11.883 22.2223 11.7821 22.1993 11.6901 22.155L3.92022 18.405ZM3.0302 9.40499L4.8001 17.175L11.9802 20.635L19.1602 17.175L20.9401 9.40499L15.9401 3.17501H7.94011L3.0302 9.40499Z" fill="#808184"/>
<path opacity="0.7" d="M2.30005 10.065C2.71426 10.065 3.05005 9.72921 3.05005 9.31499C3.05005 8.90078 2.71426 8.56499 2.30005 8.56499C1.88584 8.56499 1.55005 8.90078 1.55005 9.31499C1.55005 9.72921 1.88584 10.065 2.30005 10.065Z" fill="#808184"/>
<path opacity="0.7" d="M7.67003 3.29499C8.08977 3.29499 8.43003 2.95473 8.43003 2.53499C8.43003 2.11526 8.08977 1.77499 7.67003 1.77499C7.2503 1.77499 6.91003 2.11526 6.91003 2.53499C6.91003 2.95473 7.2503 3.29499 7.67003 3.29499Z" fill="#808184"/>
<path opacity="0.7" d="M16.28 3.29499C16.6998 3.29499 17.04 2.95473 17.04 2.53499C17.04 2.11526 16.6998 1.77499 16.28 1.77499C15.8603 1.77499 15.52 2.11526 15.52 2.53499C15.52 2.95473 15.8603 3.29499 16.28 3.29499Z" fill="#808184"/>
<path opacity="0.7" d="M4.21007 18.465C4.62981 18.465 4.97007 18.1247 4.97007 17.705C4.97007 17.2853 4.62981 16.945 4.21007 16.945C3.79034 16.945 3.45007 17.2853 3.45007 17.705C3.45007 18.1247 3.79034 18.465 4.21007 18.465Z" fill="#808184"/>
<path opacity="0.7" d="M11.9801 22.205C12.3998 22.205 12.7401 21.8647 12.7401 21.445C12.7401 21.0253 12.3998 20.685 11.9801 20.685C11.5604 20.685 11.2201 21.0253 11.2201 21.445C11.2201 21.8647 11.5604 22.205 11.9801 22.205Z" fill="#808184"/>
<path opacity="0.7" d="M19.77 18.425C20.1897 18.425 20.53 18.0847 20.53 17.665C20.53 17.2453 20.1897 16.905 19.77 16.905C19.3503 16.905 19.01 17.2453 19.01 17.665C19.01 18.0847 19.3503 18.425 19.77 18.425Z" fill="#808184"/>
<path opacity="0.7" d="M21.69 10.065C22.1153 10.065 22.46 9.72025 22.46 9.29499C22.46 8.86973 22.1153 8.52499 21.69 8.52499C21.2648 8.52499 20.92 8.86973 20.92 9.29499C20.92 9.72025 21.2648 10.065 21.69 10.065Z" fill="#808184"/>
<path opacity="0.7" d="M11.72 12.765C12.1011 12.765 12.41 12.4561 12.41 12.075C12.41 11.6939 12.1011 11.385 11.72 11.385C11.339 11.385 11.03 11.6939 11.03 12.075C11.03 12.4561 11.339 12.765 11.72 12.765Z" fill="#808184"/>
<g opacity="0.7">
<path opacity="0.7" d="M14.8601 15.905C14.6814 15.9072 14.509 15.839 14.3802 15.715L11.2401 12.565C11.176 12.5027 11.1252 12.4281 11.0909 12.3455C11.0565 12.263 11.0393 12.1744 11.0402 12.085V6.08498C11.0603 5.92011 11.14 5.76833 11.2643 5.65822C11.3887 5.54812 11.549 5.48733 11.7151 5.48733C11.8812 5.48733 12.0416 5.54812 12.1659 5.65822C12.2903 5.76833 12.3701 5.92011 12.3902 6.08498V11.865L15.3902 14.805C15.4579 14.8695 15.5119 14.947 15.5487 15.033C15.5856 15.1189 15.6046 15.2115 15.6046 15.305C15.6046 15.3985 15.5856 15.4911 15.5487 15.577C15.5119 15.663 15.4579 15.7406 15.3902 15.805C15.3128 15.8559 15.2261 15.8909 15.1352 15.9081C15.0442 15.9253 14.9507 15.9242 14.8601 15.905V15.905Z" fill="#808184"/>
</g>
</g>
<defs>
<clipPath id="clip0_19_286">
<rect width="20.9" height="20.45" fill="white" transform="translate(1.55005 1.77499)"/>
</clipPath>
</defs>
</svg>
