<svg width="24" height="24" viewBox="0 0 24 24" fill="none" xmlns="http://www.w3.org/2000/svg">
<g clip-path="url(#clip0_2_4262)">
<g opacity="0.7">
<path opacity="0.7" d="M17.4382 7.62939e-06H6.82175C6.68644 0.000773302 6.55352 0.0347533 6.43507 0.0988543C6.31661 0.162955 6.21649 0.255128 6.14376 0.366945L1.76151 6.97188C1.70291 7.06039 1.66366 7.15988 1.64625 7.264C1.62883 7.36812 1.63363 7.47466 1.66033 7.57688L3.56298 14.7768C3.5858 14.8497 3.62368 14.9173 3.6743 14.9752L11.4975 23.7124C11.5782 23.8013 11.6772 23.8724 11.788 23.9211C11.8987 23.9698 12.0187 23.995 12.1401 23.995C12.2615 23.995 12.3815 23.9698 12.4923 23.9211C12.603 23.8724 12.702 23.8013 12.7827 23.7124L20.4237 15.2826C20.4922 15.2096 20.5409 15.1209 20.5654 15.0248L22.5895 7.6066C22.6196 7.49603 22.6253 7.38045 22.6061 7.26757C22.5869 7.15468 22.5433 7.04712 22.4782 6.95208L18.1264 0.376872C18.0519 0.263675 17.9502 0.170129 17.8302 0.104423C17.7103 0.0387174 17.5757 0.00285458 17.4382 7.62939e-06ZM17.1245 1.3884L21.1726 7.49753L19.3509 14.3802L12.135 22.3141L4.92922 14.3802L3.10761 7.49753L7.15581 1.3884H17.1245Z" fill="#808184"/>
<path opacity="0.7" d="M12.1349 13.8248L15.6265 12.1785C15.737 12.1292 15.834 12.0551 15.9097 11.962C15.9853 11.8689 16.0374 11.7596 16.0616 11.643L16.8409 8.28099C16.8651 8.17844 16.8659 8.07195 16.8431 7.96908C16.8204 7.86621 16.7747 7.76952 16.7093 7.68597L14.4728 4.94877C14.4083 4.86717 14.3255 4.8014 14.2306 4.75665C14.1358 4.71189 14.0315 4.68937 13.9262 4.69091H10.2727C10.1912 4.69012 10.1106 4.70757 10.0369 4.74194C9.96324 4.77631 9.89855 4.82671 9.84775 4.88927L7.61104 7.62647C7.53106 7.72593 7.47502 7.84177 7.44698 7.96538C7.41895 8.089 7.41973 8.2172 7.44921 8.34049L8.23851 11.7124C8.26001 11.8053 8.302 11.8925 8.36143 11.9679C8.42086 12.0432 8.49639 12.105 8.58269 12.1488L12.1349 13.8248ZM13.5822 6.07937L15.3938 8.29092L14.746 11.0578L12.1349 12.2876L9.53396 11.0578L8.88623 8.29092L10.6978 6.07937H13.5822Z" fill="#808184"/>
</g>
<path opacity="0.7" d="M6.80141 1.47769C7.21502 1.47769 7.55032 1.14912 7.55032 0.743803C7.55032 0.338489 7.21502 0.00991821 6.80141 0.00991821C6.38779 0.00991821 6.05249 0.338489 6.05249 0.743803C6.05249 1.14912 6.38779 1.47769 6.80141 1.47769Z" fill="#808184"/>
<path opacity="0.7" d="M12.145 24.0099C12.6146 24.0099 12.9952 23.6369 12.9952 23.1769C12.9952 22.7168 12.6146 22.3438 12.145 22.3438C11.6755 22.3438 11.2949 22.7168 11.2949 23.1769C11.2949 23.6369 11.6755 24.0099 12.145 24.0099Z" fill="#808184"/>
<path opacity="0.7" d="M17.4785 1.47769C17.8921 1.47769 18.2274 1.14912 18.2274 0.743803C18.2274 0.338489 17.8921 0.00991821 17.4785 0.00991821C17.0649 0.00991821 16.7296 0.338489 16.7296 0.743803C16.7296 1.14912 17.0649 1.47769 17.4785 1.47769Z" fill="#808184"/>
<path opacity="0.7" d="M21.9113 8.09256C22.3193 8.09256 22.6501 7.76843 22.6501 7.36859C22.6501 6.96876 22.3193 6.64463 21.9113 6.64463C21.5033 6.64463 21.1725 6.96876 21.1725 7.36859C21.1725 7.76843 21.5033 8.09256 21.9113 8.09256Z" fill="#808184"/>
<path opacity="0.7" d="M16.1123 8.86611C16.5259 8.86611 16.8612 8.53754 16.8612 8.13223C16.8612 7.72692 16.5259 7.39835 16.1123 7.39835C15.6987 7.39835 15.3634 7.72692 15.3634 8.13223C15.3634 8.53754 15.6987 8.86611 16.1123 8.86611Z" fill="#808184"/>
<path opacity="0.7" d="M13.8959 6.15868C14.3095 6.15868 14.6448 5.83011 14.6448 5.42479C14.6448 5.01948 14.3095 4.69091 13.8959 4.69091C13.4823 4.69091 13.147 5.01948 13.147 5.42479C13.147 5.83011 13.4823 6.15868 13.8959 6.15868Z" fill="#808184"/>
<path opacity="0.7" d="M10.3639 6.13884C10.7719 6.13884 11.1027 5.81471 11.1027 5.41488C11.1027 5.01504 10.7719 4.69091 10.3639 4.69091C9.95589 4.69091 9.62512 5.01504 9.62512 5.41488C9.62512 5.81471 9.95589 6.13884 10.3639 6.13884Z" fill="#808184"/>
<path opacity="0.7" d="M8.16775 8.8562C8.57578 8.8562 8.90655 8.53207 8.90655 8.13223C8.90655 7.7324 8.57578 7.40826 8.16775 7.40826C7.75972 7.40826 7.42896 7.7324 7.42896 8.13223C7.42896 8.53207 7.75972 8.8562 8.16775 8.8562Z" fill="#808184"/>
<path opacity="0.7" d="M8.94705 12.238C9.35507 12.238 9.68584 11.9139 9.68584 11.514C9.68584 11.1142 9.35507 10.7901 8.94705 10.7901C8.53902 10.7901 8.20825 11.1142 8.20825 11.514C8.20825 11.9139 8.53902 12.238 8.94705 12.238Z" fill="#808184"/>
<path opacity="0.7" d="M12.1248 13.7355C12.5328 13.7355 12.8636 13.4114 12.8636 13.0116C12.8636 12.6117 12.5328 12.2876 12.1248 12.2876C11.7168 12.2876 11.386 12.6117 11.386 13.0116C11.386 13.4114 11.7168 13.7355 12.1248 13.7355Z" fill="#808184"/>
<path opacity="0.7" d="M15.3432 12.2281C15.7568 12.2281 16.0921 11.8995 16.0921 11.4942C16.0921 11.0889 15.7568 10.7603 15.3432 10.7603C14.9295 10.7603 14.5942 11.0889 14.5942 11.4942C14.5942 11.8995 14.9295 12.2281 15.3432 12.2281Z" fill="#808184"/>
<path opacity="0.7" d="M2.37881 8.10248C2.78684 8.10248 3.11761 7.77835 3.11761 7.37851C3.11761 6.97868 2.78684 6.65454 2.37881 6.65454C1.97078 6.65454 1.64001 6.97868 1.64001 7.37851C1.64001 7.77835 1.97078 8.10248 2.37881 8.10248Z" fill="#808184"/>
<path opacity="0.7" d="M19.8974 15.5207C20.2887 15.5207 20.6058 15.2099 20.6058 14.8264C20.6058 14.443 20.2887 14.1322 19.8974 14.1322C19.5061 14.1322 19.189 14.443 19.189 14.8264C19.189 15.2099 19.5061 15.5207 19.8974 15.5207Z" fill="#808184"/>
<path opacity="0.7" d="M4.24103 15.2331C4.63228 15.2331 4.94946 14.9222 4.94946 14.5388C4.94946 14.1554 4.63228 13.8446 4.24103 13.8446C3.84977 13.8446 3.53259 14.1554 3.53259 14.5388C3.53259 14.9222 3.84977 15.2331 4.24103 15.2331Z" fill="#808184"/>
</g>
<defs>
<clipPath id="clip0_2_4262">
<rect width="21" height="24" fill="white" transform="translate(1.64001)"/>
</clipPath>
</defs>
</svg>
