<svg width="24" height="24" viewBox="0 0 24 24" fill="none" xmlns="http://www.w3.org/2000/svg">
<g clip-path="url(#clip0_19_287)">
<g clip-path="url(#clip1_19_287)">
<g opacity="0.7">
<path d="M20.63 21.11H3.37V22.34H20.63V21.11Z" fill="#808184"/>
</g>
<g opacity="0.7">
<path opacity="0.7" d="M15.28 2.44999L18.05 7.35002C18.094 7.42416 18.1172 7.50879 18.1172 7.59501C18.1172 7.68123 18.094 7.76586 18.05 7.84001L15.19 12.69C15.1451 12.7637 15.0819 12.8246 15.0066 12.8666C14.9312 12.9087 14.8463 12.9305 14.76 12.93L9.13 12.88C9.04402 12.8798 8.95969 12.8565 8.8858 12.8125C8.81192 12.7685 8.75122 12.7055 8.71002 12.63L5.94 7.72996C5.89795 7.65515 5.87585 7.57078 5.87585 7.48497C5.87585 7.39915 5.89795 7.31478 5.94 7.23997L8.79999 2.4C8.84446 2.32296 8.90868 2.25914 8.98602 2.21519C9.06337 2.17124 9.15104 2.14877 9.23999 2.15H14.86C14.9507 2.15708 15.0377 2.18876 15.1117 2.24162C15.1857 2.29448 15.2439 2.36652 15.28 2.44999ZM16.99 7.34001L14.74 3.34001C14.6967 3.26708 14.6353 3.2066 14.5617 3.16453C14.4881 3.12246 14.4048 3.10026 14.32 3.10002H9.75C9.66461 3.09707 9.5801 3.11793 9.50592 3.16032C9.43174 3.20271 9.37083 3.26494 9.33002 3.34001L7.01001 7.27C6.96796 7.34481 6.94586 7.42918 6.94586 7.51499C6.94586 7.60081 6.96796 7.68518 7.01001 7.75999L9.26001 11.76C9.30417 11.8329 9.36554 11.8938 9.43878 11.9374C9.51202 11.981 9.59486 12.0059 9.67999 12.01H14.25C14.3363 12.0105 14.4212 11.9886 14.4966 11.9466C14.5719 11.9045 14.6351 11.8437 14.68 11.77L16.99 7.83C17.0379 7.75358 17.0634 7.66519 17.0634 7.57499C17.0634 7.48479 17.0379 7.39641 16.99 7.31999V7.34001Z" fill="#808184"/>
<path opacity="0.7" d="M14.82 13.08H9.19C9.07797 13.0813 8.96769 13.0523 8.87085 12.996C8.77401 12.9396 8.69422 12.8581 8.64001 12.76L5.87 7.85998C5.81571 7.76206 5.78723 7.65193 5.78723 7.53997C5.78723 7.42801 5.81571 7.31794 5.87 7.22002L8.72998 2.36999C8.78741 2.27253 8.86932 2.19173 8.96753 2.13561C9.06574 2.07949 9.17686 2.04998 9.28998 2.04998L14.91 2.10003C15.0229 2.10074 15.1334 2.1317 15.2302 2.18975C15.3269 2.2478 15.4063 2.33077 15.46 2.42999L18.23 7.33001C18.2843 7.42793 18.3127 7.53806 18.3127 7.65002C18.3127 7.76198 18.2843 7.8721 18.23 7.97002L15.37 12.82C15.3059 12.9043 15.2225 12.9719 15.1268 13.0171C15.031 13.0624 14.9258 13.084 14.82 13.08ZM9.22998 2.32C9.16858 2.32105 9.10857 2.33821 9.05591 2.3698C9.00325 2.4014 8.95981 2.44631 8.92999 2.49999L6.07001 7.32C6.04017 7.37169 6.02448 7.4303 6.02448 7.48998C6.02448 7.54966 6.04017 7.60834 6.07001 7.66003L8.84003 12.56C8.86949 12.611 8.91168 12.6535 8.96252 12.6833C9.01336 12.7131 9.07108 12.7292 9.13 12.73L14.77 12.78C14.8294 12.7814 14.8879 12.7662 14.9391 12.7361C14.9904 12.7061 15.0322 12.6624 15.06 12.61L17.92 7.76C17.9498 7.70832 17.9656 7.6497 17.9656 7.59002C17.9656 7.53034 17.9498 7.47166 17.92 7.41998L15.15 2.52001C15.1218 2.45716 15.075 2.40436 15.0161 2.36864C14.9572 2.33293 14.8888 2.31597 14.82 2.32H9.19H9.22998ZM14.23 12.18H9.66003C9.54765 12.1772 9.43789 12.1454 9.34149 12.0876C9.24509 12.0297 9.1653 11.9479 9.10999 11.85L6.85999 7.85003C6.80381 7.75274 6.77429 7.64236 6.77429 7.53002C6.77429 7.41768 6.80381 7.30731 6.85999 7.21001L9.17999 3.27001C9.23629 3.17452 9.31682 3.09556 9.41339 3.04113C9.50996 2.9867 9.61914 2.95873 9.72998 2.96001H14.3C14.412 2.95868 14.5224 2.98771 14.6192 3.04406C14.716 3.10041 14.7958 3.18196 14.85 3.28002L17.1 7.28002C17.1562 7.37731 17.1857 7.48769 17.1857 7.60003C17.1857 7.71237 17.1562 7.82268 17.1 7.91998L14.82 11.84C14.7609 11.9405 14.6759 12.0231 14.5739 12.0794C14.4718 12.1357 14.3565 12.1636 14.24 12.16L14.23 12.18ZM9.73999 3.24999C9.68084 3.25074 9.62276 3.26567 9.57056 3.29351C9.51836 3.32135 9.47357 3.36132 9.44 3.41003L7.14001 7.32C7.10807 7.37095 7.09113 7.42985 7.09113 7.48998C7.09113 7.55012 7.10807 7.60908 7.14001 7.66003L9.39001 11.66C9.41735 11.7136 9.45884 11.7587 9.50995 11.7904C9.56106 11.8221 9.61984 11.8393 9.67999 11.84H14.25C14.3102 11.839 14.3693 11.823 14.4217 11.7933C14.4741 11.7636 14.5182 11.7212 14.55 11.67L16.87 7.72997C16.9 7.68016 16.9158 7.62314 16.9158 7.56499C16.9158 7.50685 16.9 7.44983 16.87 7.40002L14.62 3.40002C14.5922 3.34757 14.5504 3.30388 14.4991 3.27386C14.4479 3.24383 14.3894 3.22862 14.33 3.22997H9.76001L9.73999 3.24999Z" fill="#808184"/>
</g>
<path opacity="0.7" d="M17.82 14.4C17.7695 14.2875 17.6902 14.1903 17.5901 14.1183C17.4901 14.0464 17.3727 14.0021 17.25 13.99H6.72998C6.60851 13.9971 6.49129 14.0372 6.39087 14.1059C6.29045 14.1746 6.21068 14.2694 6.16003 14.38L3.35999 21.11H4.72998L7.12 15.32H16.87L19.27 21.16H20.63L17.82 14.4Z" fill="#808184"/>
<path opacity="0.7" d="M9.24995 3.36C9.6255 3.36 9.92995 3.05555 9.92995 2.68C9.92995 2.30445 9.6255 2 9.24995 2C8.87439 2 8.56995 2.30445 8.56995 2.68C8.56995 3.05555 8.87439 3.36 9.24995 3.36Z" fill="#808184"/>
<path opacity="0.7" d="M14.83 3.41C15.2056 3.41 15.51 3.10556 15.51 2.73C15.51 2.35445 15.2056 2.05 14.83 2.05C14.4545 2.05 14.15 2.35445 14.15 2.73C14.15 3.10556 14.4545 3.41 14.83 3.41Z" fill="#808184"/>
<path opacity="0.7" d="M17.59 8.28C17.9656 8.28 18.27 7.97555 18.27 7.6C18.27 7.22444 17.9656 6.92 17.59 6.92C17.2145 6.92 16.91 7.22444 16.91 7.6C16.91 7.97555 17.2145 8.28 17.59 8.28Z" fill="#808184"/>
<path opacity="0.7" d="M17.22 15.37C17.6011 15.37 17.91 15.0611 17.91 14.68C17.91 14.2989 17.6011 13.99 17.22 13.99C16.839 13.99 16.53 14.2989 16.53 14.68C16.53 15.0611 16.839 15.37 17.22 15.37Z" fill="#808184"/>
<path opacity="0.7" d="M6.77997 15.37C7.16104 15.37 7.46997 15.0611 7.46997 14.68C7.46997 14.2989 7.16104 13.99 6.77997 13.99C6.39889 13.99 6.08997 14.2989 6.08997 14.68C6.08997 15.0611 6.39889 15.37 6.77997 15.37Z" fill="#808184"/>
<path opacity="0.7" d="M14.77 13.08C15.1455 13.08 15.45 12.7756 15.45 12.4C15.45 12.0244 15.1455 11.72 14.77 11.72C14.3944 11.72 14.09 12.0244 14.09 12.4C14.09 12.7756 14.3944 13.08 14.77 13.08Z" fill="#808184"/>
<path opacity="0.7" d="M9.14997 13.03C9.52552 13.03 9.82997 12.7256 9.82997 12.35C9.82997 11.9744 9.52552 11.67 9.14997 11.67C8.77442 11.67 8.46997 11.9744 8.46997 12.35C8.46997 12.7256 8.77442 13.03 9.14997 13.03Z" fill="#808184"/>
<path opacity="0.7" d="M6.40998 8.18C6.78553 8.18 7.08998 7.87555 7.08998 7.5C7.08998 7.12445 6.78553 6.82 6.40998 6.82C6.03443 6.82 5.72998 7.12445 5.72998 7.5C5.72998 7.87555 6.03443 8.18 6.40998 8.18Z" fill="#808184"/>
</g>
</g>
<defs>
<clipPath id="clip0_19_287">
<rect width="24" height="20.35" fill="white" transform="translate(0 1.82501)"/>
</clipPath>
<clipPath id="clip1_19_287">
<rect width="24" height="20.35" fill="white" transform="translate(0 2)"/>
</clipPath>
</defs>
</svg>
