<svg width="24" height="18" viewBox="0 0 24 18" fill="none" xmlns="http://www.w3.org/2000/svg">
<g clip-path="url(#clip0_2_4215)">
<g opacity="0.7">
<path opacity="0.7" d="M23.09 17.53H1.09003C0.98938 17.53 0.889684 17.51 0.796819 17.4712C0.703953 17.4324 0.619721 17.3755 0.549016 17.3039C0.478311 17.2322 0.422554 17.1473 0.384954 17.0539C0.347353 16.9606 0.328698 16.8606 0.330022 16.76V1.25999C0.330022 1.05842 0.410028 0.865161 0.552556 0.722633C0.695084 0.580105 0.888467 0.499977 1.09003 0.499977H23.09C23.1889 0.498632 23.287 0.517144 23.3786 0.554359C23.4702 0.591574 23.5534 0.646738 23.6234 0.716652C23.6933 0.786565 23.7484 0.869801 23.7856 0.961403C23.8228 1.053 23.8414 1.15111 23.84 1.24998V16.73C23.8454 16.8323 23.83 16.9346 23.7949 17.0308C23.7597 17.127 23.7055 17.2151 23.6354 17.2898C23.5654 17.3646 23.481 17.4243 23.3873 17.4656C23.2935 17.5069 23.1924 17.5288 23.09 17.53ZM1.60004 16.23H22.6V1.82999H1.60004V16.23Z" fill="#808184"/>
</g>
<path opacity="0.7" d="M16.55 7.06003L14.55 3.62003C14.499 3.52954 14.4249 3.45414 14.3353 3.40146C14.2458 3.34878 14.1439 3.32065 14.04 3.31998H10.04C9.93505 3.32186 9.83229 3.35039 9.74133 3.40286C9.65038 3.45534 9.5742 3.53008 9.52002 3.62003L7.52002 7.01999C7.46824 7.10968 7.44104 7.21141 7.44104 7.31497C7.44104 7.41854 7.46824 7.52032 7.52002 7.61002L9.52002 11.05C9.56943 11.1419 9.6431 11.2184 9.73303 11.2713C9.82296 11.3242 9.92571 11.3515 10.03 11.35H14.03C14.1315 11.3496 14.231 11.3226 14.3187 11.2717C14.4065 11.2208 14.4793 11.1479 14.53 11.06L16.53 7.64999C16.5849 7.56207 16.6156 7.46127 16.6191 7.3577C16.6227 7.25412 16.5988 7.15146 16.55 7.06003ZM13.7101 10.13H10.37L8.79004 7.24002L10.42 4.48001C10.4264 4.46427 10.4375 4.45091 10.4519 4.44193C10.4663 4.43294 10.4831 4.4288 10.5 4.43002H13.8L15.42 7.43002L13.7101 10.13Z" fill="#808184"/>
<path opacity="0.7" d="M16.3101 12.07C16.2617 11.9694 16.1887 11.8827 16.0978 11.818C16.0068 11.7533 15.9009 11.7127 15.79 11.7H8.38C8.26754 11.7071 8.15914 11.7443 8.06592 11.8076C7.9727 11.8709 7.89817 11.9581 7.8501 12.06L5.8501 16.99H7.12L8.80005 12.89H15.4601L17.14 16.99H18.41L16.3101 12.07Z" fill="#808184"/>
<path opacity="0.7" d="M14.09 4.52C14.4158 4.52 14.68 4.25584 14.68 3.93C14.68 3.60415 14.4158 3.34 14.09 3.34C13.7642 3.34 13.5 3.60415 13.5 3.93C13.5 4.25584 13.7642 4.52 14.09 4.52Z" fill="#808184"/>
<path opacity="0.7" d="M16 7.96C16.3479 7.96 16.63 7.67794 16.63 7.33C16.63 6.98206 16.3479 6.7 16 6.7C15.6521 6.7 15.37 6.98206 15.37 7.33C15.37 7.67794 15.6521 7.96 16 7.96Z" fill="#808184"/>
<path opacity="0.7" d="M14.0001 11.35C14.3536 11.35 14.6401 11.0635 14.6401 10.71C14.6401 10.3565 14.3536 10.07 14.0001 10.07C13.6466 10.07 13.3601 10.3565 13.3601 10.71C13.3601 11.0635 13.6466 11.35 14.0001 11.35Z" fill="#808184"/>
<path opacity="0.7" d="M10.0901 11.32C10.438 11.32 10.7201 11.0379 10.7201 10.69C10.7201 10.3421 10.438 10.06 10.0901 10.06C9.74214 10.06 9.46008 10.3421 9.46008 10.69C9.46008 11.0379 9.74214 11.32 10.0901 11.32Z" fill="#808184"/>
<path opacity="0.7" d="M8.43005 12.97C8.77799 12.97 9.06005 12.6879 9.06005 12.34C9.06005 11.9921 8.77799 11.71 8.43005 11.71C8.08211 11.71 7.80005 11.9921 7.80005 12.34C7.80005 12.6879 8.08211 12.97 8.43005 12.97Z" fill="#808184"/>
<path opacity="0.7" d="M15.7401 12.97C16.088 12.97 16.3701 12.6879 16.3701 12.34C16.3701 11.9921 16.088 11.71 15.7401 11.71C15.3922 11.71 15.1101 11.9921 15.1101 12.34C15.1101 12.6879 15.3922 12.97 15.7401 12.97Z" fill="#808184"/>
<path opacity="0.7" d="M23.1001 17.5C23.5198 17.5 23.8601 17.1597 23.8601 16.74C23.8601 16.3203 23.5198 15.98 23.1001 15.98C22.6803 15.98 22.3401 16.3203 22.3401 16.74C22.3401 17.1597 22.6803 17.5 23.1001 17.5Z" fill="#808184"/>
<path opacity="0.7" d="M23.1001 2.02C23.5198 2.02 23.8601 1.67974 23.8601 1.26C23.8601 0.840264 23.5198 0.5 23.1001 0.5C22.6803 0.5 22.3401 0.840264 22.3401 1.26C22.3401 1.67974 22.6803 2.02 23.1001 2.02Z" fill="#808184"/>
<path opacity="0.7" d="M1.06005 2.02C1.47979 2.02 1.82005 1.67974 1.82005 1.26C1.82005 0.840264 1.47979 0.5 1.06005 0.5C0.640312 0.5 0.300049 0.840264 0.300049 1.26C0.300049 1.67974 0.640312 2.02 1.06005 2.02Z" fill="#808184"/>
<path opacity="0.7" d="M1.06005 17.5C1.47979 17.5 1.82005 17.1597 1.82005 16.74C1.82005 16.3203 1.47979 15.98 1.06005 15.98C0.640312 15.98 0.300049 16.3203 0.300049 16.74C0.300049 17.1597 0.640312 17.5 1.06005 17.5Z" fill="#808184"/>
<path opacity="0.7" d="M10.16 4.51C10.4969 4.51 10.77 4.23689 10.77 3.9C10.77 3.56311 10.4969 3.29 10.16 3.29C9.82315 3.29 9.55005 3.56311 9.55005 3.9C9.55005 4.23689 9.82315 4.51 10.16 4.51Z" fill="#808184"/>
<path opacity="0.7" d="M8.15004 7.89C8.48693 7.89 8.76004 7.61689 8.76004 7.28C8.76004 6.9431 8.48693 6.67 8.15004 6.67C7.81315 6.67 7.54004 6.9431 7.54004 7.28C7.54004 7.61689 7.81315 7.89 8.15004 7.89Z" fill="#808184"/>
</g>
<defs>
<clipPath id="clip0_2_4215">
<rect width="23.56" height="17" fill="white" transform="translate(0.300049 0.5)"/>
</clipPath>
</defs>
</svg>
