<svg width="24" height="24" viewBox="0 0 24 24" fill="none" xmlns="http://www.w3.org/2000/svg">
<path opacity="0.7" d="M17.5825 8L18.5648 7.5307C18.5971 7.51447 18.6256 7.49141 18.6482 7.46316C18.6708 7.4349 18.687 7.40208 18.6958 7.36697L18.9358 6.27556C18.9493 6.24843 18.9564 6.21859 18.9564 6.1883C18.9564 6.158 18.9493 6.1281 18.9358 6.10097L18.2482 5.23878C18.2297 5.21315 18.205 5.19267 18.1763 5.17929C18.1477 5.16592 18.1162 5.16011 18.0846 5.16237H16.9932C16.9602 5.16107 16.9273 5.16726 16.897 5.18049C16.8668 5.19373 16.84 5.21367 16.8186 5.23878L16.1528 6.07912C16.1347 6.11263 16.1251 6.15018 16.1251 6.1883C16.1251 6.22641 16.1347 6.2639 16.1528 6.29741L16.3929 7.38882C16.3993 7.41778 16.4126 7.44477 16.4315 7.46755C16.4505 7.49034 16.4747 7.50826 16.502 7.51978L17.4952 8C17.5239 8.00695 17.5538 8.00695 17.5825 8Z" fill="#808184"/>
<g opacity="0.7">
<path opacity="0.7" d="M23.1815 23.0001H0.829554C0.609565 23.0001 0.398639 22.92 0.243083 22.7774C0.0875276 22.6348 7.48725e-05 22.4414 7.48725e-05 22.2397V1.75041C-0.00139336 1.6515 0.0187451 1.55335 0.0593614 1.4617C0.0999777 1.37006 0.160251 1.28679 0.236555 1.21684C0.312859 1.1469 0.403703 1.09171 0.503677 1.05448C0.603652 1.01724 0.710728 0.998723 0.818629 1.00007H23.1815C23.3957 1.00007 23.6012 1.07812 23.7527 1.21696C23.9041 1.3558 23.9891 1.54411 23.9891 1.74045V22.2497C23.9892 22.447 23.9045 22.6363 23.7533 22.7768C23.6022 22.9172 23.3967 22.9974 23.1815 23.0001ZM1.41895 21.6895H22.5704V2.30071H1.41895V21.6895Z" fill="#808184"/>
</g>
<g opacity="0.7">
<path opacity="0.7" d="M16.6548 17.9536L10.0191 11.307C7.83629 13.4025 4.37644 16.8404 3.78708 17.5498L2.69568 16.6439C3.54697 15.6289 8.66573 10.6631 8.90584 10.4229L9.46247 9.87724C9.61255 9.74301 9.80683 9.66881 10.0082 9.66881C10.2095 9.66881 10.4038 9.74301 10.5539 9.87724L17.2114 16.5457L20.9986 12.7694L22.0027 13.7736L17.8225 17.9536C17.6622 18.0978 17.4543 18.1776 17.2387 18.1776C17.0231 18.1776 16.8151 18.0978 16.6548 17.9536Z" fill="#808184"/>
</g>
<path opacity="0.7" d="M10.019 11.3179C10.4771 11.3179 10.8485 10.9465 10.8485 10.4884C10.8485 10.0303 10.4771 9.65894 10.019 9.65894C9.56094 9.65894 9.18958 10.0303 9.18958 10.4884C9.18958 10.9465 9.56094 11.3179 10.019 11.3179Z" fill="#808184"/>
<path opacity="0.7" d="M17.2551 18.2156C17.7132 18.2156 18.0846 17.8442 18.0846 17.3861C18.0846 16.928 17.7132 16.5566 17.2551 16.5566C16.797 16.5566 16.4257 16.928 16.4257 17.3861C16.4257 17.8442 16.797 18.2156 17.2551 18.2156Z" fill="#808184"/>
<path opacity="0.7" d="M23.1705 2.65894C23.6286 2.65894 24 2.28757 24 1.82947C24 1.37137 23.6286 1 23.1705 1C22.7124 1 22.3411 1.37137 22.3411 1.82947C22.3411 2.28757 22.7124 2.65894 23.1705 2.65894Z" fill="#808184"/>
<path opacity="0.7" d="M23.1705 23C23.6286 23 24 22.6286 24 22.1705C24 21.7124 23.6286 21.3411 23.1705 21.3411C22.7124 21.3411 22.3411 21.7124 22.3411 22.1705C22.3411 22.6286 22.7124 23 23.1705 23Z" fill="#808184"/>
<path opacity="0.7" d="M0.829468 23C1.28757 23 1.65894 22.6286 1.65894 22.1705C1.65894 21.7124 1.28757 21.3411 0.829468 21.3411C0.371365 21.3411 0 21.7124 0 22.1705C0 22.6286 0.371365 23 0.829468 23Z" fill="#808184"/>
<path opacity="0.7" d="M0.829468 2.65894C1.28757 2.65894 1.65894 2.28757 1.65894 1.82947C1.65894 1.37137 1.28757 1 0.829468 1C0.371365 1 0 1.37137 0 1.82947C0 2.28757 0.371365 2.65894 0.829468 2.65894Z" fill="#808184"/>
</svg>
