<svg width="57" height="57" viewBox="0 0 57 57" fill="none" xmlns="http://www.w3.org/2000/svg">
<rect x="0.322876" y="0.98645" width="56" height="56" rx="28" fill="white" fill-opacity="0.7"/>
<g clip-path="url(#clip0_150_429)">
<path d="M36.3679 43.9926L36.2854 43.9199C35.7762 43.481 35.3931 42.8069 34.7142 42.7512C34.4994 42.7263 34.2825 42.7769 34.1008 42.8942C34.021 42.9539 33.9521 43.0269 33.8971 43.11C33.4534 43.7113 33.2643 44.3223 32.8958 44.9309C32.6533 45.331 32.4933 45.9542 32.8521 46.3348C33.0761 46.4994 33.3364 46.6075 33.611 46.65C33.9853 46.7443 34.3695 46.7931 34.7555 46.7955C35.2816 46.8051 35.8006 46.6737 36.2587 46.4148C36.4336 46.3095 36.5962 46.1851 36.7437 46.0439C36.9735 45.8522 37.1189 45.5779 37.1486 45.2801C37.231 44.446 36.7898 44.366 36.3679 43.9926Z" fill="#FFD515"/>
<path d="M37.4154 12.7339C37.5135 12.7041 37.6022 12.6494 37.6727 12.575C37.7433 12.5006 37.7933 12.4091 37.8179 12.3096L38.7393 8.54168C38.7639 8.44266 38.7618 8.33888 38.7333 8.24091C38.7048 8.14295 38.6508 8.0543 38.5768 7.98401L35.7715 5.29991C35.6981 5.22955 35.6075 5.17956 35.5089 5.1549C35.4102 5.13024 35.3068 5.13174 35.209 5.15927L31.4726 6.25037C31.3762 6.27974 31.2892 6.33361 31.2199 6.40672C31.1506 6.47982 31.1015 6.56964 31.0773 6.66741L30.1535 10.4402C30.1304 10.5393 30.1331 10.6426 30.1616 10.7403C30.1901 10.838 30.2432 10.9267 30.316 10.9979L32.9104 13.4783L31.5404 18.3664L29.477 17.7942L29.2128 18.7398L31.2762 19.312L30.6676 21.4821L31.7635 21.7876L32.3624 19.6054L34.4549 20.1873L34.7168 19.2393L32.6218 18.6574L33.302 16.1915L33.9821 13.7256L37.4154 12.7339ZM32.1199 7.30753L35.272 6.35948L37.5754 8.63139L36.8165 11.701C36.8128 11.7166 36.805 11.7308 36.7939 11.7423C36.7828 11.7538 36.7688 11.7622 36.7535 11.7665L33.6935 12.6709L31.3295 10.3408L32.1199 7.30753Z" fill="#FFD515"/>
<path opacity="0.7" d="M34.1004 13.2597C34.1055 12.937 33.8481 12.6713 33.5254 12.6662C33.2027 12.6611 32.937 12.9185 32.9318 13.2412C32.9267 13.5638 33.1841 13.8296 33.5068 13.8347C33.8295 13.8398 34.0952 13.5824 34.1004 13.2597Z" fill="#DDA500"/>
<path opacity="0.7" d="M31.3752 10.5989C31.3806 10.2575 31.1082 9.97634 30.7668 9.97092C30.4253 9.96549 30.1441 10.2379 30.1387 10.5793C30.1333 10.9207 30.4057 11.2019 30.7471 11.2073C31.0886 11.2128 31.3697 10.9404 31.3752 10.5989Z" fill="#DDA500"/>
<path opacity="0.7" d="M32.3142 6.85428C32.3197 6.50616 32.042 6.21947 31.6939 6.21394C31.3458 6.20841 31.0591 6.48613 31.0535 6.83426C31.048 7.18238 31.3257 7.46908 31.6739 7.47461C32.022 7.48014 32.3087 7.20241 32.3142 6.85428Z" fill="#DDA500"/>
<path opacity="0.7" d="M35.9807 5.76294C35.9861 5.42419 35.7159 5.14521 35.3771 5.13983C35.0384 5.13445 34.7594 5.4047 34.754 5.74346C34.7486 6.08221 35.0189 6.36117 35.3576 6.36655C35.6964 6.37193 35.9753 6.10169 35.9807 5.76294Z" fill="#DDA500"/>
<path opacity="0.7" d="M37.8229 12.1689C37.8282 11.8355 37.5622 11.561 37.2288 11.5557C36.8954 11.5504 36.6208 11.8164 36.6155 12.1498C36.6102 12.4831 36.8762 12.7577 37.2096 12.763C37.543 12.7683 37.8176 12.5023 37.8229 12.1689Z" fill="#DDA500"/>
<path opacity="0.7" d="M38.7546 8.42162C38.7599 8.08823 38.494 7.81367 38.1606 7.80837C37.8272 7.80308 37.5526 8.06905 37.5473 8.40244C37.542 8.73584 37.808 9.0104 38.1414 9.01569C38.4748 9.02099 38.7493 8.75501 38.7546 8.42162Z" fill="#DDA500"/>
<path d="M48.1832 23.4971L49.0804 23.0776L47.4922 20.3305C47.4234 20.2556 47.3361 20.2001 47.2391 20.1695C47.1421 20.1388 47.0388 20.1342 46.9394 20.1559L44.1413 21.3998L44.5948 22.2727L46.3235 21.5234L44.3086 27.1002L40.8099 27.893C40.7104 27.9174 40.6188 27.9671 40.5441 28.0372C40.4693 28.1072 40.4139 28.1954 40.3831 28.2931L39.2362 31.998C39.2059 32.0949 39.2016 32.1982 39.2237 32.2973C39.2458 32.3965 39.2936 32.4881 39.3623 32.5629L42.0004 35.4143C42.07 35.4888 42.1578 35.5438 42.2552 35.574C42.3525 35.6042 42.4561 35.6085 42.5556 35.5865L46.3526 34.7354C46.4508 34.7123 46.5411 34.6639 46.6147 34.5949C46.6883 34.526 46.7426 34.439 46.7721 34.3426L47.9214 30.6329C47.9522 30.536 47.9568 30.4326 47.9347 30.3334C47.9125 30.2341 47.8644 30.1425 47.7953 30.0679L45.3561 27.4348L47.337 22.0859L48.1832 23.4971ZM45.7707 33.6443L42.5774 34.3984L40.4098 31.9931L41.3409 28.9817C41.3462 28.9667 41.3552 28.9533 41.367 28.9427C41.3789 28.9321 41.3932 28.9246 41.4087 28.9211L44.5317 28.1888L46.7503 30.6596L45.7707 33.6443Z" fill="#FFD515"/>
<path opacity="0.7" d="M47.9428 30.4567C47.9472 30.1152 47.674 29.8349 47.3326 29.8305C46.9911 29.8261 46.7108 30.0993 46.7063 30.4407C46.7019 30.7822 46.9752 31.0625 47.3166 31.0669C47.658 31.0714 47.9384 30.7981 47.9428 30.4567Z" fill="#DDA500"/>
<path opacity="0.7" d="M46.8002 34.1364C46.8047 33.7883 46.5261 33.5024 46.1779 33.4979C45.8298 33.4934 45.5439 33.772 45.5395 34.1201C45.535 34.4683 45.8135 34.7541 46.1617 34.7586C46.5098 34.7631 46.7957 34.4845 46.8002 34.1364Z" fill="#DDA500"/>
<path opacity="0.7" d="M43.0421 35.0006C43.0464 34.6618 42.7754 34.3837 42.4366 34.3793C42.0978 34.3749 41.8197 34.646 41.8153 34.9847C41.8109 35.3235 42.082 35.6017 42.4208 35.6061C42.7595 35.6104 43.0377 35.3394 43.0421 35.0006Z" fill="#DDA500"/>
<path opacity="0.7" d="M41.5689 28.4957C41.5732 28.1622 41.3064 27.8885 40.973 27.8842C40.6396 27.8799 40.3659 28.1467 40.3616 28.4801C40.3573 28.8135 40.624 29.0872 40.9574 29.0915C41.2909 29.0958 41.5646 28.8291 41.5689 28.4957Z" fill="#DDA500"/>
<path opacity="0.7" d="M40.4139 32.1802C40.4182 31.8468 40.1514 31.573 39.818 31.5687C39.4846 31.5644 39.2108 31.8312 39.2065 32.1646C39.2022 32.498 39.469 32.7718 39.8024 32.7761C40.1358 32.7804 40.4096 32.5136 40.4139 32.1802Z" fill="#DDA500"/>
<path d="M28.3228 56.9841C22.785 56.9841 17.3714 55.342 12.7669 52.2653C8.16228 49.1886 4.57345 44.8156 2.4542 39.6993C0.334946 34.5829 -0.219546 28.9531 0.86084 23.5216C1.94123 18.0901 4.60796 13.101 8.52383 9.18516C12.4397 5.26929 17.4288 2.60254 22.8603 1.52216C28.2918 0.44177 33.9216 0.996262 39.038 3.11552C44.1543 5.23477 48.5273 8.8236 51.604 13.4282C54.6806 18.0328 56.3228 23.4463 56.3228 28.9841C56.3151 36.4078 53.3626 43.5253 48.1133 48.7746C42.8639 54.024 35.7465 56.9764 28.3228 56.9841ZM28.3228 1.96855C22.9791 1.96807 17.7552 3.55225 13.3118 6.52074C8.86836 9.48922 5.405 13.7087 3.3597 18.6455C1.3144 23.5824 0.779011 29.0149 1.82123 34.256C2.86345 39.4972 5.43649 44.3115 9.21493 48.0903C12.9934 51.8691 17.8075 54.4426 23.0485 55.4853C28.2896 56.528 33.7221 55.993 38.6592 53.9482C43.5962 51.9033 47.816 48.4404 50.7849 43.9972C53.7538 39.5541 55.3384 34.3303 55.3384 28.9866C55.33 21.8239 52.4812 14.957 47.4166 9.89201C42.3521 4.82703 35.4855 1.97754 28.3228 1.96855Z" fill="#FFD515"/>
<path d="M12.0559 42.8386C11.9521 42.8431 11.8495 42.8141 11.7634 42.7558C11.6773 42.6975 11.6122 42.6131 11.5777 42.5151C11.5432 42.417 11.5411 42.3104 11.5718 42.2111C11.6024 42.1117 11.6642 42.0249 11.748 41.9633L44.2239 15.857C44.2741 15.8165 44.3317 15.7864 44.3935 15.7682C44.4553 15.75 44.5201 15.7442 44.5842 15.7511C44.6482 15.758 44.7103 15.7774 44.7668 15.8082C44.8234 15.8391 44.8733 15.8808 44.9138 15.9309C44.9542 15.9811 44.9844 16.0387 45.0025 16.1005C45.0207 16.1623 45.0265 16.2271 45.0196 16.2912C45.0128 16.3552 44.9934 16.4173 44.9625 16.4738C44.9316 16.5304 44.89 16.5803 44.8398 16.6207L12.3639 42.7368C12.276 42.8051 12.1672 42.841 12.0559 42.8386V42.8386Z" fill="#FFD515"/>
<g opacity="0.5">
<path opacity="0.5" d="M8.28301 31.1251C8.79704 31.4524 9.43473 31.496 10.0409 31.53C11.7915 31.6294 13.5542 31.7264 15.2927 31.5033C17.0312 31.2803 18.7648 30.7153 20.142 29.6145C20.235 29.5278 20.3436 29.4595 20.4621 29.4133C20.623 29.381 20.7892 29.3877 20.947 29.4327C22.705 29.7602 24.5214 29.3887 26.0097 28.3973C26.1568 28.309 26.2847 28.1919 26.3855 28.053C26.465 27.8942 26.4954 27.7152 26.4728 27.539C26.4607 27.2302 26.4291 26.9225 26.3783 26.6176C26.3249 26.2879 26.2498 25.963 26.1746 25.6478C26.1746 25.609 26.1309 25.5581 26.097 25.5799C26.0934 25.5839 26.0915 25.5891 26.0915 25.5944C26.0915 25.5998 26.0934 25.605 26.097 25.609C26.6146 25.4374 27.0617 25.101 27.3699 24.6512C27.5216 24.4338 27.619 24.1832 27.654 23.9204C27.6891 23.6576 27.6607 23.3902 27.5712 23.1407C27.3821 22.7066 27.0208 22.3381 26.9578 21.8701C26.7274 20.1729 26.6595 20.1729 26.2085 19.2903C25.9664 18.877 25.6557 18.5081 25.2896 18.1992C25.0035 18.0077 24.9526 17.981 24.9526 17.9276C24.9526 17.53 24.9186 16.9578 24.9138 16.5771C24.911 16.3905 24.8713 16.2064 24.7967 16.0353C24.7222 15.8642 24.6145 15.7097 24.4798 15.5806C24.4288 15.5393 24.327 15.5442 24.2737 15.5103C23.7693 16.1916 23.4493 16.8632 23.0613 17.0742C22.6734 17.2851 22.22 17.0378 21.6526 16.9941C21.432 16.9772 21.432 17.1711 21.2865 16.9941C21.1941 16.7908 21.0785 16.5988 20.9422 16.4219C20.5324 16.0413 20.0087 15.7406 19.6013 15.3599C19.41 15.1431 19.1557 14.9913 18.8739 14.9259C18.7979 14.9253 18.7224 14.9397 18.652 14.9685C18.5815 14.9972 18.5175 15.0397 18.4636 15.0933C18.4097 15.147 18.367 15.2109 18.3379 15.2812C18.3089 15.3515 18.2941 15.4269 18.2944 15.503C18.2444 15.1979 18.2444 14.8867 18.2944 14.5816C18.3211 14.1694 18.098 13.6117 18.0083 13.2044C17.9186 12.7971 17.5792 12.4043 17.167 12.4431C17.0651 12.9983 16.168 14.0215 15.7995 14.4507C15.1448 15.2144 14.7666 14.5816 13.7652 14.5064C13.6027 14.4943 13.4427 14.6325 13.2802 14.6059C12.9068 14.5428 12.9675 14.4192 12.8293 14.3003L10.6034 12.4285C10.5012 12.3235 10.3781 12.2409 10.2421 12.186C10.1212 12.1612 9.99631 12.164 9.87665 12.1943C9.757 12.2245 9.64571 12.2814 9.55111 12.3606C9.04193 12.7292 8.89403 13.4202 8.84796 14.0458C8.80189 14.6713 8.70975 15.0423 8.98858 15.6048C9.21141 15.8626 9.33669 16.1904 9.34259 16.531L8.70005 17.5712C8.35332 18.1313 7.75686 20.7233 7.82718 22.132C7.89749 23.5407 8.14723 23.902 8.27816 25.3059L8.31696 26.1763C8.41637 27.2286 7.75929 27.9536 7.51683 28.9817C7.31315 29.8449 7.53137 30.6426 8.28301 31.1251Z" fill="#FFD515"/>
</g>
<path d="M16.9464 17.9906C16.9464 18.0634 16.9246 18.1482 16.8591 18.1798C16.8353 18.1899 16.8098 18.1951 16.7839 18.1951C16.7581 18.1951 16.7325 18.1899 16.7088 18.1798C16.4853 18.056 16.3133 17.8565 16.2239 17.6172C15.9814 17.1323 15.7826 16.6474 15.511 16.2012C15.2522 15.7367 14.8886 15.339 14.449 15.0398C14.2696 14.9259 14.0538 14.7973 14.0101 14.601C14.6551 14.6397 15.4286 14.6737 15.8989 15.1538C16.373 15.6382 16.7044 16.2439 16.8567 16.9044C16.9449 17.2593 16.9752 17.6261 16.9464 17.9906V17.9906Z" fill="#FFD515"/>
<path d="M14.6406 16.4218C14.7836 16.7564 14.9218 17.1298 14.8152 17.4814C14.8116 17.4997 14.8044 17.517 14.794 17.5324C14.7836 17.5479 14.7702 17.561 14.7545 17.5711C14.7388 17.5777 14.7219 17.5811 14.7048 17.5811C14.6878 17.5811 14.6709 17.5777 14.6551 17.5711C14.5532 17.5199 14.4632 17.4476 14.3913 17.359C14.3194 17.2703 14.2672 17.1674 14.2381 17.0571C14.1629 16.8413 14.0684 16.6497 13.9811 16.4412C13.9059 16.2288 13.7996 16.0286 13.6659 15.8472C13.3046 15.4204 12.8197 15.0277 12.4269 14.6349C12.8536 14.5427 13.3119 14.4579 13.6392 14.7779C14.0673 15.2626 14.4063 15.8191 14.6406 16.4218V16.4218Z" fill="#FFD515"/>
<path d="M27.0402 23.4145C26.9636 23.3395 26.8827 23.269 26.7977 23.2036C26.7201 23.1308 26.6523 23.046 26.5795 22.9611C26.3905 22.7893 26.1851 22.6367 25.9661 22.5053C25.8916 22.4475 25.8102 22.3994 25.7236 22.3622C25.5878 22.3264 25.449 22.3029 25.309 22.2919C25.1545 22.2727 24.9982 22.3088 24.8677 22.3937C24.8102 22.4363 24.7609 22.4888 24.7222 22.5489C24.3988 22.9361 24.1519 23.3813 23.9948 23.8607C23.9027 24.1831 23.813 24.622 24.0724 24.896C24.1954 25.0056 24.3481 25.0765 24.5113 25.0997C24.7809 25.1671 25.0577 25.2021 25.3357 25.2039C25.7149 25.2105 26.089 25.116 26.4195 24.9299C26.5455 24.8544 26.6626 24.765 26.7686 24.6632C26.9456 24.5047 27.0778 24.3023 27.1517 24.0765C27.1863 23.9651 27.1942 23.8472 27.1748 23.7322C27.1554 23.6172 27.1093 23.5084 27.0402 23.4145V23.4145Z" fill="#FFD515"/>
<path d="M19.6862 17.1686C19.7268 17.1265 19.7649 17.082 19.8002 17.0353C19.9553 16.8316 20.0911 16.5504 19.8511 16.3782C19.7783 16.3273 19.7395 16.177 19.6619 16.1357C19.359 15.9656 19.0787 15.7579 18.8279 15.5175C18.6993 15.6697 18.6101 15.8512 18.5684 16.046C18.9913 16.3666 19.3675 16.7444 19.6862 17.1686V17.1686Z" fill="#FFD515"/>
<path d="M20.5736 23.3395L20.4887 23.2643C19.9674 22.8158 19.5722 22.1223 18.8739 22.0641C18.6537 22.0387 18.4316 22.091 18.2459 22.212C18.1632 22.2726 18.0917 22.3473 18.035 22.4327C17.5791 23.051 17.3876 23.6693 17.0069 24.3021C16.7644 24.7143 16.5923 25.3544 16.9633 25.7448C17.1924 25.9149 17.4596 26.0264 17.7416 26.0697C18.1269 26.1669 18.5226 26.2174 18.92 26.22C19.4598 26.229 19.9923 26.0934 20.4621 25.8272C20.6381 25.7198 20.8009 25.5921 20.947 25.4465C21.1843 25.2501 21.3342 24.9676 21.364 24.661C21.461 23.8075 21.0125 23.725 20.5736 23.3395Z" fill="#FFD515"/>
<path d="M10.9913 13.8033C10.5978 13.5792 10.233 13.3081 9.90508 12.9958C9.70315 13.2354 9.5781 13.5303 9.54624 13.8421C9.51472 14.3876 9.53411 15.0544 10.1209 15.2969C10.2518 15.355 10.2518 15.1974 10.3633 15.132C10.8483 14.8362 10.6688 15.3478 10.7246 15.3284C10.9143 15.2641 11.0756 15.1354 11.1805 14.9647C11.3817 14.698 11.5587 14.3343 11.2459 14.1088C11.1441 14.0506 11.0956 13.8542 10.9913 13.8033Z" fill="#FFD515"/>
<path d="M18.5296 16.7637C18.6903 17.2745 18.6548 17.8269 18.4302 18.313C18.4258 18.3278 18.4184 18.3415 18.4083 18.3532C18.3983 18.3649 18.3859 18.3743 18.372 18.3809C18.3211 18.4027 18.2701 18.3494 18.241 18.3009C18.095 17.9997 17.9749 17.6866 17.8822 17.365C17.5718 16.526 16.9123 15.6677 16.3425 14.9767C16.4808 15.0579 16.6303 15.1184 16.7862 15.1561C16.9245 15.1925 17.0893 15.3186 17.2251 15.3646C17.3834 15.4182 17.5305 15.5004 17.6591 15.6071C18.0573 15.898 18.3602 16.3005 18.5296 16.7637V16.7637Z" fill="#FFD515"/>
<path d="M24.0093 21.4287C23.8808 21.4287 23.7862 21.6057 23.8008 21.8045C23.8153 22.0034 23.9269 22.1585 24.0433 22.1488C24.1596 22.1391 24.2663 21.9718 24.2518 21.773C24.2372 21.5742 24.1378 21.4214 24.0093 21.4287Z" fill="#DDA500"/>
<path d="M26.4002 21.6954C26.3857 21.4966 26.2717 21.3414 26.1432 21.3511C26.0147 21.3608 25.9202 21.5281 25.9347 21.727C25.9493 21.9258 26.0608 22.0785 26.1893 22.0713C26.3178 22.064 26.4124 21.8846 26.4002 21.6954Z" fill="#DDA500"/>
<path d="M26.0048 22.5927C26.0123 22.5973 26.021 22.5992 26.0296 22.5982C26.0383 22.5971 26.0464 22.5932 26.0525 22.5871C26.0587 22.5809 26.0626 22.5729 26.0636 22.5642C26.0646 22.5556 26.0627 22.5468 26.0582 22.5394C25.6799 22.1611 24.9331 22.1005 24.6034 22.5879C24.5767 22.6267 24.6397 22.6655 24.6664 22.6267C24.9695 22.1805 25.6605 22.2484 26.0048 22.5927Z" fill="white"/>
<path d="M25.7504 23.8898C25.9007 23.8537 26.0311 23.7607 26.1141 23.6304C26.118 23.6244 26.1205 23.6177 26.1216 23.6107C26.1227 23.6037 26.1223 23.5966 26.1205 23.5897C26.1187 23.5829 26.1154 23.5765 26.111 23.5709C26.1066 23.5654 26.101 23.5609 26.0947 23.5576C26.0827 23.5513 26.0688 23.5498 26.0557 23.5534C26.0427 23.557 26.0315 23.5655 26.0244 23.577C25.9595 23.6747 25.8627 23.7467 25.7504 23.7807C25.7504 23.7516 25.7504 23.7225 25.7504 23.6934C25.7676 23.5468 25.7676 23.3987 25.7504 23.2521C25.7187 23.0881 25.6632 22.9296 25.5856 22.7817C25.685 22.7284 25.8426 22.6338 25.8426 22.5659C25.8426 22.498 25.6874 22.4471 25.5007 22.4495C25.314 22.452 25.1637 22.4786 25.1637 22.5781C25.1637 22.6775 25.4231 22.7841 25.4837 22.8205C25.5629 22.9635 25.6185 23.1182 25.6486 23.2788C25.6645 23.4165 25.6645 23.5557 25.6486 23.6934C25.6486 23.7273 25.6486 23.7589 25.6486 23.7928C25.479 23.7965 25.3135 23.7407 25.1806 23.6352C25.1694 23.6304 25.1569 23.6295 25.1452 23.6328C25.1334 23.6361 25.1232 23.6432 25.1161 23.6532C25.109 23.6631 25.1055 23.6751 25.1062 23.6873C25.107 23.6995 25.1118 23.7111 25.12 23.7201C25.2656 23.8355 25.4436 23.9025 25.6292 23.9116C25.6703 23.909 25.711 23.9017 25.7504 23.8898V23.8898Z" fill="white"/>
<path d="M27.4282 22.7769C27.2828 22.5628 27.1593 22.3345 27.0597 22.0956C26.9815 21.8548 26.9311 21.6059 26.9093 21.3536C26.8765 20.8886 26.787 20.4294 26.6426 19.9861C26.4858 19.5774 26.2666 19.1954 25.9928 18.8538C25.3844 18.1015 24.5629 17.5505 23.636 17.2729C23.4494 17.2147 23.253 17.1735 23.0614 17.1299C23.3034 16.9247 23.5207 16.6919 23.7088 16.4364C23.7969 16.3127 23.8779 16.184 23.9513 16.0509C24.0167 15.9345 24.0652 15.8084 24.1404 15.6993C24.2155 15.5902 24.361 15.4981 24.4823 15.6266C24.5737 15.7477 24.6412 15.8851 24.6811 16.0315C24.8846 16.5929 24.9478 17.1955 24.8654 17.787C24.8654 17.8476 24.9478 17.8718 24.9575 17.8136C25.0108 17.4519 25.0108 17.0843 24.9575 16.7225C24.9187 16.4558 24.6447 15.0907 24.1501 15.549C24.063 15.6435 23.9932 15.7527 23.944 15.8715C23.8667 16.0271 23.7784 16.177 23.6797 16.32C23.474 16.613 23.2293 16.8765 22.9523 17.1032C22.6274 17.0334 22.2987 16.9824 21.9679 16.9504C21.7347 16.931 21.5003 16.931 21.2671 16.9504C21.2426 16.7405 21.1584 16.5419 21.0247 16.3782C20.8429 16.1924 20.6431 16.0251 20.4282 15.8788L19.7784 15.3938L19.4244 15.1223C19.3292 15.0425 19.2278 14.9704 19.1213 14.9065C18.9858 14.8536 18.8363 14.8489 18.6978 14.893C18.5592 14.9371 18.44 15.0275 18.36 15.1489C18.3758 14.821 18.3612 14.4922 18.3163 14.1669C18.2581 13.7863 17.8702 11.8393 17.1622 12.4939C17.0401 12.6292 16.9417 12.7841 16.8712 12.9522C16.7598 13.1747 16.6334 13.3893 16.493 13.5947C16.2042 14.0113 15.86 14.3865 15.4698 14.7101C15.0067 14.6088 14.5379 14.5359 14.0659 14.4918C13.705 14.4644 13.3423 14.4684 12.9821 14.504C12.9332 14.3666 12.861 14.2386 12.7687 14.1257C12.5328 13.8834 12.2728 13.6656 11.9928 13.4759L11.1466 12.8285L10.6835 12.4745C10.5594 12.3705 10.4273 12.2764 10.2883 12.1933C9.74517 11.9047 9.25296 12.4576 9.04444 12.9207C8.78742 13.488 8.78014 14.1475 8.78014 14.7586C8.77692 15.0456 8.82963 15.3306 8.93532 15.5975C9.05413 15.8909 9.22386 16.16 9.33297 16.4582C9.22144 16.5843 6.90831 19.329 8.12064 24.6851C8.46737 26.2248 8.17398 27.0201 7.86363 27.8663C7.57025 28.5567 7.41617 29.2983 7.41022 30.0485H7.51448C7.51805 29.3074 7.66972 28.5745 7.96061 27.893C8.27581 27.0346 8.57405 26.2224 8.22247 24.6536C7.01014 19.2539 9.40328 16.5358 9.4348 16.5092L9.39602 16.4752H9.44209C9.44998 16.4675 9.4557 16.4578 9.45867 16.4472C9.46165 16.4365 9.46177 16.4253 9.45904 16.4146C9.35721 16.1382 9.21659 15.886 9.08808 15.6169C8.95927 15.3231 8.89875 15.0039 8.91108 14.6834C8.91108 14.1015 8.91107 13.4711 9.17294 12.9352C9.28422 12.6864 9.46317 12.4738 9.68939 12.3218C9.75496 12.275 9.83069 12.2445 9.91035 12.2327C9.99002 12.2209 10.0713 12.2282 10.1477 12.2539C10.281 12.3162 10.4044 12.3979 10.5138 12.4963L12.034 13.6602C12.2584 13.8168 12.4686 13.9928 12.662 14.1863C12.744 14.2793 12.8118 14.3839 12.8633 14.4967C12.5093 14.5282 12.1553 14.567 11.8013 14.584C11.7164 14.584 11.714 14.7222 11.8013 14.7173C12.1698 14.7004 12.5287 14.6567 12.9093 14.6276C12.947 14.7264 12.9746 14.8288 12.9918 14.9331C12.9918 15.0107 13.1227 15.0131 13.113 14.9331C13.0896 14.8226 13.0555 14.7146 13.0112 14.6107C13.4143 14.5698 13.8204 14.5698 14.2235 14.6107C15.0969 14.7036 15.9572 14.893 16.7888 15.1756C18.0451 15.6293 19.1341 16.4537 19.9118 17.5396C20.2721 18.0506 20.5457 18.6175 20.7216 19.2175C20.9083 19.8552 20.9229 20.5147 21.0271 21.1572C21.0728 21.4818 21.1634 21.7984 21.2962 22.098C21.4417 22.4132 21.6551 22.6921 21.8176 22.9976C21.9605 23.275 22.0419 23.58 22.0561 23.8917C22.0704 24.2035 22.0171 24.5147 21.9 24.8039C21.4151 26.1205 20.0936 26.7437 18.8013 27.0273C18.7188 27.0467 18.7528 27.1752 18.8352 27.1559C19.6078 27.0138 20.3396 26.7034 20.9786 26.2466C21.5374 25.8235 21.9392 25.2263 22.1206 24.5493C22.1956 24.2512 22.2098 23.9411 22.1623 23.6374C22.1148 23.3337 22.0066 23.0427 21.8442 22.7818C21.6376 22.4768 21.4622 22.1519 21.3205 21.8119C21.2086 21.469 21.137 21.1142 21.1071 20.7547C21.0602 20.0909 20.9315 19.4353 20.724 18.8029C20.502 18.2193 20.1894 17.6744 19.7978 17.1881C18.9309 16.1144 17.7594 15.3283 16.4372 14.9331C16.1729 14.8507 15.899 14.7925 15.6225 14.7319C15.9679 14.4398 16.2765 14.1068 16.5415 13.7402C16.6686 13.5642 16.7844 13.3804 16.8882 13.1898C16.9803 13.0249 17.0507 12.8455 17.1573 12.6903C17.264 12.5351 17.4701 12.4042 17.6423 12.5885C17.7736 12.7599 17.8708 12.955 17.9284 13.1631C18.2201 13.9638 18.3108 14.8239 18.1927 15.6678C18.1927 15.7527 18.3091 15.789 18.3212 15.7042C18.3406 15.5684 18.3406 15.4302 18.3503 15.2944C18.4334 15.1789 18.537 15.0794 18.6558 15.001C18.7061 14.9651 18.7643 14.9418 18.8254 14.933C18.8866 14.9241 18.9489 14.93 19.0074 14.9501C19.1092 14.9948 19.2033 15.0554 19.2862 15.1295L20.4549 16.0218C20.6284 16.1419 20.7907 16.2774 20.9398 16.4267C21.0728 16.574 21.1574 16.7585 21.1823 16.9553C20.9156 16.9771 20.6464 17.0086 20.3797 17.0232C20.3215 17.0232 20.3191 17.1202 20.3797 17.1153C20.5373 17.1153 20.6974 17.0935 20.8647 17.079C21.1362 17.3432 21.4611 17.6124 21.706 17.8985C21.7989 18.0264 21.8732 18.1668 21.9267 18.3155C21.9897 18.4634 22.0552 18.5968 22.1061 18.7471C22.1271 18.8245 22.164 18.8966 22.2146 18.9588C22.2651 19.021 22.3281 19.072 22.3995 19.1084C22.4106 19.1131 22.4225 19.1156 22.4346 19.1156C22.4467 19.1156 22.4587 19.1131 22.4698 19.1084C22.4812 19.1016 22.491 19.0925 22.4985 19.0816C22.506 19.0708 22.5111 19.0584 22.5134 19.0454C22.5592 18.7912 22.5155 18.529 22.3898 18.3034C22.2257 17.8793 21.9876 17.4877 21.6866 17.1468C21.6318 17.0972 21.5674 17.0593 21.4975 17.0353C21.6517 17.0268 21.8063 17.0268 21.9606 17.0353C22.0018 17.1687 22.1376 17.2487 22.2564 17.3239C22.5652 17.5338 22.8208 17.8127 23.0032 18.1385C23.1923 18.4562 23.3402 18.8005 23.5027 19.1326C23.5638 19.2986 23.6814 19.4377 23.8349 19.5254C23.8516 19.5332 23.8698 19.5373 23.8882 19.5373C23.9066 19.5373 23.9249 19.5332 23.9416 19.5254C23.9852 19.5036 23.9973 19.4454 24.0022 19.3945C24.025 19.137 24.0061 18.8774 23.9464 18.6259C23.8396 18.1622 23.6072 17.7369 23.2748 17.3966C23.1696 17.2952 23.0439 17.2175 22.9062 17.1687C23.1568 17.221 23.4045 17.2866 23.6482 17.3651C24.0675 17.8436 24.4057 18.3874 24.6496 18.975C24.7102 19.2002 24.7913 19.4194 24.892 19.6297C24.9114 19.6637 24.9454 19.7024 24.9817 19.6879C25.0181 19.6733 25.0133 19.6588 25.0229 19.6394C25.1801 19.2985 25.2052 18.9115 25.0933 18.5532C24.9766 18.2301 24.7675 17.9484 24.4919 17.7433C25.1123 18.0735 25.6489 18.5413 26.0607 19.1108C26.3127 19.4652 26.5051 19.8583 26.6305 20.2747C26.7305 20.7255 26.8018 21.1823 26.8439 21.6422C26.876 21.8697 26.9397 22.0917 27.033 22.3017C27.1348 22.5223 27.2755 22.7187 27.3991 22.9321C27.4993 23.1269 27.5564 23.341 27.5664 23.5598C27.5765 23.7786 27.5393 23.997 27.4573 24.2002C27.1082 25.1216 26.1892 25.5604 25.2751 25.7593C25.2652 25.7641 25.2572 25.7721 25.2525 25.7821C25.2477 25.792 25.2465 25.8033 25.2491 25.8141C25.2516 25.8248 25.2577 25.8344 25.2664 25.8411C25.2751 25.8479 25.2859 25.8515 25.2969 25.8514C25.8388 25.7504 26.3519 25.5319 26.8002 25.2113C27.1929 24.9129 27.4753 24.4924 27.6028 24.0159C27.6577 23.8082 27.6706 23.5916 27.6406 23.3788C27.6106 23.166 27.5384 22.9614 27.4282 22.7769Z" fill="#FFD515"/>
<path d="M16.9707 20.8639C16.7864 20.8639 16.6531 21.1063 16.6725 21.3997C16.6919 21.6931 16.8543 21.904 17.0362 21.8846C17.218 21.8652 17.3538 21.6422 17.3344 21.3488C17.315 21.0554 17.1526 20.8542 16.9707 20.8639Z" fill="#DDA500"/>
<path d="M20.3772 21.2445C20.3602 20.9608 20.1954 20.7426 20.0135 20.7596C19.8317 20.7766 19.6959 21.0021 19.7153 21.2955C19.7347 21.5888 19.8971 21.7998 20.0814 21.7804C20.2657 21.761 20.3966 21.5282 20.3772 21.2445Z" fill="#DDA500"/>
<path d="M19.7736 22.5223C19.8221 22.5707 19.8973 22.498 19.8488 22.4495C19.3081 21.9088 18.2436 21.8215 17.783 22.515C17.7442 22.5732 17.8363 22.6289 17.8751 22.5707C18.297 21.9355 19.2814 22.0325 19.7736 22.5223Z" fill="white"/>
<path d="M10.7586 13.5874C10.648 13.5267 10.5412 13.4595 10.4385 13.3862C10.3798 13.336 10.324 13.2826 10.2712 13.2261C10.2009 13.1583 10.1282 13.0879 10.053 13.0249C10.0148 12.9797 9.96288 12.9482 9.90512 12.9352C9.82753 12.9352 9.82753 13.0516 9.90512 13.0564C9.87602 13.0564 9.90512 13.0564 9.90512 13.0564C9.91826 13.0677 9.93202 13.0782 9.94633 13.0879L10.0409 13.1752C10.1136 13.2407 10.1815 13.3086 10.2518 13.3765C10.385 13.4948 10.5315 13.5973 10.6883 13.682C10.7996 13.7388 10.9051 13.8061 11.0035 13.8832C11.1089 13.9546 11.1937 14.0525 11.2494 14.1669C11.3052 14.2814 11.3299 14.4085 11.3211 14.5355C11.2779 14.6827 11.2044 14.8193 11.1055 14.9366C11.0066 15.0539 10.8843 15.1493 10.7465 15.2168C10.6786 15.258 10.7465 15.3647 10.8047 15.3235C11.1005 15.1368 11.4011 14.8895 11.4448 14.5209C11.4505 14.387 11.424 14.2537 11.3675 14.1321C11.3109 14.0106 11.226 13.9045 11.1199 13.8226C11.008 13.7319 10.8869 13.653 10.7586 13.5874V13.5874Z" fill="#FFD515"/>
<path d="M19.4026 24.3529C19.5067 24.329 19.605 24.2847 19.692 24.2227C19.7789 24.1607 19.8528 24.0822 19.9094 23.9916C19.9128 23.9858 19.915 23.9793 19.9159 23.9725C19.9168 23.9658 19.9163 23.959 19.9145 23.9524C19.9127 23.9458 19.9096 23.9397 19.9054 23.9344C19.9012 23.929 19.8959 23.9246 19.89 23.9213C19.8841 23.9179 19.8776 23.9157 19.8709 23.9148C19.8641 23.9139 19.8573 23.9144 19.8507 23.9162C19.8442 23.918 19.8381 23.9211 19.8327 23.9253C19.8274 23.9295 19.8229 23.9348 19.8197 23.9407C19.7195 24.0954 19.5644 24.2063 19.3856 24.2511C19.3856 24.1977 19.3856 24.1444 19.3856 24.0911C19.406 23.8836 19.4019 23.6744 19.3735 23.4679C19.3254 23.2366 19.2437 23.0136 19.1311 22.806C19.2693 22.7332 19.5166 22.5878 19.5166 22.4859C19.5166 22.3453 19.2959 22.3162 19.0317 22.3211C18.7674 22.3259 18.5467 22.3623 18.5467 22.5029C18.5467 22.6435 19.0317 22.8521 19.0317 22.8521C19.136 23.0521 19.2111 23.266 19.2547 23.4873C19.278 23.6855 19.278 23.8856 19.2547 24.0838V24.2487C19.0012 24.2576 18.7527 24.176 18.554 24.0183C18.5423 24.0108 18.5283 24.0082 18.5147 24.0109C18.5011 24.0136 18.4891 24.0215 18.4813 24.0329C18.4772 24.0382 18.4742 24.0443 18.4726 24.0508C18.471 24.0573 18.4708 24.0641 18.4719 24.0707C18.473 24.0773 18.4755 24.0836 18.4792 24.0892C18.4829 24.0948 18.4877 24.0995 18.4934 24.1032C18.6973 24.2647 18.9464 24.3587 19.2062 24.3723C19.2722 24.3741 19.3382 24.3675 19.4026 24.3529V24.3529Z" fill="white"/>
<path d="M19.7542 17.1396C19.8946 17.0278 19.9888 16.868 20.0185 16.691C20.0241 16.5888 20.0049 16.4867 19.9627 16.3935C19.9205 16.3002 19.8565 16.2185 19.776 16.1552C19.69 16.0814 19.5956 16.0179 19.4948 15.966C19.4108 15.9203 19.3298 15.8693 19.2523 15.8133C19.2071 15.7746 19.1642 15.7333 19.1238 15.6896L18.9565 15.5344C18.9263 15.5008 18.8865 15.4771 18.8425 15.4666C18.7819 15.4666 18.7819 15.5563 18.8425 15.5587C18.8183 15.5587 18.8425 15.5587 18.8425 15.5587L18.874 15.5829L18.9468 15.6484L19.1092 15.8012C19.2105 15.8953 19.3229 15.9767 19.4438 16.0436C19.5292 16.0879 19.6104 16.1398 19.6863 16.1988C19.7669 16.2542 19.8316 16.3296 19.8741 16.4176C19.9166 16.5056 19.9355 16.6032 19.9288 16.7007C19.897 16.8447 19.8175 16.9737 19.7033 17.0668L19.7542 17.1396Z" fill="#FFD515"/>
<path d="M10.0324 14.9156L11.0934 15.0754L10.3839 15.8166L10.0324 14.9156ZM9.59403 14.5539L9.58147 14.5224L9.51233 14.3488L9.5621 14.5416L9.59403 14.5539ZM12.9042 14.8446L11.8612 14.7882L12.5477 13.9316L12.9042 14.8446Z" stroke="#DDA500"/>
<path d="M23.311 16.097C23.2715 16.0866 23.2295 16.0923 23.1941 16.1127C23.1586 16.1331 23.1327 16.1667 23.1219 16.2061L22.7873 17.4742C22.7837 17.4959 22.7837 17.518 22.7873 17.5397C22.795 17.5797 22.8181 17.6152 22.8517 17.6383C22.8853 17.6615 22.9266 17.6704 22.9667 17.6634L24.0336 17.4718C24.0553 17.4677 24.0776 17.4683 24.0989 17.4738C24.1203 17.4792 24.1402 17.4893 24.1572 17.5033L25.0253 18.2089C25.042 18.2233 25.062 18.2333 25.0835 18.238C25.1224 18.2484 25.1638 18.2431 25.1988 18.2231C25.2337 18.2031 25.2594 18.1701 25.2702 18.1313L25.6048 16.8608C25.612 16.8346 25.612 16.807 25.6048 16.7808C25.5997 16.7614 25.5909 16.7432 25.5787 16.7273C25.5665 16.7114 25.5513 16.6981 25.5339 16.6881C25.5165 16.6782 25.4973 16.6718 25.4774 16.6694C25.4575 16.667 25.4373 16.6686 25.4181 16.6741L24.3294 16.9699C24.3035 16.9773 24.2762 16.9775 24.2502 16.9707C24.2241 16.9639 24.2004 16.9502 24.1815 16.9311L23.3814 16.1358C23.361 16.118 23.337 16.1048 23.311 16.097V16.097Z" fill="#DDA500"/>
<g opacity="0.5">
<path opacity="0.5" d="M24.4072 51.5673C24.9067 51.8873 25.5274 51.9286 26.119 51.9625C27.8162 52.0571 29.5378 52.1541 31.2302 51.9358C32.9226 51.7176 34.6077 51.1696 35.9364 50.0979C36.0269 50.0133 36.1332 49.9473 36.2492 49.904C36.4035 49.8717 36.5633 49.8775 36.7148 49.9209C38.4257 50.2386 40.1932 49.8768 41.6417 48.9123C41.8416 48.8044 41.9958 48.6279 42.0757 48.4152C42.0961 48.1375 42.0839 47.8584 42.0393 47.5836C42.0615 47.3382 42.0343 47.0909 41.9593 46.8562C41.9229 46.7398 41.4962 46.5313 41.5641 46.427C41.632 46.3227 41.6368 46.2233 41.729 46.1845C42.2232 46.0051 42.6522 45.6817 42.9607 45.2559C43.1086 45.0441 43.2036 44.7999 43.2378 44.5439C43.2719 44.2878 43.2443 44.0273 43.1571 43.7841C42.9728 43.3622 42.6212 43.0034 42.5582 42.5475C42.3351 40.9036 42.2697 40.8939 41.8308 40.038C41.597 39.6351 41.2951 39.2758 40.9385 38.976C40.6597 38.7869 40.6112 38.7627 40.6112 38.7117C40.6112 38.3238 40.5772 37.7734 40.5724 37.3976C40.5734 37.2174 40.5385 37.0389 40.4698 36.8724C40.4011 36.7059 40.3 36.5547 40.1723 36.4277C40.1238 36.3865 40.0244 36.3913 39.9735 36.3574C39.4886 37.0217 39.1685 37.674 38.7878 37.8825C38.4072 38.091 37.9683 37.8461 37.4179 37.8025C37.2021 37.7879 37.2021 37.9746 37.0615 37.8025C36.9706 37.6044 36.8576 37.4173 36.7245 37.2448C36.3268 36.8738 35.8176 36.5829 35.42 36.2119C35.2361 36.0024 34.9924 35.8543 34.7217 35.7876C34.6475 35.787 34.574 35.801 34.5053 35.8291C34.4366 35.8571 34.3742 35.8984 34.3216 35.9508C34.2691 36.0031 34.2274 36.0653 34.1991 36.1339C34.1708 36.2024 34.1564 36.2759 34.1567 36.3501C34.1067 36.054 34.1067 35.7515 34.1567 35.4554C34.181 35.0529 33.9628 34.5074 33.8779 34.1122C33.793 33.7169 33.4584 33.3363 33.0584 33.3848C32.959 33.9255 32.0885 34.922 31.7272 35.339C31.092 36.0834 30.7234 35.4651 29.7463 35.3924C29.5887 35.3924 29.4335 35.516 29.2759 35.4894C28.9122 35.4263 28.9704 35.3075 28.8346 35.1911L26.6718 33.3557C26.5714 33.2588 26.4527 33.183 26.3227 33.1326C26.2048 33.108 26.0829 33.1105 25.9661 33.1399C25.8493 33.1693 25.7408 33.2249 25.6486 33.3023C25.1637 33.6587 25.0085 34.3328 24.9648 34.9414C24.9212 35.55 24.8291 35.9112 25.1006 36.4592C25.3179 36.71 25.4398 37.0294 25.4449 37.3612C25.4449 37.3612 24.943 38.1759 24.8194 38.3723C24.4823 38.9178 23.9028 41.4419 23.9707 42.8118C24.0386 44.1818 24.2835 44.5358 24.4096 45.9008L24.4484 46.7495C24.5454 47.7727 23.9053 48.4807 23.6677 49.4797C23.4616 50.321 23.6798 51.0993 24.4072 51.5673Z" fill="#FFD515"/>
</g>
<path d="M41.7265 46.187L41.6586 46.2161Z" fill="#FFD515"/>
<path d="M42.6599 44.063C42.5891 43.9906 42.5146 43.9218 42.4368 43.8569C42.3592 43.7866 42.2938 43.7066 42.2234 43.6314C42.0396 43.4644 41.8398 43.3158 41.627 43.1877C41.5524 43.1315 41.4709 43.085 41.3845 43.0495C41.2527 43.0141 41.118 42.9906 40.982 42.9792C40.8311 42.9628 40.679 42.9978 40.5504 43.0786C40.4949 43.1216 40.4467 43.1732 40.4074 43.2313C40.0954 43.6085 39.8577 44.0412 39.7066 44.5067C39.6169 44.8219 39.5272 45.2487 39.7818 45.5154C39.9017 45.6213 40.0501 45.6896 40.2085 45.7118C40.471 45.778 40.7404 45.813 41.0111 45.816C41.3802 45.8201 41.7439 45.7273 42.0658 45.5469C42.1882 45.4732 42.302 45.3862 42.4053 45.2875C42.579 45.1338 42.708 44.9361 42.7787 44.7152C42.812 44.6049 42.8186 44.4882 42.7979 44.3748C42.7773 44.2614 42.73 44.1545 42.6599 44.063Z" fill="#FFD515"/>
<path d="M35.5024 37.9844C35.5438 37.9422 35.5819 37.8968 35.6164 37.8487C35.7667 37.6498 35.9001 37.3783 35.6649 37.211C35.5945 37.16 35.5582 37.0146 35.483 36.9685C35.1875 36.8029 34.9145 36.6 34.6708 36.3647C34.5491 36.5137 34.4659 36.6902 34.4283 36.8788C34.836 37.1956 35.1975 37.5677 35.5024 37.9844Z" fill="#FFD515"/>
<path d="M27.0427 34.7086C26.6586 34.4911 26.3027 34.2273 25.9831 33.923C25.7869 34.1567 25.6652 34.4438 25.6339 34.7474C25.6024 35.2784 25.6339 35.916 26.194 36.1706C26.3225 36.2264 26.3201 36.0736 26.422 36.0106C26.8875 35.7221 26.7178 36.2191 26.7735 36.1997C26.9586 36.1378 27.1158 36.0124 27.2172 35.8457C27.4136 35.5863 27.5858 35.2323 27.2803 35.0141C27.1906 34.9486 27.1421 34.7571 27.0427 34.7086Z" fill="#FFD515"/>
<path d="M43.0381 43.4423C42.8973 43.2338 42.7771 43.0121 42.6792 42.7803C42.6025 42.5444 42.5537 42.3002 42.5337 42.0529C42.5014 41.6002 42.4134 41.1531 42.2719 40.7218C42.1195 40.3239 41.9069 39.9518 41.6415 39.6186C41.049 38.8864 40.2497 38.3499 39.3477 38.0789C39.1659 38.0231 38.9743 37.9843 38.7876 37.9407C39.0233 37.7414 39.2349 37.5151 39.418 37.2666C39.5054 37.1457 39.5863 37.0202 39.6605 36.8908C39.7153 36.7739 39.776 36.6598 39.8423 36.5489C39.9248 36.4326 40.0557 36.355 40.1745 36.4786C40.2635 36.597 40.3293 36.7311 40.3685 36.8739C40.566 37.4165 40.6284 37.999 40.5504 38.5711C40.5504 38.6293 40.6279 38.6536 40.6376 38.5978C40.6886 38.2456 40.6886 37.8879 40.6376 37.5358C40.5989 37.2763 40.3346 35.9476 39.8521 36.3938C39.7678 36.4855 39.7005 36.5914 39.6532 36.7065C39.5776 36.859 39.4909 37.0057 39.3938 37.1454C39.1975 37.4304 38.9625 37.6867 38.6955 37.9068C38.3795 37.8378 38.0597 37.7876 37.7377 37.7564C37.5102 37.7383 37.2815 37.7383 37.054 37.7564C37.0293 37.5516 36.945 37.3585 36.8115 37.2012C36.6353 37.0203 36.4412 36.8578 36.232 36.7162L35.5992 36.2313L35.2549 35.967C35.1619 35.8891 35.063 35.8186 34.9591 35.7561C34.8325 35.6978 34.6891 35.6874 34.5554 35.7266C34.4217 35.7658 34.3067 35.8521 34.2317 35.9695C34.2349 36.0219 34.2349 36.0746 34.2317 36.1271C34.3056 36.0196 34.3994 35.9274 34.5081 35.8555C34.5574 35.8205 34.6144 35.7978 34.6743 35.7893C34.7343 35.7809 34.7953 35.787 34.8524 35.807C34.9514 35.8498 35.043 35.9079 35.124 35.9792L36.2611 36.8472C36.4284 36.9649 36.585 37.0972 36.7291 37.2424C36.8599 37.3864 36.9443 37.5663 36.9716 37.7588C36.7097 37.7782 36.4502 37.8098 36.1908 37.8219C36.1326 37.8219 36.1326 37.9165 36.1908 37.914C36.3436 37.914 36.4987 37.8922 36.6539 37.8777C36.9158 38.1347 37.2334 38.3965 37.471 38.6754C37.5632 38.7994 37.636 38.9368 37.6868 39.0827C37.7475 39.2258 37.8105 39.3543 37.8614 39.5022C37.8814 39.5777 37.9173 39.6482 37.9666 39.7088C38.0159 39.7694 38.0776 39.8188 38.1475 39.8538C38.1694 39.8622 38.1936 39.8622 38.2154 39.8538C38.2365 39.8386 38.2512 39.8161 38.2566 39.7907C38.3026 39.5418 38.2606 39.2847 38.1378 39.0633C37.9763 38.6518 37.745 38.2712 37.4541 37.9383C37.402 37.8881 37.3401 37.8493 37.2722 37.8243C37.4232 37.8158 37.5746 37.8158 37.7256 37.8243C37.7644 37.9528 37.8953 38.0304 38.0117 38.1056C38.3126 38.3086 38.5618 38.5793 38.7391 38.896C38.9234 39.2064 39.0665 39.541 39.2241 39.8659C39.2834 40.0281 39.3986 40.1639 39.549 40.249C39.565 40.2561 39.5823 40.2597 39.5999 40.2597C39.6174 40.2597 39.6348 40.2561 39.6508 40.249C39.6945 40.2272 39.7066 40.169 39.7114 40.1205C39.7324 39.8703 39.7144 39.6183 39.6581 39.3737C39.553 38.9223 39.3266 38.5081 39.0034 38.1759C38.8993 38.0785 38.7764 38.0034 38.6422 37.9553C38.888 38.0055 39.1308 38.0695 39.3696 38.1468C39.7797 38.6055 40.1122 39.128 40.354 39.6937C40.417 39.9126 40.4981 40.1259 40.5964 40.3314C40.6158 40.3654 40.6498 40.4017 40.6861 40.3872C40.6954 40.3826 40.7037 40.3761 40.7104 40.3682C40.717 40.3603 40.722 40.3511 40.7249 40.3411C40.8802 40.0091 40.9045 39.6307 40.7928 39.2815C40.6836 38.9777 40.4881 38.7123 40.2303 38.5178C40.8254 38.8338 41.3404 39.2816 41.736 39.8271C41.9808 40.1719 42.1675 40.5544 42.2888 40.9594C42.3874 41.3981 42.4571 41.8427 42.4974 42.2905C42.529 42.5114 42.5911 42.7268 42.6816 42.9307C42.781 43.1465 42.9241 43.338 43.0381 43.5465C43.136 43.7355 43.1918 43.9436 43.2014 44.1563C43.211 44.3689 43.1743 44.5812 43.0938 44.7782C42.7544 45.6778 41.8621 46.1021 40.9795 46.2985C40.9213 46.3106 40.9456 46.3979 41.0038 46.3858C41.5281 46.2874 42.0247 46.0755 42.4586 45.7651C42.8397 45.4735 43.1141 45.0645 43.2393 44.6013C43.323 44.2034 43.251 43.7886 43.0381 43.4423Z" fill="#FFD515"/>
<path d="M39.7092 42.1305C39.5855 42.1305 39.4934 42.3027 39.5079 42.4966C39.5225 42.6906 39.6316 42.8409 39.7504 42.8312C39.8692 42.8215 39.9662 42.6615 39.9541 42.4675C39.9419 42.2736 39.8352 42.1232 39.7092 42.1305Z" fill="#DDA500"/>
<path d="M42.0368 42.39C42.0246 42.196 41.9131 42.0457 41.7943 42.0554C41.6755 42.0651 41.5785 42.2275 41.5906 42.4215C41.6027 42.6155 41.7143 42.7634 41.8331 42.7561C41.9519 42.7488 42.0489 42.5839 42.0368 42.39Z" fill="#DDA500"/>
<path d="M41.6536 43.2628C41.6567 43.267 41.6607 43.2705 41.6653 43.2729C41.6698 43.2754 41.6749 43.2769 41.6801 43.2773C41.6853 43.2777 41.6905 43.2769 41.6954 43.2751C41.7003 43.2733 41.7047 43.2704 41.7084 43.2667C41.7121 43.263 41.7149 43.2586 41.7167 43.2537C41.7186 43.2488 41.7193 43.2436 41.7189 43.2384C41.7186 43.2332 41.7171 43.2282 41.7146 43.2236C41.7121 43.219 41.7087 43.215 41.7045 43.2119C41.3359 42.8434 40.611 42.7852 40.2958 43.258C40.2691 43.2968 40.3321 43.3331 40.3564 43.2943C40.6522 42.8603 41.319 42.9282 41.6536 43.2628Z" fill="white"/>
<path d="M41.4038 44.5261C41.5498 44.4951 41.6778 44.4081 41.7602 44.2837C41.7664 44.272 41.7678 44.2585 41.7642 44.2458C41.7606 44.2332 41.7522 44.2224 41.7408 44.2158C41.7352 44.2124 41.7288 44.2102 41.7223 44.2094C41.7157 44.2085 41.7091 44.209 41.7027 44.2108C41.6964 44.2126 41.6904 44.2157 41.6853 44.2199C41.6802 44.2241 41.676 44.2293 41.673 44.2352C41.6069 44.3281 41.5124 44.397 41.4038 44.4316C41.4038 44.4025 41.4038 44.3758 41.4038 44.3467C41.4197 44.2041 41.4197 44.0602 41.4038 43.9175C41.3725 43.7584 41.3177 43.6048 41.2414 43.4617C41.3384 43.4084 41.4838 43.3162 41.4838 43.2483C41.4838 43.1804 41.3359 43.1344 41.1517 43.1368C40.9674 43.1392 40.8243 43.1659 40.8243 43.2605C40.8243 43.355 41.0668 43.4641 41.1347 43.4908C41.2127 43.6289 41.2675 43.7788 41.2971 43.9345C41.3118 44.0691 41.3118 44.2049 41.2971 44.3394V44.4364C41.1331 44.4381 40.9733 44.3843 40.8437 44.2837C40.8343 44.2746 40.8217 44.2696 40.8086 44.2696C40.7955 44.2696 40.7829 44.2746 40.7734 44.2837C40.7693 44.289 40.7664 44.2951 40.7648 44.3016C40.7632 44.3081 40.7629 44.3149 40.7641 44.3215C40.7652 44.3281 40.7677 44.3344 40.7714 44.34C40.7751 44.3456 40.7799 44.3503 40.7855 44.354C40.9244 44.4641 41.0936 44.5293 41.2705 44.5407C41.3154 44.542 41.3603 44.5371 41.4038 44.5261V44.5261Z" fill="white"/>
<path d="M37.0928 42.5063C36.9843 42.1727 36.9144 41.8278 36.8842 41.4783C36.8399 40.8325 36.7153 40.1947 36.5133 39.5798C36.2964 39.0115 35.9921 38.4805 35.6113 38.0062C34.765 36.9666 33.6252 36.2062 32.3404 35.824C32.0834 35.7464 31.8167 35.6882 31.55 35.63C31.8845 35.3429 32.184 35.0173 32.4423 34.6601C32.5635 34.488 32.6847 34.3085 32.7817 34.1243C32.8595 33.9581 32.9461 33.7963 33.0412 33.6393C33.1575 33.4696 33.3467 33.3605 33.514 33.5375C33.6413 33.7056 33.7351 33.8965 33.7904 34.1C34.072 34.8753 34.161 35.7074 34.0498 36.5247C34.0498 36.6047 34.1638 36.6411 34.1735 36.5586C34.2462 36.0569 34.2462 35.5474 34.1735 35.0456C34.1177 34.6771 33.7419 32.781 33.0533 33.4187C32.9314 33.5482 32.8352 33.6996 32.7696 33.8648C32.663 34.0818 32.5423 34.2916 32.4083 34.4928C32.127 34.8984 31.7917 35.2639 31.4118 35.5791C30.9604 35.482 30.5038 35.4107 30.0443 35.3657C29.6933 35.3366 29.3405 35.3366 28.9896 35.3657C28.9374 35.24 28.8663 35.1231 28.7786 35.019C28.5479 34.7843 28.2945 34.5731 28.0221 34.3886C27.7481 34.1776 27.4741 33.9667 27.1977 33.7581C27.0498 33.6418 26.8995 33.5278 26.7492 33.4138C26.6279 33.3128 26.499 33.2212 26.3636 33.1399C25.8351 32.8586 25.355 33.3969 25.1513 33.8406C24.9088 34.391 24.8919 35.0335 24.8943 35.63C24.8895 35.9086 24.9398 36.1855 25.0422 36.4447C25.161 36.7308 25.3234 36.9926 25.4301 37.2836C25.3234 37.4073 23.0709 40.0768 24.2421 45.285C24.5791 46.7834 24.293 47.5593 23.9996 48.3813C23.7136 49.0556 23.5644 49.7801 23.5607 50.5126H23.6626C23.6657 49.7917 23.8124 49.0787 24.0942 48.4152C24.4021 47.5787 24.693 46.7907 24.3487 45.2632C23.1679 40.0041 25.5005 37.3612 25.5247 37.3345L25.4859 37.3006H25.5296C25.5373 37.2938 25.5429 37.2849 25.5459 37.2751C25.5489 37.2652 25.5491 37.2548 25.5465 37.2448C25.4471 36.9757 25.3041 36.7284 25.1853 36.4665C25.0617 36.1798 25.003 35.8693 25.0131 35.5572C25.0131 34.9899 25.0131 34.3789 25.2701 33.86C25.3773 33.6168 25.5513 33.4091 25.772 33.2611C25.8355 33.2149 25.9093 33.1847 25.987 33.1733C26.0647 33.1619 26.144 33.1696 26.2181 33.1956C26.3464 33.2533 26.4657 33.3292 26.5722 33.4211L28.0536 34.5534C28.2718 34.7068 28.4762 34.8788 28.6646 35.0675C28.7442 35.1572 28.8096 35.2586 28.8586 35.3681C28.5143 35.3996 28.17 35.436 27.8257 35.4554C27.7433 35.4554 27.7433 35.5888 27.8257 35.5839C28.0463 35.5839 28.267 35.5548 28.4876 35.533C28.861 35.8991 29.312 36.2604 29.6539 36.6702C29.7831 36.8476 29.886 37.0428 29.9594 37.2497C30.0467 37.4533 30.1364 37.64 30.2019 37.8486C30.2306 37.9559 30.2818 38.0559 30.352 38.142C30.4222 38.2281 30.5099 38.2983 30.6092 38.348C30.6246 38.3546 30.6411 38.3579 30.6577 38.3579C30.6744 38.3579 30.6909 38.3546 30.7062 38.348C30.7219 38.3389 30.7354 38.3263 30.7455 38.3112C30.7556 38.296 30.762 38.2788 30.7644 38.2607C30.8298 37.908 30.7698 37.5434 30.5947 37.2303C30.3685 36.643 30.0401 36.1004 29.6248 35.6276C29.5522 35.5545 29.4645 35.4982 29.3678 35.4627C29.5802 35.4506 29.7931 35.4506 30.0055 35.4627C30.0613 35.6494 30.2479 35.7585 30.4225 35.8652C30.8499 36.1554 31.2036 36.5415 31.4554 36.9926C31.7221 37.4364 31.9234 37.9116 32.1513 38.3747C32.2355 38.6053 32.3987 38.7986 32.612 38.9203C32.6349 38.9304 32.6597 38.9357 32.6847 38.9357C32.7098 38.9357 32.7346 38.9304 32.7575 38.9203C32.8205 38.8887 32.8375 38.8063 32.8448 38.736C32.8748 38.3785 32.8486 38.0185 32.7672 37.6691C32.6166 37.0288 32.2938 36.4419 31.8337 35.9719C31.6877 35.8313 31.5132 35.7238 31.3221 35.6567C31.6697 35.7275 32.0129 35.8181 32.3501 35.9282C32.935 36.5824 33.4092 37.3277 33.754 38.1347C33.8439 38.4473 33.9607 38.7515 34.1032 39.0439C34.1323 39.0924 34.1808 39.1433 34.2317 39.1239C34.2579 39.11 34.2779 39.0866 34.2874 39.0585C34.5064 38.5845 34.541 38.046 34.3844 37.5479C34.2208 37.0936 33.9253 36.6985 33.5358 36.4131L33.4921 36.3841C34.379 36.8465 35.1448 37.511 35.7277 38.3238C36.0775 38.8153 36.3446 39.3608 36.5181 39.9386C36.7 40.5593 36.7145 41.2043 36.8139 41.8371C36.8592 42.1523 36.9473 42.4599 37.0758 42.7512C37.2188 43.0592 37.425 43.3307 37.5826 43.6289C37.722 43.8983 37.8015 44.1947 37.8158 44.4977C37.83 44.8007 37.7786 45.1031 37.665 45.3844C37.1801 46.667 35.9071 47.2732 34.6487 47.5496C34.6331 47.5551 34.6202 47.5662 34.6125 47.5809C34.6048 47.5955 34.6029 47.6125 34.6071 47.6284C34.6114 47.6444 34.6216 47.6581 34.6356 47.6669C34.6496 47.6757 34.6664 47.6788 34.6827 47.6757C35.4344 47.5377 36.1464 47.2355 36.7679 46.7907C37.3122 46.3764 37.7037 45.7931 37.8808 45.1322C37.953 44.8417 37.9661 44.5397 37.9195 44.244C37.8728 43.9483 37.7673 43.6649 37.6092 43.4107C37.4082 43.1267 37.2353 42.8238 37.0928 42.5063V42.5063Z" fill="#FFD515"/>
<path d="M32.8595 41.5825C32.6801 41.5825 32.5515 41.825 32.5685 42.1038C32.5855 42.3827 32.7455 42.5888 32.925 42.5888C33.1044 42.5888 33.2329 42.3463 33.2135 42.0674C33.1941 41.7886 33.0365 41.5704 32.8595 41.5825Z" fill="#DDA500"/>
<path d="M36.1765 41.9536C36.1595 41.6771 35.9995 41.4686 35.8201 41.4686C35.6406 41.4686 35.5121 41.7111 35.5315 41.9899C35.5509 42.2688 35.7085 42.4749 35.8855 42.4749C36.0625 42.4749 36.1935 42.2275 36.1765 41.9536Z" fill="#DDA500"/>
<path d="M35.5873 43.195C35.5975 43.2019 35.6097 43.2052 35.622 43.2042C35.6343 43.2032 35.6458 43.1979 35.6547 43.1894C35.6635 43.1808 35.6692 43.1694 35.6706 43.1572C35.672 43.1449 35.6691 43.1326 35.6625 43.1222C35.1339 42.5985 34.101 42.5136 33.65 43.1901C33.6136 43.2459 33.7033 43.2968 33.7397 43.2434C34.1519 42.6227 35.1096 42.7197 35.5873 43.195Z" fill="white"/>
<path d="M26.8122 34.4928C26.7049 34.4345 26.6013 34.3698 26.5019 34.2988C26.4437 34.2528 26.3927 34.1946 26.3394 34.1437C26.2861 34.0927 26.2012 34.0079 26.1285 33.9448C26.0894 33.9024 26.0389 33.8721 25.983 33.8575C25.9078 33.8575 25.9078 33.9715 25.983 33.9764C25.9539 33.9764 25.983 33.9764 25.983 33.9764L26.0218 34.0079C26.0557 34.0345 26.0848 34.0636 26.1163 34.0927L26.32 34.2867C26.449 34.4028 26.5914 34.503 26.7443 34.5849C26.8532 34.6401 26.9564 34.7058 27.0523 34.7813C27.1543 34.8514 27.2364 34.9468 27.2904 35.0582C27.3444 35.1696 27.3684 35.2931 27.3602 35.4166C27.321 35.5547 27.2536 35.6831 27.1622 35.7937C27.0708 35.9043 26.9574 35.9947 26.8292 36.0591C26.834 36.0343 26.834 36.0088 26.8292 35.984C26.8115 35.9396 26.7812 35.9015 26.7419 35.8743C26.7027 35.8471 26.6563 35.8321 26.6086 35.8312C26.5585 35.8254 26.5078 35.8331 26.4617 35.8536C26.4156 35.874 26.3759 35.9065 26.3467 35.9476C26.3064 36.0021 26.2821 36.0668 26.2764 36.1343C26.2193 36.0882 26.1485 36.0626 26.0751 36.0616C26.0259 36.0703 25.9815 36.0963 25.9499 36.1351C25.9183 36.1738 25.9016 36.2226 25.903 36.2725C25.9095 36.3846 25.9439 36.4932 26.0032 36.5885C26.0625 36.6838 26.1448 36.7627 26.2424 36.8181C26.2536 36.8285 26.2684 36.8342 26.2836 36.8342C26.2989 36.8342 26.3136 36.8285 26.3249 36.8181C26.336 36.8067 26.3422 36.7915 26.3422 36.7756C26.3422 36.7598 26.336 36.7445 26.3249 36.7332C26.1822 36.6465 26.0755 36.5114 26.0242 36.3525C26.0242 36.3065 26.0097 36.1949 26.0727 36.178C26.1114 36.1775 26.1493 36.1885 26.1818 36.2095C26.2185 36.2304 26.252 36.2566 26.2812 36.2871C26.2897 36.2949 26.3002 36.3002 26.3115 36.3023C26.3229 36.3044 26.3346 36.3032 26.3453 36.2989C26.356 36.2945 26.3652 36.2873 26.3719 36.2779C26.3786 36.2685 26.3825 36.2574 26.3831 36.2458C26.3831 36.1149 26.417 35.95 26.5795 35.9549C26.6304 35.9549 26.708 35.9718 26.7177 36.0349C26.7189 36.0865 26.7063 36.1376 26.6813 36.1828C26.6498 36.2507 26.7516 36.3137 26.7831 36.2434C26.7927 36.2213 26.8008 36.1987 26.8074 36.1755C26.8244 36.1755 26.8389 36.2046 26.8607 36.1901C27.0157 36.1142 27.1518 36.0048 27.2591 35.8697C27.3665 35.7347 27.4425 35.5774 27.4814 35.4093C27.4869 35.279 27.4609 35.1492 27.4056 35.031C27.3503 34.9129 27.2674 34.8098 27.1638 34.7304C27.0559 34.6383 26.938 34.5586 26.8122 34.4928V34.4928Z" fill="#FFD515"/>
<path d="M35.2284 44.9771C35.4289 44.9257 35.6022 44.8 35.7134 44.6255C35.7168 44.6196 35.719 44.6131 35.7199 44.6064C35.7208 44.5996 35.7203 44.5928 35.7185 44.5862C35.7167 44.5797 35.7136 44.5736 35.7094 44.5682C35.7052 44.5629 35.6999 44.5585 35.694 44.5552C35.6823 44.549 35.6688 44.5476 35.6561 44.5512C35.6434 44.5548 35.6327 44.5632 35.6261 44.5746C35.527 44.7246 35.3758 44.8325 35.2018 44.8777V44.7201C35.2221 44.5182 35.218 44.3147 35.1896 44.1139C35.147 43.8896 35.071 43.6731 34.9641 43.4714C35.0999 43.3986 35.34 43.258 35.34 43.1586C35.34 43.0228 35.1266 42.9937 34.855 42.9985C34.5835 43.0034 34.3871 43.0398 34.3895 43.1755C34.3919 43.3113 34.8744 43.515 34.8744 43.5174C34.9766 43.711 35.0501 43.9185 35.0927 44.1333C35.1147 44.3266 35.1147 44.5219 35.0927 44.7152C35.0927 44.7685 35.0927 44.8219 35.0927 44.8752C34.8456 44.8837 34.6034 44.8047 34.4089 44.6522C34.3979 44.6446 34.3844 44.6416 34.3713 44.6439C34.3581 44.6461 34.3464 44.6535 34.3386 44.6643C34.3316 44.6754 34.3289 44.6888 34.3312 44.7018C34.3334 44.7148 34.3404 44.7264 34.3507 44.7346C34.5489 44.8922 34.7913 44.9837 35.0442 44.9965C35.1061 44.9975 35.168 44.9909 35.2284 44.9771V44.9771Z" fill="white"/>
<path d="M35.5605 37.9553C35.6985 37.8478 35.7904 37.6917 35.8175 37.5189C35.8217 37.4189 35.8019 37.3194 35.7597 37.2287C35.7175 37.138 35.6542 37.0588 35.575 36.9976C35.4893 36.9271 35.3967 36.8653 35.2986 36.8133C35.2146 36.7695 35.1336 36.7201 35.0561 36.6654C35.0101 36.629 34.9713 36.5854 34.9301 36.5466C34.8888 36.5078 34.8234 36.4423 34.7676 36.3938C34.7387 36.3614 34.7007 36.3386 34.6585 36.3284C34.5979 36.3284 34.5979 36.4132 34.6585 36.4181C34.6367 36.4181 34.6585 36.4181 34.6585 36.4181L34.6876 36.4423L34.7603 36.5054L34.9155 36.6557C35.0153 36.7449 35.1252 36.8222 35.2428 36.886C35.3288 36.9273 35.4101 36.9777 35.4853 37.0364C35.5645 37.0891 35.6285 37.1615 35.671 37.2466C35.7136 37.3316 35.7331 37.4263 35.7278 37.5213C35.6967 37.6616 35.6189 37.7873 35.5071 37.8777L35.5605 37.9553Z" fill="#FFD515"/>
<path d="M42.1362 45.7506C42.1352 45.7241 42.1278 45.6983 42.1144 45.6754C42.093 45.6422 42.0593 45.6187 42.0208 45.6101C41.9822 45.6014 41.9418 45.6084 41.9083 45.6293L40.9796 46.2137C40.9571 46.2267 40.9316 46.2335 40.9057 46.2335C40.8797 46.2335 40.8542 46.2267 40.8317 46.2137L39.8619 45.7021C39.8398 45.6893 39.8145 45.6834 39.7891 45.6851C39.7696 45.6854 39.7503 45.6896 39.7325 45.6975C39.7146 45.7054 39.6985 45.7169 39.6852 45.7311C39.6718 45.7454 39.6615 45.7622 39.6548 45.7805C39.648 45.7988 39.6451 45.8183 39.6461 45.8378L39.6946 47.1132C39.6944 47.1351 39.6994 47.1567 39.7091 47.1763C39.7181 47.1937 39.7304 47.2092 39.7454 47.2219C39.7604 47.2345 39.7778 47.2441 39.7965 47.2499C39.8152 47.2558 39.835 47.2579 39.8545 47.2561C39.874 47.2542 39.893 47.2485 39.9104 47.2393L40.8511 46.7544C40.8705 46.7454 40.8916 46.7408 40.9129 46.7408C40.9343 46.7408 40.9554 46.7454 40.9748 46.7544L41.9834 47.1666C42.0033 47.1714 42.0241 47.1714 42.044 47.1666C42.0635 47.1659 42.0826 47.1615 42.1003 47.1535C42.118 47.1454 42.134 47.134 42.1472 47.1198C42.1605 47.1056 42.1709 47.089 42.1777 47.0708C42.1846 47.0526 42.1878 47.0332 42.1871 47.0138L42.1362 45.7506Z" fill="#DDA500"/>
<path d="M36.1352 46.6647C36.1083 46.6228 36.066 46.5932 36.0174 46.5823C35.9688 46.5714 35.9179 46.5801 35.8757 46.6065L34.6949 47.3436C34.6662 47.3602 34.6335 47.369 34.6004 47.369C34.5672 47.369 34.5346 47.3602 34.5058 47.3436L33.2716 46.6938C33.2422 46.6795 33.2098 46.672 33.1771 46.672C33.1267 46.6739 33.0791 46.6956 33.0446 46.7323C33.0101 46.7691 32.9915 46.818 32.9928 46.8684L33.0558 48.4905C33.0559 48.5179 33.0635 48.5447 33.0777 48.5681C33.1004 48.6097 33.1379 48.6413 33.1828 48.6566C33.2277 48.6719 33.2767 48.6697 33.3201 48.6505L34.5179 48.0371C34.5428 48.0263 34.5696 48.0208 34.5967 48.0208C34.6238 48.0208 34.6506 48.0263 34.6755 48.0371L35.9582 48.5608C35.9829 48.5705 36.0092 48.5754 36.0358 48.5754C36.0606 48.5744 36.085 48.5686 36.1076 48.5582C36.1302 48.5478 36.1505 48.5331 36.1674 48.5149C36.1843 48.4966 36.1974 48.4752 36.206 48.4519C36.2147 48.4286 36.2186 48.4038 36.2176 48.379L36.1546 46.7544C36.1566 46.7233 36.1499 46.6922 36.1352 46.6647Z" fill="#DDA500"/>
</g>
<path opacity="0.7" d="M45.3197 27.6296C45.3229 27.3069 45.0639 27.0427 44.7412 27.0394C44.4184 27.0362 44.1542 27.2952 44.151 27.6179C44.1478 27.9406 44.4068 28.2049 44.7295 28.2081C45.0522 28.2113 45.3164 27.9523 45.3197 27.6296Z" fill="#DDA500"/>
<defs>
<clipPath id="clip0_150_429">
<rect width="56" height="56" fill="white" transform="translate(0.322876 0.98645)"/>
</clipPath>
</defs>
</svg>
