<svg width="56" height="56" viewBox="0 0 56 56" fill="none" xmlns="http://www.w3.org/2000/svg">
<g clip-path="url(#clip0_21_238)">
<path d="M0 28C0 12.536 12.536 0 28 0V0C43.464 0 56 12.536 56 28V28C56 43.464 43.464 56 28 56V56C12.536 56 0 43.464 0 28V28Z" fill="white"/>
<path d="M0 28C0 12.536 12.536 0 28 0V0C43.464 0 56 12.536 56 28V28C56 43.464 43.464 56 28 56V56C12.536 56 0 43.464 0 28V28Z" fill="white" fill-opacity="0.04"/>
<path opacity="0.2" d="M19.25 54.37C21.3344 51.4215 22.3888 47.8682 22.25 44.26C23.5528 43.7387 24.6847 42.8647 25.5184 41.736C26.3521 40.6073 26.8549 39.2685 26.9701 37.87C27.0301 36.87 27.06 35.87 27.06 34.98C27.048 34.3694 26.9365 33.7648 26.7299 33.19V33.19V26.58L26.8501 26.15C27.0897 25.385 27.0897 24.565 26.8501 23.8C26.6409 23.1685 26.2388 22.6185 25.7006 22.2274C25.1625 21.8364 24.5153 21.6239 23.8501 21.62C23.8294 21.1792 23.7195 20.7472 23.5269 20.3501C23.3344 19.953 23.0633 19.5992 22.7299 19.31C21.9364 18.7421 20.9587 18.4923 19.99 18.61C19.8631 18.4148 19.7156 18.2337 19.55 18.07C19.2459 17.7419 18.8779 17.4795 18.4686 17.299C18.0593 17.1184 17.6173 17.0235 17.17 17.02C16.5036 17.064 15.8755 17.3473 15.4015 17.8177C14.9274 18.2881 14.6392 18.914 14.5901 19.58V19.77C13.8129 19.791 13.0754 20.1179 12.5379 20.6797C12.0005 21.2415 11.7066 21.9927 11.7201 22.77V23.19C11.7901 23.98 11.83 24.78 11.83 25.58V25.93C11.1195 25.74 10.3689 25.7608 9.67001 25.99C9.10762 26.1762 8.61877 26.5359 8.27377 27.0175C7.92876 27.499 7.74534 28.0776 7.74996 28.67V30.23C7.74974 30.7291 7.78987 31.2274 7.86996 31.72L8.06002 32.79V35.14C8.06002 35.38 8.32996 41.02 12.12 42.86C11.9686 43.8006 11.5834 44.6881 10.9998 45.4411C10.4163 46.1942 9.65302 46.7886 8.77999 47.17L13.3 51.58L19.25 54.37Z" fill="#C1C4C9"/>
<path opacity="0.2" d="M47.8501 47.58L48.24 46.66C47.367 46.2787 46.6037 45.6842 46.0201 44.9311C45.4366 44.1781 45.0514 43.2906 44.9 42.35C48.69 40.51 48.9501 34.87 48.9601 34.61V32.36L49.16 31.2C49.2407 30.7108 49.2809 30.2158 49.28 29.72V28.16C49.2847 27.5676 49.1012 26.989 48.7562 26.5075C48.4112 26.0259 47.9224 25.6662 47.36 25.48C46.6611 25.2508 45.9106 25.23 45.2001 25.42V25.07C45.2001 24.27 45.2 23.47 45.3 22.68V22.26C45.3037 21.6818 45.1368 21.1154 44.8202 20.6316C44.5036 20.1478 44.0513 19.7681 43.52 19.54C43.1713 19.3929 42.7984 19.3115 42.42 19.3V19.07C42.3547 18.4202 42.0602 17.8148 41.5894 17.3622C41.1185 16.9097 40.502 16.6395 39.8501 16.6C39.4014 16.6044 38.9583 16.6998 38.5475 16.8802C38.1367 17.0607 37.7668 17.3226 37.4601 17.65C37.2981 17.818 37.1539 18.0023 37.03 18.2C36.0621 18.0713 35.0816 18.3183 34.29 18.89C33.9567 19.1792 33.6856 19.5331 33.493 19.9301C33.3005 20.3272 33.1907 20.7592 33.17 21.2C32.5052 21.2054 31.8586 21.4184 31.3207 21.8093C30.7828 22.2001 30.3805 22.7493 30.17 23.38C29.9304 24.145 29.9304 24.965 30.17 25.73L30.29 26.16V32.77C30.0788 33.3435 29.9672 33.9489 29.9601 34.56C29.9601 35.46 29.96 36.41 30.05 37.45C30.1652 38.8485 30.6679 40.1873 31.5016 41.316C32.3353 42.4447 33.4672 43.3188 34.77 43.84C34.71 50.19 37.6 53.84 37.77 53.95L38.54 53.31L47.8501 47.58Z" fill="#C1C4C9"/>
<path d="M47.3501 25.48C46.6512 25.2508 45.9006 25.23 45.1901 25.42V25.07C45.1901 24.27 45.19 23.47 45.29 22.68V22.26C45.2937 21.6818 45.1268 21.1154 44.8102 20.6316C44.4936 20.1478 44.0413 19.7681 43.51 19.54C43.1613 19.3929 42.7884 19.3115 42.41 19.3V19.07C42.3447 18.4202 42.0504 17.8148 41.5795 17.3622C41.1086 16.9097 40.492 16.6395 39.8401 16.6V16.6C39.3914 16.6044 38.9483 16.6998 38.5375 16.8802C38.1267 17.0607 37.7568 17.3226 37.4501 17.65C37.2881 17.818 37.1439 18.0023 37.02 18.2C36.0521 18.0713 35.0716 18.3183 34.28 18.89C33.9467 19.1792 33.6756 19.5331 33.483 19.9301C33.2905 20.3272 33.1807 20.7592 33.16 21.2C32.4952 21.2054 31.8485 21.4184 31.3107 21.8093C30.7728 22.2001 30.3705 22.7493 30.16 23.38C29.9203 24.145 29.9203 24.965 30.16 25.73L30.28 26.16V32.77C30.0688 33.3435 29.9572 33.9489 29.9501 34.56C29.9501 35.46 29.95 36.41 30.04 37.45C30.1552 38.8485 30.658 40.1873 31.4917 41.316C32.3254 42.4447 33.4572 43.3188 34.76 43.84C34.7 50.19 37.59 53.84 37.76 53.95L38.53 53.31C36.5646 50.4374 35.6047 46.9952 35.8 43.52V43.14L35.4501 43.03C34.2572 42.607 33.2106 41.8508 32.4343 40.8512C31.658 39.8516 31.1846 38.6504 31.0701 37.39C31.0101 36.39 30.98 35.45 30.98 34.57C30.9674 33.7255 31.2098 32.8969 31.6754 32.1922C32.141 31.4876 32.8083 30.9397 33.5901 30.62C33.9349 30.4857 34.3001 30.4113 34.67 30.4C37.03 30.4 39.9401 30.4 39.9501 30.4H40.4501V26.53C40.4307 25.8778 40.3538 25.2286 40.2201 24.59C40.0978 24.0108 40.0274 23.4218 40.01 22.83C40.0074 22.2148 40.2317 21.6202 40.64 21.16C40.7591 21.026 40.886 20.8991 41.02 20.78C41.2851 20.5363 41.6156 20.3753 41.9708 20.3167C42.3261 20.2581 42.6907 20.3044 43.02 20.45C43.3756 20.6098 43.6767 20.87 43.8864 21.1987C44.096 21.5274 44.2051 21.9102 44.2001 22.3V22.59C44.1301 23.4 44.0901 24.23 44.0901 25.06V25.83C43.9034 25.936 43.7231 26.0529 43.55 26.18C43.081 26.5443 42.7017 27.0115 42.4417 27.5455C42.1816 28.0795 42.0477 28.666 42.05 29.26V29.77C42.0491 30.5839 42.2704 31.3826 42.6901 32.08V33.98L42.11 35.1L43 35.56L43.6901 34.22V31.77L43.61 31.65C43.2437 31.0841 43.0493 30.4241 43.05 29.75V29.29C43.0458 28.8499 43.1438 28.4149 43.3364 28.0192C43.5291 27.6236 43.811 27.278 44.16 27.01C44.5372 26.6873 44.9906 26.4665 45.4772 26.3685C45.9638 26.2704 46.4674 26.2985 46.9401 26.45C47.2987 26.576 47.6095 26.81 47.8297 27.1198C48.05 27.4295 48.1688 27.7999 48.17 28.18V29.77C48.1686 30.2122 48.1318 30.6536 48.0601 31.09L47.86 32.33V34.64C47.86 34.7 47.6001 40.2 44.0901 41.64L43.76 41.77V42.12C43.9 45.99 47.58 47.59 47.76 47.65L48.15 46.73C47.277 46.3486 46.5137 45.7542 45.9302 45.0011C45.3466 44.2481 44.9615 43.3606 44.8101 42.42C48.6001 40.58 48.86 34.94 48.87 34.68V32.43L49.0701 31.27C49.1508 30.7808 49.1909 30.2858 49.1901 29.79V28.23C49.2153 27.6356 49.0506 27.0486 48.7197 26.5542C48.3889 26.0597 47.9092 25.6834 47.3501 25.48ZM31.3501 31.09V26.09L31.1901 25.45C31.0141 24.8765 31.0141 24.2635 31.1901 23.69C31.3302 23.2672 31.5975 22.8981 31.9556 22.6331C32.3136 22.3682 32.7448 22.2204 33.1901 22.21C33.209 22.8371 33.3237 23.4576 33.53 24.05C33.53 24.14 33.5901 24.22 33.5901 24.16C33.5001 26.53 33.5901 28.81 33.5901 29.62C33.512 29.6341 33.435 29.6542 33.36 29.68C32.5782 29.9715 31.8833 30.4566 31.3401 31.09H31.3501ZM34.75 29.4H34.5601C34.5601 28.51 34.4501 26.4 34.5601 24.18C34.5485 24.026 34.5148 23.8744 34.4601 23.73C34.2742 23.2299 34.1695 22.7032 34.15 22.17V21.51C34.1393 21.1622 34.2033 20.8161 34.3379 20.4953C34.4725 20.1744 34.6744 19.8861 34.9301 19.65C35.4106 19.3075 35.9902 19.1319 36.5801 19.15C36.4236 19.6175 36.3425 20.107 36.3401 20.6C36.3388 21.4771 36.4806 22.3486 36.76 23.18V29.37L34.75 29.4ZM40.4401 20.05C40.2701 20.2 40.13 20.35 39.99 20.5C39.4143 21.1472 39.0975 21.9838 39.1001 22.85C39.1203 23.4955 39.1972 24.138 39.3301 24.77C39.4526 25.3526 39.5229 25.9449 39.54 26.54V29.4H37.77V23.13V22.97C37.5112 22.217 37.3794 21.4262 37.38 20.63C37.3672 20.2137 37.4365 19.7989 37.5841 19.4094C37.7317 19.0199 37.9545 18.6633 38.24 18.36C38.4518 18.1269 38.7095 17.9399 38.9968 17.8109C39.2842 17.6818 39.5951 17.6134 39.91 17.61V17.61C40.3132 17.6471 40.691 17.8229 40.9791 18.1073C41.2672 18.3918 41.4477 18.7673 41.49 19.17V19.45C41.098 19.5724 40.7367 19.777 40.4301 20.05H40.4401Z" fill="#C1C4C9"/>
<path d="M26.74 26.58L26.8599 26.15C27.0996 25.385 27.0996 24.565 26.8599 23.8C26.6508 23.1685 26.2488 22.6185 25.7107 22.2274C25.1725 21.8364 24.5252 21.6239 23.8599 21.62C23.8393 21.1792 23.7295 20.7472 23.537 20.3501C23.3444 19.953 23.0733 19.5992 22.74 19.31C21.9464 18.7421 20.9687 18.4923 20 18.61C19.8731 18.4148 19.7256 18.2337 19.56 18.07C19.2559 17.7419 18.8879 17.4795 18.4786 17.299C18.0693 17.1184 17.6274 17.0235 17.18 17.02C16.5136 17.064 15.8855 17.3473 15.4115 17.8177C14.9374 18.2881 14.6492 18.914 14.6001 19.58V19.77C13.8229 19.791 13.0854 20.1179 12.5479 20.6797C12.0105 21.2415 11.7165 21.9927 11.7299 22.77V23.19C11.7999 23.98 11.8401 24.78 11.8401 25.58V25.93C11.1295 25.74 10.3789 25.7608 9.68002 25.99C9.11763 26.1762 8.62878 26.5359 8.28378 27.0175C7.93877 27.499 7.75535 28.0776 7.75997 28.67V30.23C7.75975 30.7291 7.79988 31.2274 7.87997 31.72L8.07003 32.79V35.14C8.07003 35.38 8.33997 41.02 12.13 42.86C11.9786 43.8006 11.5934 44.6881 11.0099 45.4411C10.4263 46.1942 9.66303 46.7886 8.79 47.17L9.18002 48.09C9.33002 48.03 13.02 46.43 13.18 42.56V42.21L12.8501 42.08C9.34006 40.66 9.08004 35.15 9.08004 35.08V32.67L8.88998 31.51C8.8182 31.0736 8.78144 30.6322 8.77999 30.19V28.63C8.77826 28.2492 8.89601 27.8775 9.11666 27.5671C9.33732 27.2568 9.64974 27.0234 10.01 26.9C10.4826 26.7485 10.9863 26.7204 11.4729 26.8184C11.9594 26.9165 12.4128 27.1373 12.79 27.46C13.1373 27.7296 13.418 28.0754 13.6104 28.4707C13.8029 28.8661 13.902 29.3003 13.9 29.74V30.2C13.8963 30.8735 13.7022 31.5322 13.3401 32.1L13.26 32.22V34.65L13.95 35.99L14.8401 35.53L14.26 34.4V32.51C14.6796 31.8126 14.9009 31.0139 14.9 30.2V29.74C14.9024 29.1461 14.7684 28.5595 14.5084 28.0255C14.2483 27.4915 13.8691 27.0243 13.4 26.66C13.227 26.5329 13.0466 26.416 12.8599 26.31V25.54C12.8599 24.72 12.86 23.88 12.75 23.07V22.73C12.747 22.347 12.8575 21.9717 13.0675 21.6514C13.2775 21.331 13.5776 21.08 13.93 20.93C14.2584 20.7831 14.6224 20.7351 14.9776 20.792C15.3328 20.8488 15.6639 21.008 15.93 21.25C16.0643 21.3724 16.1912 21.5026 16.31 21.64C16.7212 22.0992 16.949 22.6936 16.95 23.31C16.9275 23.9014 16.8572 24.4899 16.74 25.07C16.6013 25.7078 16.5243 26.3575 16.51 27.01V30.88H17.01C17.01 30.88 19.93 30.88 22.28 30.88C22.6531 30.8913 23.0216 30.9657 23.37 31.1C24.1598 31.4227 24.8327 31.9783 25.2989 32.6929C25.7652 33.4075 26.0027 34.2471 25.9799 35.1C25.9799 35.99 25.98 36.91 25.89 37.92C25.7851 39.1835 25.3153 40.3893 24.5377 41.3906C23.7601 42.3919 22.7082 43.1456 21.51 43.56L21.16 43.67V44.05C21.3553 47.5252 20.3955 50.9674 18.43 53.84L19.2 54.48C21.2845 51.5315 22.3389 47.9782 22.2 44.37C23.5029 43.8488 24.6346 42.9747 25.4683 41.846C26.3021 40.7173 26.8048 39.3785 26.92 37.98C26.98 36.98 27.01 35.98 27.01 35.09C26.998 34.4794 26.8866 33.8748 26.68 33.3V33.3L26.74 26.58ZM17.1001 20.92C16.9601 20.77 16.82 20.62 16.65 20.47C16.3627 20.1994 16.0221 19.9916 15.65 19.86V19.66C15.6806 19.2436 15.8566 18.8511 16.1473 18.5513C16.438 18.2515 16.8247 18.0635 17.24 18.02V18.02C17.5549 18.0234 17.8658 18.0918 18.1532 18.2209C18.4405 18.3499 18.6982 18.5369 18.91 18.77C19.4846 19.3838 19.7937 20.1996 19.77 21.04C19.7714 21.8363 19.6395 22.6272 19.38 23.38V29.81H17.6099V26.95C17.6268 26.3582 17.6971 25.7692 17.82 25.19C17.9531 24.5513 18.03 23.9022 18.05 23.25C18.0322 22.3826 17.6938 21.5526 17.1001 20.92V20.92ZM20.32 29.81V23.62C20.5995 22.7886 20.7413 21.9171 20.74 21.04C20.7384 20.5469 20.6573 20.0573 20.5 19.59C21.0898 19.5719 21.6694 19.7475 22.15 20.09C22.404 20.3273 22.6049 20.6158 22.7393 20.9364C22.8738 21.257 22.9388 21.6025 22.93 21.95C22.93 22.16 22.93 22.38 22.93 22.61C22.9106 23.1432 22.8059 23.6699 22.62 24.17C22.5652 24.3144 22.5316 24.466 22.52 24.62C22.6 26.83 22.52 28.95 22.52 29.84H22.33L20.32 29.81ZM23.76 30.1L23.53 30.04C23.53 29.23 23.64 26.97 23.53 24.67C23.53 24.67 23.5301 24.56 23.6001 24.46C23.8079 23.8714 23.9226 23.254 23.94 22.63C24.3853 22.6404 24.8165 22.7882 25.1745 23.0531C25.5326 23.3181 25.7999 23.6872 25.94 24.11C26.116 24.6835 26.116 25.2965 25.94 25.87L25.8 26.37V31.52C25.2504 30.8825 24.5487 30.3941 23.76 30.1V30.1Z" fill="#C1C4C9"/>
<path d="M28.0001 56C22.4622 56 17.0487 54.3578 12.4441 51.2812C7.83957 48.2045 4.25066 43.8315 2.1314 38.7151C0.0121489 33.5988 -0.542367 27.9689 0.538019 22.5375C1.6184 17.106 4.28523 12.1169 8.20111 8.20102C12.117 4.28515 17.1061 1.61841 22.5375 0.538027C27.969 -0.542359 33.5988 0.0121264 38.7151 2.13138C43.8315 4.25063 48.2045 7.83949 51.2812 12.4441C54.3579 17.0486 56.0001 22.4622 56.0001 28C56.0001 35.4261 53.05 42.548 47.799 47.799C42.548 53.05 35.4261 56 28.0001 56V56ZM28.0001 1.00003C22.66 1.00003 17.4398 2.58356 12.9997 5.55036C8.55956 8.51715 5.09892 12.734 3.05535 17.6676C1.01179 22.6012 0.477053 28.03 1.51885 33.2675C2.56065 38.5049 5.13212 43.3159 8.90814 47.0919C12.6842 50.8679 17.4951 53.4394 22.7326 54.4812C27.9701 55.523 33.3988 54.9883 38.3325 52.9448C43.2661 50.9012 47.483 47.4406 50.4498 43.0004C53.4166 38.5603 55.0001 33.3401 55.0001 28C55.0027 24.4527 54.3062 20.9395 52.9505 17.6614C51.5948 14.3833 49.6065 11.4045 47.0991 8.8952C44.5916 6.3859 41.6142 4.3953 38.3371 3.03717C35.06 1.67904 31.5474 0.980012 28.0001 0.980013V1.00003Z" fill="#C1C4C9"/>
</g>
<defs>
<clipPath id="clip0_21_238">
<rect width="56" height="56" fill="white"/>
</clipPath>
</defs>
</svg>
