<svg width="57" height="56" viewBox="0 0 57 56" fill="none" xmlns="http://www.w3.org/2000/svg">
<g clip-path="url(#clip0_19_289)">
<path d="M0.0512695 28C0.0512695 12.536 12.5873 0 28.0513 0C43.5152 0 56.0513 12.536 56.0513 28C56.0513 43.464 43.5152 56 28.0513 56C12.5873 56 0.0512695 43.464 0.0512695 28Z" fill="white"/>
<path d="M0.0512695 28C0.0512695 12.536 12.5873 0 28.0513 0C43.5152 0 56.0513 12.536 56.0513 28C56.0513 43.464 43.5152 56 28.0513 56C12.5873 56 0.0512695 43.464 0.0512695 28Z" fill="#FFD515" fill-opacity="0.04"/>
<path opacity="0.2" d="M19.3012 54.37C21.3857 51.4215 22.4401 47.8682 22.3012 44.26C23.6041 43.7387 24.7359 42.8647 25.5697 41.736C26.4034 40.6073 26.9061 39.2685 27.0213 37.87C27.0813 36.87 27.1113 35.87 27.1113 34.98C27.0993 34.3694 26.9877 33.7648 26.7812 33.19V26.58L26.9013 26.15C27.141 25.385 27.141 24.565 26.9013 23.8C26.6921 23.1685 26.2901 22.6185 25.7519 22.2274C25.2137 21.8364 24.5666 21.6239 23.9013 21.62C23.8807 21.1792 23.7707 20.7472 23.5782 20.3501C23.3857 19.953 23.1145 19.5992 22.7812 19.31C21.9876 18.7421 21.01 18.4923 20.0412 18.61C19.9143 18.4148 19.7669 18.2337 19.6013 18.07C19.2971 17.7419 18.9292 17.4795 18.5199 17.299C18.1106 17.1184 17.6686 17.0235 17.2213 17.02C16.5549 17.064 15.9268 17.3473 15.4527 17.8177C14.9786 18.2881 14.6905 18.914 14.6413 19.58V19.77C13.8642 19.791 13.1266 20.1179 12.5892 20.6797C12.0518 21.2415 11.7579 21.9927 11.7713 22.77V23.19C11.8413 23.98 11.8813 24.78 11.8813 25.58V25.93C11.1707 25.74 10.4202 25.7608 9.72128 25.99C9.15889 26.1762 8.67004 26.5359 8.32504 27.0175C7.98003 27.499 7.79661 28.0776 7.80123 28.67V30.23C7.80101 30.7291 7.84114 31.2274 7.92123 31.72L8.11129 32.79V35.14C8.11129 35.38 8.38123 41.02 12.1712 42.86C12.0198 43.8006 11.6347 44.6881 11.0511 45.4411C10.4675 46.1942 9.70429 46.7886 8.83126 47.17L13.3513 51.58L19.3012 54.37Z" fill="#FFD515"/>
<path opacity="0.2" d="M47.9014 47.58L48.2913 46.66C47.4182 46.2787 46.655 45.6842 46.0714 44.9311C45.4878 44.1781 45.1027 43.2906 44.9513 42.35C48.7413 40.51 49.0014 34.87 49.0114 34.61V32.36L49.2113 31.2C49.292 30.7108 49.3321 30.2158 49.3313 29.72V28.16C49.3359 27.5676 49.1525 26.989 48.8075 26.5075C48.4625 26.0259 47.9736 25.6662 47.4113 25.48C46.7123 25.2508 45.9619 25.23 45.2513 25.42V25.07C45.2513 24.27 45.2513 23.47 45.3513 22.68V22.26C45.355 21.6818 45.1881 21.1154 44.8715 20.6316C44.5549 20.1478 44.1026 19.7681 43.5713 19.54C43.2226 19.3929 42.8496 19.3115 42.4713 19.3V19.07C42.406 18.4202 42.1115 17.8148 41.6406 17.3622C41.1697 16.9097 40.5533 16.6395 39.9014 16.6C39.4527 16.6044 39.0095 16.6998 38.5988 16.8802C38.188 17.0607 37.8181 17.3226 37.5114 17.65C37.3494 17.818 37.2052 18.0023 37.0813 18.2C36.1133 18.0713 35.1329 18.3183 34.3413 18.89C34.008 19.1792 33.7368 19.5331 33.5443 19.9301C33.3518 20.3272 33.2419 20.7592 33.2213 21.2C32.5564 21.2054 31.9098 21.4184 31.3719 21.8093C30.8341 22.2001 30.4318 22.7493 30.2213 23.38C29.9816 24.145 29.9816 24.965 30.2213 25.73L30.3413 26.16V32.77C30.1301 33.3435 30.0185 33.9489 30.0114 34.56C30.0114 35.46 30.0113 36.41 30.1013 37.45C30.2165 38.8485 30.7191 40.1873 31.5529 41.316C32.3866 42.4447 33.5184 43.3188 34.8213 43.84C34.7613 50.19 37.6513 53.84 37.8213 53.95L38.5913 53.31L47.9014 47.58Z" fill="#FFD515"/>
<path d="M47.4014 25.48C46.7024 25.2508 45.9519 25.23 45.2413 25.42V25.07C45.2413 24.27 45.2413 23.47 45.3413 22.68V22.26C45.3449 21.6818 45.1781 21.1154 44.8615 20.6316C44.5448 20.1478 44.0926 19.7681 43.5613 19.54C43.2125 19.3929 42.8396 19.3115 42.4613 19.3V19.07C42.396 18.4202 42.1016 17.8148 41.6307 17.3622C41.1599 16.9097 40.5433 16.6395 39.8914 16.6C39.4427 16.6044 38.9995 16.6998 38.5887 16.8802C38.178 17.0607 37.8081 17.3226 37.5013 17.65C37.3394 17.818 37.1952 18.0023 37.0713 18.2C36.1033 18.0713 35.1229 18.3183 34.3313 18.89C33.998 19.1792 33.7268 19.5331 33.5343 19.9301C33.3418 20.3272 33.2319 20.7592 33.2113 21.2C32.5464 21.2054 31.8998 21.4184 31.3619 21.8093C30.8241 22.2001 30.4218 22.7493 30.2113 23.38C29.9716 24.145 29.9716 24.965 30.2113 25.73L30.3313 26.16V32.77C30.1201 33.3435 30.0085 33.9489 30.0013 34.56C30.0013 35.46 30.0013 36.41 30.0913 37.45C30.2065 38.8485 30.7092 40.1873 31.543 41.316C32.3767 42.4447 33.5084 43.3188 34.8113 43.84C34.7513 50.19 37.6413 53.84 37.8113 53.95L38.5813 53.31C36.6158 50.4374 35.656 46.9952 35.8513 43.52V43.14L35.5013 43.03C34.3085 42.607 33.2619 41.8508 32.4856 40.8512C31.7093 39.8516 31.2359 38.6504 31.1213 37.39C31.0613 36.39 31.0312 35.45 31.0312 34.57C31.0187 33.7255 31.2611 32.8969 31.7267 32.1922C32.1923 31.4876 32.8596 30.9397 33.6414 30.62C33.9862 30.4857 34.3514 30.4113 34.7213 30.4C37.0813 30.4 39.9913 30.4 40.0013 30.4H40.5013V26.53C40.482 25.8778 40.4051 25.2286 40.2714 24.59C40.149 24.0108 40.0787 23.4218 40.0613 22.83C40.0586 22.2148 40.283 21.6202 40.6913 21.16C40.8103 21.026 40.9372 20.8991 41.0713 20.78C41.3364 20.5363 41.6668 20.3753 42.0221 20.3167C42.3774 20.2581 42.742 20.3044 43.0713 20.45C43.4269 20.6098 43.728 20.87 43.9376 21.1987C44.1473 21.5274 44.2564 21.9102 44.2513 22.3V22.59C44.1813 23.4 44.1414 24.23 44.1414 25.06V25.83C43.9547 25.936 43.7743 26.0529 43.6013 26.18C43.1322 26.5443 42.753 27.0115 42.4929 27.5455C42.2329 28.0795 42.0989 28.666 42.1013 29.26V29.77C42.1004 30.5839 42.3217 31.3826 42.7413 32.08V33.98L42.1613 35.1L43.0513 35.56L43.7413 34.22V31.77L43.6613 31.65C43.295 31.0841 43.1006 30.4241 43.1013 29.75V29.29C43.097 28.8499 43.1951 28.4149 43.3877 28.0192C43.5803 27.6236 43.8623 27.278 44.2113 27.01C44.5885 26.6873 45.0419 26.4665 45.5284 26.3685C46.015 26.2704 46.5187 26.2985 46.9913 26.45C47.3499 26.576 47.6607 26.81 47.881 27.1198C48.1012 27.4295 48.2201 27.7999 48.2213 28.18V29.77C48.2199 30.2122 48.1831 30.6536 48.1113 31.09L47.9113 32.33V34.64C47.9113 34.7 47.6514 40.2 44.1414 41.64L43.8113 41.77V42.12C43.9513 45.99 47.6313 47.59 47.8113 47.65L48.2013 46.73C47.3283 46.3486 46.565 45.7542 45.9814 45.0011C45.3979 44.2481 45.0127 43.3606 44.8613 42.42C48.6513 40.58 48.9113 34.94 48.9213 34.68V32.43L49.1213 31.27C49.202 30.7808 49.2422 30.2858 49.2413 29.79V28.23C49.2666 27.6356 49.1018 27.0486 48.771 26.5542C48.4402 26.0597 47.9604 25.6834 47.4014 25.48ZM31.4014 31.09V26.09L31.2413 25.45C31.0654 24.8765 31.0654 24.2635 31.2413 23.69C31.3814 23.2672 31.6488 22.8981 32.0068 22.6331C32.3649 22.3682 32.7961 22.2204 33.2413 22.21C33.2603 22.8371 33.3749 23.4576 33.5813 24.05C33.5813 24.14 33.6414 24.22 33.6414 24.16C33.5514 26.53 33.6414 28.81 33.6414 29.62C33.5633 29.6341 33.4863 29.6542 33.4113 29.68C32.6295 29.9715 31.9345 30.4566 31.3914 31.09H31.4014ZM34.8013 29.4H34.6113C34.6113 28.51 34.5013 26.4 34.6113 24.18C34.5998 24.026 34.5661 23.8744 34.5114 23.73C34.3254 23.2299 34.2207 22.7032 34.2013 22.17V21.51C34.1906 21.1622 34.2546 20.8161 34.3892 20.4953C34.5237 20.1744 34.7257 19.8861 34.9813 19.65C35.4619 19.3075 36.0415 19.1319 36.6313 19.15C36.4748 19.6175 36.3938 20.107 36.3914 20.6C36.39 21.4771 36.5318 22.3486 36.8113 23.18V29.37L34.8013 29.4ZM40.4913 20.05C40.3213 20.2 40.1813 20.35 40.0413 20.5C39.4656 21.1472 39.1488 21.9838 39.1514 22.85C39.1715 23.4955 39.2485 24.138 39.3813 24.77C39.5039 25.3526 39.5741 25.9449 39.5913 26.54V29.4H37.8213V23.13V22.97C37.5624 22.217 37.4306 21.4262 37.4313 20.63C37.4185 20.2137 37.4878 19.7989 37.6354 19.4094C37.7829 19.0199 38.0058 18.6633 38.2913 18.36C38.5031 18.1269 38.7607 17.9399 39.0481 17.8109C39.3354 17.6818 39.6463 17.6134 39.9613 17.61C40.3645 17.6471 40.7423 17.8229 41.0304 18.1073C41.3185 18.3918 41.499 18.7673 41.5413 19.17V19.45C41.1493 19.5724 40.788 19.777 40.4813 20.05H40.4913Z" fill="#FFD515"/>
<path d="M26.7912 26.58L26.9112 26.15C27.1509 25.385 27.1509 24.565 26.9112 23.8C26.702 23.1685 26.3001 22.6185 25.7619 22.2274C25.2238 21.8364 24.5765 21.6239 23.9112 21.62C23.8906 21.1792 23.7807 20.7472 23.5882 20.3501C23.3957 19.953 23.1245 19.5992 22.7912 19.31C21.9976 18.7421 21.02 18.4923 20.0512 18.61C19.9243 18.4148 19.7769 18.2337 19.6113 18.07C19.3072 17.7419 18.9392 17.4795 18.5299 17.299C18.1206 17.1184 17.6786 17.0235 17.2313 17.02C16.5649 17.064 15.9368 17.3473 15.4627 17.8177C14.9886 18.2881 14.7005 18.914 14.6513 19.58V19.77C13.8742 19.791 13.1366 20.1179 12.5992 20.6797C12.0618 21.2415 11.7678 21.9927 11.7812 22.77V23.19C11.8512 23.98 11.8913 24.78 11.8913 25.58V25.93C11.1808 25.74 10.4302 25.7608 9.73129 25.99C9.1689 26.1762 8.68005 26.5359 8.33505 27.0175C7.99004 27.499 7.80662 28.0776 7.81124 28.67V30.23C7.81102 30.7291 7.85115 31.2274 7.93124 31.72L8.1213 32.79V35.14C8.1213 35.38 8.39124 41.02 12.1812 42.86C12.0298 43.8006 11.6447 44.6881 11.0611 45.4411C10.4776 46.1942 9.7143 46.7886 8.84127 47.17L9.23129 48.09C9.38129 48.03 13.0713 46.43 13.2313 42.56V42.21L12.9013 42.08C9.39133 40.66 9.13131 35.15 9.13131 35.08V32.67L8.94125 31.51C8.86947 31.0736 8.8327 30.6322 8.83126 30.19V28.63C8.82953 28.2492 8.94728 27.8775 9.16793 27.5671C9.38859 27.2568 9.70101 27.0234 10.0612 26.9C10.5339 26.7485 11.0375 26.7204 11.5241 26.8184C12.0107 26.9165 12.4641 27.1373 12.8413 27.46C13.1886 27.7296 13.4692 28.0754 13.6617 28.4707C13.8542 28.8661 13.9532 29.3003 13.9513 29.74V30.2C13.9475 30.8735 13.7535 31.5322 13.3913 32.1L13.3112 32.22V34.65L14.0013 35.99L14.8913 35.53L14.3112 34.4V32.51C14.7309 31.8126 14.9522 31.0139 14.9513 30.2V29.74C14.9537 29.1461 14.8197 28.5595 14.5597 28.0255C14.2996 27.4915 13.9203 27.0243 13.4513 26.66C13.2783 26.5329 13.0979 26.416 12.9112 26.31V25.54C12.9112 24.72 12.9112 23.88 12.8012 23.07V22.73C12.7983 22.347 12.9087 21.9717 13.1187 21.6514C13.3287 21.331 13.6289 21.08 13.9813 20.93C14.3097 20.7831 14.6737 20.7351 15.0289 20.792C15.3841 20.8488 15.7151 21.008 15.9813 21.25C16.1155 21.3724 16.2424 21.5026 16.3613 21.64C16.7724 22.0992 17.0003 22.6936 17.0013 23.31C16.9788 23.9014 16.9085 24.4899 16.7912 25.07C16.6526 25.7078 16.5756 26.3575 16.5612 27.01V30.88H17.0612C17.0612 30.88 19.9813 30.88 22.3313 30.88C22.7044 30.8913 23.0729 30.9657 23.4212 31.1C24.2111 31.4227 24.8839 31.9783 25.3502 32.6929C25.8164 33.4075 26.054 34.2471 26.0312 35.1C26.0312 35.99 26.0312 36.91 25.9412 37.92C25.8364 39.1835 25.3666 40.3893 24.589 41.3906C23.8113 42.3919 22.7594 43.1456 21.5612 43.56L21.2113 43.67V44.05C21.4066 47.5252 20.4467 50.9674 18.4813 53.84L19.2513 54.48C21.3357 51.5315 22.3901 47.9782 22.2513 44.37C23.5542 43.8488 24.6859 42.9747 25.5196 41.846C26.3534 40.7173 26.8561 39.3785 26.9713 37.98C27.0313 36.98 27.0612 35.98 27.0612 35.09C27.0492 34.4794 26.9378 33.8748 26.7313 33.3L26.7912 26.58ZM17.1513 20.92C17.0113 20.77 16.8713 20.62 16.7013 20.47C16.4139 20.1994 16.0734 19.9916 15.7013 19.86V19.66C15.7318 19.2436 15.9079 18.8511 16.1986 18.5513C16.4892 18.2515 16.8759 18.0635 17.2912 18.02C17.6062 18.0234 17.9171 18.0918 18.2044 18.2209C18.4918 18.3499 18.7495 18.5369 18.9613 18.77C19.5359 19.3838 19.8449 20.1996 19.8213 21.04C19.8226 21.8363 19.6908 22.6272 19.4312 23.38V29.81H17.6612V26.95C17.678 26.3582 17.7484 25.7692 17.8713 25.19C18.0044 24.5513 18.0813 23.9022 18.1013 23.25C18.0834 22.3826 17.7451 21.5526 17.1513 20.92ZM20.3713 29.81V23.62C20.6508 22.7886 20.7925 21.9171 20.7912 21.04C20.7896 20.5469 20.7086 20.0573 20.5512 19.59C21.1411 19.5719 21.7207 19.7475 22.2013 20.09C22.4553 20.3273 22.6562 20.6158 22.7906 20.9364C22.9251 21.257 22.9901 21.6025 22.9813 21.95C22.9813 22.16 22.9813 22.38 22.9813 22.61C22.9619 23.1432 22.8571 23.6699 22.6712 24.17C22.6165 24.3144 22.5828 24.466 22.5713 24.62C22.6513 26.83 22.5713 28.95 22.5713 29.84H22.3813L20.3713 29.81ZM23.8112 30.1L23.5813 30.04C23.5813 29.23 23.6913 26.97 23.5813 24.67C23.5813 24.67 23.5813 24.56 23.6513 24.46C23.8592 23.8714 23.9738 23.254 23.9913 22.63C24.4366 22.6404 24.8678 22.7882 25.2258 23.0531C25.5838 23.3181 25.8512 23.6872 25.9913 24.11C26.1673 24.6835 26.1673 25.2965 25.9913 25.87L25.8513 26.37V31.52C25.3016 30.8825 24.5999 30.3941 23.8112 30.1Z" fill="#FFD515"/>
<path d="M28.0914 56C22.5535 56 17.14 54.3578 12.5355 51.2811C7.93088 48.2045 4.34196 43.8315 2.22271 38.7151C0.103457 33.5988 -0.451059 27.9689 0.629327 22.5375C1.70971 17.106 4.37654 12.1169 8.29241 8.20101C12.2083 4.28514 17.1974 1.6184 22.6288 0.538011C28.0603 -0.542375 33.6901 0.0121112 38.8064 2.13136C43.9228 4.25062 48.2958 7.83947 51.3725 12.444C54.4492 17.0486 56.0914 22.4621 56.0914 28C56.0914 35.4261 53.1413 42.548 47.8903 47.799C42.6393 53.05 35.5174 56 28.0914 56ZM28.0914 1.00002C22.7513 1.00002 17.5311 2.58354 13.091 5.55034C8.65087 8.51714 5.19023 12.734 3.14666 17.6676C1.1031 22.6012 0.568361 28.03 1.61016 33.2674C2.65196 38.5049 5.22343 43.3159 8.99944 47.0919C12.7755 50.8679 17.5864 53.4394 22.8239 54.4812C28.0614 55.523 33.4902 54.9883 38.4238 52.9447C43.3574 50.9012 47.5743 47.4405 50.5411 43.0004C53.5079 38.5603 55.0914 33.3401 55.0914 28C55.094 24.4526 54.3975 20.9395 53.0418 17.6614C51.6861 14.3833 49.6978 11.4045 47.1904 8.89519C44.6829 6.38589 41.7055 4.39528 38.4284 3.03716C35.1513 1.67903 31.6387 0.979997 28.0914 0.979998V1.00002Z" fill="#FFD515"/>
</g>
<defs>
<clipPath id="clip0_19_289">
<rect width="56" height="56" fill="white" transform="translate(0.0512695)"/>
</clipPath>
</defs>
</svg>
