<svg width="56" height="56" viewBox="0 0 56 56" fill="none" xmlns="http://www.w3.org/2000/svg">
<rect width="56" height="56" rx="28" fill="white" fill-opacity="0.7"/>
<g clip-path="url(#clip0_19_288)">
<g opacity="0.7">
<path opacity="0.7" d="M33.7774 12.2732C33.7826 11.9505 33.5251 11.6848 33.2024 11.6796C32.8798 11.6745 32.614 11.9319 32.6089 12.2546C32.6038 12.5773 32.8612 12.8431 33.1839 12.8482C33.5066 12.8533 33.7723 12.5959 33.7774 12.2732Z" fill="#808184"/>
</g>
<g opacity="0.7">
<path opacity="0.7" d="M31.0523 9.61252C31.0577 9.2711 30.7853 8.98992 30.4439 8.9845C30.1025 8.97907 29.8213 9.25146 29.8158 9.59288C29.8104 9.93431 30.0828 10.2155 30.4242 10.2209C30.7657 10.2263 31.0469 9.95395 31.0523 9.61252Z" fill="#808184"/>
</g>
<g opacity="0.7">
<path opacity="0.7" d="M31.9914 5.86783C31.9969 5.51971 31.7192 5.23302 31.3711 5.22749C31.0229 5.22196 30.7362 5.49968 30.7307 5.84781C30.7252 6.19593 31.0029 6.48263 31.351 6.48816C31.6992 6.49369 31.9858 6.21595 31.9914 5.86783Z" fill="#808184"/>
</g>
<g opacity="0.7">
<path opacity="0.7" d="M35.6578 4.77657C35.6632 4.43782 35.393 4.15883 35.0542 4.15345C34.7155 4.14807 34.4365 4.41833 34.4311 4.75708C34.4257 5.09583 34.696 5.3748 35.0347 5.38018C35.3735 5.38556 35.6525 5.11532 35.6578 4.77657Z" fill="#808184"/>
</g>
<g opacity="0.7">
<path opacity="0.7" d="M37.5 11.1825C37.5053 10.8491 37.2393 10.5745 36.9059 10.5692C36.5725 10.5639 36.298 10.8299 36.2927 11.1633C36.2874 11.4967 36.5534 11.7713 36.8867 11.7766C37.2201 11.7819 37.4947 11.5159 37.5 11.1825Z" fill="#808184"/>
</g>
<g opacity="0.7">
<path opacity="0.7" d="M38.4318 7.43515C38.4371 7.10176 38.1711 6.8272 37.8377 6.82191C37.5043 6.81661 37.2297 7.08258 37.2244 7.41598C37.2191 7.74937 37.4851 8.02393 37.8185 8.02923C38.1519 8.03452 38.4265 7.76855 38.4318 7.43515Z" fill="#808184"/>
</g>
<g opacity="0.7">
<path opacity="0.7" d="M37.0925 11.7475C37.1906 11.7177 37.2793 11.6629 37.3499 11.5885C37.4204 11.5142 37.4704 11.4227 37.495 11.3232L38.4164 7.55525C38.441 7.45623 38.439 7.35244 38.4104 7.25448C38.3819 7.15651 38.3279 7.06787 38.2539 6.99758L35.4486 4.31347C35.3752 4.24311 35.2847 4.19313 35.186 4.16847C35.0874 4.1438 34.984 4.14531 34.8861 4.17284L31.1497 5.26394C31.0533 5.29331 30.9663 5.34718 30.897 5.42028C30.8277 5.49338 30.7786 5.58321 30.7545 5.68098L29.8307 9.45375C29.8075 9.55283 29.8103 9.65621 29.8387 9.7539C29.8672 9.85159 29.9204 9.94029 29.9931 10.0114L32.5875 12.4919L31.2176 17.38L29.1542 16.8078L28.8899 17.7534L30.9533 18.3256L30.3447 20.4957L31.4406 20.8012L32.0395 18.619L34.132 19.2009L34.3939 18.2529L32.299 17.6709L33.6592 12.7392L37.0925 11.7475ZM31.7971 6.32109L34.9491 5.37305L37.2525 7.64496L36.4936 10.7146C36.4899 10.7301 36.4821 10.7444 36.471 10.7559C36.4599 10.7674 36.446 10.7757 36.4306 10.78L33.3707 11.6844L31.0066 9.35435L31.7971 6.32109Z" fill="#808184"/>
</g>
<g opacity="0.7">
<path opacity="0.7" d="M47.8604 22.5106L48.7576 22.0912L47.1694 19.344C47.1006 19.2691 47.0133 19.2136 46.9163 19.183C46.8193 19.1524 46.7159 19.1477 46.6166 19.1694L43.8185 20.4133L44.2719 21.2862L46.0007 20.537L43.9858 26.1137L40.487 26.9065C40.3875 26.931 40.296 26.9806 40.2213 27.0507C40.1465 27.1207 40.0911 27.2089 40.0603 27.3066L38.9134 31.0115C38.8831 31.1084 38.8787 31.2117 38.9009 31.3108C38.923 31.41 38.9708 31.5016 39.0395 31.5764L41.6775 34.4278C41.7472 34.5023 41.835 34.5573 41.9324 34.5875C42.0297 34.6177 42.1333 34.622 42.2328 34.6L46.0298 33.7489C46.128 33.7258 46.2183 33.6774 46.2919 33.6085C46.3655 33.5395 46.4198 33.4525 46.4493 33.3561L47.5986 29.6464C47.6294 29.5495 47.634 29.4462 47.6119 29.3469C47.5897 29.2476 47.5416 29.156 47.4725 29.0815L45.0333 26.4483L47.0142 21.0995L47.8604 22.5106ZM45.4479 32.6578L42.2546 33.4119L40.087 31.0066L41.018 27.9952C41.0233 27.9802 41.0323 27.9668 41.0442 27.9562C41.0561 27.9456 41.0704 27.9382 41.0859 27.9346L44.2089 27.2023L46.4275 29.6731L45.4479 32.6578Z" fill="#808184"/>
</g>
<g opacity="0.7">
<path opacity="0.7" d="M44.3029 26.2762C44.3062 25.9535 44.0472 25.6893 43.7244 25.686C43.4017 25.6828 43.1375 25.9418 43.1343 26.2645C43.131 26.5873 43.39 26.8515 43.7128 26.8547C44.0355 26.858 44.2997 26.599 44.3029 26.2762Z" fill="#808184"/>
</g>
<g opacity="0.7">
<path opacity="0.7" d="M47.6199 29.4702C47.6244 29.1288 47.3511 28.8484 47.0097 28.844C46.6683 28.8396 46.3879 29.1128 46.3835 29.4542C46.3791 29.7957 46.6523 30.0761 46.9937 30.0805C47.3352 30.0849 47.6155 29.8116 47.6199 29.4702Z" fill="#808184"/>
</g>
<g opacity="0.7">
<path opacity="0.7" d="M46.4773 33.15C46.4818 32.8018 46.2033 32.516 45.8551 32.5115C45.507 32.507 45.2211 32.7855 45.2166 33.1337C45.2121 33.4818 45.4907 33.7677 45.8388 33.7722C46.187 33.7767 46.4728 33.4981 46.4773 33.15Z" fill="#808184"/>
</g>
<g opacity="0.7">
<path opacity="0.7" d="M42.7192 34.0141C42.7236 33.6753 42.4525 33.3972 42.1137 33.3928C41.775 33.3884 41.4968 33.6595 41.4924 33.9982C41.488 34.337 41.7591 34.6152 42.0979 34.6196C42.4367 34.6239 42.7148 34.3528 42.7192 34.0141Z" fill="#808184"/>
</g>
<g opacity="0.7">
<path opacity="0.7" d="M41.2461 27.5093C41.2504 27.1759 40.9836 26.9021 40.6502 26.8978C40.3168 26.8935 40.043 27.1603 40.0387 27.4937C40.0344 27.8271 40.3012 28.1009 40.6346 28.1052C40.968 28.1095 41.2418 27.8427 41.2461 27.5093Z" fill="#808184"/>
</g>
<g opacity="0.7">
<path opacity="0.7" d="M40.091 31.1937C40.0953 30.8603 39.8285 30.5865 39.4951 30.5822C39.1617 30.5779 38.888 30.8447 38.8837 31.1781C38.8793 31.5116 39.1461 31.7853 39.4795 31.7896C39.813 31.7939 40.0867 31.5271 40.091 31.1937Z" fill="#808184"/>
</g>
<path d="M27.9999 55.9977C22.462 55.9977 17.0485 54.3555 12.4439 51.2789C7.83934 48.2022 4.25052 43.8292 2.13126 38.7129C0.0120091 33.5965 -0.542483 27.9667 0.537903 22.5352C1.61829 17.1037 4.28502 12.1146 8.20089 8.19874C12.1168 4.28287 17.1059 1.61612 22.5374 0.535736C27.9688 -0.54465 33.5987 0.0098424 38.715 2.1291C43.8313 4.24835 48.2043 7.83718 51.281 12.4418C54.3577 17.0463 55.9999 22.4598 55.9999 27.9977C55.9922 35.4214 53.0397 42.5389 47.7904 47.7882C42.541 53.0376 35.4236 55.99 27.9999 55.9977ZM27.9999 0.982132C22.6561 0.981653 17.4322 2.56583 12.9888 5.53432C8.54542 8.5028 5.08207 12.7223 3.03677 17.6591C0.991466 22.596 0.456074 28.0285 1.4983 33.2696C2.54052 38.5107 5.11355 43.3251 8.89199 47.1039C12.6704 50.8827 17.4846 53.4562 22.7256 54.4988C27.9667 55.5415 33.3992 55.0066 38.3362 52.9618C43.2733 50.9169 47.4931 47.4539 50.4619 43.0108C53.4308 38.5677 55.0154 33.3439 55.0154 28.0002C55.0071 20.8375 52.1582 13.9706 47.0937 8.90559C42.0292 3.84061 35.1625 0.991116 27.9999 0.982132Z" fill="#C1C4C9"/>
<path d="M11.7331 41.8521C11.6292 41.8566 11.5266 41.8276 11.4405 41.7693C11.3544 41.711 11.2893 41.6266 11.2548 41.5286C11.2203 41.4305 11.2182 41.3239 11.2489 41.2246C11.2796 41.1252 11.3413 41.0384 11.4251 40.9768L43.9011 14.8705C43.9512 14.83 44.0088 14.7999 44.0706 14.7817C44.1324 14.7635 44.1972 14.7577 44.2613 14.7646C44.3253 14.7715 44.3874 14.7909 44.444 14.8217C44.5005 14.8526 44.5504 14.8943 44.5909 14.9444C44.6313 14.9946 44.6615 15.0522 44.6796 15.114C44.6978 15.1758 44.7036 15.2406 44.6968 15.3047C44.6899 15.3687 44.6705 15.4308 44.6396 15.4873C44.6088 15.5439 44.5671 15.5938 44.5169 15.6343L12.041 41.7503C11.9531 41.8186 11.8444 41.8545 11.7331 41.8521Z" fill="#C1C4C9"/>
<g opacity="0.5">
<path opacity="0.5" d="M7.96014 30.1386C8.47417 30.4659 9.11185 30.5096 9.71802 30.5435C11.4686 30.6429 13.2313 30.7399 14.9698 30.5168C16.7083 30.2938 18.4419 29.7288 19.8192 28.628C19.9122 28.5413 20.0208 28.473 20.1392 28.4268C20.3001 28.3945 20.4663 28.4012 20.6241 28.4462C22.3821 28.7737 24.1986 28.4022 25.6868 27.4108C25.834 27.3225 25.9618 27.2054 26.0627 27.0665C26.1421 26.9077 26.1725 26.7287 26.15 26.5525C26.1378 26.2437 26.1062 25.936 26.0554 25.6311C26.0021 25.3014 25.9269 24.9765 25.8517 24.6613C25.8517 24.6225 25.8081 24.5716 25.7741 24.5934C25.7705 24.5974 25.7686 24.6026 25.7686 24.6079C25.7686 24.6133 25.7705 24.6185 25.7741 24.6225C26.2917 24.4509 26.7388 24.1145 27.0471 23.6647C27.1987 23.4473 27.2962 23.1967 27.3312 22.9339C27.3662 22.6711 27.3378 22.4037 27.2483 22.1542C27.0592 21.7202 26.6979 21.3516 26.6349 20.8836C26.4045 19.1864 26.3367 19.1864 25.8857 18.3038C25.6435 17.8906 25.3328 17.5216 24.9667 17.2127C24.6806 17.0212 24.6297 16.9945 24.6297 16.9411C24.6297 16.5435 24.5958 15.9713 24.5909 15.5906C24.5882 15.404 24.5484 15.2199 24.4739 15.0488C24.3994 14.8777 24.2916 14.7232 24.1569 14.5941C24.106 14.5529 24.0041 14.5577 23.9508 14.5238C23.4465 15.2051 23.1264 15.8767 22.7385 16.0877C22.3505 16.2986 21.8971 16.0513 21.3297 16.0076C21.1091 15.9907 21.1091 16.1846 20.9636 16.0076C20.8712 15.8043 20.7557 15.6123 20.6193 15.4354C20.2095 15.0548 19.6858 14.7541 19.2785 14.3734C19.0871 14.1566 18.8328 14.0048 18.5511 13.9394C18.475 13.9388 18.3995 13.9532 18.3291 13.982C18.2587 14.0107 18.1946 14.0532 18.1407 14.1069C18.0868 14.1605 18.0441 14.2244 18.0151 14.2947C17.986 14.365 17.9712 14.4404 17.9716 14.5165C17.9215 14.2114 17.9215 13.9002 17.9716 13.5951C17.9982 13.1829 17.7752 12.6252 17.6855 12.2179C17.5957 11.8106 17.2563 11.4178 16.8441 11.4566C16.7423 12.0118 15.8451 13.035 15.4766 13.4642C14.8219 14.2279 14.4437 13.5951 13.4423 13.5199C13.2798 13.5078 13.1198 13.646 12.9574 13.6194C12.584 13.5563 12.6446 13.4327 12.5064 13.3139L10.2805 11.442C10.1783 11.337 10.0552 11.2544 9.91927 11.1995C9.79837 11.1747 9.67343 11.1776 9.55378 11.2078C9.43412 11.238 9.32284 11.2949 9.22823 11.3741C8.71905 11.7427 8.57116 12.4337 8.52509 13.0593C8.47902 13.6848 8.38687 14.0558 8.66571 14.6183C8.88853 14.8761 9.01382 15.2039 9.01971 15.5445L8.37717 16.5847C8.03045 17.1448 7.43398 19.7368 7.5043 21.1455C7.57461 22.5542 7.82435 22.9155 7.95528 24.3194L7.99409 25.1898C8.0935 26.2422 7.43642 26.9671 7.19395 27.9952C6.99028 28.8584 7.20849 29.6561 7.96014 30.1386Z" fill="#C1C4C9"/>
</g>
<path d="M16.6235 17.0042C16.6235 17.0769 16.6017 17.1618 16.5362 17.1933C16.5125 17.2035 16.4869 17.2087 16.4611 17.2087C16.4352 17.2087 16.4097 17.2035 16.3859 17.1933C16.1624 17.0696 15.9904 16.8701 15.901 16.6308C15.6585 16.1459 15.4597 15.6609 15.1881 15.2148C14.9293 14.7503 14.5657 14.3526 14.1261 14.0534C13.9467 13.9394 13.7309 13.8109 13.6873 13.6145C14.3322 13.6533 15.1057 13.6873 15.5761 14.1673C16.0501 14.6518 16.3815 15.2575 16.5338 15.9179C16.622 16.2728 16.6523 16.6396 16.6235 17.0042Z" fill="#888888"/>
<path d="M14.3177 15.4354C14.4608 15.77 14.599 16.1434 14.4923 16.495C14.4887 16.5133 14.4815 16.5306 14.4711 16.546C14.4607 16.5615 14.4473 16.5746 14.4317 16.5847C14.4159 16.5913 14.399 16.5947 14.382 16.5947C14.3649 16.5947 14.348 16.5913 14.3323 16.5847C14.2303 16.5335 14.1404 16.4612 14.0685 16.3725C13.9966 16.2839 13.9443 16.181 13.9152 16.0707C13.8401 15.8549 13.7455 15.6633 13.6582 15.4548C13.583 15.2424 13.4768 15.0422 13.343 14.8608C12.9817 14.434 12.4968 14.0412 12.104 13.6485C12.5307 13.5563 12.989 13.4715 13.3163 13.7915C13.7444 14.2762 14.0834 14.8327 14.3177 15.4354Z" fill="#888888"/>
<path d="M26.7173 22.4281C26.6408 22.353 26.5598 22.2826 26.4748 22.2172C26.3973 22.1444 26.3294 22.0596 26.2566 21.9747C26.0677 21.8029 25.8622 21.6502 25.6432 21.5189C25.5688 21.4611 25.4873 21.413 25.4007 21.3758C25.2649 21.34 25.1261 21.3165 24.9861 21.3055C24.8316 21.2863 24.6753 21.3224 24.5448 21.4073C24.4874 21.4498 24.4381 21.5024 24.3993 21.5625C24.0759 21.9497 23.8291 22.3948 23.6719 22.8742C23.5798 23.1967 23.4901 23.6356 23.7495 23.9096C23.8726 24.0192 24.0252 24.0901 24.1884 24.1133C24.4581 24.1807 24.7348 24.2157 25.0128 24.2175C25.392 24.2241 25.7661 24.1296 26.0966 23.9435C26.2226 23.868 26.3398 23.7785 26.4458 23.6768C26.6228 23.5183 26.7549 23.3159 26.8289 23.09C26.8634 22.9787 26.8713 22.8608 26.8519 22.7458C26.8326 22.6308 26.7864 22.522 26.7173 22.4281Z" fill="#CBCBD1"/>
<path d="M19.3634 16.1822C19.404 16.1401 19.4421 16.0955 19.4773 16.0488C19.6325 15.8452 19.7683 15.5639 19.5283 15.3918C19.4555 15.3408 19.4167 15.1905 19.3391 15.1493C19.0362 14.9792 18.7559 14.7714 18.505 14.531C18.3764 14.6832 18.2873 14.8648 18.2456 15.0596C18.6684 15.3802 19.0447 15.758 19.3634 16.1822Z" fill="#CBCBD1"/>
<path d="M20.2508 22.353L20.1659 22.2779C19.6446 21.8293 19.2494 21.1358 18.5511 21.0777C18.3309 21.0522 18.1088 21.1046 17.9231 21.2256C17.8403 21.2861 17.7689 21.3608 17.7122 21.4462C17.2563 22.0645 17.0648 22.6828 16.6841 23.3156C16.4416 23.7278 16.2695 24.3679 16.6405 24.7583C16.8695 24.9284 17.1367 25.04 17.4188 25.0832C17.8041 25.1804 18.1998 25.2309 18.5972 25.2335C19.137 25.2425 19.6695 25.1069 20.1392 24.8407C20.3153 24.7333 20.478 24.6056 20.6242 24.4601C20.8615 24.2636 21.0114 23.9811 21.0412 23.6745C21.1382 22.821 20.6896 22.7386 20.2508 22.353Z" fill="#CBCBD1"/>
<path d="M10.6684 12.8168C10.2749 12.5928 9.91016 12.3216 9.5822 12.0094C9.38027 12.249 9.25522 12.5439 9.22336 12.8556C9.19184 13.4011 9.21124 14.0679 9.798 14.3104C9.92893 14.3686 9.92893 14.211 10.0405 14.1455C10.5254 13.8497 10.346 14.3613 10.4017 14.3419C10.5915 14.2776 10.7527 14.1489 10.8576 13.9782C11.0588 13.7115 11.2358 13.3478 10.923 13.1223C10.8212 13.0641 10.7727 12.8677 10.6684 12.8168Z" fill="#CBCBD1"/>
<path d="M18.2067 15.7773C18.3674 16.2881 18.3319 16.8405 18.1073 17.3266C18.1029 17.3414 18.0955 17.3551 18.0855 17.3668C18.0754 17.3785 18.063 17.388 18.0491 17.3945C17.9982 17.4163 17.9473 17.363 17.9182 17.3145C17.7721 17.0133 17.6521 16.7002 17.5593 16.3786C17.249 15.5396 16.5894 14.6813 16.0197 13.9903C16.158 14.0715 16.3075 14.132 16.4634 14.1697C16.6016 14.2061 16.7665 14.3322 16.9022 14.3782C17.0605 14.4319 17.2076 14.514 17.3362 14.6207C17.7344 14.9116 18.0373 15.3141 18.2067 15.7773Z" fill="#888888"/>
<path d="M23.6864 20.4423C23.5579 20.4423 23.4634 20.6193 23.4779 20.8182C23.4925 21.017 23.604 21.1721 23.7204 21.1625C23.8368 21.1528 23.9435 20.9855 23.9289 20.7866C23.9144 20.5878 23.8149 20.4351 23.6864 20.4423Z" fill="#888888"/>
<path d="M26.0774 20.709C26.0628 20.5102 25.9489 20.355 25.8204 20.3647C25.6918 20.3744 25.5973 20.5417 25.6118 20.7405C25.6264 20.9393 25.7379 21.0921 25.8664 21.0848C25.9949 21.0775 26.0895 20.8981 26.0774 20.709Z" fill="#888888"/>
<path d="M25.682 21.6062C25.6894 21.6108 25.6981 21.6127 25.7068 21.6117C25.7154 21.6106 25.7235 21.6067 25.7296 21.6006C25.7358 21.5944 25.7397 21.5863 25.7407 21.5777C25.7418 21.569 25.7398 21.5603 25.7353 21.5529C25.357 21.1746 24.6102 21.114 24.2805 21.6014C24.2538 21.6402 24.3169 21.679 24.3435 21.6402C24.6466 21.194 25.3377 21.2619 25.682 21.6062Z" fill="#888888"/>
<path d="M25.4275 22.9034C25.5778 22.8673 25.7081 22.7743 25.7912 22.6439C25.795 22.638 25.7976 22.6313 25.7987 22.6243C25.7998 22.6173 25.7994 22.6101 25.7976 22.6033C25.7957 22.5964 25.7925 22.5901 25.7881 22.5845C25.7836 22.579 25.7781 22.5745 25.7718 22.5712C25.7598 22.5649 25.7459 22.5634 25.7328 22.567C25.7197 22.5706 25.7085 22.579 25.7015 22.5906C25.6366 22.6883 25.5397 22.7603 25.4275 22.7943C25.4275 22.7652 25.4275 22.7361 25.4275 22.707C25.4446 22.5604 25.4446 22.4123 25.4275 22.2657C25.3958 22.1017 25.3402 21.9432 25.2626 21.7953C25.362 21.742 25.5196 21.6474 25.5196 21.5795C25.5196 21.5116 25.3645 21.4607 25.1778 21.4631C24.9911 21.4656 24.8407 21.4922 24.8407 21.5916C24.8407 21.691 25.1002 21.7977 25.1608 21.8341C25.2399 21.977 25.2956 22.1318 25.3257 22.2924C25.3416 22.4301 25.3416 22.5692 25.3257 22.707C25.3257 22.7409 25.3257 22.7724 25.3257 22.8064C25.1561 22.81 24.9905 22.7543 24.8577 22.6488C24.8465 22.644 24.834 22.6431 24.8222 22.6464C24.8105 22.6496 24.8002 22.6568 24.7931 22.6668C24.786 22.6767 24.7826 22.6887 24.7833 22.7009C24.784 22.7131 24.7889 22.7246 24.7971 22.7337C24.9427 22.8491 25.1207 22.9161 25.3063 22.9252C25.3474 22.9226 25.388 22.9153 25.4275 22.9034Z" fill="#888888"/>
<path d="M27.1053 21.7904C26.9599 21.5763 26.8364 21.348 26.7367 21.1091C26.6586 20.8683 26.6082 20.6194 26.5864 20.3672C26.5536 19.9022 26.464 19.4429 26.3197 18.9997C26.1628 18.5909 25.9436 18.209 25.6699 17.8673C25.0614 17.115 24.24 16.564 23.3131 16.2865C23.1264 16.2283 22.93 16.1871 22.7385 16.1434C22.9805 15.9382 23.1977 15.7055 23.3858 15.45C23.474 15.3262 23.555 15.1975 23.6283 15.0644C23.6938 14.9481 23.7423 14.822 23.8174 14.7129C23.8926 14.6037 24.0381 14.5116 24.1593 14.6401C24.2508 14.7612 24.3183 14.8986 24.3581 15.045C24.5616 15.6064 24.6249 16.2091 24.5424 16.8005C24.5424 16.8611 24.6249 16.8854 24.6346 16.8272C24.6879 16.4654 24.6879 16.0978 24.6346 15.7361C24.5958 15.4694 24.3218 14.1043 23.8271 14.5625C23.74 14.6571 23.6703 14.7662 23.621 14.885C23.5438 15.0407 23.4555 15.1906 23.3568 15.3336C23.1511 15.6265 22.9063 15.89 22.6294 16.1167C22.3044 16.0469 21.9757 15.9959 21.6449 15.964C21.4118 15.9446 21.1774 15.9446 20.9442 15.964C20.9196 15.754 20.8355 15.5555 20.7017 15.3918C20.52 15.2059 20.3202 15.0386 20.1053 14.8923L19.4555 14.4074L19.1015 14.1358C19.0062 14.056 18.9049 13.9839 18.7984 13.92C18.6629 13.8672 18.5134 13.8624 18.3748 13.9065C18.2363 13.9507 18.117 14.041 18.037 14.1625C18.0528 13.8345 18.0382 13.5058 17.9934 13.1805C17.9352 12.7998 17.5473 10.8528 16.8393 11.5075C16.7171 11.6427 16.6188 11.7977 16.5483 11.9657C16.4369 12.1882 16.3105 12.4029 16.1701 12.6083C15.8813 13.0248 15.537 13.4 15.1469 13.7236C14.6838 13.6223 14.2149 13.5495 13.743 13.5054C13.382 13.4779 13.0194 13.482 12.6591 13.5175C12.6103 13.3801 12.5381 13.2522 12.4458 13.1393C12.2098 12.8969 11.9499 12.6792 11.6699 12.4894L10.8237 11.8421L10.3606 11.4881C10.2365 11.384 10.1043 11.29 9.96535 11.2068C9.42223 10.9183 8.93002 11.4711 8.7215 11.9342C8.46449 12.5016 8.45721 13.1611 8.45721 13.7721C8.45398 14.0592 8.50669 14.3441 8.61239 14.611C8.7312 14.9044 8.90093 15.1735 9.01004 15.4718C8.8985 15.5979 6.58537 18.3426 7.7977 23.6987C8.14443 25.2383 7.85105 26.0336 7.54069 26.8798C7.24732 27.5703 7.09323 28.3119 7.08728 29.062H7.19154C7.19511 28.321 7.34679 27.5881 7.63767 26.9065C7.95287 26.0482 8.25111 25.2359 7.89954 23.6671C6.68721 18.2674 9.08035 15.5494 9.11187 15.5227L9.07308 15.4888H9.11915C9.12704 15.481 9.13276 15.4714 9.13574 15.4607C9.13872 15.4501 9.13884 15.4388 9.13611 15.4281C9.03427 15.1517 8.89365 14.8996 8.76514 14.6304C8.63633 14.3366 8.57582 14.0175 8.58815 13.6969C8.58815 13.115 8.58814 12.4846 8.85 11.9487C8.96128 11.6999 9.14023 11.4874 9.36645 11.3353C9.43203 11.2886 9.50775 11.258 9.58742 11.2462C9.66708 11.2344 9.74841 11.2417 9.82472 11.2674C9.95807 11.3297 10.0815 11.4114 10.1908 11.5099L11.7111 12.6737C11.9355 12.8303 12.1456 13.0064 12.3391 13.1999C12.4211 13.2929 12.4889 13.3974 12.5403 13.5102C12.1863 13.5417 11.8323 13.5805 11.4783 13.5975C11.3935 13.5975 11.3911 13.7357 11.4783 13.7309C11.8469 13.7139 12.2057 13.6703 12.5864 13.6412C12.6241 13.74 12.6517 13.8423 12.6688 13.9467C12.6688 14.0243 12.7998 14.0267 12.7901 13.9467C12.7667 13.8361 12.7326 13.7281 12.6882 13.6242C13.0913 13.5834 13.4975 13.5834 13.9006 13.6242C14.7739 13.7171 15.6343 13.9066 16.4659 14.1891C17.7222 14.6428 18.8112 15.4672 19.5888 16.5532C19.9492 17.0641 20.2228 17.631 20.3987 18.231C20.5854 18.8687 20.5999 19.5282 20.7042 20.1708C20.7499 20.4953 20.8405 20.8119 20.9733 21.1115C21.1188 21.4268 21.3322 21.7056 21.4946 22.0111C21.6376 22.2885 21.719 22.5935 21.7332 22.9053C21.7474 23.217 21.6941 23.5282 21.577 23.8175C21.0921 25.1341 19.7707 25.7572 18.4783 26.0409C18.3959 26.0603 18.4298 26.1888 18.5123 26.1694C19.2848 26.0274 20.0166 25.7169 20.6557 25.2601C21.2145 24.8371 21.6163 24.2399 21.7977 23.5629C21.8727 23.2648 21.8868 22.9546 21.8393 22.651C21.7919 22.3473 21.6837 22.0563 21.5213 21.7953C21.3147 21.4903 21.1393 21.1654 20.9976 20.8254C20.8857 20.4825 20.8141 20.1277 20.7842 19.7683C20.7372 19.1044 20.6086 18.4488 20.4011 17.8164C20.1791 17.2329 19.8665 16.6879 19.4749 16.2016C18.608 15.128 17.4364 14.3418 16.1143 13.9467C15.85 13.8642 15.576 13.806 15.2996 13.7454C15.645 13.4533 15.9536 13.1203 16.2185 12.7537C16.3456 12.5778 16.4615 12.394 16.5653 12.2033C16.6574 12.0385 16.7277 11.859 16.8344 11.7039C16.9411 11.5487 17.1472 11.4177 17.3193 11.602C17.4507 11.7734 17.5479 11.9685 17.6055 12.1767C17.8971 12.9774 17.9879 13.8374 17.8697 14.6813C17.8697 14.7662 17.9861 14.8026 17.9983 14.7177C18.0177 14.5819 18.0177 14.4437 18.0274 14.3079C18.1105 14.1924 18.214 14.093 18.3329 14.0146C18.3832 13.9787 18.4413 13.9554 18.5025 13.9465C18.5636 13.9376 18.626 13.9435 18.6844 13.9636C18.7863 14.0084 18.8804 14.0689 18.9633 14.1431L20.132 15.0353C20.3055 15.1554 20.4678 15.2909 20.6169 15.4403C20.7499 15.5875 20.8345 15.772 20.8594 15.9688C20.5926 15.9907 20.3235 16.0222 20.0568 16.0367C19.9986 16.0367 19.9962 16.1337 20.0568 16.1289C20.2144 16.1289 20.3744 16.107 20.5417 16.0925C20.8133 16.3568 21.1382 16.6259 21.3831 16.912C21.4759 17.0399 21.5502 17.1803 21.6037 17.3291C21.6668 17.477 21.7322 17.6103 21.7832 17.7607C21.8042 17.838 21.8411 17.9101 21.8916 17.9723C21.9422 18.0345 22.0051 18.0855 22.0765 18.1219C22.0876 18.1267 22.0996 18.1291 22.1117 18.1291C22.1238 18.1291 22.1357 18.1267 22.1469 18.1219C22.1582 18.1152 22.168 18.106 22.1755 18.0952C22.1831 18.0843 22.1882 18.0719 22.1905 18.0589C22.2362 17.8047 22.1925 17.5426 22.0668 17.317C21.9027 16.8929 21.6647 16.5013 21.3637 16.1604C21.3089 16.1108 21.2445 16.0728 21.1746 16.0488C21.3288 16.0403 21.4834 16.0403 21.6377 16.0488C21.6789 16.1822 21.8147 16.2622 21.9335 16.3374C22.2422 16.5474 22.4979 16.8263 22.6803 17.1521C22.8694 17.4697 23.0173 17.814 23.1798 18.1462C23.2408 18.3121 23.3585 18.4512 23.5119 18.539C23.5286 18.5468 23.5468 18.5508 23.5653 18.5508C23.5837 18.5508 23.6019 18.5468 23.6186 18.539C23.6623 18.5172 23.6744 18.459 23.6792 18.408C23.702 18.1505 23.6832 17.891 23.6235 17.6394C23.5167 17.1758 23.2843 16.7505 22.9518 16.4101C22.8467 16.3087 22.721 16.231 22.5833 16.1822C22.8339 16.2346 23.0815 16.3001 23.3252 16.3786C23.7446 16.8571 24.0828 17.4009 24.3266 17.9886C24.3872 18.2138 24.4684 18.4329 24.5691 18.6432C24.5885 18.6772 24.6224 18.716 24.6588 18.7014C24.6952 18.6869 24.6903 18.6723 24.7 18.6529C24.8572 18.3121 24.8822 17.925 24.7703 17.5667C24.6537 17.2436 24.4446 16.962 24.169 16.7569C24.7894 17.0871 25.326 17.5548 25.7378 18.1244C25.9897 18.4787 26.1822 18.8718 26.3076 19.2882C26.4076 19.7391 26.4788 20.1958 26.5209 20.6557C26.5531 20.8832 26.6167 21.1052 26.7101 21.3152C26.8119 21.5359 26.9525 21.7323 27.0762 21.9456C27.1764 22.1404 27.2335 22.3545 27.2435 22.5733C27.2535 22.7922 27.2163 23.0106 27.1344 23.2137C26.7852 24.1351 25.8663 24.574 24.9522 24.7728C24.9423 24.7776 24.9343 24.7856 24.9295 24.7956C24.9248 24.8056 24.9236 24.8169 24.9261 24.8276C24.9287 24.8383 24.9348 24.8479 24.9435 24.8547C24.9522 24.8615 24.963 24.8651 24.974 24.8649C25.5158 24.7639 26.029 24.5454 26.4773 24.2248C26.87 23.9264 27.1523 23.5059 27.2799 23.0295C27.3348 22.8217 27.3476 22.6051 27.3177 22.3923C27.2877 22.1796 27.2155 21.9749 27.1053 21.7904Z" fill="#888888"/>
<path d="M16.6479 19.8774C16.4636 19.8774 16.3303 20.1198 16.3497 20.4132C16.369 20.7066 16.5315 20.9176 16.7134 20.8982C16.8952 20.8788 17.031 20.6557 17.0116 20.3623C16.9922 20.0689 16.8297 19.8677 16.6479 19.8774Z" fill="#888888"/>
<path d="M20.0544 20.2581C20.0374 19.9744 19.8725 19.7562 19.6907 19.7731C19.5089 19.7901 19.3731 20.0156 19.3925 20.309C19.4119 20.6024 19.5743 20.8133 19.7586 20.7939C19.9429 20.7745 20.0738 20.5418 20.0544 20.2581Z" fill="#888888"/>
<path d="M19.4507 21.5359C19.4992 21.5843 19.5743 21.5116 19.5258 21.4631C18.9851 20.9224 17.9207 20.8351 17.46 21.5286C17.4212 21.5868 17.5134 21.6425 17.5522 21.5843C17.9741 20.9491 18.9585 21.0461 19.4507 21.5359Z" fill="#888888"/>
<path d="M10.4357 12.601C10.3252 12.5403 10.2183 12.4731 10.1157 12.3998C10.057 12.3496 10.0011 12.2961 9.94837 12.2397C9.87805 12.1718 9.80531 12.1015 9.73014 12.0385C9.69194 11.9932 9.64 11.9617 9.58224 11.9488C9.50465 11.9488 9.50465 12.0651 9.58224 12.07C9.55314 12.07 9.58224 12.07 9.58224 12.07C9.59538 12.0813 9.60914 12.0918 9.62346 12.1015L9.71802 12.1888C9.79076 12.2543 9.85865 12.3222 9.92897 12.3901C10.0622 12.5084 10.2086 12.6109 10.3654 12.6956C10.4767 12.7523 10.5823 12.8197 10.6806 12.8968C10.786 12.9682 10.8708 13.066 10.9266 13.1805C10.9823 13.295 11.007 13.422 10.9983 13.549C10.955 13.6963 10.8815 13.8329 10.7826 13.9502C10.6837 14.0675 10.5614 14.1629 10.4236 14.2304C10.3557 14.2716 10.4236 14.3783 10.4818 14.3371C10.7776 14.1504 11.0783 13.903 11.1219 13.5345C11.1276 13.4006 11.1011 13.2672 11.0446 13.1457C10.9881 13.0242 10.9031 12.918 10.797 12.8362C10.6851 12.7454 10.564 12.6666 10.4357 12.601Z" fill="#888888"/>
<path d="M19.0797 23.3665C19.1838 23.3425 19.2821 23.2983 19.3691 23.2363C19.456 23.1743 19.5299 23.0958 19.5865 23.0052C19.5899 22.9993 19.5922 22.9928 19.593 22.9861C19.5939 22.9794 19.5934 22.9725 19.5916 22.966C19.5898 22.9594 19.5867 22.9533 19.5825 22.9479C19.5783 22.9426 19.5731 22.9382 19.5671 22.9349C19.5612 22.9315 19.5547 22.9292 19.548 22.9284C19.5413 22.9275 19.5344 22.9279 19.5279 22.9298C19.5213 22.9316 19.5152 22.9347 19.5098 22.9389C19.5045 22.9431 19.5001 22.9483 19.4968 22.9543C19.3967 23.109 19.2415 23.2199 19.0628 23.2647C19.0628 23.2113 19.0628 23.158 19.0628 23.1046C19.0831 22.8971 19.079 22.688 19.0506 22.4815C19.0025 22.2502 18.9208 22.0272 18.8082 21.8195C18.9464 21.7468 19.1937 21.6013 19.1937 21.4995C19.1937 21.3589 18.9731 21.3298 18.7088 21.3346C18.4445 21.3395 18.2238 21.3758 18.2238 21.5165C18.2238 21.6571 18.7088 21.8656 18.7088 21.8656C18.8131 22.0656 18.8882 22.2795 18.9318 22.5009C18.9551 22.699 18.9551 22.8992 18.9318 23.0973V23.2622C18.6783 23.2712 18.4299 23.1895 18.2311 23.0319C18.2195 23.0244 18.2054 23.0217 18.1918 23.0244C18.1782 23.0272 18.1662 23.035 18.1584 23.0464C18.1543 23.0517 18.1513 23.0578 18.1497 23.0644C18.1481 23.0709 18.1479 23.0776 18.149 23.0842C18.1502 23.0909 18.1527 23.0972 18.1563 23.1027C18.16 23.1083 18.1649 23.1131 18.1705 23.1167C18.3744 23.2782 18.6236 23.3723 18.8833 23.3859C18.9494 23.3876 19.0153 23.3811 19.0797 23.3665Z" fill="#888888"/>
<path d="M19.4314 16.1531C19.5718 16.0413 19.6659 15.8816 19.6957 15.7046C19.7012 15.6023 19.6821 15.5003 19.6399 15.407C19.5977 15.3137 19.5337 15.232 19.4532 15.1687C19.3671 15.0949 19.2727 15.0315 19.1719 14.9796C19.088 14.9339 19.007 14.8828 18.9295 14.8268C18.8843 14.7881 18.8414 14.7468 18.801 14.7032L18.6337 14.548C18.6034 14.5143 18.5637 14.4907 18.5197 14.4801C18.4591 14.4801 18.4591 14.5698 18.5197 14.5722C18.4955 14.5722 18.5197 14.5722 18.5197 14.5722L18.5512 14.5965L18.624 14.662L18.7864 14.8147C18.8877 14.9089 19 14.9903 19.121 15.0572C19.2064 15.1014 19.2876 15.1534 19.3635 15.2124C19.444 15.2677 19.5088 15.3432 19.5513 15.4312C19.5938 15.5192 19.6126 15.6167 19.606 15.7143C19.5742 15.8582 19.4947 15.9872 19.3805 16.0804L19.4314 16.1531Z" fill="#888888"/>
<path d="M9.18945 13.3623C9.13513 13.384 9.09147 13.4261 9.06789 13.4796C9.04431 13.5331 9.04268 13.5937 9.06336 13.6484L9.75197 15.4136C9.76515 15.4431 9.78318 15.4701 9.80531 15.4936C9.82581 15.5142 9.85019 15.5306 9.87703 15.5417C9.90386 15.5529 9.93264 15.5586 9.96171 15.5586C9.99077 15.5586 10.0195 15.5529 10.0464 15.5417C10.0732 15.5306 10.0976 15.5142 10.1181 15.4936L11.2019 14.3613C11.2238 14.3386 11.2503 14.3209 11.2795 14.3092C11.3088 14.2975 11.3402 14.2921 11.3716 14.2934L12.9865 14.3807C13.0178 14.3808 13.0489 14.3759 13.0786 14.3661C13.1057 14.3557 13.1305 14.34 13.1515 14.3199C13.1725 14.2999 13.1894 14.2759 13.2011 14.2493C13.2128 14.2227 13.2191 14.1941 13.2198 14.165C13.2204 14.136 13.2153 14.1071 13.2047 14.08L12.5137 12.31C12.5007 12.2733 12.477 12.2412 12.4458 12.2179C12.4 12.1822 12.342 12.1661 12.2843 12.1729C12.2267 12.1797 12.1741 12.2089 12.1378 12.2543L11.1195 13.5248C11.0954 13.5553 11.0636 13.5788 11.0273 13.5928C10.9911 13.6069 10.9517 13.611 10.9134 13.6048L9.3034 13.3623C9.26603 13.3527 9.22682 13.3527 9.18945 13.3623Z" fill="#595757"/>
<path d="M22.9881 15.1105C22.9486 15.1001 22.9065 15.1058 22.8711 15.1262C22.8357 15.1466 22.8098 15.1802 22.799 15.2196L22.4644 16.4877C22.4608 16.5094 22.4608 16.5315 22.4644 16.5532C22.472 16.5932 22.4952 16.6287 22.5287 16.6518C22.5623 16.675 22.6036 16.684 22.6438 16.6769L23.7107 16.4853C23.7323 16.4812 23.7546 16.4818 23.776 16.4873C23.7974 16.4927 23.8173 16.5028 23.8343 16.5168L24.7023 17.2224C24.719 17.2368 24.739 17.2468 24.7605 17.2515C24.7994 17.2619 24.8409 17.2566 24.8758 17.2366C24.9108 17.2166 24.9365 17.1836 24.9472 17.1448L25.2818 15.8743C25.2891 15.8481 25.2891 15.8205 25.2818 15.7943C25.2768 15.7749 25.2679 15.7567 25.2558 15.7408C25.2436 15.7249 25.2284 15.7116 25.211 15.7016C25.1936 15.6917 25.1744 15.6853 25.1545 15.6829C25.1346 15.6805 25.1144 15.6821 25.0951 15.6876L24.0065 15.9834C23.9806 15.9908 23.9532 15.991 23.9272 15.9842C23.9012 15.9774 23.8775 15.9637 23.8586 15.9446L23.0584 15.1493C23.038 15.1315 23.014 15.1183 22.9881 15.1105Z" fill="#595757"/>
<g opacity="0.5">
<path opacity="0.5" d="M24.0843 50.5808C24.5838 50.9009 25.2045 50.9421 25.7961 50.976C27.4934 51.0706 29.2149 51.1676 30.9073 50.9494C32.5997 50.7311 34.2848 50.1832 35.6136 49.1115C35.704 49.0268 35.8103 48.9609 35.9264 48.9175C36.0806 48.8852 36.2404 48.8911 36.3919 48.9345C38.1029 49.2521 39.8703 48.8903 41.3188 47.9258C41.5187 47.8179 41.6729 47.6414 41.7528 47.4287C41.7732 47.1511 41.761 46.8719 41.7164 46.5971C41.7386 46.3517 41.7114 46.1044 41.6364 45.8697C41.6001 45.7533 41.1733 45.5448 41.2412 45.4405C41.3091 45.3363 41.3139 45.2368 41.4061 45.1981C41.9003 45.0187 42.3294 44.6952 42.6378 44.2694C42.7857 44.0576 42.8807 43.8135 42.9149 43.5574C42.9491 43.3013 42.9214 43.0408 42.8342 42.7976C42.6499 42.3758 42.2984 42.0169 42.2353 41.5611C42.0122 39.9171 41.9468 39.9074 41.5079 39.0515C41.2741 38.6486 40.9722 38.2893 40.6156 37.9895C40.3368 37.8004 40.2883 37.7762 40.2883 37.7253C40.2883 37.3373 40.2544 36.7869 40.2495 36.4111C40.2505 36.231 40.2156 36.0525 40.1469 35.886C40.0783 35.7194 39.9771 35.5683 39.8495 35.4412C39.801 35.4 39.7015 35.4049 39.6506 35.3709C39.1657 36.0353 38.8456 36.6875 38.465 36.896C38.0843 37.1045 37.6454 36.8597 37.095 36.816C36.8792 36.8015 36.8792 36.9882 36.7386 36.816C36.6478 36.618 36.5347 36.4308 36.4016 36.2583C36.0039 35.8874 35.4948 35.5964 35.0971 35.2254C34.9132 35.0159 34.6695 34.8678 34.3988 34.8011C34.3246 34.8005 34.2511 34.8146 34.1824 34.8426C34.1137 34.8706 34.0513 34.912 33.9988 34.9643C33.9462 35.0166 33.9046 35.0789 33.8763 35.1474C33.8479 35.216 33.8335 35.2895 33.8339 35.3636C33.7838 35.0675 33.7838 34.7651 33.8339 34.4689C33.8581 34.0664 33.6399 33.5209 33.555 33.1257C33.4702 32.7305 33.1356 32.3498 32.7355 32.3983C32.6361 32.939 31.7656 33.9355 31.4044 34.3525C30.7691 35.0969 30.4005 34.4786 29.4234 34.4059C29.2658 34.4059 29.1106 34.5295 28.953 34.5029C28.5893 34.4398 28.6475 34.321 28.5117 34.2046L26.3489 32.3692C26.2486 32.2723 26.1299 32.1965 25.9998 32.1461C25.8819 32.1215 25.76 32.124 25.6432 32.1534C25.5265 32.1828 25.4179 32.2384 25.3257 32.3158C24.8408 32.6723 24.6856 33.3463 24.642 33.9549C24.5983 34.5635 24.5062 34.9248 24.7777 35.4727C24.995 35.7236 25.1169 36.0429 25.1221 36.3747C25.1221 36.3747 24.6202 37.1894 24.4965 37.3858C24.1595 37.9313 23.58 40.4554 23.6479 41.8254C23.7158 43.1953 23.9606 43.5493 24.0867 44.9144L24.1255 45.763C24.2225 46.7862 23.5824 47.4942 23.3448 48.4932C23.1387 49.3345 23.3569 50.1128 24.0843 50.5808Z" fill="#C1C4C9"/>
</g>
<path d="M41.4036 45.2006L41.3357 45.2297L41.4036 45.2006Z" fill="#888888"/>
<path d="M42.337 43.0765C42.2661 43.0041 42.1917 42.9353 42.1139 42.8705C42.0363 42.8001 41.9708 42.7201 41.9005 42.645C41.7166 42.478 41.5169 42.3293 41.304 42.2012C41.2294 42.145 41.148 42.0986 41.0616 42.063C40.9298 42.0277 40.7951 42.0041 40.6591 41.9927C40.5081 41.9763 40.3561 42.0113 40.2275 42.0921C40.172 42.1351 40.1237 42.1867 40.0844 42.2449C39.7725 42.622 39.5347 43.0547 39.3837 43.5203C39.294 43.8355 39.2043 44.2622 39.4589 44.5289C39.5787 44.6349 39.7272 44.7032 39.8856 44.7253C40.1481 44.7916 40.4175 44.8266 40.6882 44.8296C41.0572 44.8337 41.4209 44.7409 41.7429 44.5605C41.8653 44.4867 41.9791 44.3997 42.0823 44.301C42.2561 44.1474 42.3851 43.9497 42.4558 43.7288C42.489 43.6184 42.4956 43.5017 42.475 43.3883C42.4543 43.2749 42.407 43.1681 42.337 43.0765Z" fill="#CBCBD1"/>
<path d="M35.1796 36.998C35.221 36.9557 35.2591 36.9103 35.2936 36.8622C35.4439 36.6634 35.5772 36.3918 35.342 36.2245C35.2717 36.1736 35.2354 36.0281 35.1602 35.982C34.8647 35.8165 34.5917 35.6135 34.3479 35.3783C34.2263 35.5272 34.143 35.7037 34.1055 35.8923C34.5132 36.2091 34.8747 36.5813 35.1796 36.998Z" fill="#CBCBD1"/>
<path d="M36.045 43.0062L35.9625 42.9334C35.4534 42.4946 35.0703 41.8205 34.3914 41.7647C34.1765 41.7399 33.9597 41.7905 33.7779 41.9078C33.6981 41.9674 33.6292 42.0404 33.5743 42.1236C33.1305 42.7249 32.9414 43.3359 32.5729 43.9445C32.3304 44.3446 32.1704 44.9677 32.5292 45.3484C32.7532 45.513 33.0135 45.6211 33.2882 45.6636C33.6624 45.7579 34.0466 45.8067 34.4326 45.8091C34.9587 45.8187 35.4778 45.6873 35.9359 45.4284C36.1107 45.323 36.2734 45.1986 36.4208 45.0574C36.6506 44.8658 36.796 44.5915 36.8257 44.2937C36.9082 43.4596 36.4669 43.3796 36.045 43.0062Z" fill="#CBCBD1"/>
<path d="M26.7197 33.7221C26.3357 33.5047 25.9798 33.2409 25.6601 32.9366C25.4639 33.1702 25.3423 33.4574 25.311 33.7609C25.2795 34.2919 25.311 34.9296 25.8711 35.1842C25.9996 35.24 25.9972 35.0872 26.099 35.0242C26.5646 34.7357 26.3948 35.2327 26.4506 35.2133C26.6356 35.1514 26.7928 35.026 26.8943 34.8593C27.0907 34.5999 27.2628 34.2459 26.9573 34.0277C26.8676 33.9622 26.8191 33.7706 26.7197 33.7221Z" fill="#CBCBD1"/>
<path d="M42.7152 42.4558C42.5744 42.2473 42.4542 42.0257 42.3563 41.7939C42.2797 41.5579 42.2308 41.3138 42.2109 41.0665C42.1785 40.6137 42.0905 40.1667 41.949 39.7354C41.7966 39.3375 41.584 38.9654 41.3186 38.6322C40.7262 37.9 39.9268 37.3635 39.0248 37.0925C38.843 37.0367 38.6514 36.9979 38.4648 36.9543C38.7004 36.7549 38.912 36.5287 39.0952 36.2802C39.1825 36.1593 39.2634 36.0338 39.3376 35.9044C39.3925 35.7875 39.4532 35.6734 39.5195 35.5625C39.6019 35.4461 39.7329 35.3686 39.8517 35.4922C39.9406 35.6106 40.0064 35.7447 40.0456 35.8874C40.2431 36.43 40.3055 37.0126 40.2275 37.5847C40.2275 37.6429 40.3051 37.6671 40.3148 37.6114C40.3657 37.2592 40.3657 36.9015 40.3148 36.5494C40.276 36.2899 40.0117 34.9612 39.5292 35.4074C39.445 35.4991 39.3777 35.605 39.3304 35.7201C39.2547 35.8726 39.168 36.0193 39.0709 36.159C38.8747 36.444 38.6396 36.7003 38.3726 36.9203C38.0566 36.8513 37.7368 36.8011 37.4149 36.77C37.1873 36.7518 36.9587 36.7518 36.7311 36.77C36.7065 36.5652 36.6222 36.3721 36.4886 36.2148C36.3125 36.0338 36.1183 35.8714 35.9092 35.7298L35.2763 35.2449L34.932 34.9806C34.839 34.9027 34.7402 34.8322 34.6362 34.7697C34.5096 34.7114 34.3663 34.7009 34.2326 34.7402C34.0989 34.7794 33.9839 34.8657 33.9088 34.983C33.9121 35.0355 33.9121 35.0881 33.9088 35.1406C33.9827 35.0332 34.0765 34.941 34.1852 34.8691C34.2345 34.834 34.2916 34.8114 34.3515 34.8029C34.4114 34.7945 34.4724 34.8005 34.5295 34.8206C34.6285 34.8634 34.7201 34.9215 34.8011 34.9927L35.9383 35.8608C36.1056 35.9785 36.2621 36.1107 36.4062 36.256C36.537 36.3999 36.6215 36.5799 36.6487 36.7724C36.3868 36.7918 36.1274 36.8233 35.8679 36.8355C35.8097 36.8355 35.8097 36.93 35.8679 36.9276C36.0207 36.9276 36.1759 36.9058 36.331 36.8912C36.5929 37.1483 36.9105 37.4101 37.1482 37.689C37.2403 37.813 37.3131 37.9504 37.364 38.0963C37.4246 38.2394 37.4876 38.3679 37.5385 38.5158C37.5585 38.5913 37.5944 38.6617 37.6437 38.7224C37.6931 38.783 37.7547 38.8324 37.8246 38.8673C37.8465 38.8757 37.8707 38.8757 37.8925 38.8673C37.9136 38.8522 37.9283 38.8297 37.9337 38.8043C37.9797 38.5554 37.9377 38.2982 37.8149 38.0769C37.6534 37.6654 37.4221 37.2848 37.1312 36.9519C37.0791 36.9017 37.0172 36.8629 36.9493 36.8379C37.1004 36.8294 37.2517 36.8294 37.4027 36.8379C37.4415 36.9664 37.5725 37.044 37.6889 37.1192C37.9898 37.3222 38.2389 37.5929 38.4163 37.9096C38.6005 38.2199 38.7436 38.5546 38.9012 38.8795C38.9606 39.0417 39.0757 39.1775 39.2261 39.2626C39.2421 39.2696 39.2595 39.2733 39.277 39.2733C39.2945 39.2733 39.3119 39.2696 39.3279 39.2626C39.3716 39.2407 39.3837 39.1826 39.3885 39.1341C39.4095 38.8839 39.3916 38.6319 39.3352 38.3873C39.2301 37.9359 39.0037 37.5217 38.6805 37.1895C38.5764 37.0921 38.4535 37.017 38.3193 36.9688C38.5651 37.0191 38.808 37.083 39.0467 37.1604C39.4568 37.619 39.7893 38.1415 40.0311 38.7073C40.0942 38.9262 40.1753 39.1395 40.2736 39.345C40.293 39.3789 40.3269 39.4153 40.3633 39.4008C40.3726 39.3962 40.3808 39.3897 40.3875 39.3818C40.3942 39.3739 40.3991 39.3646 40.4021 39.3547C40.5574 39.0227 40.5816 38.6443 40.47 38.2951C40.3607 37.9913 40.1652 37.7258 39.9074 37.5313C40.5025 37.8474 41.0175 38.2952 41.4131 38.8407C41.6579 39.1855 41.8446 39.5679 41.966 39.973C42.0645 40.4117 42.1342 40.8563 42.1745 41.3041C42.2062 41.525 42.2682 41.7404 42.3588 41.9442C42.4582 42.16 42.6012 42.3516 42.7152 42.5601C42.8132 42.7491 42.8689 42.9572 42.8785 43.1698C42.8881 43.3825 42.8514 43.5947 42.771 43.7918C42.4315 44.6914 41.5392 45.1157 40.6566 45.3121C40.5984 45.3242 40.6227 45.4115 40.6809 45.3994C41.2053 45.3009 41.7018 45.0891 42.1357 44.7787C42.5168 44.4871 42.7912 44.0781 42.9164 43.6148C43.0002 43.217 42.9282 42.8022 42.7152 42.4558Z" fill="#888888"/>
<path d="M39.3862 41.1441C39.2626 41.1441 39.1704 41.3163 39.185 41.5102C39.1995 41.7042 39.3086 41.8545 39.4275 41.8449C39.5463 41.8352 39.6432 41.6751 39.6311 41.4811C39.619 41.2872 39.5123 41.1368 39.3862 41.1441Z" fill="#888888"/>
<path d="M41.7139 41.4035C41.7018 41.2096 41.5902 41.0592 41.4714 41.0689C41.3526 41.0786 41.2556 41.2411 41.2677 41.435C41.2799 41.629 41.3914 41.7769 41.5102 41.7696C41.629 41.7624 41.726 41.5975 41.7139 41.4035Z" fill="#888888"/>
<path d="M41.3307 42.2764C41.3338 42.2806 41.3378 42.284 41.3424 42.2865C41.347 42.289 41.352 42.2905 41.3572 42.2909C41.3624 42.2912 41.3676 42.2905 41.3725 42.2887C41.3774 42.2868 41.3818 42.284 41.3855 42.2803C41.3892 42.2766 41.392 42.2722 41.3939 42.2673C41.3957 42.2624 41.3964 42.2572 41.3961 42.252C41.3957 42.2468 41.3942 42.2417 41.3917 42.2372C41.3892 42.2326 41.3858 42.2286 41.3816 42.2255C41.0131 41.857 40.2881 41.7988 39.9729 42.2716C39.9462 42.3104 40.0093 42.3467 40.0335 42.3079C40.3293 41.8739 40.9961 41.9418 41.3307 42.2764Z" fill="#888888"/>
<path d="M41.081 43.5397C41.227 43.5087 41.355 43.4216 41.4374 43.2973C41.4436 43.2856 41.445 43.2721 41.4414 43.2594C41.4378 43.2467 41.4294 43.236 41.418 43.2294C41.4124 43.226 41.406 43.2238 41.3995 43.2229C41.3929 43.2221 41.3863 43.2226 41.3799 43.2244C41.3735 43.2262 41.3676 43.2293 41.3625 43.2335C41.3574 43.2377 41.3532 43.2429 41.3502 43.2488C41.2841 43.3416 41.1896 43.4106 41.081 43.4452C41.081 43.4161 41.081 43.3894 41.081 43.3603C41.0969 43.2177 41.0969 43.0737 41.081 42.9311C41.0496 42.772 40.9949 42.6184 40.9186 42.4753C41.0155 42.4219 41.161 42.3298 41.161 42.2619C41.161 42.194 41.0131 42.148 40.8289 42.1504C40.6446 42.1528 40.5015 42.1795 40.5015 42.274C40.5015 42.3686 40.744 42.4777 40.8119 42.5044C40.8898 42.6424 40.9447 42.7923 40.9743 42.9481C40.989 43.0827 40.989 43.2184 40.9743 43.353V43.45C40.8103 43.4517 40.6505 43.3978 40.5209 43.2973C40.5114 43.2882 40.4989 43.2832 40.4858 43.2832C40.4727 43.2832 40.4601 43.2882 40.4506 43.2973C40.4465 43.3026 40.4436 43.3087 40.442 43.3152C40.4404 43.3217 40.4401 43.3285 40.4413 43.3351C40.4424 43.3417 40.4449 43.348 40.4486 43.3536C40.4523 43.3592 40.4571 43.3639 40.4627 43.3676C40.6016 43.4777 40.7708 43.5429 40.9477 43.5543C40.9926 43.5556 41.0374 43.5507 41.081 43.5397Z" fill="#888888"/>
<path d="M36.77 41.5199C36.6615 41.1863 36.5916 40.8414 36.5614 40.4919C36.5171 39.8461 36.3925 39.2083 36.1905 38.5934C35.9736 38.0251 35.6692 37.4941 35.2885 37.0198C34.4422 35.9802 33.3024 35.2198 32.0176 34.8376C31.7606 34.76 31.4939 34.7018 31.2272 34.6436C31.5617 34.3565 31.8611 34.0309 32.1195 33.6737C32.2407 33.5016 32.3619 33.3222 32.4589 33.1379C32.5367 32.9717 32.6233 32.8099 32.7183 32.6529C32.8347 32.4832 33.0238 32.3741 33.1911 32.5511C33.3185 32.7192 33.4123 32.9102 33.4676 33.1136C33.7492 33.8889 33.8382 34.721 33.727 35.5383C33.727 35.6183 33.841 35.6547 33.8507 35.5722C33.9234 35.0705 33.9234 34.561 33.8507 34.0593C33.7949 33.6907 33.4191 31.7946 32.7305 32.4323C32.6086 32.5618 32.5124 32.7132 32.4468 32.8784C32.3402 33.0954 32.2195 33.3052 32.0855 33.5064C31.8041 33.912 31.4689 34.2775 31.089 34.5927C30.6376 34.4956 30.181 34.4243 29.7215 34.3793C29.3705 34.3502 29.0177 34.3502 28.6667 34.3793C28.6146 34.2536 28.5434 34.1367 28.4558 34.0326C28.2251 33.7979 27.9717 33.5868 27.6993 33.4022C27.4253 33.1912 27.1513 32.9803 26.8749 32.7718C26.727 32.6554 26.5767 32.5414 26.4263 32.4275C26.305 32.3264 26.1762 32.2348 26.0408 32.1535C25.5122 31.8722 25.0322 32.4105 24.8285 32.8542C24.586 33.4046 24.5691 34.0471 24.5715 34.6436C24.5667 34.9222 24.617 35.1991 24.7194 35.4583C24.8382 35.7444 25.0006 36.0063 25.1073 36.2972C25.0006 36.4209 22.7481 39.0904 23.9192 44.2986C24.2563 45.797 23.9702 46.5729 23.6768 47.3949C23.3907 48.0692 23.2416 48.7937 23.2379 49.5262H23.3397C23.3429 48.8053 23.4896 48.0923 23.7713 47.4288C24.0793 46.5923 24.3702 45.8043 24.0259 44.2768C22.8451 39.0177 25.1776 36.3748 25.2019 36.3481L25.1631 36.3142H25.2067C25.2144 36.3074 25.2201 36.2985 25.2231 36.2887C25.2261 36.2789 25.2263 36.2684 25.2237 36.2584C25.1243 35.9893 24.9812 35.742 24.8624 35.4801C24.7389 35.1934 24.6801 34.8829 24.6903 34.5709C24.6903 34.0035 24.6903 33.3925 24.9473 32.8736C25.0544 32.6304 25.2285 32.4227 25.4492 32.2747C25.5127 32.2285 25.5865 32.1984 25.6642 32.187C25.7419 32.1756 25.8212 32.1832 25.8953 32.2092C26.0236 32.2669 26.1429 32.3429 26.2493 32.4347L27.7308 33.567C27.949 33.7204 28.1534 33.8924 28.3418 34.0811C28.4214 34.1708 28.4868 34.2722 28.5358 34.3817C28.1915 34.4133 27.8472 34.4496 27.5029 34.469C27.4204 34.469 27.4204 34.6024 27.5029 34.5975C27.7235 34.5975 27.9442 34.5684 28.1648 34.5466C28.5382 34.9127 28.9892 35.274 29.3311 35.6838C29.4603 35.8612 29.5632 36.0564 29.6366 36.2633C29.7239 36.4669 29.8136 36.6536 29.8791 36.8622C29.9078 36.9695 29.9589 37.0695 30.0292 37.1556C30.0994 37.2417 30.1871 37.3119 30.2864 37.3616C30.3017 37.3682 30.3182 37.3716 30.3349 37.3716C30.3516 37.3716 30.3681 37.3682 30.3834 37.3616C30.3991 37.3525 30.4126 37.3399 30.4226 37.3248C30.4327 37.3096 30.4392 37.2924 30.4416 37.2744C30.507 36.9216 30.447 36.557 30.2719 36.2439C30.0456 35.6566 29.7173 35.114 29.302 34.6412C29.2294 34.5681 29.1417 34.5118 29.045 34.4763C29.2574 34.4642 29.4703 34.4642 29.6827 34.4763C29.7384 34.663 29.9251 34.7721 30.0997 34.8788C30.5271 35.169 30.8808 35.5551 31.1326 36.0063C31.3993 36.45 31.6006 36.9252 31.8285 37.3883C31.9127 37.6189 32.0759 37.8122 32.2892 37.9339C32.3121 37.944 32.3369 37.9493 32.3619 37.9493C32.387 37.9493 32.4118 37.944 32.4347 37.9339C32.4977 37.9023 32.5147 37.8199 32.5219 37.7496C32.552 37.3921 32.5258 37.0321 32.4443 36.6827C32.2938 36.0424 31.971 35.4555 31.5109 34.9855C31.3649 34.8449 31.1904 34.7375 30.9993 34.6703C31.3468 34.7411 31.6901 34.8317 32.0273 34.9418C32.6122 35.596 33.0864 36.3413 33.4312 37.1483C33.5211 37.4609 33.6379 37.7651 33.7803 38.0575C33.8094 38.106 33.8579 38.1569 33.9089 38.1375C33.9351 38.1236 33.9551 38.1002 33.9646 38.0721C34.1836 37.5981 34.2182 37.0596 34.0616 36.5615C33.898 36.1072 33.6025 35.7121 33.213 35.4268L33.1693 35.3977C34.0562 35.8601 34.822 36.5246 35.4049 37.3374C35.7547 37.8289 36.0218 38.3744 36.1953 38.9522C36.3772 39.5729 36.3917 40.2179 36.4911 40.8507C36.5364 41.1659 36.6245 41.4735 36.753 41.7648C36.896 42.0728 37.1021 42.3443 37.2597 42.6426C37.3992 42.9119 37.4787 43.2083 37.493 43.5113C37.5072 43.8143 37.4557 44.1167 37.3422 44.398C36.8572 45.6807 35.5843 46.2868 34.3259 46.5632C34.3103 46.5687 34.2974 46.5799 34.2896 46.5945C34.2819 46.6091 34.28 46.6261 34.2843 46.642C34.2886 46.658 34.2988 46.6717 34.3128 46.6805C34.3268 46.6893 34.3436 46.6924 34.3598 46.6893C35.1116 46.5513 35.8236 46.2491 36.445 45.8043C36.9894 45.39 37.3809 44.8067 37.558 44.1459C37.6301 43.8553 37.6433 43.5533 37.5967 43.2576C37.55 42.9619 37.4445 42.6785 37.2864 42.4243C37.0854 42.1403 36.9125 41.8374 36.77 41.5199Z" fill="#888888"/>
<path d="M32.5366 40.5961C32.3572 40.5961 32.2287 40.8386 32.2456 41.1174C32.2626 41.3962 32.4227 41.6023 32.6021 41.6023C32.7815 41.6023 32.91 41.3599 32.8906 41.081C32.8712 40.8022 32.7136 40.584 32.5366 40.5961Z" fill="#888888"/>
<path d="M35.8536 40.9672C35.8366 40.6908 35.6766 40.4822 35.4971 40.4822C35.3177 40.4822 35.1892 40.7247 35.2086 41.0035C35.228 41.2824 35.3856 41.4885 35.5626 41.4885C35.7396 41.4885 35.8705 41.2412 35.8536 40.9672Z" fill="#888888"/>
<path d="M35.2644 42.2085C35.2746 42.2155 35.2868 42.2187 35.2991 42.2177C35.3114 42.2167 35.323 42.2115 35.3318 42.2029C35.3407 42.1943 35.3463 42.1829 35.3477 42.1707C35.3491 42.1585 35.3463 42.1461 35.3396 42.1357C34.811 41.612 33.7781 41.5271 33.3271 42.2036C33.2907 42.2594 33.3805 42.3103 33.4168 42.257C33.829 41.6363 34.7868 41.7332 35.2644 42.2085Z" fill="#888888"/>
<path d="M26.4894 33.5064C26.3821 33.4481 26.2785 33.3833 26.1791 33.3124C26.1209 33.2663 26.0699 33.2081 26.0166 33.1572C25.9632 33.1063 25.8784 33.0214 25.8056 32.9584C25.7665 32.9159 25.716 32.8856 25.6602 32.8711C25.585 32.8711 25.585 32.9851 25.6602 32.9899C25.6311 32.9899 25.6602 32.9899 25.6602 32.9899L25.699 33.0214C25.7329 33.0481 25.762 33.0772 25.7935 33.1063L25.9972 33.3003C26.1261 33.4164 26.2686 33.5165 26.4215 33.5985C26.5304 33.6536 26.6336 33.7194 26.7294 33.7949C26.8315 33.8649 26.9136 33.9603 26.9676 34.0717C27.0216 34.1831 27.0456 34.3066 27.0374 34.4302C26.9982 34.5682 26.9308 34.6966 26.8394 34.8072C26.748 34.9178 26.6346 35.0082 26.5064 35.0727C26.5112 35.0479 26.5112 35.0224 26.5064 34.9975C26.4887 34.9532 26.4584 34.915 26.4191 34.8878C26.3799 34.8607 26.3335 34.8457 26.2857 34.8448C26.2357 34.8389 26.1849 34.8466 26.1389 34.8671C26.0928 34.8876 26.0531 34.9201 26.0239 34.9612C25.9836 35.0157 25.9593 35.0803 25.9536 35.1479C25.8965 35.1018 25.8256 35.0761 25.7523 35.0751C25.7031 35.0838 25.6586 35.1099 25.6271 35.1486C25.5955 35.1873 25.5788 35.2361 25.5802 35.2861C25.5866 35.3981 25.6211 35.5068 25.6804 35.6021C25.7397 35.6974 25.822 35.7763 25.9196 35.8316C25.9308 35.842 25.9455 35.8478 25.9608 35.8478C25.9761 35.8478 25.9908 35.842 26.002 35.8316C26.0131 35.8203 26.0194 35.805 26.0194 35.7892C26.0194 35.7733 26.0131 35.7581 26.002 35.7467C25.8594 35.66 25.7527 35.5249 25.7014 35.3661C25.7014 35.32 25.6868 35.2085 25.7499 35.1915C25.7886 35.191 25.8265 35.202 25.859 35.223C25.8957 35.244 25.9292 35.2701 25.9584 35.3006C25.9668 35.3085 25.9774 35.3137 25.9887 35.3158C26.0001 35.3179 26.0118 35.3168 26.0225 35.3124C26.0331 35.3081 26.0424 35.3008 26.0491 35.2914C26.0558 35.282 26.0596 35.2709 26.0602 35.2594C26.0602 35.1285 26.0942 34.9636 26.2566 34.9684C26.3076 34.9684 26.3852 34.9854 26.3949 35.0484C26.3961 35.1001 26.3835 35.1511 26.3585 35.1963C26.327 35.2642 26.4288 35.3273 26.4603 35.257C26.4698 35.2349 26.4779 35.2122 26.4846 35.1891C26.5015 35.1891 26.5161 35.2182 26.5379 35.2036C26.6929 35.1278 26.829 35.0183 26.9363 34.8833C27.0437 34.7482 27.1196 34.591 27.1586 34.4229C27.1641 34.2925 27.1381 34.1628 27.0828 34.0446C27.0275 33.9264 26.9446 33.8233 26.841 33.744C26.7331 33.6518 26.6151 33.5721 26.4894 33.5064Z" fill="#888888"/>
<path d="M34.9055 43.9907C35.1059 43.9393 35.2793 43.8136 35.3904 43.6391C35.3939 43.6332 35.3961 43.6267 35.397 43.62C35.3978 43.6132 35.3974 43.6064 35.3956 43.5998C35.3938 43.5933 35.3906 43.5871 35.3864 43.5818C35.3822 43.5765 35.377 43.572 35.371 43.5688C35.3594 43.5626 35.3458 43.5612 35.3332 43.5648C35.3205 43.5684 35.3098 43.5768 35.3031 43.5882C35.204 43.7382 35.0529 43.8461 34.8788 43.8912V43.7336C34.8992 43.5318 34.8951 43.3283 34.8667 43.1275C34.8241 42.9032 34.748 42.6866 34.6412 42.4849C34.777 42.4122 35.017 42.2716 35.017 42.1721C35.017 42.0364 34.8037 42.0073 34.5321 42.0121C34.2605 42.017 34.0641 42.0533 34.0666 42.1891C34.069 42.3249 34.5515 42.5286 34.5515 42.531C34.6537 42.7246 34.7272 42.9321 34.7697 43.1469C34.7917 43.3402 34.7917 43.5354 34.7697 43.7288C34.7697 43.7821 34.7697 43.8355 34.7697 43.8888C34.5226 43.8973 34.2805 43.8183 34.086 43.6658C34.075 43.6582 34.0615 43.6552 34.0483 43.6574C34.0352 43.6597 34.0234 43.667 34.0157 43.6779C34.0086 43.689 34.006 43.7024 34.0082 43.7154C34.0105 43.7283 34.0174 43.74 34.0278 43.7482C34.2259 43.9057 34.4684 43.9973 34.7212 44.0101C34.7832 44.011 34.8451 44.0045 34.9055 43.9907Z" fill="#888888"/>
<path d="M35.2376 36.9688C35.3756 36.8613 35.4675 36.7052 35.4946 36.5324C35.4988 36.4324 35.479 36.3329 35.4368 36.2422C35.3946 36.1515 35.3313 36.0723 35.2521 36.0111C35.1664 35.9406 35.0738 35.8789 34.9757 35.8268C34.8917 35.783 34.8107 35.7336 34.7333 35.6789C34.6872 35.6425 34.6484 35.5989 34.6072 35.5601C34.566 35.5213 34.5005 35.4559 34.4447 35.4074C34.4159 35.3749 34.3778 35.3521 34.3356 35.3419C34.275 35.3419 34.275 35.4268 34.3356 35.4316C34.3138 35.4316 34.3356 35.4316 34.3356 35.4316L34.3647 35.4558L34.4375 35.5189L34.5926 35.6692C34.6925 35.7584 34.8023 35.8357 34.92 35.8996C35.0059 35.9409 35.0872 35.9912 35.1624 36.0499C35.2416 36.1026 35.3056 36.175 35.3482 36.2601C35.3907 36.3452 35.4103 36.4399 35.4049 36.5348C35.3738 36.6752 35.296 36.8008 35.1843 36.8913L35.2376 36.9688Z" fill="#888888"/>
<path d="M41.8133 44.7641C41.8124 44.7376 41.8049 44.7118 41.7915 44.6889C41.7701 44.6557 41.7365 44.6322 41.6979 44.6236C41.6593 44.615 41.6189 44.6219 41.5854 44.6429L40.6567 45.2272C40.6343 45.2402 40.6088 45.247 40.5828 45.247C40.5568 45.247 40.5313 45.2402 40.5088 45.2272L39.539 44.7156C39.5169 44.7029 39.4916 44.697 39.4662 44.6986C39.4467 44.6989 39.4274 44.7032 39.4096 44.7111C39.3917 44.719 39.3756 44.7304 39.3623 44.7447C39.3489 44.7589 39.3386 44.7757 39.3319 44.794C39.3252 44.8124 39.3222 44.8319 39.3232 44.8514L39.3717 46.1268C39.3716 46.1486 39.3765 46.1702 39.3862 46.1898C39.3952 46.2073 39.4075 46.2228 39.4225 46.2354C39.4375 46.2481 39.4549 46.2576 39.4736 46.2635C39.4924 46.2694 39.5121 46.2714 39.5316 46.2696C39.5512 46.2678 39.5702 46.2621 39.5875 46.2528L40.5282 45.7679C40.5476 45.759 40.5687 45.7544 40.5901 45.7544C40.6114 45.7544 40.6325 45.759 40.6519 45.7679L41.6606 46.1801C41.6805 46.1849 41.7013 46.1849 41.7212 46.1801C41.7406 46.1795 41.7597 46.175 41.7774 46.167C41.7951 46.159 41.8111 46.1476 41.8244 46.1334C41.8377 46.1192 41.848 46.1025 41.8549 46.0843C41.8617 46.0661 41.8649 46.0468 41.8642 46.0274L41.8133 44.7641Z" fill="#595757"/>
<path d="M35.8122 45.6783C35.7853 45.6364 35.743 45.6068 35.6945 45.5959C35.6459 45.585 35.595 45.5937 35.5528 45.6201L34.372 46.3572C34.3432 46.3738 34.3106 46.3825 34.2774 46.3825C34.2442 46.3825 34.2116 46.3738 34.1829 46.3572L32.9487 45.7074C32.9193 45.693 32.8869 45.6855 32.8541 45.6855C32.8038 45.6874 32.7562 45.7091 32.7217 45.7459C32.6872 45.7827 32.6686 45.8315 32.6699 45.8819L32.7329 47.504C32.733 47.5314 32.7405 47.5582 32.7547 47.5816C32.7774 47.6233 32.815 47.6549 32.8599 47.6701C32.9048 47.6854 32.9538 47.6832 32.9972 47.6641L34.195 47.0506C34.2199 47.0399 34.2467 47.0343 34.2738 47.0343C34.3009 47.0343 34.3277 47.0399 34.3526 47.0506L35.6352 47.5744C35.6599 47.5841 35.6863 47.589 35.7128 47.5889C35.7377 47.588 35.7621 47.5821 35.7847 47.5718C35.8072 47.5614 35.8276 47.5467 35.8445 47.5284C35.8613 47.5102 35.8745 47.4888 35.8831 47.4655C35.8917 47.4421 35.8956 47.4174 35.8947 47.3925L35.8316 45.768C35.8337 45.7369 35.8269 45.7058 35.8122 45.6783Z" fill="#595757"/>
</g>
<defs>
<clipPath id="clip0_19_288">
<rect width="56" height="56" fill="white"/>
</clipPath>
</defs>
</svg>
