<svg width="25" height="24" viewBox="0 0 25 24" fill="none" xmlns="http://www.w3.org/2000/svg">
<g clip-path="url(#clip0_2_3466)">
<path d="M23.5155 12.5H0.725464C0.592856 12.5 0.465716 12.4473 0.371948 12.3536C0.27818 12.2598 0.225464 12.1326 0.225464 12C0.228024 11.8682 0.281537 11.7425 0.374756 11.6493C0.467975 11.5561 0.593657 11.5025 0.725464 11.5H22.3055L18.8755 8.06999C18.7839 7.97653 18.7325 7.85086 18.7325 7.71999C18.7325 7.58911 18.7839 7.46347 18.8755 7.37001C18.922 7.32315 18.9773 7.28593 19.0382 7.26054C19.0991 7.23516 19.1645 7.22209 19.2305 7.22209C19.2965 7.22209 19.3619 7.23516 19.4228 7.26054C19.4837 7.28593 19.539 7.32315 19.5855 7.37001L23.8655 11.67C23.9371 11.7378 23.9861 11.826 24.0057 11.9227C24.0254 12.0193 24.0148 12.1196 23.9755 12.21C23.936 12.2984 23.8713 12.3731 23.7894 12.4247C23.7076 12.4763 23.6122 12.5025 23.5155 12.5Z" fill="black"/>
<g clip-path="url(#clip1_2_3466)">
<path d="M23.5155 12.5H0.725464C0.592856 12.5 0.465716 12.4473 0.371948 12.3536C0.27818 12.2598 0.225464 12.1326 0.225464 12C0.228024 11.8682 0.281537 11.7425 0.374756 11.6493C0.467975 11.5561 0.593657 11.5025 0.725464 11.5H22.3055L18.8755 8.06999C18.7839 7.97653 18.7325 7.85086 18.7325 7.71999C18.7325 7.58911 18.7839 7.46347 18.8755 7.37001C18.922 7.32315 18.9773 7.28593 19.0382 7.26054C19.0991 7.23516 19.1645 7.22209 19.2305 7.22209C19.2965 7.22209 19.3619 7.23516 19.4228 7.26054C19.4837 7.28593 19.539 7.32315 19.5855 7.37001L23.8655 11.67C23.9371 11.7378 23.9861 11.826 24.0057 11.9227C24.0254 12.0193 24.0148 12.1196 23.9755 12.21C23.936 12.2984 23.8713 12.3731 23.7894 12.4247C23.7076 12.4763 23.6122 12.5025 23.5155 12.5Z" fill="black"/>
</g>
</g>
<defs>
<clipPath id="clip0_2_3466">
<rect width="24" height="24" fill="white" transform="translate(0.0854492)"/>
</clipPath>
<clipPath id="clip1_2_3466">
<rect width="24" height="24" fill="white" transform="translate(0.0854492)"/>
</clipPath>
</defs>
</svg>
