<svg width="12" height="13" viewBox="0 0 12 13" fill="none" xmlns="http://www.w3.org/2000/svg">
<g clip-path="url(#clip0_2_3527)">
<path d="M3.02899 1.38659L8.27405 6.38659L3.02899 11.3866C2.99876 11.4168 2.9748 11.4526 2.95844 11.4921C2.94207 11.5316 2.93366 11.5739 2.93366 11.6166C2.93366 11.6593 2.94207 11.7016 2.95844 11.7411C2.9748 11.7806 2.99876 11.8164 3.02899 11.8466C3.09059 11.9065 3.17314 11.94 3.25903 11.94C3.34493 11.94 3.42742 11.9065 3.48901 11.8466L8.98901 6.5866C9.02183 6.55683 9.04809 6.52058 9.06616 6.48013C9.08424 6.43967 9.09372 6.39589 9.09399 6.35159C9.09114 6.26252 9.05346 6.17815 8.98901 6.1166L3.48902 0.861596C3.45931 0.832483 3.42412 0.809538 3.3855 0.794091C3.34688 0.778644 3.30563 0.771003 3.26404 0.771599C3.22006 0.770936 3.1764 0.779492 3.13593 0.796715C3.09545 0.813939 3.05901 0.839453 3.02899 0.871605C2.98957 0.901964 2.9577 0.940975 2.93573 0.985619C2.91376 1.03026 2.90228 1.07936 2.90228 1.12911C2.90228 1.17887 2.91376 1.22796 2.93573 1.27261C2.9577 1.31725 2.98957 1.35623 3.02899 1.38659Z" fill="#676767"/>
</g>
<defs>
<clipPath id="clip0_2_3527">
<rect width="12" height="12" fill="white" transform="translate(11.999 12.4066) rotate(-180)"/>
</clipPath>
</defs>
</svg>
