<svg width="24" height="24" viewBox="0 0 24 24" fill="none" xmlns="http://www.w3.org/2000/svg">
<g clip-path="url(#clip0_2_4373)">
<path opacity="0.5" d="M17.1678 5.42971L16.2739 3.40496C16.2149 3.26835 16.116 3.1521 15.9897 3.07098C15.8635 2.98987 15.7158 2.94754 15.5651 2.94938H8.37331C8.23045 2.94702 8.09002 2.98606 7.96948 3.06165C7.84893 3.13724 7.75354 3.24604 7.69519 3.37456L6.79108 5.39931H0.821966C0.593909 5.40194 0.375855 5.49237 0.214583 5.65129C0.0533111 5.8102 -0.0384701 6.02501 -0.0411377 6.24973V20.1597C-0.0411462 20.2669 -0.0194986 20.3731 0.0224476 20.472C0.0643938 20.5709 0.125882 20.6606 0.203296 20.736C0.280709 20.8113 0.37253 20.8708 0.473439 20.9109C0.574347 20.951 0.682317 20.971 0.791114 20.9696H23.1473C23.3626 20.9696 23.569 20.8854 23.7212 20.7354C23.8734 20.5854 23.9588 20.382 23.9588 20.1699V6.2598C23.9589 6.04137 23.8716 5.83177 23.7158 5.67637C23.56 5.52098 23.3484 5.43237 23.1267 5.42971H17.1678ZM22.5616 19.6029H1.41781V6.84699H7.28421C7.42127 6.84687 7.55536 6.80758 7.67024 6.73392C7.78511 6.66025 7.87586 6.55538 7.93148 6.43195L8.3836 5.41957L8.68146 4.77164L8.84587 4.4072H15.113L15.2877 4.79191L15.5754 5.41957L16.0274 6.43195C16.0837 6.55697 16.1761 6.66291 16.293 6.7367C16.4099 6.81048 16.5461 6.84884 16.6849 6.84699H22.5412L22.5616 19.6029Z" fill="white"/>
<path opacity="0.38" d="M12.3082 18.3881L15.791 16.7379C15.9119 16.6804 16.018 16.5969 16.1016 16.4935C16.1852 16.3901 16.2441 16.2695 16.2739 16.1406L17.137 12.4252C17.1607 12.3127 17.1591 12.1964 17.1325 12.0845C17.1059 11.9726 17.0549 11.8677 16.9829 11.7773L14.5377 8.74014C14.4654 8.65035 14.3731 8.57808 14.268 8.52894C14.1629 8.4798 14.0478 8.45511 13.9315 8.45671H10.0274C9.90481 8.45666 9.78389 8.48394 9.67357 8.53654C9.56325 8.58914 9.4664 8.66568 9.39038 8.76041L7.00675 11.7064C6.91884 11.8165 6.85674 11.9444 6.82477 12.0809C6.79281 12.2174 6.79183 12.3591 6.82189 12.4961L7.68487 16.2115C7.70973 16.3145 7.75777 16.4107 7.82533 16.493C7.89289 16.5754 7.97827 16.6418 8.07528 16.6873L11.63 18.378C11.735 18.4298 11.8505 18.4576 11.9679 18.4593C12.0853 18.4611 12.2016 18.4367 12.3082 18.3881ZM13.5514 9.99547L15.5342 12.4455L14.8254 15.4826L11.9692 16.8391L9.11297 15.4826L8.40412 12.4455L10.3869 9.99547H13.5514Z" fill="white"/>
<path opacity="0.5" d="M23.1575 7.10011C23.6228 7.10011 24 6.72844 24 6.26997C24 5.81149 23.6228 5.43982 23.1575 5.43982C22.6923 5.43982 22.3151 5.81149 22.3151 6.26997C22.3151 6.72844 22.6923 7.10011 23.1575 7.10011Z" fill="white"/>
<path opacity="0.5" d="M16.7465 6.85714C17.1778 6.85714 17.5273 6.51266 17.5273 6.08773C17.5273 5.6628 17.1778 5.31833 16.7465 5.31833C16.3153 5.31833 15.9657 5.6628 15.9657 6.08773C15.9657 6.51266 16.3153 6.85714 16.7465 6.85714Z" fill="white"/>
<path opacity="0.5" d="M7.25348 6.85714C7.68471 6.85714 8.0343 6.51266 8.0343 6.08773C8.0343 5.6628 7.68471 5.31833 7.25348 5.31833C6.82224 5.31833 6.47266 5.6628 6.47266 6.08773C6.47266 6.51266 6.82224 6.85714 7.25348 6.85714Z" fill="white"/>
<path opacity="0.5" d="M8.44525 4.53881C8.87649 4.53881 9.22607 4.19433 9.22607 3.7694C9.22607 3.34447 8.87649 3 8.44525 3C8.01401 3 7.66443 3.34447 7.66443 3.7694C7.66443 4.19433 8.01401 4.53881 8.44525 4.53881Z" fill="white"/>
<path opacity="0.5" d="M15.5547 4.53881C15.986 4.53881 16.3356 4.19433 16.3356 3.7694C16.3356 3.34447 15.986 3 15.5547 3C15.1235 3 14.7739 3.34447 14.7739 3.7694C14.7739 4.19433 15.1235 4.53881 15.5547 4.53881Z" fill="white"/>
<path opacity="0.5" d="M23.1575 21C23.6228 21 24 20.6283 24 20.1699C24 19.7114 23.6228 19.3397 23.1575 19.3397C22.6923 19.3397 22.3151 19.7114 22.3151 20.1699C22.3151 20.6283 22.6923 21 23.1575 21Z" fill="white"/>
<path opacity="0.5" d="M0.842466 21C1.30775 21 1.68493 20.6283 1.68493 20.1699C1.68493 19.7114 1.30775 19.3397 0.842466 19.3397C0.377185 19.3397 0 19.7114 0 20.1699C0 20.6283 0.377185 21 0.842466 21Z" fill="white"/>
<path opacity="0.5" d="M0.842466 7.08998C1.30775 7.08998 1.68493 6.71831 1.68493 6.25983C1.68493 5.80136 1.30775 5.42969 0.842466 5.42969C0.377185 5.42969 0 5.80136 0 6.25983C0 6.71831 0.377185 7.08998 0.842466 7.08998Z" fill="white"/>
<path opacity="0.5" d="M7.62329 13.0428C8.07155 13.0428 8.43493 12.6847 8.43493 12.243C8.43493 11.8013 8.07155 11.4432 7.62329 11.4432C7.17503 11.4432 6.81165 11.8013 6.81165 12.243C6.81165 12.6847 7.17503 13.0428 7.62329 13.0428Z" fill="white"/>
<path opacity="0.5" d="M10.0273 10.0664C10.4756 10.0664 10.839 9.70831 10.839 9.2666C10.839 8.8249 10.4756 8.46683 10.0273 8.46683C9.57908 8.46683 9.2157 8.8249 9.2157 9.2666C9.2157 9.70831 9.57908 10.0664 10.0273 10.0664Z" fill="white"/>
<path opacity="0.5" d="M13.911 10.0664C14.3593 10.0664 14.7227 9.70831 14.7227 9.2666C14.7227 8.8249 14.3593 8.46683 13.911 8.46683C13.4628 8.46683 13.0994 8.8249 13.0994 9.2666C13.0994 9.70831 13.4628 10.0664 13.911 10.0664Z" fill="white"/>
<path opacity="0.5" d="M16.3356 13.063C16.7838 13.063 17.1472 12.7049 17.1472 12.2632C17.1472 11.8215 16.7838 11.4634 16.3356 11.4634C15.8873 11.4634 15.5239 11.8215 15.5239 12.2632C15.5239 12.7049 15.8873 13.063 16.3356 13.063Z" fill="white"/>
<path opacity="0.5" d="M15.4829 16.7581C15.9312 16.7581 16.2946 16.4001 16.2946 15.9584C16.2946 15.5167 15.9312 15.1586 15.4829 15.1586C15.0346 15.1586 14.6713 15.5167 14.6713 15.9584C14.6713 16.4001 15.0346 16.7581 15.4829 16.7581Z" fill="white"/>
<path opacity="0.5" d="M11.9692 18.459C12.4175 18.459 12.7809 18.1009 12.7809 17.6592C12.7809 17.2175 12.4175 16.8594 11.9692 16.8594C11.521 16.8594 11.1576 17.2175 11.1576 17.6592C11.1576 18.1009 11.521 18.459 11.9692 18.459Z" fill="white"/>
<path opacity="0.5" d="M8.4657 16.7986C8.91396 16.7986 9.27734 16.4406 9.27734 15.9989C9.27734 15.5572 8.91396 15.1991 8.4657 15.1991C8.01744 15.1991 7.65405 15.5572 7.65405 15.9989C7.65405 16.4406 8.01744 16.7986 8.4657 16.7986Z" fill="white"/>
<g opacity="0.5">
<path d="M20.9692 7.91H19.9521L19.3151 8.68953L19.5411 9.67153L20.4657 10.1069L21.3801 9.67153L21.6062 8.68953L20.9692 7.91Z" fill="white"/>
</g>
</g>
<g clip-path="url(#clip1_2_4373)">
<path opacity="0.38" d="M12.3084 18.388L15.7913 16.7378C15.9121 16.6804 16.0182 16.5968 16.1018 16.4934C16.1854 16.39 16.2443 16.2694 16.2741 16.1405L17.1372 12.4251C17.161 12.3126 17.1593 12.1963 17.1327 12.0844C17.1061 11.9725 17.0551 11.8676 16.9831 11.7772L14.5379 8.74005C14.4656 8.65025 14.3733 8.57799 14.2683 8.52885C14.1632 8.4797 14.0481 8.45502 13.9318 8.45662H10.0276C9.90505 8.45657 9.78413 8.48385 9.67381 8.53645C9.56349 8.58905 9.46664 8.66559 9.39063 8.76032L7.00699 11.7063C6.91909 11.8164 6.85699 11.9443 6.82502 12.0808C6.79305 12.2173 6.79207 12.3591 6.82213 12.496L7.68511 16.2114C7.70998 16.3144 7.75802 16.4106 7.82558 16.4929C7.89314 16.5753 7.97851 16.6417 8.07553 16.6872L11.6303 18.3779C11.7353 18.4297 11.8507 18.4575 11.9682 18.4592C12.0856 18.461 12.2019 18.4367 12.3084 18.388ZM13.5516 9.99538L15.5344 12.4454L14.8256 15.4825L11.9694 16.839L9.11321 15.4825L8.40437 12.4454L10.3872 9.99538H13.5516Z" fill="#838484"/>
<path opacity="0.5" d="M17.1679 5.42965L16.2741 3.4049C16.215 3.26829 16.1161 3.15204 15.9899 3.07092C15.8636 2.98981 15.7159 2.94748 15.5652 2.94932H8.37343C8.23057 2.94696 8.09014 2.986 7.9696 3.06159C7.84905 3.13718 7.75366 3.24598 7.69532 3.3745L6.7912 5.39925H0.822088C0.594031 5.40187 0.375977 5.49231 0.214705 5.65123C0.0534331 5.81014 -0.038348 6.02494 -0.0410156 6.24967V20.1597C-0.0410241 20.2669 -0.0193766 20.373 0.0225696 20.472C0.0645158 20.5709 0.126004 20.6606 0.203418 20.7359C0.280831 20.8113 0.372652 20.8708 0.473561 20.9109C0.57447 20.951 0.682439 20.9709 0.791236 20.9696H23.1474C23.3627 20.9696 23.5691 20.8853 23.7213 20.7353C23.8735 20.5853 23.959 20.3819 23.959 20.1698V6.25974C23.959 6.04131 23.8717 5.83171 23.7159 5.67631C23.5601 5.52092 23.3485 5.43231 23.1268 5.42965H17.1679ZM22.5617 19.6029H1.41793V6.84693H7.28433C7.42139 6.84681 7.55548 6.80752 7.67036 6.73386C7.78524 6.66019 7.87598 6.55532 7.9316 6.43189L8.38372 5.41951L8.68158 4.77158L8.846 4.40714H15.1131L15.2878 4.79185L15.5755 5.41951L16.0275 6.43189C16.0838 6.55691 16.1762 6.66285 16.2931 6.73664C16.41 6.81042 16.5462 6.84878 16.685 6.84693H22.5413L22.5617 19.6029Z" fill="#838484"/>
<path opacity="0.5" d="M17.1678 5.42971L16.2739 3.40496C16.2149 3.26835 16.116 3.1521 15.9897 3.07098C15.8635 2.98987 15.7158 2.94754 15.5651 2.94938H8.37331C8.23045 2.94702 8.09002 2.98606 7.96948 3.06165C7.84893 3.13724 7.75354 3.24604 7.69519 3.37456L6.79108 5.39931H0.821966C0.593909 5.40194 0.375855 5.49237 0.214583 5.65129C0.0533111 5.8102 -0.0384701 6.02501 -0.0411377 6.24973V20.1597C-0.0411462 20.2669 -0.0194986 20.3731 0.0224476 20.472C0.0643938 20.5709 0.125882 20.6606 0.203296 20.736C0.280709 20.8113 0.37253 20.8708 0.473439 20.9109C0.574347 20.951 0.682317 20.971 0.791114 20.9696H23.1473C23.3626 20.9696 23.569 20.8854 23.7212 20.7354C23.8734 20.5854 23.9588 20.382 23.9588 20.1699V6.2598C23.9589 6.04137 23.8716 5.83177 23.7158 5.67637C23.56 5.52098 23.3484 5.43237 23.1267 5.42971H17.1678ZM22.5616 19.6029H1.41781V6.84699H7.28421C7.42127 6.84687 7.55536 6.80758 7.67024 6.73392C7.78511 6.66025 7.87586 6.55538 7.93148 6.43195L8.3836 5.41957L8.68146 4.77164L8.84587 4.4072H15.113L15.2877 4.79191L15.5754 5.41957L16.0274 6.43195C16.0837 6.55697 16.1761 6.66291 16.293 6.7367C16.4099 6.81048 16.5461 6.84884 16.6849 6.84699H22.5412L22.5616 19.6029Z" fill="#BBBBBD"/>
<path opacity="0.38" d="M12.3082 18.3881L15.791 16.7379C15.9119 16.6804 16.018 16.5969 16.1016 16.4935C16.1852 16.3901 16.2441 16.2695 16.2739 16.1406L17.137 12.4252C17.1607 12.3127 17.1591 12.1964 17.1325 12.0845C17.1059 11.9726 17.0549 11.8677 16.9829 11.7773L14.5377 8.74014C14.4654 8.65035 14.3731 8.57808 14.268 8.52894C14.1629 8.4798 14.0478 8.45511 13.9315 8.45671H10.0274C9.90481 8.45666 9.78389 8.48394 9.67357 8.53654C9.56325 8.58914 9.4664 8.66568 9.39038 8.76041L7.00675 11.7064C6.91884 11.8165 6.85674 11.9444 6.82477 12.0809C6.79281 12.2174 6.79183 12.3591 6.82189 12.4961L7.68487 16.2115C7.70973 16.3145 7.75777 16.4107 7.82533 16.493C7.89289 16.5754 7.97827 16.6418 8.07528 16.6873L11.63 18.378C11.735 18.4298 11.8505 18.4576 11.9679 18.4593C12.0853 18.4611 12.2016 18.4367 12.3082 18.3881ZM13.5514 9.99547L15.5342 12.4455L14.8254 15.4826L11.9692 16.8391L9.11297 15.4826L8.40412 12.4455L10.3869 9.99547H13.5514Z" fill="#BBBBBD"/>
<path opacity="0.5" d="M23.1575 7.10011C23.6228 7.10011 24 6.72844 24 6.26997C24 5.81149 23.6228 5.43982 23.1575 5.43982C22.6923 5.43982 22.3151 5.81149 22.3151 6.26997C22.3151 6.72844 22.6923 7.10011 23.1575 7.10011Z" fill="#787979"/>
<path opacity="0.5" d="M16.7465 6.85714C17.1778 6.85714 17.5273 6.51266 17.5273 6.08773C17.5273 5.6628 17.1778 5.31833 16.7465 5.31833C16.3153 5.31833 15.9657 5.6628 15.9657 6.08773C15.9657 6.51266 16.3153 6.85714 16.7465 6.85714Z" fill="#787979"/>
<path opacity="0.5" d="M7.25348 6.85714C7.68471 6.85714 8.0343 6.51266 8.0343 6.08773C8.0343 5.6628 7.68471 5.31833 7.25348 5.31833C6.82224 5.31833 6.47266 5.6628 6.47266 6.08773C6.47266 6.51266 6.82224 6.85714 7.25348 6.85714Z" fill="#787979"/>
<path opacity="0.5" d="M8.44525 4.53881C8.87649 4.53881 9.22607 4.19433 9.22607 3.7694C9.22607 3.34447 8.87649 3 8.44525 3C8.01401 3 7.66443 3.34447 7.66443 3.7694C7.66443 4.19433 8.01401 4.53881 8.44525 4.53881Z" fill="#787979"/>
<path opacity="0.5" d="M15.5547 4.53881C15.986 4.53881 16.3356 4.19433 16.3356 3.7694C16.3356 3.34447 15.986 3 15.5547 3C15.1235 3 14.7739 3.34447 14.7739 3.7694C14.7739 4.19433 15.1235 4.53881 15.5547 4.53881Z" fill="#787979"/>
<path opacity="0.5" d="M23.1575 21C23.6228 21 24 20.6283 24 20.1699C24 19.7114 23.6228 19.3397 23.1575 19.3397C22.6923 19.3397 22.3151 19.7114 22.3151 20.1699C22.3151 20.6283 22.6923 21 23.1575 21Z" fill="#787979"/>
<path opacity="0.5" d="M0.842466 21C1.30775 21 1.68493 20.6283 1.68493 20.1699C1.68493 19.7114 1.30775 19.3397 0.842466 19.3397C0.377185 19.3397 0 19.7114 0 20.1699C0 20.6283 0.377185 21 0.842466 21Z" fill="#787979"/>
<path opacity="0.5" d="M0.842466 7.08998C1.30775 7.08998 1.68493 6.71831 1.68493 6.25983C1.68493 5.80136 1.30775 5.42969 0.842466 5.42969C0.377185 5.42969 0 5.80136 0 6.25983C0 6.71831 0.377185 7.08998 0.842466 7.08998Z" fill="#787979"/>
<path opacity="0.5" d="M7.62329 13.0428C8.07155 13.0428 8.43493 12.6847 8.43493 12.243C8.43493 11.8013 8.07155 11.4432 7.62329 11.4432C7.17503 11.4432 6.81165 11.8013 6.81165 12.243C6.81165 12.6847 7.17503 13.0428 7.62329 13.0428Z" fill="#787979"/>
<path opacity="0.5" d="M10.0273 10.0664C10.4756 10.0664 10.839 9.70831 10.839 9.2666C10.839 8.8249 10.4756 8.46683 10.0273 8.46683C9.57908 8.46683 9.2157 8.8249 9.2157 9.2666C9.2157 9.70831 9.57908 10.0664 10.0273 10.0664Z" fill="#787979"/>
<path opacity="0.5" d="M13.911 10.0664C14.3593 10.0664 14.7227 9.70831 14.7227 9.2666C14.7227 8.8249 14.3593 8.46683 13.911 8.46683C13.4628 8.46683 13.0994 8.8249 13.0994 9.2666C13.0994 9.70831 13.4628 10.0664 13.911 10.0664Z" fill="#787979"/>
<path opacity="0.5" d="M16.3356 13.063C16.7838 13.063 17.1472 12.7049 17.1472 12.2632C17.1472 11.8215 16.7838 11.4634 16.3356 11.4634C15.8873 11.4634 15.5239 11.8215 15.5239 12.2632C15.5239 12.7049 15.8873 13.063 16.3356 13.063Z" fill="#787979"/>
<path opacity="0.5" d="M15.4829 16.7581C15.9312 16.7581 16.2946 16.4001 16.2946 15.9584C16.2946 15.5167 15.9312 15.1586 15.4829 15.1586C15.0346 15.1586 14.6713 15.5167 14.6713 15.9584C14.6713 16.4001 15.0346 16.7581 15.4829 16.7581Z" fill="#787979"/>
<path opacity="0.5" d="M11.9692 18.459C12.4175 18.459 12.7809 18.1009 12.7809 17.6592C12.7809 17.2175 12.4175 16.8594 11.9692 16.8594C11.521 16.8594 11.1576 17.2175 11.1576 17.6592C11.1576 18.1009 11.521 18.459 11.9692 18.459Z" fill="#787979"/>
<path opacity="0.5" d="M8.4657 16.7986C8.91396 16.7986 9.27734 16.4406 9.27734 15.9989C9.27734 15.5572 8.91396 15.1991 8.4657 15.1991C8.01744 15.1991 7.65405 15.5572 7.65405 15.9989C7.65405 16.4406 8.01744 16.7986 8.4657 16.7986Z" fill="#787979"/>
<g opacity="0.5">
<path d="M20.9692 7.91H19.9521L19.3151 8.68953L19.5411 9.67153L20.4657 10.1069L21.3801 9.67153L21.6062 8.68953L20.9692 7.91Z" fill="#BBBBBD"/>
</g>
<g opacity="0.5">
<path d="M20.9691 7.90991H19.9519L19.3149 8.68944L19.541 9.67144L20.4656 10.1068L21.38 9.67144L21.606 8.68944L20.9691 7.90991Z" fill="#787979"/>
</g>
</g>
<defs>
<clipPath id="clip0_2_4373">
<rect width="24" height="18" fill="white" transform="translate(0 3)"/>
</clipPath>
<clipPath id="clip1_2_4373">
<rect width="24" height="18" fill="white" transform="translate(0 3)"/>
</clipPath>
</defs>
</svg>
