<svg width="24" height="24" viewBox="0 0 24 24" fill="none" xmlns="http://www.w3.org/2000/svg">
<g clip-path="url(#clip0_2_4428)">
<path opacity="0.38" d="M20.8878 9.27725H19.7659V8.18435C19.7659 7.98446 19.6837 7.79276 19.5373 7.65142C19.391 7.51007 19.1925 7.43066 18.9855 7.43066H17.4927C17.2857 7.43066 17.0872 7.51007 16.9409 7.65142C16.7945 7.79276 16.7122 7.98446 16.7122 8.18435V9.27725H15.5902C15.3832 9.27725 15.1847 9.35666 15.0384 9.49801C14.892 9.63935 14.8098 9.83105 14.8098 10.0309V11.463C14.8098 11.6629 14.892 11.8546 15.0384 11.9959C15.1847 12.1373 15.3832 12.2167 15.5902 12.2167H16.7122V13.3002C16.7122 13.5 16.7945 13.6917 16.9409 13.8331C17.0872 13.9744 17.2857 14.0538 17.4927 14.0538H18.9855C19.1925 14.0538 19.391 13.9744 19.5373 13.8331C19.6837 13.6917 19.7659 13.5 19.7659 13.3002V12.2167H20.8878C21.0948 12.2167 21.2934 12.1373 21.4397 11.9959C21.5861 11.8546 21.6684 11.6629 21.6684 11.463V10.0309C21.6684 9.83105 21.5861 9.63935 21.4397 9.49801C21.2934 9.35666 21.0948 9.27725 20.8878 9.27725ZM20.3903 11.1615H19.2878C19.2003 11.1602 19.1135 11.1759 19.0324 11.2077C18.9513 11.2394 18.8777 11.2866 18.8159 11.3463C18.754 11.4061 18.7051 11.4772 18.6722 11.5555C18.6394 11.6338 18.6232 11.7177 18.6245 11.8021V12.8008H17.8537V11.7268C17.8537 11.5593 17.7848 11.3988 17.6622 11.2804C17.5396 11.162 17.3734 11.0956 17.2 11.0956H16.0878V10.3607H17.2C17.2867 10.3607 17.3725 10.344 17.4525 10.3117C17.5324 10.2794 17.605 10.2321 17.6658 10.1725C17.7266 10.1129 17.7745 10.0421 17.8068 9.96447C17.8391 9.88679 17.855 9.80371 17.8537 9.72002V8.64604H18.6245V9.74832C18.6245 9.90911 18.6899 10.0635 18.8067 10.178C18.9235 10.2926 19.0823 10.3582 19.2488 10.3607H20.3903V11.1615Z" fill="#787979"/>
<path opacity="0.5" d="M23.8733 9.44684L20.761 5.27322C20.7005 5.18976 20.6203 5.12143 20.527 5.07392C20.4337 5.0264 20.3299 5.00103 20.2244 4.99997H14.9464C14.8587 5.0014 14.7721 5.01966 14.6917 5.05362C14.6113 5.08758 14.5388 5.13659 14.4781 5.19784L12.9659 6.65812H11.0732L9.91224 5.24493C9.85065 5.1692 9.77215 5.10787 9.68263 5.06547C9.59311 5.02306 9.49485 5.00065 9.39514 4.99997H3.54148C3.43109 5.00089 3.32262 5.02805 3.22564 5.07898C3.12867 5.12991 3.04622 5.2031 2.98543 5.29208L0.0586027 9.4657C-0.00926904 9.57379 -0.0462815 9.69732 -0.0487001 9.82371V13.5922C-0.049102 13.6832 -0.0291958 13.7732 0.00977457 13.856L2.29267 18.5666C2.34622 18.6783 2.43152 18.773 2.5386 18.8397C2.64567 18.9064 2.77024 18.9424 2.89766 18.9435H7.82442C7.94105 18.9437 8.05575 18.9142 8.15681 18.8579C8.25786 18.8017 8.34168 18.7207 8.39999 18.6231L11.0635 14.2046H12.8391L15.5025 18.6231C15.56 18.7213 15.6438 18.8029 15.7451 18.8592C15.8463 18.9155 15.9612 18.9446 16.078 18.9435H21.0049C21.1326 18.9435 21.2576 18.908 21.3649 18.8411C21.4722 18.7743 21.5572 18.679 21.6098 18.5666L23.8927 13.856C23.9317 13.7732 23.9517 13.6832 23.9513 13.5922V9.82371C23.9671 9.69329 23.9398 9.56134 23.8733 9.44684ZM16.5074 17.7187L13.844 13.3002C13.7864 13.202 13.7026 13.1204 13.6014 13.0641C13.5001 13.0078 13.3851 12.9787 13.2683 12.9798H10.7317C10.6151 12.9796 10.5005 13.0091 10.3994 13.0654C10.2984 13.1216 10.2145 13.2026 10.1561 13.3002L7.49274 17.7187H3.32687L1.28788 13.4791V10.0215L3.87327 6.25301H9.03416L10.1952 7.6662C10.2596 7.74118 10.34 7.80185 10.4309 7.84412C10.5218 7.88639 10.6211 7.90927 10.722 7.91117H13.2C13.3799 7.90768 13.5514 7.83671 13.6781 7.7133L15.1806 6.25301H19.9122L22.7025 10.0215V13.4697L20.6635 17.7093L16.5074 17.7187Z" fill="#787979"/>
<path opacity="0.5" d="M3.57072 6.3284C3.45134 6.32822 3.33394 6.29904 3.22928 6.24358C3.15008 6.20054 3.08072 6.14248 3.02539 6.07286C2.97006 6.00323 2.92982 5.92349 2.90725 5.83848C2.88053 5.74005 2.87747 5.63704 2.8982 5.53728C2.91893 5.43751 2.96297 5.34361 3.02694 5.26276C3.09091 5.1819 3.17316 5.11623 3.26739 5.0707C3.36162 5.02516 3.46535 5.00094 3.57072 4.99997C3.69089 5.00343 3.80824 5.03585 3.91216 5.09422C3.996 5.13701 4.0697 5.19618 4.12855 5.26799C4.1874 5.3398 4.23009 5.42266 4.25396 5.51128C4.27782 5.59991 4.28235 5.69236 4.26718 5.78276C4.252 5.87315 4.21746 5.95953 4.16583 6.03634C4.10014 6.1295 4.0112 6.20512 3.90716 6.25618C3.80312 6.30724 3.68736 6.33207 3.57072 6.3284Z" fill="#787979"/>
<path opacity="0.5" d="M9.37554 6.31897C9.27967 6.3301 9.18248 6.3215 9.09032 6.29367C8.99816 6.26585 8.91317 6.21944 8.84094 6.15756C8.7687 6.09569 8.71083 6.01973 8.67123 5.93468C8.63163 5.84964 8.61121 5.75744 8.61121 5.66419C8.61121 5.57094 8.63163 5.47874 8.67123 5.3937C8.71083 5.30865 8.7687 5.23269 8.84094 5.17082C8.91317 5.10894 8.99816 5.06259 9.09032 5.03476C9.18248 5.00694 9.27967 4.99828 9.37554 5.00941C9.49196 5.00864 9.60656 5.03794 9.70734 5.09422C9.78547 5.13631 9.85415 5.19303 9.90932 5.26104C9.96449 5.32905 10.005 5.40697 10.0287 5.4903C10.0523 5.57363 10.0585 5.6607 10.0469 5.74636C10.0353 5.83203 10.0061 5.91461 9.96101 5.98925C9.90313 6.08995 9.81821 6.17371 9.7152 6.23174C9.61219 6.28977 9.4948 6.31989 9.37554 6.31897Z" fill="#787979"/>
<path opacity="0.5" d="M10.761 7.93948C10.6436 7.9374 10.5291 7.90482 10.4293 7.84523C10.3443 7.80354 10.2695 7.74488 10.2098 7.67318C10.1501 7.60149 10.1068 7.51837 10.0828 7.42931C10.0589 7.34026 10.0547 7.24729 10.0707 7.15658C10.0867 7.06587 10.1225 6.97948 10.1756 6.90311C10.2335 6.80241 10.3184 6.71864 10.4214 6.66062C10.5244 6.60259 10.6417 6.57247 10.761 6.57338C10.8753 6.57441 10.9875 6.60353 11.0869 6.65803C11.1864 6.71253 11.2698 6.79061 11.3294 6.88488C11.3889 6.97915 11.4226 7.0865 11.4273 7.19683C11.432 7.30716 11.4074 7.41686 11.3561 7.51551C11.3106 7.63456 11.2299 7.7381 11.1242 7.81343C11.0184 7.88877 10.8922 7.93262 10.761 7.93948Z" fill="#787979"/>
<path opacity="0.5" d="M13.2391 7.93004C13.1227 7.93081 13.0081 7.90151 12.9073 7.84523C12.7521 7.76021 12.6383 7.61917 12.5908 7.45311C12.5432 7.28706 12.5659 7.10957 12.6538 6.95962C12.7116 6.85893 12.7964 6.77516 12.8994 6.71714C13.0025 6.65911 13.1198 6.62898 13.2391 6.6299C13.3585 6.63008 13.4759 6.65921 13.5805 6.71466C13.7105 6.78588 13.8121 6.89684 13.8696 7.03001C13.927 7.16318 13.937 7.31101 13.8979 7.45024C13.8588 7.58947 13.7728 7.71219 13.6535 7.79905C13.5343 7.88591 13.3885 7.932 13.2391 7.93004Z" fill="#787979"/>
<path opacity="0.5" d="M19.3171 10.3701C19.1711 10.371 19.0288 10.3254 18.9123 10.2402C18.7959 10.155 18.7119 10.0351 18.6732 9.89907C18.6484 9.8178 18.6409 9.73253 18.6509 9.64836C18.661 9.56419 18.6885 9.48289 18.7318 9.4092C18.7917 9.31092 18.8772 9.22955 18.98 9.17333C19.0827 9.1171 19.199 9.08797 19.3171 9.08886C19.4303 9.08931 19.5413 9.11858 19.639 9.17367C19.7166 9.21289 19.7846 9.26761 19.8384 9.33422C19.8922 9.40084 19.9307 9.47778 19.9513 9.55992C19.9761 9.64119 19.9836 9.72646 19.9736 9.81063C19.9635 9.8948 19.936 9.97616 19.8927 10.0498C19.8344 10.1474 19.7505 10.2283 19.6494 10.2846C19.5483 10.3408 19.4338 10.3703 19.3171 10.3701Z" fill="#787979"/>
<path opacity="0.5" d="M17.2195 10.3701C17.0735 10.371 16.9312 10.3253 16.8147 10.2402C16.6983 10.155 16.6143 10.0351 16.5756 9.89906C16.5528 9.81711 16.5472 9.73159 16.5589 9.64749C16.5707 9.56339 16.5995 9.48242 16.644 9.4092C16.7023 9.31165 16.7862 9.23065 16.8873 9.17441C16.9883 9.11818 17.1029 9.08867 17.2195 9.08885C17.3656 9.08797 17.5079 9.13363 17.6243 9.21881C17.7408 9.30398 17.8248 9.4239 17.8635 9.55991C17.8906 9.65532 17.8945 9.75551 17.8748 9.8526C17.8551 9.9497 17.8124 10.041 17.75 10.1195C17.6876 10.198 17.6073 10.2615 17.5152 10.305C17.4232 10.3485 17.322 10.3707 17.2195 10.3701Z" fill="#787979"/>
<path opacity="0.5" d="M19.3171 12.3957C19.1711 12.3966 19.0288 12.3509 18.9123 12.2657C18.7959 12.1805 18.7119 12.0607 18.6732 11.9246C18.6484 11.8434 18.6409 11.7581 18.6509 11.6739C18.661 11.5898 18.6885 11.5084 18.7318 11.4347C18.7917 11.3364 18.8772 11.2551 18.98 11.1989C19.0827 11.1427 19.199 11.1135 19.3171 11.1144C19.4303 11.1149 19.5413 11.1441 19.639 11.1992C19.7166 11.2384 19.7846 11.2932 19.8384 11.3598C19.8922 11.4264 19.9307 11.5034 19.9513 11.5855C19.9755 11.6668 19.9828 11.752 19.9727 11.8361C19.9627 11.9202 19.9355 12.0015 19.8927 12.0754C19.8344 12.1729 19.7505 12.2539 19.6494 12.3101C19.5483 12.3664 19.4338 12.3959 19.3171 12.3957Z" fill="#787979"/>
<path opacity="0.5" d="M17.2195 12.3957C17.0735 12.3966 16.9312 12.3509 16.8147 12.2657C16.6983 12.1805 16.6143 12.0607 16.5756 11.9246C16.5528 11.8427 16.5472 11.7572 16.5589 11.6731C16.5707 11.589 16.5995 11.5079 16.644 11.4347C16.7023 11.3372 16.7862 11.2562 16.8873 11.2C16.9883 11.1437 17.1029 11.1142 17.2195 11.1144C17.3656 11.1135 17.5079 11.1592 17.6243 11.2444C17.7408 11.3296 17.8248 11.4495 17.8635 11.5855C17.8863 11.6674 17.8919 11.753 17.8801 11.8371C17.8684 11.9212 17.8395 12.0021 17.7951 12.0754C17.7376 12.1736 17.6539 12.2551 17.5526 12.3114C17.4514 12.3677 17.3364 12.3969 17.2195 12.3957Z" fill="#787979"/>
<path opacity="0.5" d="M14.9561 6.30956C14.8397 6.31032 14.7251 6.28108 14.6243 6.2248C14.5462 6.18271 14.4775 6.12599 14.4223 6.05798C14.3672 5.98997 14.3266 5.91199 14.303 5.82866C14.2794 5.74533 14.2733 5.65832 14.2849 5.57266C14.2965 5.48699 14.3256 5.40441 14.3706 5.32977C14.4305 5.23148 14.5162 5.15012 14.619 5.09389C14.7217 5.03767 14.838 5.00854 14.9561 5.00942C15.0725 5.00865 15.187 5.03795 15.2878 5.09424C15.443 5.17926 15.5569 5.32029 15.6044 5.48635C15.652 5.6524 15.6293 5.8299 15.5414 5.97984C15.4836 6.08053 15.3987 6.1643 15.2956 6.22233C15.1926 6.28035 15.0754 6.31048 14.9561 6.30956Z" fill="#787979"/>
<path opacity="0.5" d="M23.3268 10.4832C23.2133 10.4806 23.1023 10.4503 23.0042 10.3951C22.9061 10.34 22.8239 10.2618 22.7655 10.1677C22.7071 10.0737 22.6742 9.96698 22.67 9.85741C22.6658 9.74783 22.6904 9.63897 22.7415 9.54103C22.8023 9.44285 22.8879 9.36113 22.9903 9.30348C23.0926 9.24583 23.2084 9.21413 23.3268 9.2113C23.4441 9.21339 23.5587 9.24591 23.6585 9.30549C23.736 9.34471 23.804 9.39948 23.8579 9.4661C23.9117 9.53271 23.9502 9.60966 23.9708 9.6918C23.9997 9.78781 24.0049 9.88904 23.9861 9.98736C23.9673 10.0857 23.9248 10.1784 23.8623 10.258C23.7997 10.3377 23.7187 10.4021 23.6257 10.4461C23.5328 10.4901 23.4304 10.5125 23.3268 10.5114V10.4832Z" fill="#787979"/>
<path opacity="0.5" d="M23.3269 14.2705C23.1825 14.2693 23.0425 14.2227 22.9281 14.1377C22.8136 14.0527 22.7309 13.9339 22.6927 13.7994C22.6679 13.7182 22.6604 13.6329 22.6705 13.5487C22.6805 13.4646 22.708 13.3832 22.7513 13.3095C22.8107 13.2101 22.896 13.1274 22.9987 13.0696C23.1013 13.0118 23.2178 12.9808 23.3367 12.9798C23.4498 12.9802 23.5608 13.0095 23.6586 13.0646C23.8111 13.1496 23.9232 13.2889 23.9706 13.4527C24.018 13.6165 23.9971 13.7917 23.9122 13.9408C23.8544 14.0415 23.7694 14.1252 23.6664 14.1833C23.5634 14.2413 23.4462 14.2714 23.3269 14.2705Z" fill="#787979"/>
<path opacity="0.5" d="M21.0342 19C20.9148 18.9998 20.7974 18.9706 20.6928 18.9152C20.5342 18.8266 20.4183 18.6809 20.3707 18.5101C20.3207 18.3396 20.3418 18.157 20.4293 18.0013C20.4914 17.8993 20.5796 17.8145 20.6856 17.7551C20.7916 17.6957 20.9117 17.6636 21.0342 17.6621C21.1537 17.6611 21.2715 17.6903 21.3756 17.747C21.5098 17.8193 21.6153 17.9326 21.6755 18.0692C21.7357 18.2058 21.7471 18.3578 21.708 18.5013C21.6689 18.6449 21.5815 18.7717 21.4595 18.862C21.3375 18.9523 21.1879 19.0008 21.0342 19Z" fill="#787979"/>
<path opacity="0.5" d="M16.1267 19C16.0073 18.9998 15.8899 18.9706 15.7853 18.9152C15.6294 18.8236 15.5145 18.6792 15.4633 18.5101C15.4172 18.3383 15.4418 18.1561 15.5316 18.0014C15.5935 17.8998 15.6819 17.8159 15.7881 17.758C15.8944 17.7001 16.0145 17.6703 16.1365 17.6716C16.2529 17.6708 16.3674 17.7001 16.4682 17.7564C16.5518 17.7994 16.6253 17.8585 16.6843 17.9301C16.7433 18.0016 16.7865 18.0841 16.8112 18.1724C16.8358 18.2607 16.8415 18.3529 16.8278 18.4434C16.8141 18.5339 16.7814 18.6207 16.7316 18.6985C16.6655 18.7942 16.5753 18.872 16.4695 18.9247C16.3637 18.9775 16.2457 19.0034 16.1267 19Z" fill="#787979"/>
<path opacity="0.5" d="M13.2587 14.3176C13.1385 14.3142 13.021 14.2818 12.9171 14.2234C12.8379 14.1804 12.7686 14.1223 12.7132 14.0526C12.6579 13.983 12.6178 13.9033 12.5952 13.8183C12.5457 13.6509 12.5668 13.4714 12.6538 13.319C12.6994 13.2392 12.761 13.1692 12.8352 13.113C12.9094 13.0568 12.9946 13.0156 13.0856 12.9918C13.1767 12.9681 13.2717 12.9623 13.3651 12.9748C13.4585 12.9873 13.5485 13.0179 13.6294 13.0646C13.788 13.1532 13.9037 13.2989 13.9513 13.4697C13.9768 13.5545 13.9839 13.6434 13.9722 13.731C13.9604 13.8185 13.93 13.9028 13.883 13.9785C13.8216 14.0853 13.7308 14.1735 13.6206 14.2334C13.5103 14.2933 13.3851 14.3225 13.2587 14.3176Z" fill="#787979"/>
<path opacity="0.5" d="M10.7415 14.3082C10.6199 14.3098 10.5 14.2801 10.3942 14.222C10.2885 14.1639 10.2009 14.0795 10.1402 13.9777C10.0795 13.8759 10.0481 13.7603 10.0492 13.6428C10.0503 13.5253 10.0838 13.4103 10.1464 13.3095C10.2074 13.2094 10.2944 13.1263 10.3988 13.0685C10.5031 13.0107 10.6212 12.9801 10.7415 12.9798C10.8612 12.9778 10.9791 13.0071 11.0829 13.0646C11.1665 13.1076 11.2401 13.1667 11.2991 13.2383C11.3581 13.3098 11.4014 13.3922 11.4261 13.4805C11.4507 13.5688 11.4564 13.6611 11.4427 13.7516C11.429 13.8421 11.3962 13.929 11.3464 14.0067C11.2796 14.1018 11.1893 14.1791 11.0837 14.2318C10.978 14.2844 10.8604 14.3107 10.7415 14.3082Z" fill="#787979"/>
<path opacity="0.5" d="M7.86354 19C7.74268 19.0012 7.62408 18.9684 7.5221 18.9057C7.44285 18.8651 7.37318 18.8089 7.31774 18.7408C7.2623 18.6726 7.22222 18.594 7.20008 18.5101C7.15004 18.3396 7.1711 18.157 7.25867 18.0013C7.30423 17.9216 7.36596 17.8515 7.44017 17.7953C7.51437 17.7391 7.59946 17.6979 7.6905 17.6742C7.78154 17.6505 7.8766 17.6447 7.97001 17.6572C8.06342 17.6697 8.15335 17.7002 8.23428 17.7469C8.31684 17.7909 8.38937 17.8506 8.44757 17.9222C8.50577 17.9939 8.5484 18.0761 8.57298 18.164C8.59756 18.2519 8.60355 18.3437 8.59061 18.4339C8.57766 18.5241 8.54613 18.6109 8.49771 18.6891C8.42949 18.79 8.33498 18.8719 8.22368 18.9264C8.11238 18.981 7.98819 19.0064 7.86354 19Z" fill="#787979"/>
<path opacity="0.5" d="M2.95612 19C2.83674 18.9999 2.71935 18.9707 2.61468 18.9152C2.47968 18.8425 2.37366 18.7283 2.31362 18.5908C2.25358 18.4533 2.24298 18.3003 2.28337 18.1562C2.32375 18.0121 2.41287 17.8852 2.53656 17.7957C2.66024 17.7062 2.81135 17.6592 2.96589 17.6622C3.08527 17.6624 3.20267 17.6915 3.30733 17.747C3.44234 17.8197 3.54836 17.9339 3.6084 18.0714C3.66844 18.209 3.67903 18.362 3.63865 18.506C3.59826 18.6501 3.50914 18.777 3.38545 18.8665C3.26177 18.956 3.11066 19.003 2.95612 19Z" fill="#787979"/>
<path opacity="0.5" d="M0.663442 14.2611C0.550273 14.2606 0.439151 14.2314 0.341415 14.1763C0.264916 14.1351 0.197692 14.0797 0.143482 14.0133C0.0892719 13.9468 0.049162 13.8707 0.0255799 13.7893C0.00199787 13.7078 -0.00462513 13.6226 0.00604868 13.5387C0.0167225 13.4547 0.0445779 13.3737 0.0878656 13.3002C0.144134 13.2002 0.227228 13.1168 0.328553 13.0587C0.429877 13.0007 0.545631 12.9702 0.663442 12.9704C0.779857 12.9696 0.894339 12.9989 0.995116 13.0552C1.14768 13.1402 1.25972 13.2795 1.30714 13.4433C1.35456 13.6071 1.3336 13.7823 1.24878 13.9314C1.18936 14.0308 1.10409 14.1134 1.00143 14.1713C0.898765 14.2291 0.78229 14.2601 0.663442 14.2611Z" fill="#787979"/>
<path opacity="0.5" d="M0.673305 10.4832C0.557493 10.4797 0.443954 10.4507 0.341512 10.3984C0.186334 10.3134 0.0725253 10.1724 0.0249627 10.0063C-0.0225998 9.84025 8.43551e-05 9.66275 0.0879629 9.51281C0.145834 9.41212 0.230639 9.32835 0.333652 9.27032C0.436664 9.2123 0.554051 9.18211 0.673305 9.18303C0.851841 9.18303 1.02308 9.25157 1.14932 9.37348C1.27556 9.4954 1.34642 9.6607 1.34642 9.8331C1.34642 10.0055 1.27556 10.1709 1.14932 10.2928C1.02308 10.4147 0.851841 10.4832 0.673305 10.4832Z" fill="#787979"/>
<path opacity="0.5" d="M20.2049 6.32841C20.0856 6.32823 19.968 6.29904 19.8634 6.24359C19.7816 6.19879 19.71 6.13861 19.6528 6.0666C19.5956 5.99458 19.5539 5.91219 19.5303 5.82434C19.5066 5.73648 19.5015 5.64492 19.5151 5.55511C19.5288 5.46529 19.5609 5.37905 19.6097 5.30146C19.6687 5.19893 19.7551 5.11347 19.8597 5.05386C19.9643 4.99424 20.0835 4.96263 20.2049 4.96231C20.3243 4.96249 20.4417 4.99167 20.5464 5.04713C20.6281 5.09193 20.6997 5.1521 20.7569 5.22412C20.8142 5.29614 20.8558 5.37853 20.8795 5.46638C20.9031 5.55424 20.9083 5.6458 20.8946 5.73561C20.8809 5.82542 20.8488 5.91167 20.8 5.98925C20.741 6.09179 20.6548 6.17724 20.5502 6.23686C20.4456 6.29648 20.3264 6.32809 20.2049 6.32841Z" fill="#787979"/>
<path opacity="0.38" d="M5.88299 13.7429C5.77557 13.74 5.66973 13.7176 5.57085 13.677L3.61963 12.7348C3.52682 12.6909 3.44536 12.6275 3.38121 12.5493C3.31706 12.471 3.27184 12.3799 3.2489 12.2826L2.77086 10.2665C2.74721 10.1506 2.74886 10.0313 2.77574 9.91611C2.80262 9.80092 2.85405 9.6924 2.92687 9.59754L4.25368 7.99597C4.32383 7.911 4.41294 7.84229 4.51426 7.795C4.61558 7.74771 4.72661 7.72301 4.83914 7.72272H7.00497C7.11238 7.7227 7.21833 7.74651 7.31473 7.79224C7.41114 7.83797 7.49538 7.90444 7.56101 7.98654L8.92689 9.62583C8.99397 9.70871 9.04105 9.80503 9.06468 9.90771C9.08831 10.0104 9.08791 10.1169 9.06349 10.2194L8.58545 12.2449C8.55825 12.3555 8.50545 12.4587 8.43111 12.5468C8.35677 12.6349 8.26276 12.7056 8.15612 12.7537L6.2049 13.6958C6.10168 13.7312 5.99244 13.7472 5.88299 13.7429ZM5.88299 12.2732L7.21958 11.6514L7.54148 10.257L6.62447 9.14534H5.14152L4.22451 10.257L4.55618 11.6514L5.88299 12.2732Z" fill="#787979"/>
<path opacity="0.5" d="M3.4732 10.8035C3.34315 10.8045 3.21518 10.772 3.10247 10.7093C3.01722 10.663 2.9423 10.6008 2.88202 10.5265C2.82175 10.4521 2.77731 10.3669 2.75126 10.2759C2.70281 10.0909 2.73076 9.89491 2.82927 9.72946C2.92848 9.57587 3.08356 9.46368 3.26407 9.41487C3.44459 9.36606 3.63749 9.38419 3.80488 9.4657C3.96749 9.55836 4.08671 9.70811 4.13762 9.88369C4.18853 10.0593 4.16721 10.2471 4.07808 10.4078C4.02199 10.5192 3.93652 10.6143 3.83036 10.6838C3.7242 10.7532 3.60109 10.7945 3.4732 10.8035Z" fill="#787979"/>
<path opacity="0.5" d="M8.30244 10.8224C8.17155 10.8201 8.04364 10.7843 7.9317 10.7187C7.77265 10.6229 7.65653 10.4731 7.60598 10.2988C7.55544 10.1245 7.5741 9.93822 7.6585 9.77658C7.72448 9.66812 7.81858 9.57811 7.93146 9.51535C8.04435 9.45258 8.17218 9.41921 8.30244 9.41857C8.43249 9.4176 8.56046 9.45015 8.67317 9.51282C8.75842 9.55911 8.83334 9.62124 8.89362 9.69562C8.95389 9.77 8.99833 9.85512 9.02438 9.94616C9.06201 10.0552 9.0719 10.1714 9.0532 10.285C9.0345 10.3985 8.98777 10.506 8.91696 10.5984C8.84615 10.6908 8.75334 10.7654 8.64638 10.8159C8.53942 10.8663 8.42144 10.8912 8.30244 10.8883V10.8224Z" fill="#787979"/>
<path opacity="0.5" d="M5.88291 13.7429C5.7564 13.7406 5.63244 13.7083 5.52194 13.6487C5.43529 13.6042 5.35926 13.5426 5.29876 13.468C5.23827 13.3933 5.19468 13.3073 5.17074 13.2153C5.14312 13.1246 5.13494 13.0293 5.14668 12.9354C5.15842 12.8414 5.18979 12.7507 5.23898 12.6689C5.30455 12.5573 5.39961 12.4645 5.51444 12.4C5.62927 12.3354 5.75981 12.3014 5.89268 12.3015C6.01919 12.3038 6.14316 12.3362 6.25365 12.3957C6.41613 12.4885 6.53585 12.6375 6.58842 12.8126C6.64099 12.9877 6.62249 13.1755 6.53662 13.3378C6.47622 13.4565 6.38338 13.5569 6.26818 13.6283C6.15298 13.6997 6.01975 13.7393 5.88291 13.7429Z" fill="#787979"/>
</g>
<defs>
<clipPath id="clip0_2_4428">
<rect width="24" height="14" fill="white" transform="translate(0 5)"/>
</clipPath>
</defs>
</svg>
