<svg width="25" height="24" viewBox="0 0 25 24" fill="none" xmlns="http://www.w3.org/2000/svg">
<g clip-path="url(#clip0_2_4477)">
<path opacity="0.5" d="M15.1 4.07999L12.37 5.74997C12.2627 5.80861 12.1423 5.83939 12.02 5.83939C11.8977 5.83939 11.7774 5.80861 11.67 5.74997L8.94006 4.07999C8.80782 4.00102 8.65263 3.96926 8.5 3.98996L0.609985 5.06998C0.442047 5.09175 0.2877 5.1737 0.175537 5.30057C0.063374 5.42744 0.00101408 5.59064 0 5.75998V18.49C0.000403346 18.5901 0.0223222 18.689 0.064209 18.7799C0.106096 18.8709 0.166968 18.9518 0.242798 19.0172C0.318628 19.0826 0.407662 19.131 0.503784 19.1591C0.599907 19.1872 0.700937 19.1943 0.800049 19.18L8.35999 18.13L11.36 19.69H11.4501C11.607 19.7739 11.7819 19.8186 11.96 19.82C12.1573 19.8156 12.3502 19.7605 12.52 19.66H12.61L15.61 18.1L23.16 19.15C23.2591 19.1643 23.3602 19.1572 23.4563 19.1291C23.5524 19.101 23.6413 19.0526 23.7172 18.9872C23.793 18.9218 23.854 18.8409 23.8959 18.75C23.9378 18.659 23.9596 18.5601 23.96 18.46V5.76999C23.9589 5.60065 23.8966 5.43739 23.7844 5.31052C23.6723 5.18364 23.5179 5.10176 23.35 5.07999L15.46 3.99997C15.3349 3.99297 15.2103 4.02067 15.1 4.07999ZM8.38 16.82L1.30005 17.82V6.29996L8.47998 5.29996L11.37 6.95999V18.31L8.81006 16.89C8.67651 16.8256 8.52609 16.8046 8.38 16.83V16.82ZM22.74 17.82L15.67 16.82C15.5187 16.8013 15.3651 16.8292 15.23 16.9L12.67 18.32V6.98001L15.5701 5.31998L22.74 6.31998V17.82Z" fill="#787979"/>
<path opacity="0.5" d="M8.59005 5.33001C8.95456 5.33001 9.25005 5.03452 9.25005 4.67001C9.25005 4.3055 8.95456 4.01001 8.59005 4.01001C8.22555 4.01001 7.93005 4.3055 7.93005 4.67001C7.93005 5.03452 8.22555 5.33001 8.59005 5.33001Z" fill="#787979"/>
<path opacity="0.5" d="M15.43 5.32C15.7945 5.32 16.09 5.02451 16.09 4.66C16.09 4.29549 15.7945 4 15.43 4C15.0655 4 14.77 4.29549 14.77 4.66C14.77 5.02451 15.0655 5.32 15.43 5.32Z" fill="#787979"/>
<path opacity="0.5" d="M15.56 18.16C15.93 18.16 16.23 17.86 16.23 17.49C16.23 17.12 15.93 16.82 15.56 16.82C15.19 16.82 14.89 17.12 14.89 17.49C14.89 17.86 15.19 18.16 15.56 18.16Z" fill="#787979"/>
<path opacity="0.5" d="M8.47005 18.16C8.84008 18.16 9.14005 17.86 9.14005 17.49C9.14005 17.12 8.84008 16.82 8.47005 16.82C8.10002 16.82 7.80005 17.12 7.80005 17.49C7.80005 17.86 8.10002 18.16 8.47005 18.16Z" fill="#787979"/>
<path opacity="0.5" d="M0.75 6.56C1.16421 6.56 1.5 6.22421 1.5 5.81C1.5 5.39578 1.16421 5.06 0.75 5.06C0.335786 5.06 0 5.39578 0 5.81C0 6.22421 0.335786 6.56 0.75 6.56Z" fill="#787979"/>
<path opacity="0.5" d="M23.29 6.56C23.7043 6.56 24.04 6.22421 24.04 5.81C24.04 5.39578 23.7043 5.06 23.29 5.06C22.8758 5.06 22.54 5.39578 22.54 5.81C22.54 6.22421 22.8758 6.56 23.29 6.56Z" fill="#787979"/>
<path opacity="0.5" d="M0.79 19.2C1.22631 19.2 1.58 18.8463 1.58 18.41C1.58 17.9737 1.22631 17.62 0.79 17.62C0.353695 17.62 0 17.9737 0 18.41C0 18.8463 0.353695 19.2 0.79 19.2Z" fill="#787979"/>
<path opacity="0.5" d="M23.25 19.19C23.6863 19.19 24.04 18.8363 24.04 18.4C24.04 17.9637 23.6863 17.61 23.25 17.61C22.8137 17.61 22.46 17.9637 22.46 18.4C22.46 18.8363 22.8137 19.19 23.25 19.19Z" fill="#787979"/>
<path opacity="0.5" d="M9.79004 10.72V9.56998C9.20877 9.23093 8.60764 8.92708 7.98999 8.66001C7.85999 8.66001 7.74996 8.58999 2.70996 9.32999V10.33C4.63996 10.05 7.16996 9.68998 7.70996 9.62998C7.97996 9.76998 9.11004 10.34 9.79004 10.72Z" fill="#8D8F8F"/>
<path opacity="0.5" d="M7.98999 12.2C7.84999 12.2 7.75996 12.13 2.70996 12.87V13.87C4.63996 13.59 7.16996 13.23 7.70996 13.17C7.95996 13.31 9.09002 13.87 9.77002 14.25V13.08C9.19452 12.7519 8.60013 12.458 7.98999 12.2Z" fill="#8D8F8F"/>
<path opacity="0.5" d="M14.04 10.72V9.56998C14.6226 9.23341 15.2235 8.92963 15.84 8.66001C15.98 8.66001 16.09 8.58999 21.13 9.32999V10.33C19.19 10.05 16.66 9.68998 16.13 9.62998C15.85 9.76998 14.72 10.34 14.04 10.72Z" fill="#8D8F8F"/>
<path opacity="0.5" d="M15.84 12.2C15.98 12.2 16.07 12.13 21.13 12.87V13.87C19.19 13.59 16.66 13.23 16.13 13.17C15.88 13.31 14.7501 13.87 14.0701 14.25V13.08C14.6436 12.7546 15.2344 12.4608 15.84 12.2Z" fill="#8D8F8F"/>
</g>
<defs>
<clipPath id="clip0_2_4477">
<rect width="24.04" height="15.91" fill="white" transform="translate(0 4)"/>
</clipPath>
</defs>
</svg>
