<svg width="24" height="24" viewBox="0 0 24 24" fill="none" xmlns="http://www.w3.org/2000/svg">
<g clip-path="url(#clip0_2_4457)">
<path opacity="0.5" d="M23.46 8.84997L21.38 8.08996V7.08996C21.3781 6.92855 21.3274 6.77153 21.2346 6.63946C21.1418 6.50739 21.0112 6.40645 20.86 6.34997L18.6 5.52996C18.4808 5.48663 18.353 5.47265 18.2273 5.48913C18.1016 5.5056 17.9818 5.55206 17.8778 5.62463C17.7739 5.6972 17.6889 5.79374 17.6301 5.90606C17.5713 6.01838 17.5404 6.14323 17.54 6.27001V9.73998H6.44006V6.27996C6.43902 6.15313 6.40775 6.02842 6.349 5.91601C6.29025 5.8036 6.20559 5.70674 6.10205 5.63348C5.99851 5.56022 5.87909 5.51262 5.75354 5.49462C5.62799 5.47663 5.49995 5.48874 5.38 5.52996L3.13 6.34997C2.97534 6.40542 2.84153 6.50716 2.7467 6.64135C2.65188 6.77554 2.6006 6.93566 2.59998 7.09997V8.09997L0.52002 8.85998C0.368014 8.91526 0.236671 9.01585 0.143677 9.14819C0.0506821 9.28053 0.000497481 9.43822 0 9.59997V15.41C0.00126945 15.5728 0.0515297 15.7314 0.144287 15.8652C0.237044 15.999 0.368014 16.1017 0.52002 16.16L2.59998 16.91V17.91C2.59974 18.0733 2.65076 18.2325 2.74585 18.3653C2.84094 18.4981 2.97532 18.5976 3.13 18.65L5.38 19.47C5.49915 19.5133 5.62698 19.5273 5.75269 19.5109C5.87839 19.4944 5.99822 19.4479 6.10217 19.3753C6.20613 19.3027 6.29118 19.2062 6.34998 19.0939C6.40877 18.9816 6.43967 18.8568 6.44006 18.73V14.31H17.54V18.74C17.5397 18.8667 17.5702 18.9917 17.629 19.1039C17.6879 19.2162 17.7732 19.3125 17.8776 19.3844C17.982 19.4563 18.1024 19.5016 18.2283 19.5165C18.3541 19.5315 18.4817 19.5155 18.6 19.47L20.86 18.65C21.012 18.5947 21.1433 18.4941 21.2363 18.3617C21.3293 18.2294 21.3795 18.0717 21.38 17.91V16.91L23.46 16.16C23.612 16.1017 23.7429 15.999 23.8357 15.8652C23.9285 15.7314 23.9787 15.5728 23.98 15.41V9.59997C23.9815 9.43652 23.9324 9.27665 23.8392 9.14233C23.7461 9.008 23.6136 8.90583 23.46 8.84997ZM2.59998 15.59L1.22998 15.09V9.92999L2.59998 9.42999V15.59ZM5.20996 10.25V18.07L3.83997 17.57V7.41998L5.20996 6.92999V10.25ZM17.54 11.48V13.04H6.44006V10.99H17.54V11.48ZM20.15 7.64001V17.57L18.78 18.07V6.92999L20.15 7.41998V7.64001ZM22.75 15.09L21.38 15.59V9.39996L22.75 9.89996V15.09Z" fill="#787979"/>
<path opacity="0.5" d="M20.7 7.71999C21.0756 7.71999 21.38 7.41554 21.38 7.03999C21.38 6.66443 21.0756 6.35999 20.7 6.35999C20.3245 6.35999 20.02 6.66443 20.02 7.03999C20.02 7.41554 20.3245 7.71999 20.7 7.71999Z" fill="#787979"/>
<path opacity="0.5" d="M18.02 11.15C18.4453 11.15 18.79 10.8052 18.79 10.38C18.79 9.95473 18.4453 9.60999 18.02 9.60999C17.5947 9.60999 17.25 9.95473 17.25 10.38C17.25 10.8052 17.5947 11.15 18.02 11.15Z" fill="#787979"/>
<path opacity="0.5" d="M18.02 14.44C18.4453 14.44 18.79 14.0953 18.79 13.67C18.79 13.2447 18.4453 12.9 18.02 12.9C17.5947 12.9 17.25 13.2447 17.25 13.67C17.25 14.0953 17.5947 14.44 18.02 14.44Z" fill="#787979"/>
<path opacity="0.5" d="M5.96995 11.15C6.39521 11.15 6.73995 10.8052 6.73995 10.38C6.73995 9.95473 6.39521 9.60999 5.96995 9.60999C5.54469 9.60999 5.19995 9.95473 5.19995 10.38C5.19995 10.8052 5.54469 11.15 5.96995 11.15Z" fill="#787979"/>
<path opacity="0.5" d="M5.96995 14.44C6.39521 14.44 6.73995 14.0953 6.73995 13.67C6.73995 13.2447 6.39521 12.9 5.96995 12.9C5.54469 12.9 5.19995 13.2447 5.19995 13.67C5.19995 14.0953 5.54469 14.44 5.96995 14.44Z" fill="#787979"/>
<path opacity="0.5" d="M20.7 18.65C21.0756 18.65 21.38 18.3456 21.38 17.97C21.38 17.5945 21.0756 17.29 20.7 17.29C20.3245 17.29 20.02 17.5945 20.02 17.97C20.02 18.3456 20.3245 18.65 20.7 18.65Z" fill="#787979"/>
<path opacity="0.5" d="M18.33 19.51C18.7663 19.51 19.12 19.1563 19.12 18.72C19.12 18.2837 18.7663 17.93 18.33 17.93C17.8937 17.93 17.54 18.2837 17.54 18.72C17.54 19.1563 17.8937 19.51 18.33 19.51Z" fill="#787979"/>
<path opacity="0.5" d="M3.27998 18.65C3.65553 18.65 3.95998 18.3456 3.95998 17.97C3.95998 17.5945 3.65553 17.29 3.27998 17.29C2.90442 17.29 2.59998 17.5945 2.59998 17.97C2.59998 18.3456 2.90442 18.65 3.27998 18.65Z" fill="#787979"/>
<path opacity="0.5" d="M5.64999 19.51C6.08629 19.51 6.43999 19.1563 6.43999 18.72C6.43999 18.2837 6.08629 17.93 5.64999 17.93C5.21368 17.93 4.85999 18.2837 4.85999 18.72C4.85999 19.1563 5.21368 19.51 5.64999 19.51Z" fill="#787979"/>
<path opacity="0.5" d="M18.33 7.08C18.7663 7.08 19.12 6.72631 19.12 6.29C19.12 5.8537 18.7663 5.5 18.33 5.5C17.8937 5.5 17.54 5.8537 17.54 6.29C17.54 6.72631 17.8937 7.08 18.33 7.08Z" fill="#787979"/>
<path opacity="0.5" d="M3.27998 7.71999C3.65553 7.71999 3.95998 7.41554 3.95998 7.03999C3.95998 6.66443 3.65553 6.35999 3.27998 6.35999C2.90442 6.35999 2.59998 6.66443 2.59998 7.03999C2.59998 7.41554 2.90442 7.71999 3.27998 7.71999Z" fill="#787979"/>
<path opacity="0.5" d="M0.68 10.2C1.05555 10.2 1.36 9.89555 1.36 9.52C1.36 9.14444 1.05555 8.84 0.68 8.84C0.304446 8.84 0 9.14444 0 9.52C0 9.89555 0.304446 10.2 0.68 10.2Z" fill="#787979"/>
<path opacity="0.5" d="M0.68 16.17C1.05555 16.17 1.36 15.8656 1.36 15.49C1.36 15.1144 1.05555 14.81 0.68 14.81C0.304446 14.81 0 15.1144 0 15.49C0 15.8656 0.304446 16.17 0.68 16.17Z" fill="#787979"/>
<path opacity="0.5" d="M23.31 10.2C23.6856 10.2 23.99 9.89555 23.99 9.52C23.99 9.14444 23.6856 8.84 23.31 8.84C22.9345 8.84 22.63 9.14444 22.63 9.52C22.63 9.89555 22.9345 10.2 23.31 10.2Z" fill="#787979"/>
<path opacity="0.5" d="M23.31 16.17C23.6856 16.17 23.99 15.8656 23.99 15.49C23.99 15.1144 23.6856 14.81 23.31 14.81C22.9345 14.81 22.63 15.1144 22.63 15.49C22.63 15.8656 22.9345 16.17 23.31 16.17Z" fill="#787979"/>
<path opacity="0.5" d="M5.64999 7.08C6.08629 7.08 6.43999 6.72631 6.43999 6.29C6.43999 5.8537 6.08629 5.5 5.64999 5.5C5.21368 5.5 4.85999 5.8537 4.85999 6.29C4.85999 6.72631 5.21368 7.08 5.64999 7.08Z" fill="#787979"/>
</g>
<defs>
<clipPath id="clip0_2_4457">
<rect width="23.98" height="14.01" fill="white" transform="translate(0 5.5)"/>
</clipPath>
</defs>
</svg>
