<svg width="24" height="25" viewBox="0 0 24 25" fill="none" xmlns="http://www.w3.org/2000/svg">
<g clip-path="url(#clip0_2_4514)">
<path opacity="0.5" d="M19.5899 10.04L19.49 9.68994L17.3299 2.17999C17.2821 2.01275 17.181 1.86565 17.0421 1.76099C16.9031 1.65633 16.7339 1.59979 16.5599 1.59998H7.95994C7.80675 1.60025 7.65769 1.65003 7.53514 1.74194C7.41258 1.83386 7.32304 1.96299 7.27989 2.10999L4.96995 10.11C4.94394 10.2286 4.94394 10.3514 4.96995 10.47C5.00132 10.5924 5.05565 10.7078 5.12999 10.81L5.27 10.96L8.33995 14.73C8.40046 14.8036 8.47685 14.8626 8.56346 14.9025C8.65007 14.9423 8.74463 14.962 8.83995 14.96H10.64V20.96H9.89C9.81134 20.9714 9.73409 20.9915 9.65989 21.02C9.59096 21.0503 9.52699 21.0908 9.46995 21.14L7.89 22.75C7.76317 22.8825 7.67778 23.0491 7.64451 23.2295C7.61124 23.4099 7.63152 23.596 7.70274 23.765C7.77396 23.934 7.89307 24.0785 8.04539 24.1807C8.19771 24.2828 8.37652 24.3382 8.55992 24.34H15.97C16.1489 24.3219 16.3196 24.2558 16.4642 24.1489C16.6088 24.0419 16.7219 23.8979 16.7915 23.7321C16.8611 23.5662 16.8846 23.3847 16.8597 23.2066C16.8348 23.0285 16.7624 22.8604 16.65 22.72L15.0699 21.1L14.9199 21.0099H14.7099H13.9299V15.0099H15.74C15.8337 15.0112 15.9265 14.9911 16.0113 14.9513C16.0962 14.9115 16.171 14.8529 16.23 14.78L19.2999 11.02L19.48 10.8C19.5426 10.6986 19.5866 10.5868 19.61 10.47C19.6322 10.3267 19.6254 10.1805 19.5899 10.04ZM8.40989 2.89996H16.1899L18.14 9.68994H6.48997L8.40989 2.89996ZM14.4099 22.27L15.1699 23.05H9.45994L10.22 22.27H14.4099ZM12.6599 20.97H11.97V14.97H12.6599V20.97ZM15.4499 13.68H9.17991L6.97996 10.99H17.65L15.4499 13.68Z" fill="#838484"/>
<path opacity="0.5" d="M5.86996 11.17C5.71829 11.1705 5.56939 11.129 5.43991 11.05C5.26789 10.9591 5.13183 10.8126 5.0538 10.6344C4.97577 10.4562 4.96044 10.2568 5.01034 10.0688C5.06025 9.88081 5.17245 9.71526 5.32858 9.59922C5.48471 9.48318 5.67554 9.42355 5.86996 9.42997C6.02012 9.431 6.16769 9.46875 6.29989 9.53996C6.39988 9.59681 6.48758 9.67292 6.55795 9.7639C6.62833 9.85487 6.68001 9.95887 6.70993 10.0699C6.74014 10.1803 6.74773 10.2957 6.73227 10.4092C6.7168 10.5226 6.67863 10.6317 6.61996 10.73C6.54532 10.8633 6.43648 10.9744 6.30465 11.0517C6.17283 11.1291 6.0228 11.1699 5.86996 11.17Z" fill="#838484"/>
<path opacity="0.5" d="M8.90989 14.98C8.79057 14.9808 8.67322 14.9497 8.56993 14.89C8.43444 14.8179 8.3273 14.7021 8.26597 14.5614C8.20464 14.4207 8.19276 14.2634 8.23216 14.1151C8.27156 13.9668 8.35995 13.8361 8.48301 13.7444C8.60607 13.6527 8.75649 13.6053 8.90989 13.61C9.0291 13.6101 9.14632 13.6411 9.24998 13.7C9.37758 13.7772 9.47666 13.8938 9.53245 14.0321C9.58824 14.1705 9.59772 14.3232 9.55943 14.4674C9.52113 14.6115 9.43714 14.7394 9.32005 14.8318C9.20296 14.9242 9.05901 14.9762 8.90989 14.98Z" fill="#838484"/>
<path opacity="0.5" d="M15.7601 14.98C15.6408 14.9799 15.5236 14.9488 15.42 14.89C15.3414 14.8464 15.2724 14.7875 15.2171 14.7167C15.1617 14.6459 15.1213 14.5647 15.0979 14.478C15.0746 14.3912 15.069 14.3006 15.0813 14.2116C15.0937 14.1226 15.1238 14.0371 15.17 13.96C15.2292 13.8552 15.3149 13.7679 15.4184 13.7065C15.5219 13.6451 15.6397 13.6118 15.7601 13.61C15.8788 13.6137 15.995 13.6445 16.1 13.7C16.2567 13.7936 16.3713 13.9441 16.42 14.12C16.4464 14.2066 16.4538 14.2979 16.4417 14.3876C16.4296 14.4774 16.3984 14.5634 16.35 14.64C16.291 14.7442 16.2052 14.8307 16.1015 14.8905C15.9977 14.9503 15.8798 14.9812 15.7601 14.98Z" fill="#838484"/>
<path opacity="0.5" d="M13.3199 15.6C13.2071 15.5997 13.0965 15.5685 13 15.5099C12.8778 15.438 12.7825 15.3281 12.7286 15.197C12.6747 15.0659 12.6652 14.9207 12.7014 14.7837C12.7377 14.6466 12.8178 14.5252 12.9294 14.4379C13.0411 14.3505 13.1782 14.3021 13.3199 14.3C13.4347 14.3003 13.5478 14.3277 13.65 14.3799C13.7963 14.4694 13.9027 14.6116 13.9474 14.7772C13.992 14.9427 13.9715 15.1191 13.89 15.27C13.8322 15.3701 13.7491 15.4533 13.649 15.5112C13.549 15.5691 13.4355 15.5997 13.3199 15.6Z" fill="#838484"/>
<path opacity="0.5" d="M11.34 15.6C11.2271 15.5997 11.1165 15.5685 11.02 15.5099C10.8979 15.438 10.8025 15.3281 10.7486 15.197C10.6948 15.0659 10.6852 14.9207 10.7214 14.7837C10.7577 14.6466 10.8378 14.5252 10.9495 14.4379C11.0611 14.3505 11.1982 14.3021 11.34 14.3C11.4547 14.3003 11.5677 14.3277 11.6699 14.3799C11.8162 14.4694 11.9226 14.6116 11.9673 14.7772C12.0119 14.9427 11.9914 15.1191 11.9099 15.27C11.8521 15.3701 11.7691 15.4533 11.6691 15.5112C11.569 15.5691 11.4555 15.5997 11.34 15.6Z" fill="#838484"/>
<path opacity="0.5" d="M13.3199 21.62C13.2071 21.6197 13.0965 21.5885 13 21.53C12.8778 21.458 12.7825 21.3482 12.7286 21.217C12.6747 21.0859 12.6652 20.9408 12.7014 20.8037C12.7377 20.6667 12.8178 20.5452 12.9294 20.4579C13.0411 20.3706 13.1782 20.3221 13.3199 20.3199C13.4347 20.3203 13.5478 20.3477 13.65 20.4C13.7963 20.4894 13.9027 20.6316 13.9474 20.7971C13.992 20.9627 13.9715 21.1391 13.89 21.29C13.8322 21.3901 13.7491 21.4732 13.649 21.5311C13.549 21.589 13.4355 21.6197 13.3199 21.62Z" fill="#838484"/>
<path opacity="0.5" d="M11.34 21.62C11.2271 21.6197 11.1165 21.5885 11.02 21.53C10.8979 21.458 10.8025 21.3482 10.7486 21.217C10.6948 21.0859 10.6852 20.9408 10.7214 20.8037C10.7577 20.6667 10.8378 20.5452 10.9495 20.4579C11.0611 20.3706 11.1982 20.3221 11.34 20.3199C11.4547 20.3203 11.5677 20.3477 11.6699 20.4C11.8162 20.4894 11.9226 20.6316 11.9673 20.7971C12.0119 20.9627 11.9914 21.1391 11.9099 21.29C11.8521 21.3901 11.7691 21.4732 11.6691 21.5311C11.569 21.589 11.4555 21.6197 11.34 21.62Z" fill="#838484"/>
<path opacity="0.5" d="M14.6999 22.3199C14.5806 22.3208 14.4633 22.2897 14.36 22.23C14.2827 22.1864 14.2149 22.1279 14.1605 22.0579C14.106 21.9879 14.0659 21.9078 14.0427 21.8222C14.0194 21.7366 14.0135 21.6473 14.025 21.5593C14.0365 21.4714 14.0654 21.3867 14.11 21.31C14.1697 21.2065 14.2558 21.1205 14.3593 21.0608C14.4629 21.0011 14.5804 20.9698 14.6999 20.97C14.8648 20.9901 15.0166 21.0698 15.1267 21.1942C15.2368 21.3185 15.2976 21.4789 15.2976 21.645C15.2976 21.8111 15.2368 21.9714 15.1267 22.0958C15.0166 22.2201 14.8648 22.2998 14.6999 22.3199Z" fill="#838484"/>
<path opacity="0.5" d="M9.97998 22.32C9.86378 22.321 9.74962 22.2899 9.65002 22.23C9.49434 22.1417 9.37973 21.9956 9.33105 21.8234C9.28238 21.6512 9.30356 21.4667 9.39001 21.31C9.44979 21.2065 9.5357 21.1205 9.63928 21.0608C9.74286 21.0011 9.86043 20.9698 9.97998 20.97C10.1297 20.969 10.2756 21.0175 10.3949 21.1079C10.5142 21.1983 10.6004 21.3256 10.64 21.47C10.6823 21.6427 10.6572 21.8251 10.5699 21.98C10.511 22.0842 10.4252 22.1707 10.3214 22.2305C10.2176 22.2903 10.0997 22.3212 9.97998 22.32Z" fill="#838484"/>
<path opacity="0.5" d="M8.58995 24.35C8.42881 24.3505 8.27033 24.3092 8.12999 24.23C7.91417 24.1063 7.75614 23.9022 7.69053 23.6623C7.62493 23.4224 7.65702 23.1662 7.77989 22.95C7.85915 22.8044 7.9763 22.683 8.11888 22.5985C8.26145 22.514 8.42422 22.4696 8.58995 22.47C8.79676 22.4674 8.9985 22.5339 9.16331 22.6588C9.32812 22.7838 9.44662 22.9602 9.49998 23.16C9.56118 23.4028 9.52898 23.6597 9.40989 23.88C9.32256 24.0198 9.20201 24.136 9.05894 24.218C8.91587 24.3 8.75478 24.3453 8.58995 24.35Z" fill="#838484"/>
<path opacity="0.5" d="M16.0399 24.35C15.8787 24.3505 15.7203 24.3092 15.5799 24.23C15.3641 24.1063 15.2061 23.9022 15.1405 23.6623C15.0749 23.4224 15.1071 23.1662 15.2299 22.95C15.3092 22.8044 15.4263 22.683 15.5689 22.5985C15.7115 22.514 15.8741 22.4696 16.0399 22.47C16.2467 22.4674 16.4485 22.5339 16.6134 22.6588C16.7782 22.7838 16.8965 22.9602 16.9499 23.16C17.0111 23.4028 16.979 23.6597 16.8599 23.88C16.7726 24.0198 16.6521 24.136 16.509 24.218C16.3659 24.3 16.2047 24.3453 16.0399 24.35Z" fill="#838484"/>
<path opacity="0.5" d="M8.01002 3.06C7.8835 3.05757 7.75968 3.02313 7.65003 2.95996C7.51229 2.87936 7.40474 2.75586 7.34388 2.60834C7.28302 2.46081 7.27216 2.2974 7.313 2.14313C7.35383 1.98885 7.44407 1.85218 7.56995 1.75409C7.69584 1.656 7.85044 1.60188 8.01002 1.59998C8.13635 1.60365 8.25988 1.63794 8.37 1.69995C8.4541 1.74569 8.52778 1.80847 8.58631 1.88422C8.64485 1.95997 8.68692 2.04704 8.70997 2.13995C8.73579 2.23164 8.74287 2.32757 8.73084 2.42206C8.71882 2.51655 8.68799 2.60765 8.64002 2.68994C8.57757 2.80221 8.48615 2.89576 8.37537 2.96082C8.2646 3.02588 8.13849 3.06014 8.01002 3.06Z" fill="#838484"/>
<path opacity="0.5" d="M16.65 3.06C16.5235 3.05757 16.3996 3.02313 16.2899 2.95996C16.1522 2.87936 16.0448 2.75586 15.9839 2.60834C15.923 2.46081 15.9122 2.2974 15.953 2.14313C15.9938 1.98885 16.0841 1.85218 16.21 1.75409C16.3359 1.656 16.4905 1.60188 16.65 1.59998C16.7764 1.60365 16.8999 1.63794 17.01 1.69995C17.0941 1.74569 17.1677 1.80847 17.2262 1.88422C17.2847 1.95997 17.3269 2.04704 17.35 2.13995C17.3978 2.3255 17.3726 2.52228 17.2799 2.68994C17.2175 2.80221 17.1262 2.89576 17.0154 2.96082C16.9046 3.02588 16.7785 3.06014 16.65 3.06Z" fill="#838484"/>
<path opacity="0.5" d="M18.7999 11.15C18.6524 11.1527 18.5071 11.1147 18.3799 11.04C18.1804 10.9266 18.0338 10.739 17.972 10.5179C17.9102 10.2969 17.9381 10.0604 18.0499 9.85999C18.1277 9.72719 18.2387 9.61685 18.3719 9.53974C18.5051 9.46262 18.656 9.42135 18.8099 9.41998C18.9584 9.41972 19.104 9.4613 19.2299 9.53998C19.334 9.58886 19.4251 9.66127 19.4963 9.75153C19.5674 9.84179 19.6167 9.94744 19.64 10.06C19.6955 10.2823 19.667 10.5173 19.5599 10.72C19.4808 10.8509 19.3694 10.9593 19.2363 11.0346C19.1032 11.1099 18.9528 11.1496 18.7999 11.15Z" fill="#838484"/>
</g>
<defs>
<clipPath id="clip0_2_4514">
<rect width="14.67" height="22.75" fill="white" transform="translate(5 1.59998)"/>
</clipPath>
</defs>
</svg>
