<svg width="24" height="24" viewBox="0 0 24 24" fill="none" xmlns="http://www.w3.org/2000/svg">
<g clip-path="url(#clip0_2_4493)">
<g opacity="0.38">
<path d="M1.65039 20.3123L3.22214 12.4305C3.24161 12.3314 3.27576 12.2358 3.32352 12.1468L9.47846 0.638199C9.60453 0.403226 9.8056 0.217087 10.0497 0.109396C10.2938 0.00170559 10.5669 -0.0213561 10.8257 0.0438525C11.0844 0.109061 11.314 0.258783 11.4778 0.469269C11.6415 0.679755 11.7301 0.938922 11.7295 1.20553V17.1312C11.7296 17.2898 11.6837 17.445 11.5973 17.578C11.5109 17.7111 11.3878 17.8163 11.2428 17.8809L3.04972 21.4368C2.88012 21.5105 2.69358 21.5364 2.51029 21.5118C2.32699 21.4872 2.15396 21.413 2.00985 21.2972C1.86574 21.1814 1.75607 21.0284 1.69272 20.8548C1.62937 20.6812 1.6147 20.4936 1.65039 20.3123ZM4.62147 12.8864L3.28292 19.7146L10.239 16.6753V2.38068L4.62147 12.8864Z" fill="#787979"/>
</g>
<g opacity="0.38">
<path d="M21.2109 21.4572L12.9569 17.8708C12.8162 17.81 12.6963 17.7096 12.6117 17.5819C12.5271 17.4542 12.4815 17.3047 12.4803 17.1516V1.21569C12.4844 0.950221 12.576 0.693539 12.741 0.485433C12.906 0.277327 13.1352 0.129442 13.393 0.0647773C13.6507 0.000112398 13.9225 0.0222626 14.1663 0.127786C14.4102 0.233309 14.6125 0.416301 14.7416 0.648365L20.8965 12.2178C20.9008 12.2718 20.9008 12.326 20.8965 12.3799L22.529 20.363C22.551 20.5325 22.5298 20.7047 22.4673 20.8638C22.4047 21.0228 22.303 21.1635 22.1714 21.2727C22.0399 21.3819 21.8829 21.456 21.7149 21.4883C21.547 21.5205 21.3736 21.5099 21.2109 21.4572ZM13.9811 16.6855L20.9371 19.7248L19.5985 12.8966L13.9811 2.38076V16.6855Z" fill="#787979"/>
</g>
<g opacity="0.38">
<path d="M11.6286 23.8987L8.19107 22.0447C8.03009 21.9579 7.89563 21.8292 7.8019 21.6723C7.70818 21.5153 7.65869 21.336 7.65869 21.1533C7.65869 20.9705 7.70818 20.7911 7.8019 20.6342C7.89563 20.4772 8.03009 20.3485 8.19107 20.2617L11.6184 18.6306C11.7265 18.5807 11.8442 18.5549 11.9633 18.5549C12.0823 18.5549 12.1999 18.5807 12.308 18.6306L15.7353 20.2617C15.8963 20.3485 16.0308 20.4772 16.1245 20.6342C16.2182 20.7911 16.2677 20.9705 16.2677 21.1533C16.2677 21.336 16.2182 21.5153 16.1245 21.6723C16.0308 21.8292 15.8963 21.9579 15.7353 22.0447L12.2978 23.8987C12.1929 23.9469 12.0788 23.9719 11.9633 23.9719C11.8477 23.9719 11.7335 23.9469 11.6286 23.8987ZM9.72222 21.1533L12.0139 22.3892L14.3055 21.1533L12.0139 20.1402L9.72222 21.1533Z" fill="#787979"/>
</g>
<path opacity="0.5" d="M3.93236 13.3018C4.34117 13.3018 4.67258 12.9707 4.67258 12.5623C4.67258 12.1538 4.34117 11.8227 3.93236 11.8227C3.52355 11.8227 3.19214 12.1538 3.19214 12.5623C3.19214 12.9707 3.52355 13.3018 3.93236 13.3018Z" fill="#787979"/>
<path opacity="0.5" d="M20.2477 13.3018C20.6509 13.3018 20.9777 12.9752 20.9777 12.5724C20.9777 12.1695 20.6509 11.843 20.2477 11.843C19.8444 11.843 19.5176 12.1695 19.5176 12.5724C19.5176 12.9752 19.8444 13.3018 20.2477 13.3018Z" fill="#787979"/>
<path opacity="0.5" d="M10.8884 17.9316C11.3364 17.9316 11.6996 17.5688 11.6996 17.1212C11.6996 16.6735 11.3364 16.3107 10.8884 16.3107C10.4403 16.3107 10.0771 16.6735 10.0771 17.1212C10.0771 17.5688 10.4403 17.9316 10.8884 17.9316Z" fill="#787979"/>
<path opacity="0.5" d="M13.3017 17.9316C13.7497 17.9316 14.1129 17.5688 14.1129 17.1212C14.1129 16.6735 13.7497 16.3107 13.3017 16.3107C12.8537 16.3107 12.4905 16.6735 12.4905 17.1212C12.4905 17.5688 12.8537 17.9316 13.3017 17.9316Z" fill="#787979"/>
<path opacity="0.5" d="M12.014 20.1503C12.4564 20.1503 12.815 19.7919 12.815 19.3499C12.815 18.9079 12.4564 18.5496 12.014 18.5496C11.5715 18.5496 11.2129 18.9079 11.2129 19.3499C11.2129 19.7919 11.5715 20.1503 12.014 20.1503Z" fill="#787979"/>
<path opacity="0.5" d="M12.014 23.9899C12.4564 23.9899 12.815 23.6315 12.815 23.1895C12.815 22.7475 12.4564 22.3892 12.014 22.3892C11.5715 22.3892 11.2129 22.7475 11.2129 23.1895C11.2129 23.6315 11.5715 23.9899 12.014 23.9899Z" fill="#787979"/>
<path opacity="0.5" d="M15.3297 22.1866C15.8953 22.1866 16.3538 21.7285 16.3538 21.1634C16.3538 20.5982 15.8953 20.1401 15.3297 20.1401C14.7641 20.1401 14.3055 20.5982 14.3055 21.1634C14.3055 21.7285 14.7641 22.1866 15.3297 22.1866Z" fill="#787979"/>
<path opacity="0.5" d="M13.687 2.42128C14.3534 2.42128 14.8937 1.88152 14.8937 1.2157C14.8937 0.549885 14.3534 0.0101318 13.687 0.0101318C13.0206 0.0101318 12.4803 0.549885 12.4803 1.2157C12.4803 1.88152 13.0206 2.42128 13.687 2.42128Z" fill="#787979"/>
<path opacity="0.5" d="M10.5031 2.42128C11.1695 2.42128 11.7097 1.88152 11.7097 1.2157C11.7097 0.549885 11.1695 0.0101318 10.5031 0.0101318C9.83663 0.0101318 9.29639 0.549885 9.29639 1.2157C9.29639 1.88152 9.83663 2.42128 10.5031 2.42128Z" fill="#787979"/>
<path opacity="0.5" d="M8.68796 22.1866C9.25358 22.1866 9.71211 21.7285 9.71211 21.1634C9.71211 20.5982 9.25358 20.1401 8.68796 20.1401C8.12234 20.1401 7.66382 20.5982 7.66382 21.1634C7.66382 21.7285 8.12234 22.1866 8.68796 22.1866Z" fill="#787979"/>
<path opacity="0.5" d="M2.62423 21.5281C3.18425 21.5281 3.63824 21.0745 3.63824 20.515C3.63824 19.9555 3.18425 19.5019 2.62423 19.5019C2.06421 19.5019 1.61023 19.9555 1.61023 20.515C1.61023 21.0745 2.06421 21.5281 2.62423 21.5281Z" fill="#787979"/>
<path opacity="0.5" d="M21.5759 21.5483C22.1415 21.5483 22.6 21.0902 22.6 20.5251C22.6 19.96 22.1415 19.5019 21.5759 19.5019C21.0103 19.5019 20.5518 19.96 20.5518 20.5251C20.5518 21.0902 21.0103 21.5483 21.5759 21.5483Z" fill="#787979"/>
</g>
<defs>
<clipPath id="clip0_2_4493">
<rect width="21" height="24" fill="white" transform="translate(1.6001)"/>
</clipPath>
</defs>
</svg>
