<svg width="24" height="21" viewBox="0 0 24 21"  xmlns="http://www.w3.org/2000/svg">
<g clip-path="url(#clip0_2_4013)">
<g opacity="0.7">
<path opacity="0.7" d="M24 19.11H0V20.34H24V19.11Z" />
</g>
<g opacity="0.7">
<path opacity="0.7" d="M15.28 0.45L18.05 5.35002C18.094 5.42417 18.1172 5.5088 18.1172 5.59502C18.1172 5.68124 18.094 5.76587 18.05 5.84001L15.19 10.69C15.1451 10.7637 15.0819 10.8246 15.0066 10.8666C14.9312 10.9087 14.8463 10.9305 14.76 10.93L9.13 10.88C9.04402 10.8798 8.95969 10.8565 8.8858 10.8125C8.81192 10.7685 8.75122 10.7055 8.71002 10.63L5.94 5.72997C5.89795 5.65516 5.87585 5.57079 5.87585 5.48497C5.87585 5.39916 5.89795 5.31479 5.94 5.23998L8.79999 0.400012C8.84446 0.322967 8.90868 0.259144 8.98602 0.215197C9.06337 0.171251 9.15104 0.148774 9.23999 0.150012H14.86C14.9507 0.157091 15.0377 0.188763 15.1117 0.241626C15.1857 0.294488 15.2439 0.366525 15.28 0.45ZM16.99 5.34001L14.74 1.34001C14.6967 1.26709 14.6353 1.20661 14.5617 1.16454C14.4881 1.12247 14.4048 1.10027 14.32 1.10002H9.75C9.66461 1.09708 9.5801 1.11794 9.50592 1.16033C9.43174 1.20272 9.37083 1.26495 9.33002 1.34001L7.01001 5.27001C6.96796 5.34482 6.94586 5.42918 6.94586 5.515C6.94586 5.60082 6.96796 5.68519 7.01001 5.76L9.26001 9.76C9.30417 9.8329 9.36554 9.89383 9.43878 9.93743C9.51202 9.98102 9.59486 10.0059 9.67999 10.01H14.25C14.3363 10.0105 14.4212 9.98864 14.4966 9.94658C14.5719 9.90453 14.6351 9.84372 14.68 9.77001L16.99 5.83C17.0379 5.75358 17.0634 5.6652 17.0634 5.575C17.0634 5.4848 17.0379 5.39642 16.99 5.31999V5.34001Z" />
<path opacity="0.7" d="M14.82 11.08H9.19C9.07797 11.0814 8.96769 11.0523 8.87085 10.996C8.77401 10.9396 8.69422 10.8581 8.64001 10.76L5.87 5.85999C5.81571 5.76207 5.78723 5.65194 5.78723 5.53998C5.78723 5.42802 5.81571 5.31795 5.87 5.22003L8.72998 0.369995C8.78741 0.27254 8.86932 0.191742 8.96753 0.13562C9.06574 0.0794981 9.17686 0.0499878 9.28998 0.0499878L14.91 0.100037C15.0229 0.100752 15.1334 0.131708 15.2302 0.189758C15.3269 0.247808 15.4063 0.330777 15.46 0.429993L18.23 5.33002C18.2843 5.42794 18.3127 5.53806 18.3127 5.65002C18.3127 5.76198 18.2843 5.87211 18.23 5.97003L15.37 10.82C15.3059 10.9043 15.2225 10.9719 15.1268 11.0172C15.031 11.0624 14.9258 11.084 14.82 11.08ZM9.22998 0.320007C9.16858 0.321055 9.10857 0.338217 9.05591 0.369812C9.00325 0.401407 8.95981 0.446316 8.92999 0.5L6.07001 5.32001C6.04017 5.37169 6.02448 5.43031 6.02448 5.48999C6.02448 5.54967 6.04017 5.60835 6.07001 5.66003L8.84003 10.56C8.86949 10.611 8.91168 10.6535 8.96252 10.6833C9.01336 10.7132 9.07108 10.7292 9.13 10.73L14.77 10.78C14.8294 10.7814 14.8879 10.7662 14.9391 10.7361C14.9904 10.7061 15.0322 10.6624 15.06 10.61L17.92 5.76001C17.9498 5.70832 17.9656 5.64971 17.9656 5.59003C17.9656 5.53034 17.9498 5.47167 17.92 5.41998L15.15 0.52002C15.1218 0.457168 15.075 0.404369 15.0161 0.368652C14.9572 0.332935 14.8888 0.315974 14.82 0.320007H9.19H9.22998ZM14.23 10.18H9.66003C9.54765 10.1772 9.43789 10.1454 9.34149 10.0876C9.24509 10.0297 9.1653 9.94791 9.10999 9.85004L6.85999 5.85004C6.80381 5.75274 6.77429 5.64237 6.77429 5.53003C6.77429 5.41769 6.80381 5.30731 6.85999 5.21002L9.17999 1.27002C9.23629 1.17453 9.31682 1.09557 9.41339 1.04114C9.50996 0.986708 9.61914 0.958738 9.72998 0.960022H14.3C14.412 0.958687 14.5224 0.987721 14.6192 1.04407C14.716 1.10041 14.7958 1.18197 14.85 1.28003L17.1 5.28003C17.1562 5.37732 17.1857 5.48769 17.1857 5.60004C17.1857 5.71238 17.1562 5.82269 17.1 5.91998L14.82 9.84003C14.7609 9.94046 14.6759 10.0231 14.5739 10.0794C14.4718 10.1357 14.3565 10.1636 14.24 10.16L14.23 10.18ZM9.73999 1.25C9.68084 1.25074 9.62276 1.26568 9.57056 1.29352C9.51836 1.32136 9.47357 1.36132 9.44 1.41003L7.14001 5.32001C7.10807 5.37095 7.09113 5.42986 7.09113 5.48999C7.09113 5.55013 7.10807 5.60909 7.14001 5.66003L9.39001 9.66003C9.41735 9.71362 9.45884 9.75868 9.50995 9.79041C9.56106 9.82213 9.61984 9.83931 9.67999 9.84003H14.25C14.3102 9.83906 14.3693 9.82297 14.4217 9.79327C14.4741 9.76357 14.5182 9.72116 14.55 9.66998L16.87 5.72998C16.9 5.68016 16.9158 5.62314 16.9158 5.565C16.9158 5.50686 16.9 5.44984 16.87 5.40002L14.62 1.40002C14.5922 1.34758 14.5504 1.30389 14.4991 1.27386C14.4479 1.24384 14.3894 1.22863 14.33 1.22998H9.76001L9.73999 1.25Z" />
</g>
<path opacity="0.7" d="M17.82 12.4C17.7695 12.2875 17.6902 12.1903 17.5901 12.1183C17.4901 12.0464 17.3727 12.0021 17.25 11.99H6.72998C6.60851 11.9971 6.49129 12.0372 6.39087 12.1059C6.29045 12.1746 6.21068 12.2694 6.16003 12.38L3.35999 19.11H4.72998L7.12 13.32H16.87L19.27 19.16H20.63L17.82 12.4Z" />
<path opacity="0.7" d="M9.24995 1.36C9.6255 1.36 9.92995 1.05555 9.92995 0.68C9.92995 0.304446 9.6255 0 9.24995 0C8.87439 0 8.56995 0.304446 8.56995 0.68C8.56995 1.05555 8.87439 1.36 9.24995 1.36Z" />
<path opacity="0.7" d="M14.83 1.40999C15.2056 1.40999 15.51 1.10554 15.51 0.729988C15.51 0.354434 15.2056 0.0499878 14.83 0.0499878C14.4545 0.0499878 14.15 0.354434 14.15 0.729988C14.15 1.10554 14.4545 1.40999 14.83 1.40999Z" />
<path opacity="0.7" d="M17.59 6.28001C17.9656 6.28001 18.27 5.97557 18.27 5.60001C18.27 5.22446 17.9656 4.92001 17.59 4.92001C17.2145 4.92001 16.91 5.22446 16.91 5.60001C16.91 5.97557 17.2145 6.28001 17.59 6.28001Z" />
<path opacity="0.7" d="M17.22 13.37C17.6011 13.37 17.91 13.0611 17.91 12.68C17.91 12.2989 17.6011 11.99 17.22 11.99C16.839 11.99 16.53 12.2989 16.53 12.68C16.53 13.0611 16.839 13.37 17.22 13.37Z" />
<path opacity="0.7" d="M6.77997 13.37C7.16104 13.37 7.46997 13.0611 7.46997 12.68C7.46997 12.2989 7.16104 11.99 6.77997 11.99C6.39889 11.99 6.08997 12.2989 6.08997 12.68C6.08997 13.0611 6.39889 13.37 6.77997 13.37Z" />
<path opacity="0.7" d="M14.77 11.08C15.1455 11.08 15.45 10.7756 15.45 10.4C15.45 10.0244 15.1455 9.72 14.77 9.72C14.3944 9.72 14.09 10.0244 14.09 10.4C14.09 10.7756 14.3944 11.08 14.77 11.08Z" />
<path opacity="0.7" d="M9.14997 11.03C9.52552 11.03 9.82997 10.7256 9.82997 10.35C9.82997 9.97446 9.52552 9.67001 9.14997 9.67001C8.77442 9.67001 8.46997 9.97446 8.46997 10.35C8.46997 10.7256 8.77442 11.03 9.14997 11.03Z" />
<path opacity="0.7" d="M6.40998 6.18001C6.78553 6.18001 7.08998 5.87556 7.08998 5.50001C7.08998 5.12445 6.78553 4.82001 6.40998 4.82001C6.03443 4.82001 5.72998 5.12445 5.72998 5.50001C5.72998 5.87556 6.03443 6.18001 6.40998 6.18001Z" />
</g>
<defs>
<clipPath id="clip0_2_4013">
<rect width="24" height="20.35" />
</clipPath>
</defs>
</svg>
