<svg width="25" height="21" viewBox="0 0 25 21" fill="none" xmlns="http://www.w3.org/2000/svg">
<g clip-path="url(#clip0_83_445)">
<path d="M11.8364 0.968872L3.2915 12.0772L8.08493 19.5969H10.5325L7.22786 12.0772L11.8364 6.62221L12.9886 8.10999L17.4052 12.0772L13.7819 19.5969L16.0185 19.8501L17.4052 17.5326L20.9576 10.9864L15.0049 3.34909L11.8364 0.968872Z" fill="#FFEA8A"/>
<path d="M24.1929 19.3H0.192871V20.53H24.1929V19.3Z" fill="#FACB41"/>
<path d="M21.6429 11.5001L12.8629 0.310059C12.7822 0.211686 12.6807 0.132418 12.5657 0.0780029C12.4507 0.0235875 12.3251 -0.00463867 12.1979 -0.00463867C12.0707 -0.00463867 11.945 0.0235875 11.83 0.0780029C11.715 0.132418 11.6135 0.211686 11.5329 0.310059L2.75287 11.5101C2.66999 11.6232 2.62531 11.7598 2.62531 11.9001C2.62531 12.0403 2.66999 12.1769 2.75287 12.29L7.35287 19.29H8.81287L3.98288 11.9901L12.1229 1.61005L12.1929 1.53009L12.2629 1.61005L20.3929 11.9901L15.5229 19.29H17.0329L21.6229 12.3401C21.7182 12.2218 21.7719 12.0753 21.7755 11.9235C21.7791 11.7716 21.7325 11.6227 21.6429 11.5001Z" fill="#FACB41"/>
<path d="M7.69286 12.5001L7.74285 12.4501L12.1629 7.98004L12.2329 7.92004L12.2929 7.98004L16.7129 12.4501L16.7629 12.5001L13.3628 19.3H14.7829L18.0629 12.6401C18.1213 12.5169 18.1402 12.3787 18.1169 12.2444C18.0936 12.1102 18.0293 11.9864 17.9329 11.8901L12.8129 6.71008C12.6638 6.56648 12.4649 6.48621 12.2579 6.48621C12.0509 6.48621 11.8519 6.56648 11.7029 6.71008L6.53286 11.8701C6.4359 11.9683 6.37219 12.0944 6.35067 12.2308C6.32914 12.3671 6.35089 12.5067 6.41286 12.6301L9.68285 19.29H11.0528L7.69286 12.5001Z" fill="#FACB41"/>
<path opacity="0.8" d="M6.99288 13.0301C7.36291 13.0301 7.66288 12.7301 7.66288 12.3601C7.66288 11.99 7.36291 11.6901 6.99288 11.6901C6.62285 11.6901 6.32288 11.99 6.32288 12.3601C6.32288 12.7301 6.62285 13.0301 6.99288 13.0301Z" fill="#DDA500"/>
<path opacity="0.8" d="M12.1929 7.85998C12.5739 7.85998 12.8829 7.55106 12.8829 7.16998C12.8829 6.7889 12.5739 6.47998 12.1929 6.47998C11.8118 6.47998 11.5029 6.7889 11.5029 7.16998C11.5029 7.55106 11.8118 7.85998 12.1929 7.85998Z" fill="#DDA500"/>
<path opacity="0.8" d="M17.4566 13.0301C17.8266 13.0301 18.1266 12.7301 18.1266 12.3601C18.1266 11.99 17.8266 11.6901 17.4566 11.6901C17.0865 11.6901 16.7866 11.99 16.7866 12.3601C16.7866 12.7301 17.0865 13.0301 17.4566 13.0301Z" fill="#DDA500"/>
<path opacity="0.8" d="M21.1129 12.63C21.4829 12.63 21.7829 12.3301 21.7829 11.96C21.7829 11.59 21.4829 11.29 21.1129 11.29C20.7428 11.29 20.4429 11.59 20.4429 11.96C20.4429 12.3301 20.7428 12.63 21.1129 12.63Z" fill="#DDA500"/>
<path opacity="0.8" d="M12.1929 1.48004C12.5905 1.48004 12.9129 1.15768 12.9129 0.760039C12.9129 0.362394 12.5905 0.0400391 12.1929 0.0400391C11.7953 0.0400391 11.4729 0.362394 11.4729 0.760039C11.4729 1.15768 11.7953 1.48004 12.1929 1.48004Z" fill="#DDA500"/>
<path opacity="0.8" d="M3.28285 12.63C3.65288 12.63 3.95285 12.3301 3.95285 11.96C3.95285 11.59 3.65288 11.29 3.28285 11.29C2.91282 11.29 2.61285 11.59 2.61285 11.96C2.61285 12.3301 2.91282 12.63 3.28285 12.63Z" fill="#DDA500"/>
</g>
<defs>
<clipPath id="clip0_83_445">
<rect width="24" height="20.49" fill="white" transform="translate(0.192871 0.0400391)"/>
</clipPath>
</defs>
</svg>
