<svg width="24" height="22" viewBox="0 0 24 22" fill="none" xmlns="http://www.w3.org/2000/svg">
<g clip-path="url(#clip0_83_487)">
<path d="M9.59082 1.90387L7.05273 6.50397L8.85046 11.1834L14.2437 11.4213L15.8828 8.96264L17.5219 6.50397L14.5609 1.90387H9.59082Z" fill="#FFEA8A"/>
<path d="M24 20.08H0V21.31H24V20.08Z" fill="#FACB41"/>
<g opacity="0.7">
<path d="M15.2802 1.42003L18.0501 6.32006C18.0941 6.3942 18.1174 6.47883 18.1174 6.56505C18.1174 6.65127 18.0941 6.7359 18.0501 6.81005L15.1901 11.66C15.1453 11.7337 15.0821 11.7946 15.0067 11.8367C14.9314 11.8787 14.8464 11.9005 14.7601 11.9L9.13013 11.85C9.04415 11.8498 8.95981 11.8265 8.88593 11.7825C8.81204 11.7385 8.75134 11.6755 8.71014 11.6L5.94012 6.7C5.89807 6.62519 5.87598 6.54082 5.87598 6.455C5.87598 6.36919 5.89807 6.28482 5.94012 6.21001L8.80011 1.37004C8.84458 1.293 8.9088 1.22918 8.98615 1.18523C9.06349 1.14128 9.15116 1.11881 9.24011 1.12004H14.8601C14.9508 1.12712 15.0378 1.1588 15.1118 1.21166C15.1858 1.26452 15.244 1.33656 15.2802 1.42003ZM16.9901 6.31005L14.7401 2.31005C14.6969 2.23712 14.6354 2.17664 14.5618 2.13457C14.4882 2.0925 14.4049 2.0703 14.3201 2.07006H9.75012C9.66473 2.06711 9.58023 2.08797 9.50604 2.13036C9.43186 2.17275 9.37095 2.23498 9.33014 2.31005L7.01013 6.24004C6.96808 6.31485 6.94598 6.39922 6.94598 6.48503C6.94598 6.57085 6.96808 6.65522 7.01013 6.73003L9.26013 10.73C9.30429 10.8029 9.36567 10.8639 9.4389 10.9075C9.51214 10.9511 9.59498 10.976 9.68011 10.98H14.2501C14.3364 10.9805 14.4214 10.9587 14.4967 10.9166C14.5721 10.8746 14.6352 10.8137 14.6801 10.74L16.9901 6.80004C17.038 6.72362 17.0635 6.63523 17.0635 6.54503C17.0635 6.45483 17.038 6.36645 16.9901 6.29003V6.31005Z" fill="#FACB41"/>
<path d="M14.8199 12.05H9.18988C9.07784 12.0514 8.96757 12.0223 8.87073 11.966C8.77388 11.9097 8.6941 11.8281 8.63989 11.73L5.86987 6.83002C5.81559 6.7321 5.78711 6.62197 5.78711 6.51001C5.78711 6.39805 5.81559 6.28798 5.86987 6.19006L8.72986 1.34003C8.78729 1.24257 8.86919 1.16177 8.96741 1.10565C9.06562 1.04953 9.17674 1.02002 9.28986 1.02002L14.9099 1.07007C15.0227 1.07078 15.1333 1.10174 15.23 1.15979C15.3268 1.21784 15.4062 1.30081 15.4599 1.40002L18.2299 6.30005C18.2841 6.39797 18.3126 6.5081 18.3126 6.62006C18.3126 6.73202 18.2841 6.84214 18.2299 6.94006L15.3699 11.79C15.3058 11.8743 15.2224 11.9419 15.1266 11.9872C15.0309 12.0324 14.9257 12.054 14.8199 12.05ZM9.22986 1.29004C9.16846 1.29109 9.10844 1.30825 9.05579 1.33984C9.00313 1.37144 8.95969 1.41635 8.92987 1.47003L6.06989 6.29004C6.04004 6.34173 6.02435 6.40034 6.02435 6.46002C6.02435 6.5197 6.04004 6.57838 6.06989 6.63007L8.8399 11.53C8.86937 11.5811 8.91156 11.6236 8.9624 11.6534C9.01324 11.6832 9.07096 11.6992 9.12988 11.7L14.7699 11.7501C14.8292 11.7514 14.8878 11.7362 14.939 11.7062C14.9902 11.6762 15.0321 11.6325 15.0599 11.58L17.9199 6.73004C17.9497 6.67835 17.9655 6.61974 17.9655 6.56006C17.9655 6.50038 17.9497 6.4417 17.9199 6.39001L16.5349 3.94003L15.1499 1.49005C15.1216 1.4272 15.0749 1.3744 15.016 1.33868C14.9571 1.30297 14.8887 1.28601 14.8199 1.29004H9.18988H9.22986ZM14.2299 11.15H9.65991C9.54753 11.1473 9.43777 11.1155 9.34137 11.0576C9.24497 10.9998 9.16517 10.9179 9.10986 10.8201L6.85986 6.82007C6.80369 6.72278 6.77417 6.6124 6.77417 6.50006C6.77417 6.38772 6.80369 6.27735 6.85986 6.18005L9.17987 2.24005C9.23617 2.14456 9.3167 2.0656 9.41327 2.01117C9.50984 1.95674 9.61901 1.92877 9.72986 1.93005H12.0149H14.2999C14.4119 1.92872 14.5222 1.95775 14.6191 2.0141C14.7159 2.07045 14.7957 2.152 14.8499 2.25006L17.0999 6.25006C17.1561 6.34735 17.1856 6.45772 17.1856 6.57007C17.1856 6.68241 17.1561 6.79272 17.0999 6.89001L14.8199 10.8101C14.7608 10.9105 14.6758 10.9931 14.5737 11.0494C14.4717 11.1057 14.3564 11.1336 14.2399 11.1301L14.2299 11.15ZM9.73987 2.22003C9.68071 2.22078 9.62263 2.23571 9.57043 2.26355C9.51824 2.29139 9.47345 2.33136 9.43988 2.38007L7.13989 6.29004C7.10795 6.34099 7.091 6.39989 7.091 6.46002C7.091 6.52016 7.10795 6.57912 7.13989 6.63007L9.38989 10.6301C9.41723 10.6837 9.45871 10.7287 9.50983 10.7604C9.56094 10.7922 9.61972 10.8093 9.67987 10.8101H14.2499C14.3101 10.8091 14.3692 10.793 14.4216 10.7633C14.474 10.7336 14.5181 10.6912 14.5499 10.64L16.8699 6.70001C16.8999 6.6502 16.9157 6.59318 16.9157 6.53503C16.9157 6.47689 16.8999 6.41987 16.8699 6.37006L14.6199 2.37006C14.5921 2.31761 14.5502 2.27392 14.499 2.2439C14.4478 2.21387 14.3892 2.19866 14.3299 2.20001H9.75989L9.73987 2.22003Z" fill="#FACB41"/>
</g>
<path d="M17.8199 13.3701C17.7694 13.2576 17.6901 13.1604 17.59 13.0884C17.4899 13.0164 17.3726 12.9721 17.2499 12.96H6.72986C6.60839 12.9671 6.49117 13.0072 6.39075 13.0759C6.29033 13.1446 6.21055 13.2394 6.15991 13.35L3.35986 20.08H4.72986L7.11987 14.29H16.8699L19.2699 20.1301H20.6299L17.8199 13.3701Z" fill="#FACB41"/>
<path opacity="0.8" d="M9.24982 2.33003C9.62538 2.33003 9.92982 2.02559 9.92982 1.65003C9.92982 1.27448 9.62538 0.970032 9.24982 0.970032C8.87427 0.970032 8.56982 1.27448 8.56982 1.65003C8.56982 2.02559 8.87427 2.33003 9.24982 2.33003Z" fill="#DDA500"/>
<path opacity="0.8" d="M14.8299 2.38002C15.2055 2.38002 15.5099 2.07557 15.5099 1.70002C15.5099 1.32447 15.2055 1.02002 14.8299 1.02002C14.4543 1.02002 14.1499 1.32447 14.1499 1.70002C14.1499 2.07557 14.4543 2.38002 14.8299 2.38002Z" fill="#DDA500"/>
<path opacity="0.8" d="M17.2198 14.34C17.6009 14.34 17.9098 14.0311 17.9098 13.65C17.9098 13.2689 17.6009 12.96 17.2198 12.96C16.8387 12.96 16.5298 13.2689 16.5298 13.65C16.5298 14.0311 16.8387 14.34 17.2198 14.34Z" fill="#DDA500"/>
<path opacity="0.8" d="M6.77984 14.34C7.16092 14.34 7.46984 14.0311 7.46984 13.65C7.46984 13.2689 7.16092 12.96 6.77984 12.96C6.39877 12.96 6.08984 13.2689 6.08984 13.65C6.08984 14.0311 6.39877 14.34 6.77984 14.34Z" fill="#DDA500"/>
<path opacity="0.8" d="M14.7698 12.05C15.1454 12.05 15.4498 11.7456 15.4498 11.37C15.4498 10.9944 15.1454 10.69 14.7698 10.69C14.3943 10.69 14.0898 10.9944 14.0898 11.37C14.0898 11.7456 14.3943 12.05 14.7698 12.05Z" fill="#DDA500"/>
<path opacity="0.8" d="M9.15021 12C9.52577 12 9.83021 11.6956 9.83021 11.32C9.83021 10.9445 9.52577 10.64 9.15021 10.64C8.77466 10.64 8.47021 10.9445 8.47021 11.32C8.47021 11.6956 8.77466 12 9.15021 12Z" fill="#DDA500"/>
<path opacity="0.8" d="M6.40998 7.15004C6.78553 7.15004 7.08998 6.84559 7.08998 6.47004C7.08998 6.09449 6.78553 5.79004 6.40998 5.79004C6.03443 5.79004 5.72998 6.09449 5.72998 6.47004C5.72998 6.84559 6.03443 7.15004 6.40998 7.15004Z" fill="#DDA500"/>
<path opacity="0.8" d="M17.5902 7.25001C17.9657 7.25001 18.2702 6.94557 18.2702 6.57001C18.2702 6.19446 17.9657 5.89001 17.5902 5.89001C17.2146 5.89001 16.9102 6.19446 16.9102 6.57001C16.9102 6.94557 17.2146 7.25001 17.5902 7.25001Z" fill="#DDA500"/>
</g>
<defs>
<clipPath id="clip0_83_487">
<rect width="24" height="20.35" fill="white" transform="translate(0 0.970032)"/>
</clipPath>
</defs>
</svg>
