<svg width="24" height="20" viewBox="0 0 24 20" fill="none" xmlns="http://www.w3.org/2000/svg">
<g clip-path="url(#clip0_83_429)">
<path d="M3.47266 18.069L4.94202 1.86139H19.0124L20.6598 18.069H3.47266Z" fill="#FFEA8A"/>
<path d="M24 18.09H0V19.32H24V18.09Z" fill="#FACB41"/>
<path d="M16.1298 0H15.0098V2.58H16.1298V0Z" fill="#FACB41"/>
<path d="M8.97986 0H7.85986V2.58H8.97986V0Z" fill="#FACB41"/>
<path d="M12.5599 0H11.4399V2.58H12.5599V0Z" fill="#FACB41"/>
<path d="M20.3 18.16L18.98 1.84997H4.98004L3.68005 18.16H2.58008L3.88007 1.28997C3.89277 1.13261 3.96502 0.98604 4.08209 0.880121C4.19916 0.774202 4.35223 0.716907 4.51007 0.719965H19.41C19.5683 0.719016 19.7213 0.776742 19.8395 0.882013C19.9577 0.987285 20.0327 1.13264 20.05 1.28997L21.4301 18.15L20.3 18.16Z" fill="#FACB41"/>
<path opacity="0.8" d="M4.50986 2.02998C4.86885 2.02998 5.15986 1.73897 5.15986 1.37998C5.15986 1.021 4.86885 0.72998 4.50986 0.72998C4.15088 0.72998 3.85986 1.021 3.85986 1.37998C3.85986 1.73897 4.15088 2.02998 4.50986 2.02998Z" fill="#DDA500"/>
<path opacity="0.8" d="M19.4 2.02998C19.759 2.02998 20.05 1.73897 20.05 1.37998C20.05 1.021 19.759 0.72998 19.4 0.72998C19.041 0.72998 18.75 1.021 18.75 1.37998C18.75 1.73897 19.041 2.02998 19.4 2.02998Z" fill="#DDA500"/>
<path d="M10.5199 12.37L7.85986 9.70996L8.64984 8.91998L10.9999 11.27L15.3499 6.91998L16.1498 7.70996L11.4899 12.37C11.4266 12.4344 11.3511 12.4855 11.2678 12.5204C11.1846 12.5554 11.0952 12.5734 11.0049 12.5734C10.9146 12.5734 10.8252 12.5554 10.7419 12.5204C10.6587 12.4855 10.5832 12.4344 10.5199 12.37Z" fill="white"/>
</g>
<defs>
<clipPath id="clip0_83_429">
<rect width="24" height="19.32" fill="white"/>
</clipPath>
</defs>
</svg>
