<svg width="26" height="21" viewBox="0 0 26 21" fill="none" xmlns="http://www.w3.org/2000/svg">
<g clip-path="url(#clip0_83_531)">
<path d="M12.8123 6.93066L7.21169 12.8851L6.62207 13.3568L7.91909 19.2523L10.9258 19.9008L9.33402 13.3568L13.4609 9.28885L18.8848 10.9986L20.005 16.8941L16.7035 19.9008H20.2997L22.658 17.3658L21.0072 9.64259L12.8123 6.93066Z" fill="#FFEA8A"/>
<path d="M20.2402 19.1L21.8901 17.49C21.9981 17.384 22.077 17.2519 22.119 17.1065C22.1611 16.9611 22.1649 16.8073 22.1302 16.66L20.4702 10.12C20.4309 9.97426 20.3553 9.84088 20.2503 9.73242C20.1454 9.62397 20.0145 9.54399 19.8702 9.5L13.3802 7.66999H13.1401C12.9163 7.66788 12.7008 7.75411 12.5402 7.90998L7.71015 12.61C7.59787 12.7152 7.51625 12.8489 7.47398 12.9968C7.43171 13.1448 7.4304 13.3014 7.47016 13.45L8.91017 19.13H7.66017L6.10017 12.98C6.06993 12.8583 6.07153 12.731 6.10481 12.6101C6.13808 12.4893 6.20193 12.379 6.29017 12.29L12.2902 6.48999C12.3812 6.40181 12.4936 6.33888 12.6163 6.30731C12.739 6.27575 12.8679 6.27666 12.9902 6.31L20.9902 8.57001C21.1128 8.60535 21.2242 8.67177 21.3136 8.76288C21.4029 8.854 21.4672 8.96673 21.5002 9.09003L23.5002 17.15C23.531 17.274 23.5288 17.4039 23.4937 17.5267C23.4586 17.6496 23.3918 17.761 23.3001 17.85L21.9602 19.13L20.2402 19.1Z" fill="#FACB41"/>
<g opacity="0.7">
<path d="M6.77982 9.25L0.779816 3.58002C0.707229 3.51005 0.649482 3.42616 0.610046 3.33337C0.570611 3.24059 0.550293 3.14079 0.550293 3.03998C0.550293 2.93916 0.570611 2.83942 0.610046 2.74664C0.649482 2.65386 0.707229 2.56996 0.779816 2.5L2.6398 0.690002C2.71918 0.606806 2.81461 0.540549 2.92032 0.4953C3.02603 0.450051 3.13984 0.426758 3.25482 0.426758C3.36981 0.426758 3.48359 0.450051 3.58929 0.4953C3.695 0.540549 3.79044 0.606806 3.86981 0.690002L9.30981 6.78998C9.43935 6.9242 9.51175 7.10345 9.51175 7.28998C9.51175 7.47651 9.43935 7.65576 9.30981 7.78998L7.77982 9.23999C7.64571 9.36862 7.46761 9.44126 7.2818 9.44312C7.09599 9.44497 6.91646 9.37592 6.77982 9.25ZM1.98981 3.02997L7.26981 8.02997L8.01981 7.29999L3.17981 1.88L1.98981 3.02997Z" fill="#FACB41"/>
</g>
<path opacity="0.8" d="M6.78982 13.5C7.18747 13.5 7.50982 13.1776 7.50982 12.78C7.50982 12.3824 7.18747 12.06 6.78982 12.06C6.39218 12.06 6.06982 12.3824 6.06982 12.78C6.06982 13.1776 6.39218 13.5 6.78982 13.5Z" fill="#DDA500"/>
<path opacity="0.8" d="M12.76 7.69C13.1577 7.69 13.48 7.36765 13.48 6.97C13.48 6.57236 13.1577 6.25 12.76 6.25C12.3624 6.25 12.04 6.57236 12.04 6.97C12.04 7.36765 12.3624 7.69 12.76 7.69Z" fill="#DDA500"/>
<path opacity="0.8" d="M3.16994 1.86002C3.57311 1.86002 3.89994 1.53319 3.89994 1.13002C3.89994 0.726857 3.57311 0.400024 3.16994 0.400024C2.76677 0.400024 2.43994 0.726857 2.43994 1.13002C2.43994 1.53319 2.76677 1.86002 3.16994 1.86002Z" fill="#DDA500"/>
<path opacity="0.8" d="M8.78006 8.02002C9.1777 8.02002 9.50006 7.69766 9.50006 7.30002C9.50006 6.90237 9.1777 6.58002 8.78006 6.58002C8.38241 6.58002 8.06006 6.90237 8.06006 7.30002C8.06006 7.69766 8.38241 8.02002 8.78006 8.02002Z" fill="#DDA500"/>
<path opacity="0.8" d="M7.24002 9.44C7.63766 9.44 7.96002 9.11764 7.96002 8.72C7.96002 8.32235 7.63766 8 7.24002 8C6.84237 8 6.52002 8.32235 6.52002 8.72C6.52002 9.11764 6.84237 9.44 7.24002 9.44Z" fill="#DDA500"/>
<path opacity="0.8" d="M1.20998 3.77C1.61315 3.77 1.93998 3.44317 1.93998 3.04C1.93998 2.63683 1.61315 2.31 1.20998 2.31C0.806813 2.31 0.47998 2.63683 0.47998 3.04C0.47998 3.44317 0.806813 3.77 1.20998 3.77Z" fill="#DDA500"/>
<path opacity="0.8" d="M20.76 9.95001C21.1577 9.95001 21.48 9.62766 21.48 9.23001C21.48 8.83237 21.1577 8.51001 20.76 8.51001C20.3624 8.51001 20.04 8.83237 20.04 9.23001C20.04 9.62766 20.3624 9.95001 20.76 9.95001Z" fill="#DDA500"/>
<path opacity="0.8" d="M22.8001 18.02C23.1977 18.02 23.5201 17.6977 23.5201 17.3C23.5201 16.9024 23.1977 16.58 22.8001 16.58C22.4024 16.58 22.0801 16.9024 22.0801 17.3C22.0801 17.6977 22.4024 18.02 22.8001 18.02Z" fill="#DDA500"/>
<path d="M12.6101 19.1L11.2902 18.73C11.2225 18.7099 11.1611 18.6726 11.1121 18.6218C11.063 18.571 11.0279 18.5084 11.0102 18.44L9.85016 13.8401C9.8317 13.7735 9.83121 13.7033 9.84878 13.6365C9.86635 13.5697 9.90135 13.5089 9.95016 13.46L13.3601 10.15C13.3972 10.1141 13.441 10.0858 13.4891 10.0669C13.5372 10.048 13.5885 10.0389 13.6401 10.04H13.7401L18.3101 11.33C18.3778 11.3502 18.4392 11.3874 18.4882 11.4383C18.5373 11.4891 18.5724 11.5517 18.5901 11.62L19.7501 16.22C19.7697 16.2864 19.7707 16.357 19.7531 16.424C19.7355 16.4909 19.6999 16.5518 19.6501 16.6L17.0901 19.0901H18.8502L20.9001 17.0901C20.9841 17.0067 21.0448 16.9029 21.0764 16.7889C21.108 16.6749 21.1093 16.5547 21.0801 16.44L19.6401 10.77C19.6092 10.6566 19.5498 10.553 19.4675 10.469C19.3852 10.385 19.2829 10.3233 19.1702 10.29L13.5501 8.70004C13.4362 8.67251 13.3172 8.67361 13.2038 8.70327C13.0903 8.73294 12.986 8.79022 12.9001 8.87002L8.70016 12.95C8.61621 13.0312 8.5553 13.1333 8.52368 13.2457C8.49206 13.3581 8.49083 13.477 8.52014 13.5901L9.91015 19.08L12.6101 19.1Z" fill="#FACB41"/>
</g>
<path d="M25.48 19.1H1.47998V20.33H25.48V19.1Z" fill="#FACB41"/>
<defs>
<clipPath id="clip0_83_531">
<rect width="24" height="19.94" fill="white" transform="translate(0 0.400024)"/>
</clipPath>
</defs>
</svg>
