<svg width="24" height="20" viewBox="0 0 24 20"  xmlns="http://www.w3.org/2000/svg">
<g clip-path="url(#clip0_2_3977)">
<path opacity="0.5" d="M21.44 8.66996C21.4107 8.54652 21.3488 8.43316 21.2609 8.34171C21.173 8.25026 21.0622 8.18404 20.94 8.14994L12.94 5.88999C12.8178 5.85563 12.6887 5.85417 12.5657 5.88578C12.4428 5.91739 12.3304 5.98094 12.2399 6.06998L6.23995 11.87C6.15076 11.9585 6.08561 12.0683 6.05062 12.1891C6.01562 12.3098 6.01196 12.4374 6.03997 12.56L7.59996 18.7099H12.6L11.28 18.3399C11.2113 18.3217 11.1489 18.285 11.0996 18.2339C11.0503 18.1828 11.0158 18.1192 11 18.05L9.82997 13.45C9.81477 13.3825 9.81688 13.3123 9.83611 13.2458C9.85534 13.1794 9.89106 13.1189 9.93996 13.07L13.34 9.75998C13.377 9.72048 13.422 9.68931 13.472 9.66861C13.522 9.64792 13.5759 9.63818 13.63 9.63999H13.73L18.2999 10.93C18.3668 10.9517 18.4272 10.9896 18.4761 11.0401C18.5249 11.0907 18.5606 11.1524 18.58 11.2199L19.7399 15.82C19.7572 15.8874 19.7561 15.9581 19.7367 16.0249C19.7174 16.0918 19.6805 16.1522 19.63 16.2L17.08 18.74H18.84L20.89 16.74L18.84 18.74H21.9599L23.2999 17.45C23.3916 17.3632 23.4585 17.2534 23.4937 17.1321C23.5288 17.0108 23.531 16.8824 23.5 16.76L21.44 8.66996Z" />
<path d="M24 18.71H0V19.94H24V18.71Z" />
<g opacity="0.7">
<path opacity="0.7" d="M6.73999 8.84998L0.73999 3.19C0.667113 3.11917 0.609199 3.03441 0.569641 2.9408C0.530083 2.84718 0.509705 2.74665 0.509705 2.64502C0.509705 2.54339 0.530083 2.44279 0.569641 2.34918C0.609199 2.25557 0.667113 2.17081 0.73999 2.09998L2.73999 0.209961C2.87537 0.0826964 3.05418 0.0119019 3.23999 0.0119019C3.4258 0.0119019 3.60461 0.0826964 3.73999 0.209961L9.26001 6.40997C9.38955 6.54419 9.46191 6.72344 9.46191 6.90997C9.46191 7.0965 9.38955 7.27576 9.26001 7.40997L7.79999 8.83002C7.73394 8.90465 7.65316 8.96475 7.56268 9.00653C7.47221 9.04831 7.37402 9.07081 7.27438 9.07269C7.17475 9.07457 7.07581 9.05579 6.98383 9.01746C6.89184 8.97912 6.8088 8.92206 6.73999 8.84998ZM1.94 2.63L7.23001 7.63L7.97 6.90997L3.14001 1.48999L1.94 2.63Z" />
</g>
<path d="M6.73999 8.84998L0.73999 3.19C0.667113 3.11917 0.609199 3.03441 0.569641 2.9408C0.530083 2.84718 0.509705 2.74665 0.509705 2.64502C0.509705 2.54339 0.530083 2.44279 0.569641 2.34918C0.609199 2.25557 0.667113 2.17081 0.73999 2.09998L2.73999 0.209961C2.87537 0.0826964 3.05418 0.0119019 3.23999 0.0119019C3.4258 0.0119019 3.60461 0.0826964 3.73999 0.209961L9.26001 6.40997C9.38955 6.54419 9.46191 6.72344 9.46191 6.90997C9.46191 7.0965 9.38955 7.27576 9.26001 7.40997L7.79999 8.83002C7.73394 8.90465 7.65316 8.96475 7.56268 9.00653C7.47221 9.04831 7.37402 9.07081 7.27438 9.07269C7.17475 9.07457 7.07581 9.05579 6.98383 9.01746C6.89184 8.97912 6.8088 8.92206 6.73999 8.84998ZM1.94 2.63L7.23001 7.63L7.97 6.90997L3.14001 1.48999L1.94 2.63Z" />
<path d="M12.61 18.74L11.29 18.37C11.2213 18.3517 11.1589 18.3151 11.1096 18.264C11.0602 18.2129 11.0258 18.1493 11.01 18.08L9.83995 13.48C9.82474 13.4125 9.82685 13.3423 9.84609 13.2758C9.86532 13.2094 9.90107 13.1489 9.94997 13.1L13.35 9.78998C13.387 9.75048 13.432 9.71936 13.482 9.69867C13.532 9.67797 13.5859 9.66818 13.64 9.66998H13.7399L18.31 10.96C18.3768 10.9817 18.4372 11.0196 18.486 11.0701C18.5349 11.1207 18.5705 11.1825 18.59 11.25L19.75 15.85C19.7672 15.9174 19.7661 15.9882 19.7467 16.055C19.7274 16.1218 19.6905 16.1822 19.64 16.23L17.08 18.74H18.84L20.89 16.74C20.9733 16.656 21.0343 16.5526 21.0675 16.4391C21.1006 16.3256 21.1049 16.2056 21.08 16.09L19.64 10.42C19.6108 10.3057 19.552 10.2011 19.4695 10.1168C19.3869 10.0325 19.2836 9.97156 19.17 9.94L13.54 8.34998H13.36C13.1847 8.35036 13.0163 8.41843 12.89 8.53998L8.69997 12.62C8.61602 12.7033 8.55526 12.8071 8.5237 12.9211C8.49213 13.0351 8.49082 13.1554 8.51994 13.27L9.90996 18.76L12.61 18.74Z" />
<path d="M12.54 7.48996L7.69997 12.19C7.59118 12.2953 7.5125 12.4278 7.47206 12.5737C7.43163 12.7196 7.43089 12.8737 7.46996 13.02L8.90996 18.7H7.64995L6.08995 12.55C6.06195 12.4274 6.06561 12.2998 6.1006 12.1791C6.1356 12.0583 6.20077 11.9485 6.28997 11.86L12.29 6.05997C12.3804 5.97093 12.4928 5.90738 12.6157 5.87577C12.7387 5.84416 12.8678 5.84562 12.9899 5.87998L20.9899 8.13999C21.1121 8.17409 21.223 8.24031 21.3109 8.33176C21.3989 8.42321 21.4607 8.53651 21.4899 8.65995L23.54 16.7199C23.571 16.8424 23.5688 16.9708 23.5337 17.0921C23.4985 17.2134 23.4316 17.3231 23.34 17.4099L21.9599 18.74H20.2399L21.89 17.14C21.9979 17.0341 22.076 16.9016 22.1164 16.7558C22.1567 16.6101 22.158 16.4563 22.12 16.31L20.44 9.73996C20.4025 9.59337 20.3274 9.45911 20.2222 9.35038C20.117 9.24165 19.9852 9.16222 19.84 9.11997L13.34 7.27994C13.1686 7.24288 12.9913 7.24288 12.82 7.27994C12.715 7.33294 12.6202 7.40405 12.54 7.48996Z" />
</g>
<defs>
<clipPath id="clip0_2_3977">
<rect width="24" height="19.94" />
</clipPath>
</defs>
</svg>
