<svg width="24" height="21" viewBox="0 0 24 21"  xmlns="http://www.w3.org/2000/svg">
<g clip-path="url(#clip0_2_3951)">
<g opacity="0.7">
<path opacity="0.7" d="M24 19.26H0V20.49H24V19.26Z" />
</g>
<path opacity="0.7" d="M6.8 12.99C7.17004 12.99 7.47 12.69 7.47 12.32C7.47 11.95 7.17004 11.65 6.8 11.65C6.42997 11.65 6.13 11.95 6.13 12.32C6.13 12.69 6.42997 12.99 6.8 12.99Z" />
<path opacity="0.7" d="M12 7.82C12.3811 7.82 12.69 7.51108 12.69 7.13C12.69 6.74893 12.3811 6.44 12 6.44C11.6189 6.44 11.31 6.74893 11.31 7.13C11.31 7.51108 11.6189 7.82 12 7.82Z" />
<path opacity="0.7" d="M17.2 12.98C17.5701 12.98 17.87 12.68 17.87 12.31C17.87 11.94 17.5701 11.64 17.2 11.64C16.83 11.64 16.53 11.94 16.53 12.31C16.53 12.68 16.83 12.98 17.2 12.98Z" />
<path opacity="0.7" d="M20.92 12.59C21.29 12.59 21.59 12.29 21.59 11.92C21.59 11.55 21.29 11.25 20.92 11.25C20.55 11.25 20.25 11.55 20.25 11.92C20.25 12.29 20.55 12.59 20.92 12.59Z" />
<path opacity="0.7" d="M12 1.44C12.3977 1.44 12.72 1.11765 12.72 0.72C12.72 0.322355 12.3977 0 12 0C11.6024 0 11.28 0.322355 11.28 0.72C11.28 1.11765 11.6024 1.44 12 1.44Z" />
<path opacity="0.7" d="M3.08998 12.59C3.46001 12.59 3.75998 12.29 3.75998 11.92C3.75998 11.55 3.46001 11.25 3.08998 11.25C2.71995 11.25 2.41998 11.55 2.41998 11.92C2.41998 12.29 2.71995 12.59 3.08998 12.59Z" />
<path opacity="0.7" d="M21.45 11.46L12.67 0.269989C12.5893 0.171616 12.4878 0.0923488 12.3728 0.0379333C12.2578 -0.0164821 12.1322 -0.0447083 12.005 -0.0447083C11.8778 -0.0447083 11.7521 -0.0164821 11.6371 0.0379333C11.5222 0.0923488 11.4207 0.171616 11.34 0.269989L2.56 11.47C2.47712 11.5831 2.43243 11.7198 2.43243 11.86C2.43243 12.0003 2.47712 12.1368 2.56 12.25L7.16 19.25H8.62L3.79001 11.95L11.93 1.56998L12 1.49002L12.07 1.56998L20.2 11.95L15.33 19.25H16.84L21.43 12.3C21.5253 12.1817 21.579 12.0353 21.5826 11.8834C21.5862 11.7315 21.5396 11.5827 21.45 11.46V11.46Z" />
<path opacity="0.7" d="M7.49999 12.46L7.54998 12.41L11.97 7.93997L12.04 7.87997L12.1 7.93997L16.52 12.41L16.57 12.46L13.17 19.26H14.59L17.87 12.6C17.9284 12.4769 17.9473 12.3387 17.924 12.2044C17.9007 12.0701 17.8364 11.9463 17.74 11.85L12.62 6.67001C12.4709 6.52641 12.272 6.44614 12.065 6.44614C11.858 6.44614 11.6591 6.52641 11.51 6.67001L6.33999 11.83C6.24303 11.9282 6.17932 12.0544 6.1578 12.1907C6.13627 12.327 6.15802 12.4667 6.21999 12.59L9.48998 19.25H10.86L7.49999 12.46Z" />
</g>
<defs>
<clipPath id="clip0_2_3951">
<rect width="24" height="20.49" />
</clipPath>
</defs>
</svg>
