<svg width="24" height="21" viewBox="0 0 24 21" xmlns="http://www.w3.org/2000/svg">
<g clip-path="url(#clip0_2_4031)">
<path d="M20.77 3.04999L16.99 0.159973C16.8592 0.0561402 16.6971 -0.000366211 16.53 -0.000366211C16.363 -0.000366211 16.2008 0.0561402 16.07 0.159973L6.36002 8.42999C6.23427 8.54238 6.13899 8.68477 6.08304 8.84387C6.02709 9.00298 6.01228 9.17361 6.04001 9.33997L6.21002 10.25C6.52726 11.8077 6.41314 13.4224 5.88 14.92L5.77002 15.31L2.90002 19.37H7.84003L8.94003 17.74L9.30002 17.55C10.9398 16.65 12.7544 16.1145 14.62 15.98C14.8004 15.9769 14.9767 15.9251 15.13 15.83C15.2706 15.7363 15.3816 15.6045 15.45 15.45L21 3.92999C21.0708 3.77959 21.0865 3.60911 21.0444 3.4483C21.0024 3.2875 20.9053 3.14655 20.77 3.04999ZM13.55 14.93C11.9921 15.1626 10.4804 15.6384 9.07001 16.34L7.22003 14.91C7.6037 13.3467 7.69186 11.7256 7.48001 10.13C9.76419 11.3573 11.8234 12.9634 13.57 14.88L13.55 14.93ZM14.71 14.28C12.7632 12.0705 10.4193 10.2457 7.80002 8.89996L16.63 1.51001L19.63 3.77997L14.71 14.28Z" />
<path opacity="0.7" d="M16.57 1.46C16.9731 1.46 17.3 1.13317 17.3 0.73C17.3 0.326832 16.9731 0 16.57 0C16.1668 0 15.84 0.326832 15.84 0.73C15.84 1.13317 16.1668 1.46 16.57 1.46Z" />
<path opacity="0.7" d="M20.34 4.34C20.7432 4.34 21.07 4.01317 21.07 3.61C21.07 3.20684 20.7432 2.88 20.34 2.88C19.9368 2.88 19.61 3.20684 19.61 3.61C19.61 4.01317 19.9368 4.34 20.34 4.34Z" />
<path opacity="0.7" d="M6.95005 10.05C7.4471 10.05 7.85005 9.64706 7.85005 9.15C7.85005 8.65294 7.4471 8.25 6.95005 8.25C6.45299 8.25 6.05005 8.65294 6.05005 9.15C6.05005 9.64706 6.45299 10.05 6.95005 10.05Z" />
<path opacity="0.7" d="M14.66 16C15.1516 16 15.55 15.6015 15.55 15.11C15.55 14.6185 15.1516 14.22 14.66 14.22C14.1685 14.22 13.77 14.6185 13.77 15.11C13.77 15.6015 14.1685 16 14.66 16Z" />
<path d="M24 19.39H0V20.62H24V19.39Z" />
</g>
<defs>
<clipPath id="clip0_2_4031">
<rect width="24" height="20.62" />
</clipPath>
</defs>
</svg>
