<svg width="24" height="20" viewBox="0 0 24 20" xmlns="http://www.w3.org/2000/svg">
<g clip-path="url(#clip0_2_3990)">
<g opacity="0.7">
<path opacity="0.7" d="M24 18.09H0V19.32H24V18.09Z" />
</g>
<g opacity="0.7">
<path opacity="0.7" d="M16.13 0H15.01V2.58H16.13V0Z" />
</g>
<g opacity="0.7">
<path opacity="0.7" d="M8.97998 0H7.85999V2.58H8.97998V0Z" />
</g>
<g opacity="0.7">
<path opacity="0.7" d="M12.5599 0H11.4399V2.58H12.5599V0Z" />
</g>
<g opacity="0.7">
<path opacity="0.7" d="M20.3 18.16L18.98 1.85H4.98004L3.68005 18.16H2.58008L3.88007 1.29C3.89277 1.13264 3.96502 0.986071 4.08209 0.880152C4.19916 0.774233 4.35223 0.716937 4.51007 0.719996H19.41C19.5683 0.719046 19.7213 0.776773 19.8395 0.882044C19.9577 0.987315 20.0327 1.13267 20.05 1.29L21.4301 18.15L20.3 18.16Z" />
</g>
<path opacity="0.7" d="M4.50999 2.03001C4.86897 2.03001 5.15999 1.739 5.15999 1.38001C5.15999 1.02103 4.86897 0.730011 4.50999 0.730011C4.151 0.730011 3.85999 1.02103 3.85999 1.38001C3.85999 1.739 4.151 2.03001 4.50999 2.03001Z" />
<path opacity="0.7" d="M19.4 2.03001C19.759 2.03001 20.05 1.739 20.05 1.38001C20.05 1.02103 19.759 0.730011 19.4 0.730011C19.041 0.730011 18.75 1.02103 18.75 1.38001C18.75 1.739 19.041 2.03001 19.4 2.03001Z" />
<g opacity="0.7">
<path opacity="0.7" d="M10.52 12.37L7.85999 9.70999L8.64996 8.92001L11 11.27L15.35 6.92001L16.15 7.70999L11.49 12.37C11.4267 12.4344 11.3512 12.4856 11.2679 12.5205C11.1847 12.5554 11.0953 12.5734 11.005 12.5734C10.9147 12.5734 10.8253 12.5554 10.7421 12.5205C10.6588 12.4856 10.5833 12.4344 10.52 12.37Z" />
</g>
<path opacity="0.7" d="M11 12.59C11.3645 12.59 11.66 12.2945 11.66 11.93C11.66 11.5655 11.3645 11.27 11 11.27C10.6355 11.27 10.34 11.5655 10.34 11.93C10.34 12.2945 10.6355 12.59 11 12.59Z" />
</g>
<defs>
<clipPath id="clip0_2_3990">
<rect width="24" height="19.32"/>
</clipPath>
</defs>
</svg>
