<svg width="48" height="48" viewBox="0 0 48 48" fill="none" xmlns="http://www.w3.org/2000/svg">
<g clip-path="url(#clip0_2_4030)">
<path d="M32.77 16.05L28.99 13.16C28.8592 13.0561 28.6971 12.9996 28.53 12.9996C28.363 12.9996 28.2008 13.0561 28.07 13.16L18.36 21.43C18.2343 21.5424 18.139 21.6848 18.083 21.8439C18.0271 22.003 18.0123 22.1736 18.04 22.34L18.21 23.25C18.5273 24.8077 18.4131 26.4224 17.88 27.92L17.77 28.31L14.9 32.37H19.84L20.94 30.74L21.3 30.55C22.9398 29.65 24.7544 29.1145 26.62 28.98C26.8004 28.9769 26.9767 28.9251 27.13 28.83C27.2706 28.7363 27.3816 28.6045 27.45 28.45L33 16.93C33.0708 16.7796 33.0865 16.6091 33.0444 16.4483C33.0024 16.2875 32.9053 16.1466 32.77 16.05ZM25.55 27.93C23.9921 28.1626 22.4804 28.6384 21.07 29.34L19.22 27.91C19.6037 26.3467 19.6919 24.7256 19.48 23.13C21.7642 24.3573 23.8234 25.9634 25.57 27.88L25.55 27.93ZM26.71 27.28C24.7632 25.0705 22.4193 23.2457 19.8 21.9L28.63 14.51L31.63 16.78L26.71 27.28Z" fill="white"/>
<path opacity="0.7" d="M28.57 14.46C28.9732 14.46 29.3 14.1332 29.3 13.73C29.3 13.3268 28.9732 13 28.57 13C28.1669 13 27.84 13.3268 27.84 13.73C27.84 14.1332 28.1669 14.46 28.57 14.46Z" fill="white"/>
<path opacity="0.7" d="M32.34 17.34C32.7432 17.34 33.07 17.0132 33.07 16.61C33.07 16.2068 32.7432 15.88 32.34 15.88C31.9368 15.88 31.61 16.2068 31.61 16.61C31.61 17.0132 31.9368 17.34 32.34 17.34Z" fill="white"/>
<path opacity="0.7" d="M18.95 23.05C19.447 23.05 19.85 22.6471 19.85 22.15C19.85 21.6529 19.447 21.25 18.95 21.25C18.4529 21.25 18.05 21.6529 18.05 22.15C18.05 22.6471 18.4529 23.05 18.95 23.05Z" fill="white"/>
<path opacity="0.7" d="M26.66 29C27.1516 29 27.55 28.6015 27.55 28.11C27.55 27.6185 27.1516 27.22 26.66 27.22C26.1685 27.22 25.77 27.6185 25.77 28.11C25.77 28.6015 26.1685 29 26.66 29Z" fill="white"/>
<path d="M36 32.39H12V33.62H36V32.39Z" fill="white"/>
</g>
<defs>
<clipPath id="clip0_2_4030">
<rect width="24" height="20.62" fill="white" transform="translate(12 13)"/>
</clipPath>
</defs>
</svg>
