<svg width="22" height="23" viewBox="0 0 22 23" xmlns="http://www.w3.org/2000/svg">
<g clip-path="url(#clip0_2_3451)">
<path d="M21.8553 18.05L19.9654 15.05L17.3154 2.14003C17.2833 1.98027 17.1971 1.83641 17.0715 1.73262C16.9459 1.62883 16.7883 1.57142 16.6253 1.57003H13.2854L12.9054 0.420001C12.8605 0.283886 12.7731 0.165761 12.6561 0.0829651C12.5391 0.000169329 12.3986 -0.0429546 12.2553 -0.0400208H10.3054C10.1638 -0.0408149 10.0256 0.00331172 9.91061 0.0859558C9.79563 0.1686 9.70975 0.285534 9.66537 0.420001L9.28537 1.57003H5.95541C5.78932 1.56956 5.62823 1.62732 5.50033 1.73329C5.37244 1.83927 5.28575 1.98669 5.25534 2.14998L2.60531 15.05L0.715422 17.99C0.633379 18.1196 0.587475 18.2688 0.582487 18.4221C0.577499 18.5754 0.613535 18.7272 0.686979 18.8618C0.760424 18.9965 0.868504 19.109 1.00009 19.1878C1.13168 19.2666 1.28202 19.3088 1.43539 19.31H7.15536L8.54538 21.77C8.59842 21.8639 8.67542 21.9421 8.76852 21.9965C8.86163 22.051 8.96755 22.0798 9.07541 22.08H13.4154C13.5236 22.0805 13.6301 22.0533 13.7247 22.0008C13.8193 21.9482 13.8987 21.8722 13.9554 21.78L15.4254 19.27H21.1454C21.2856 19.2635 21.422 19.222 21.5421 19.1493C21.6622 19.0765 21.7621 18.9748 21.8327 18.8534C21.9034 18.7321 21.9424 18.595 21.9464 18.4546C21.9503 18.3143 21.919 18.1751 21.8553 18.05ZM13.1353 20.9L13.0153 20.97H9.49533L9.37533 20.9L8.52536 19.38H14.0454L13.1353 20.9ZM10.7254 1.25002H11.8454L11.9354 1.51998H10.6654L10.7254 1.25002ZM16.1754 2.86L18.6053 14.7H3.96542L6.38534 2.86H16.1754ZM19.0354 15.95L20.4054 18.1H2.16537L3.53537 15.95H19.0354Z"/>
<path opacity="0.7" d="M21.1454 19.36C21.6149 19.36 21.9954 18.9794 21.9954 18.51C21.9954 18.0406 21.6149 17.66 21.1454 17.66C20.676 17.66 20.2954 18.0406 20.2954 18.51C20.2954 18.9794 20.676 19.36 21.1454 19.36Z" />
<path opacity="0.7" d="M1.43545 19.36C1.90489 19.36 2.28545 18.9794 2.28545 18.51C2.28545 18.0406 1.90489 17.66 1.43545 17.66C0.966007 17.66 0.585449 18.0406 0.585449 18.51C0.585449 18.9794 0.966007 19.36 1.43545 19.36Z" />
<path opacity="0.7" d="M5.94548 3.02C6.33208 3.02 6.64548 2.70659 6.64548 2.32C6.64548 1.9334 6.33208 1.62 5.94548 1.62C5.55888 1.62 5.24548 1.9334 5.24548 2.32C5.24548 2.70659 5.55888 3.02 5.94548 3.02Z" />
<path opacity="0.7" d="M16.6254 3.02C17.012 3.02 17.3254 2.70659 17.3254 2.32C17.3254 1.9334 17.012 1.62 16.6254 1.62C16.2388 1.62 15.9254 1.9334 15.9254 2.32C15.9254 2.70659 16.2388 3.02 16.6254 3.02Z" />
<path opacity="0.7" d="M19.2054 15.98C19.6307 15.98 19.9754 15.6353 19.9754 15.21C19.9754 14.7847 19.6307 14.44 19.2054 14.44C18.7802 14.44 18.4354 14.7847 18.4354 15.21C18.4354 15.6353 18.7802 15.98 19.2054 15.98Z" />
<path opacity="0.7" d="M3.37547 15.98C3.80073 15.98 4.14547 15.6353 4.14547 15.21C4.14547 14.7847 3.80073 14.44 3.37547 14.44C2.95021 14.44 2.60547 14.7847 2.60547 15.21C2.60547 15.6353 2.95021 15.98 3.37547 15.98Z" />
<path opacity="0.7" d="M9.11544 22.13C9.47995 22.13 9.77544 21.8345 9.77544 21.47C9.77544 21.1055 9.47995 20.81 9.11544 20.81C8.75094 20.81 8.45544 21.1055 8.45544 21.47C8.45544 21.8345 8.75094 22.13 9.11544 22.13Z" />
<path opacity="0.7" d="M7.84539 19.73C8.29826 19.73 8.66539 19.3629 8.66539 18.91C8.66539 18.4571 8.29826 18.09 7.84539 18.09C7.39252 18.09 7.02539 18.4571 7.02539 18.91C7.02539 19.3629 7.39252 19.73 7.84539 19.73Z" />
<path opacity="0.7" d="M14.7354 19.73C15.1883 19.73 15.5554 19.3629 15.5554 18.91C15.5554 18.4571 15.1883 18.09 14.7354 18.09C14.2825 18.09 13.9154 18.4571 13.9154 18.91C13.9154 19.3629 14.2825 19.73 14.7354 19.73Z" />
<path opacity="0.7" d="M13.4155 22.17C13.78 22.17 14.0755 21.8745 14.0755 21.51C14.0755 21.1455 13.78 20.85 13.4155 20.85C13.051 20.85 12.7555 21.1455 12.7555 21.51C12.7555 21.8745 13.051 22.17 13.4155 22.17Z" />
</g>
<defs>
<clipPath id="clip0_2_3451">
<rect width="21.41" height="22.17"  transform="translate(0.585449)"/>
</clipPath>
</defs>
</svg>
