<svg width="23" height="22" viewBox="0 0 23 22" xmlns="http://www.w3.org/2000/svg">
<g clip-path="url(#clip0_2_3416)">
<g opacity="0.7">
<path opacity="0.7" d="M19.0095 21.7837L13.7554 15.9829C13.6294 15.8579 13.5587 15.6889 13.5587 15.5128C13.5587 15.3367 13.6294 15.1678 13.7554 15.0427L15.1692 13.6889C15.288 13.5785 15.4453 13.517 15.6087 13.517C15.7721 13.517 15.9293 13.5785 16.0481 13.6889L21.8466 19.0666C21.9101 19.1279 21.9606 19.2011 21.9951 19.2818C22.0296 19.3625 22.0473 19.4492 22.0473 19.5367C22.0473 19.6243 22.0296 19.711 21.9951 19.7917C21.9606 19.8724 21.9101 19.9455 21.8466 20.0068L19.936 21.8026C19.8061 21.9117 19.6399 21.97 19.4691 21.9666C19.2983 21.9631 19.1348 21.898 19.0095 21.7837ZM14.9113 15.5598L19.554 20.6838L20.7289 19.5555L15.6469 14.8547L14.9113 15.5598Z" />
</g>
<g opacity="0.7">
<path opacity="0.7" d="M16.5447 10.8686L10.8131 16.3215C10.7261 16.4045 10.6187 16.4637 10.5015 16.4934C10.3843 16.523 10.2612 16.5221 10.1444 16.4908L2.50218 14.366C2.38503 14.3327 2.27864 14.2703 2.19327 14.1846C2.10791 14.099 2.04645 13.993 2.01498 13.8771L0.104424 6.29935C0.0747757 6.18426 0.0768461 6.06345 0.110429 5.94942C0.144013 5.83539 0.207906 5.73226 0.295491 5.65063L6.02715 0.197588C6.11356 0.113873 6.22095 0.0541244 6.33838 0.0244049C6.45581 -0.00531451 6.57912 -0.00394125 6.69585 0.0283644L14.3381 2.15316C14.4573 2.18545 14.5654 2.24875 14.6512 2.33644C14.7369 2.42413 14.7971 2.53299 14.8253 2.65148L16.7358 10.2198C16.7655 10.3349 16.7634 10.4557 16.7298 10.5697C16.6962 10.6837 16.6323 10.7869 16.5447 10.8686ZM10.4788 14.8925L15.1118 10.5019C15.1985 10.4178 15.261 10.3126 15.2929 10.1969C15.3248 10.0813 15.325 9.95944 15.2933 9.84375L13.7171 3.69505C13.6856 3.57913 13.6242 3.4732 13.5389 3.38754C13.4535 3.30187 13.3471 3.23937 13.23 3.20615L7.03017 1.48562C6.91338 1.45427 6.7903 1.45342 6.67305 1.48309C6.55581 1.51277 6.44847 1.57199 6.36153 1.6549L1.74753 6.07366C1.65996 6.15731 1.59623 6.26213 1.5627 6.37762C1.52917 6.49311 1.52701 6.61523 1.55646 6.73179L3.14219 12.8805C3.17075 12.9953 3.23021 13.1004 3.31425 13.1847C3.3983 13.2691 3.50382 13.3296 3.61983 13.36L9.81962 15.0899C9.93743 15.117 10.0604 15.1129 10.1761 15.0783C10.2918 15.0436 10.3962 14.9795 10.4788 14.8925Z" />
</g>
<g opacity="0.7">
<path opacity="0.7" d="M7.03979 2.29405C7.09988 2.28423 7.16121 2.28423 7.2213 2.29405L12.5899 3.78889C12.701 3.81879 12.802 3.87722 12.8826 3.95817C12.9631 4.03912 13.0204 4.13967 13.0485 4.24956L14.4146 9.57096C14.4424 9.67874 14.4411 9.79179 14.411 9.89897C14.3808 10.0061 14.3228 10.1037 14.2426 10.182L10.24 14.0085C10.1815 14.0668 10.1114 14.1128 10.0342 14.1435C9.95704 14.1742 9.87424 14.1891 9.79099 14.1872C9.73406 14.1965 9.67598 14.1965 9.61905 14.1872L4.24084 12.6923C4.13314 12.661 4.03535 12.6031 3.95678 12.5241C3.8782 12.4451 3.82146 12.3477 3.79189 12.241L2.41629 6.91026C2.38763 6.80176 2.38935 6.68768 2.4213 6.58008C2.45326 6.47247 2.51427 6.37541 2.59779 6.29918L6.6004 2.46327C6.7191 2.35301 6.87658 2.29235 7.03979 2.29405ZM9.53305 12.9086C9.61851 12.9055 9.70001 12.8722 9.76236 12.8146L13.0103 9.7026C13.052 9.66355 13.0822 9.61395 13.0973 9.55925C13.1125 9.50456 13.1121 9.44684 13.0963 9.39233L11.9881 5.06751C11.9733 5.01342 11.9444 4.96416 11.9042 4.92456C11.8639 4.88496 11.8138 4.85642 11.7589 4.84187L7.39324 3.61966H7.32636C7.28111 3.61324 7.23494 3.61757 7.19174 3.63229C7.14853 3.64701 7.10958 3.67172 7.07804 3.7043L3.83008 6.81627C3.7875 6.8549 3.75621 6.90403 3.73941 6.95858C3.72262 7.01313 3.72095 7.07108 3.73458 7.12648L4.85223 11.4513C4.8661 11.5058 4.89476 11.5556 4.93514 11.5953C4.97552 11.6351 5.02609 11.6633 5.08149 11.6769L9.43754 12.8897L9.53305 12.9086Z" />
</g>
<g opacity="0.7">
<path opacity="0.7" d="M10.3546 16.5C10.7661 16.5 11.0997 16.1717 11.0997 15.7667C11.0997 15.3617 10.7661 15.0333 10.3546 15.0333C9.9431 15.0333 9.6095 15.3617 9.6095 15.7667C9.6095 16.1717 9.9431 16.5 10.3546 16.5Z" />
</g>
<g opacity="0.7">
<path opacity="0.7" d="M15.9908 11.1128C16.4024 11.1128 16.736 10.7845 16.736 10.3795C16.736 9.97447 16.4024 9.64615 15.9908 9.64615C15.5793 9.64615 15.2457 9.97447 15.2457 10.3795C15.2457 10.7845 15.5793 11.1128 15.9908 11.1128Z" />
</g>
<g opacity="0.7">
<path opacity="0.7" d="M15.6565 14.8359C16.0258 14.8359 16.3252 14.5412 16.3252 14.1778C16.3252 13.8143 16.0258 13.5197 15.6565 13.5197C15.2872 13.5197 14.9878 13.8143 14.9878 14.1778C14.9878 14.5412 15.2872 14.8359 15.6565 14.8359Z" />
</g>
<g opacity="0.7">
<path opacity="0.7" d="M14.2427 16.1897C14.612 16.1897 14.9114 15.8951 14.9114 15.5316C14.9114 15.1682 14.612 14.8735 14.2427 14.8735C13.8734 14.8735 13.574 15.1682 13.574 15.5316C13.574 15.8951 13.8734 16.1897 14.2427 16.1897Z" />
</g>
<g opacity="0.7">
<path opacity="0.7" d="M0.840177 6.85384C1.24642 6.85384 1.57574 6.52972 1.57574 6.12991C1.57574 5.73009 1.24642 5.40598 0.840177 5.40598C0.433937 5.40598 0.104614 5.73009 0.104614 6.12991C0.104614 6.52972 0.433937 6.85384 0.840177 6.85384Z" />
</g>
<g opacity="0.7">
<path opacity="0.7" d="M2.76977 14.394C3.18129 14.394 3.51489 14.0657 3.51489 13.6607C3.51489 13.2557 3.18129 12.9273 2.76977 12.9273C2.35826 12.9273 2.02466 13.2557 2.02466 13.6607C2.02466 14.0657 2.35826 14.394 2.76977 14.394Z" />
</g>
<g opacity="0.7">
<path opacity="0.7" d="M14.0707 3.59145C14.4822 3.59145 14.8158 3.26313 14.8158 2.85812C14.8158 2.45311 14.4822 2.12479 14.0707 2.12479C13.6592 2.12479 13.3256 2.45311 13.3256 2.85812C13.3256 3.26313 13.6592 3.59145 14.0707 3.59145Z" />
</g>
<g opacity="0.7">
<path opacity="0.7" d="M6.43807 1.40085C6.82321 1.40085 7.13543 1.09357 7.13543 0.714523C7.13543 0.335476 6.82321 0.0281982 6.43807 0.0281982C6.05294 0.0281982 5.74072 0.335476 5.74072 0.714523C5.74072 1.09357 6.05294 1.40085 6.43807 1.40085Z" />
</g>
</g>
<defs>
<clipPath id="clip0_2_3416">
<rect width="22" height="22" transform="translate(0.0854492)"/>
</clipPath>
</defs>
</svg>
