<svg width="128" height="91" viewBox="0 0 128 91" fill="none" xmlns="http://www.w3.org/2000/svg">
<g clip-path="url(#clip0_163_515)">
<mask id="mask0_163_515" style="mask-type:alpha" maskUnits="userSpaceOnUse" x="0" y="0" width="128" height="88">
<rect x="0.822754" width="126.313" height="87.9949" fill="#C4C4C4"/>
</mask>
<g mask="url(#mask0_163_515)">
<path d="M40.6378 77.85L43.6378 79.58C43.8978 79.7 43.8478 79.66 43.9978 79.91C44.1478 80.16 45.4377 80.12 45.4177 80.4C45.2777 82.81 43.6977 84.71 43.5477 87.12C43.5477 87.36 43.3877 88.04 43.5477 88.21C43.7077 88.38 43.7777 88.1 43.9377 88.12C63.6209 90.9983 83.5887 91.3813 103.368 89.26C103.708 83.7 101.278 77.1301 101.448 71.5601C101.448 70.0101 100.798 67.23 99.2178 67.23C98.1777 67.131 97.1815 66.7622 96.3277 66.16C95.7577 65.65 95.5877 64.54 96.3277 64.24C94.5951 63.7696 92.8125 63.5077 91.0178 63.46C88.2581 63.2118 85.4838 63.1683 82.7178 63.33C75.6378 63.91 68.9478 67.16 61.8578 67.48C57.0278 67.7 52.2577 66.56 47.5677 65.48L51.8678 70.42C51.6978 70.22 50.5278 70.22 50.2478 70.17C49.6078 70.06 48.9677 69.94 48.3377 69.8C47.1177 69.54 45.9178 69.23 44.7278 68.87C43.5378 68.51 39.9778 66.33 38.8678 65.87C37.7578 65.41 38.1477 66.18 36.9577 66.08C36.5658 66.0437 36.1707 66.0921 35.7991 66.2217C35.4274 66.3513 35.088 66.5591 34.8036 66.8312C34.5192 67.1032 34.2965 67.4332 34.1506 67.7987C34.0047 68.1642 33.9389 68.5568 33.9577 68.9499C34.1677 70.7599 33.7677 70.7499 34.9577 72.0699C36.5877 73.8099 38.4678 76.87 40.6378 77.85Z" fill="white"/>
<path d="M28.4978 57.5601L29.2578 54.45C28.4678 54.61 27.7177 54.89 26.9377 55.09C25.4777 55.47 25.9978 58.67 24.5078 58.95C23.0178 59.23 20.3478 59.95 18.8578 59.75C17.7741 59.4573 16.7323 59.0271 15.7578 58.47C14.622 56.9546 13.7374 55.2664 13.1378 53.47C12.7878 50.15 14.8777 46.8901 15.6977 43.6401C16.5177 40.3901 18.6377 37.64 20.5777 34.99C21.3251 33.8533 22.2463 32.841 23.3077 31.99C24.5985 30.942 26.0598 30.1234 27.6278 29.57C28.5138 29.233 29.4746 29.1432 30.4077 29.3101C30.8994 29.4727 31.3451 29.7503 31.7077 30.12C32.4077 30.93 33.3577 30.35 33.7077 31.38C34.0577 32.41 34.9977 33.0801 35.5577 34.0301C35.8677 34.5801 34.6877 37.72 35.0677 38.23C36.0677 39.51 36.9078 37.8201 37.5178 39.3001C38.6025 41.3629 39.7976 43.3658 41.0977 45.3001C41.7962 46.2177 42.4342 47.1797 43.0078 48.1801C43.5478 49.5801 42.0077 54.6201 40.0677 55.1801C39.3177 55.4101 39.9978 57.85 39.2478 57.72C37.9978 57.52 35.9377 57.7201 34.6777 57.5201C32.6253 57.2553 30.5466 57.2688 28.4978 57.5601V57.5601Z" fill="white"/>
<path d="M94.4879 55.5C94.3779 57.66 94.358 60.09 95.878 61.63C97.038 62.8 97.8779 67.8299 99.2979 67.0799C100.718 66.3299 104.538 61.33 105.298 60.01C106.418 57.91 107.558 54.82 108.488 52.63C109.418 50.44 109.028 48.24 109.348 45.9C110.008 41.13 107.188 33.25 101.688 32.85C95.9379 32.42 95.3879 39.52 95.1579 43.85L94.4879 55.5Z" fill="white"/>
<path d="M92.0877 22.6899C93.1879 21.4853 94.559 20.5598 96.0877 19.99L105.608 15.5C106.404 15.0191 107.331 14.8021 108.258 14.88C108.969 15.0584 109.599 15.4705 110.048 16.05C111.247 17.5568 111.902 19.4243 111.908 21.35C111.912 23.2577 111.701 25.1599 111.278 27.02C111.097 28.2379 110.761 29.4277 110.278 30.5601C109.408 32.4301 107.798 33.8501 106.718 35.5601C105.178 38.0301 104.718 41.01 104.378 43.89C104.378 43.59 102.708 42.22 102.458 41.97L100.458 39.88C99.091 38.4867 97.7576 37.07 96.4576 35.63C95.1476 34.19 93.8677 32.7199 92.6477 31.1999C91.8577 30.1999 90.7277 29.2 90.6477 27.84C90.5612 26.0131 91.0661 24.207 92.0877 22.6899Z" fill="white"/>
<path d="M111.848 19.3499C111.328 16.9999 109.568 13.8799 106.708 14.6999C105.971 14.9482 105.255 15.2559 104.568 15.62L102.028 16.8199L97.3779 19.02C95.8765 19.617 94.4392 20.3641 93.0879 21.25C91.9608 22.134 91.1248 23.3357 90.6879 24.6999C90.5679 25.0599 91.138 25.1799 91.268 24.8299C91.6746 23.5457 92.4803 22.4247 93.5679 21.63C94.6813 20.9174 95.852 20.2986 97.0679 19.78L105.418 15.8399C106.044 15.4995 106.718 15.2567 107.418 15.12C107.805 15.0728 108.197 15.119 108.563 15.2547C108.928 15.3904 109.256 15.6117 109.518 15.9C110.431 16.8473 111.058 18.0325 111.328 19.3199C111.998 22.1099 111.328 25.0699 110.798 27.8299C110.521 29.3501 109.914 30.791 109.018 32.05C108.188 33.19 107.218 34.2399 106.458 35.4399C106.441 35.5054 106.441 35.5744 106.458 35.64C106.443 35.6991 106.443 35.7608 106.458 35.8199C107.604 37.9066 108.35 40.1892 108.658 42.55C109.49 48.2349 108.35 54.0333 105.428 58.9799C102.83 63.2859 99.4687 67.0816 95.5079 70.18C95.1879 70.43 95.6379 70.87 95.9479 70.62C102.088 65.62 107.458 59.1199 109.078 51.1999C109.991 46.7667 109.645 42.1665 108.078 37.92C107.814 37.1153 107.479 36.3355 107.078 35.5899C107.888 34.3399 108.908 33.27 109.748 32.04C110.521 30.8951 111.055 29.606 111.318 28.25C111.858 25.4 112.498 22.2499 111.848 19.3499Z" fill="#010001"/>
<path d="M103.948 82.63L103.798 85.57L104.648 85.02L105.518 82.78L104.928 82.03L104.028 81.54L103.948 82.63Z" fill="white"/>
<path d="M105.088 82.65C105.04 83.812 104.541 84.9096 103.698 85.71C103.672 85.7389 103.652 85.7726 103.64 85.8091C103.627 85.8456 103.622 85.8842 103.624 85.9227C103.626 85.9613 103.636 85.9989 103.653 86.0336C103.67 86.0683 103.694 86.0994 103.723 86.125C103.751 86.1506 103.785 86.1703 103.822 86.1829C103.858 86.1955 103.897 86.2008 103.935 86.1985C103.974 86.1962 104.011 86.1862 104.046 86.1693C104.081 86.1524 104.112 86.1289 104.138 86.1C105.09 85.1883 105.643 83.9376 105.678 82.62C105.665 82.5511 105.628 82.4888 105.575 82.444C105.521 82.3991 105.453 82.3745 105.383 82.3745C105.313 82.3745 105.245 82.3991 105.191 82.444C105.137 82.4888 105.1 82.5511 105.088 82.62V82.65Z" fill="#010001"/>
<path d="M34.0879 70.69C35.0676 73.0948 36.5987 75.2357 38.5579 76.94C39.6481 77.8024 40.8088 78.5718 42.0278 79.24C43.0112 79.911 44.1147 80.3864 45.2778 80.64C45.6578 80.71 45.9379 80.1201 45.5579 80.0501C44.4065 79.7999 43.3114 79.3387 42.3279 78.69C41.1776 78.0498 40.0748 77.328 39.0278 76.53C37.0823 74.8605 35.5664 72.7478 34.6079 70.37C34.4379 70 33.9179 70.37 34.0879 70.69Z" fill="#010001"/>
<path d="M38.7579 66.0699C41.9268 68.0543 45.4361 69.4344 49.1079 70.14C49.4879 70.22 49.6479 69.64 49.2679 69.56C45.646 68.8715 42.1836 67.5151 39.0578 65.56C38.7278 65.35 38.4279 65.8699 38.7579 66.0799V66.0699Z" fill="#010001"/>
<path d="M45.6574 59.4499C45.6537 59.1862 45.5459 58.9346 45.3575 58.75C45.1487 58.5692 44.8836 58.4667 44.6075 58.46C44.4283 58.4355 44.2466 58.4355 44.0675 58.46C43.8931 58.496 43.7248 58.5566 43.5675 58.64C43.3995 58.7282 43.2516 58.8501 43.1329 58.998C43.0142 59.146 42.9272 59.3169 42.8775 59.5C42.8051 59.8294 42.8051 60.1706 42.8775 60.5C42.9228 60.6561 43.0267 60.7887 43.1674 60.87C43.3131 60.9525 43.4844 60.9774 43.6475 60.9399C43.8032 60.8937 43.9355 60.7901 44.0175 60.65L44.0875 60.5C44.1173 60.392 44.1173 60.278 44.0875 60.17V60.17V60.34C44.0675 60.1705 44.0675 59.9994 44.0875 59.83V60C44.1035 59.9007 44.1303 59.8034 44.1674 59.71L44.1075 59.85C44.13 59.7958 44.1603 59.7453 44.1975 59.6999L44.0975 59.8199C44.1392 59.7715 44.1862 59.7279 44.2375 59.6899L44.1075 59.78C44.1673 59.7375 44.2308 59.7007 44.2974 59.67L44.1475 59.74C44.2697 59.6915 44.3972 59.658 44.5274 59.64H44.3575C44.4773 59.63 44.5977 59.63 44.7175 59.64H44.5474H44.6875L44.5374 59.5699L44.6375 59.63L44.5075 59.53L44.5675 59.6L44.4775 59.47V59.55L44.4174 59.4C44.4231 59.4264 44.4231 59.4536 44.4174 59.48V59.3101C44.4201 59.4754 44.4877 59.633 44.6055 59.749C44.7234 59.865 44.8821 59.9301 45.0474 59.9301C45.2119 59.9301 45.3696 59.8647 45.4859 59.7484C45.6022 59.6321 45.6674 59.4745 45.6674 59.3101L45.6574 59.4499Z" fill="#010001"/>
<path d="M96.0879 26.1199C92.8179 25.2499 89.0879 23.7299 85.6879 23.4699C80.0179 23.0299 74.6878 22.8699 69.1578 24.6099C61.6978 26.9699 55.0178 32.3599 52.0578 39.6099C50.7378 42.8399 50.1178 46.4499 48.0578 49.2299C46.8978 50.7699 45.3279 51.9799 44.2579 53.5799C41.3779 57.8799 42.8879 64.0099 46.3879 67.8299C49.8879 71.6499 54.8978 73.66 59.7778 75.39C67.6978 78.19 79.7778 78.3899 87.6778 75.5099C89.5988 74.7778 91.4469 73.8672 93.1979 72.79C95.4941 71.5996 97.576 70.0348 99.3579 68.16" fill="white"/>
<path d="M67.5276 27.25C67.2167 26.4034 67.1172 25.4937 67.2377 24.6C67.5394 20.2348 69.0757 16.0453 71.6676 12.52C72.1476 11.87 72.7976 11.19 73.5976 11.26C74.6776 11.36 75.1077 12.67 75.3677 13.73C76.3199 17.6767 78.2529 21.3192 80.9877 24.3199C81.1343 24.4409 81.2512 24.5942 81.3292 24.7676C81.4072 24.941 81.4443 25.1299 81.4376 25.3199C81.3718 25.5279 81.2467 25.7121 81.0776 25.85C78.6976 28.14 69.4876 31.83 67.5276 27.25Z" fill="white"/>
<path d="M67.5277 24.5699C67.8038 20.8269 68.9918 17.2084 70.9878 14.03C71.4245 13.1826 72.0224 12.4286 72.7478 11.8101C73.6578 11.1801 74.3878 11.8099 74.7478 12.6999C75.1078 13.5899 75.1977 14.31 75.4377 15.1C75.7202 16.018 76.0541 16.9195 76.4377 17.8C77.2879 19.7398 78.3799 21.5642 79.6877 23.23C79.9177 23.52 80.4077 23.23 80.1777 22.9C78.7917 21.1445 77.6543 19.2062 76.7977 17.14C76.3916 16.1248 76.0574 15.0822 75.7977 14.02C75.6554 13.2302 75.3745 12.4719 74.9678 11.78C72.5178 8.30003 69.0478 16.33 68.4478 17.92C67.6425 20.0684 67.1508 22.3215 66.9878 24.61C66.9878 24.98 67.5478 24.94 67.5778 24.61L67.5277 24.5699Z" fill="#010001"/>
<path d="M43.7175 88.25L43.2476 88.1899C43.6676 84.5599 46.5176 74.79 49.7576 70.97L50.1376 71.25C47.0876 74.76 44.0875 84.67 43.7175 88.25Z" fill="#010001"/>
<path d="M59.6379 75.6701C63.7719 77.044 68.092 77.7757 72.4479 77.84C76.9073 78.0297 81.3701 77.5512 85.6879 76.4201C88.2384 75.7002 90.6754 74.6264 92.9279 73.23C93.2579 73.04 93.1779 72.41 92.8479 72.6C90.7443 73.9014 88.487 74.9361 86.1279 75.6801C84.1014 76.2757 82.0268 76.6939 79.9279 76.9301C75.4721 77.4588 70.9658 77.3914 66.5278 76.73C64.2253 76.3988 61.9589 75.8531 59.7579 75.1C59.3979 74.97 59.2879 75.5501 59.6379 75.6701V75.6701Z" fill="#010001"/>
<path d="M96.0876 25.8299C92.8576 24.9699 89.7176 23.66 86.3776 23.25C82.8479 22.8117 79.2825 22.7381 75.7376 23.03C69.6761 23.5128 63.9011 25.813 59.1676 29.63C57.0333 31.3683 55.1843 33.4299 53.6876 35.74C52.2089 38.2525 51.05 40.94 50.2376 43.74C49.7681 45.2561 49.1308 46.7151 48.3376 48.0899C47.4055 49.4219 46.3472 50.661 45.1776 51.79C44.2364 52.7643 43.5008 53.9179 43.0146 55.1823C42.5284 56.4468 42.3016 57.7961 42.3476 59.15C42.5015 62.2423 43.676 65.1964 45.6876 67.55C48.0173 70.1111 50.8816 72.1286 54.0776 73.4599C54.4276 73.6199 54.6876 73.09 54.3476 72.93C49.0376 70.51 43.9776 66.61 43.0576 60.48C42.8172 59.1282 42.8715 57.7405 43.2166 56.4116C43.5618 55.0827 44.1898 53.8439 45.0576 52.78C46.0576 51.61 47.2177 50.6 48.1377 49.38C48.9782 48.2127 49.6514 46.9336 50.1377 45.5799C51.1377 42.8699 51.8577 40.0399 53.2577 37.4599C54.5613 35.0663 56.2506 32.9041 58.2577 31.06C62.6131 27.1016 68.0662 24.5563 73.8977 23.76C77.7404 23.315 81.6205 23.2948 85.4676 23.6999C89.0576 24.0099 92.4676 25.43 95.8676 26.36C96.2376 26.45 96.3576 25.88 95.9876 25.78L96.0876 25.8299Z" fill="#010001"/>
<path d="M68.8657 50.7597C69.2087 49.5539 68.8581 48.3975 68.0825 48.1769C67.307 47.9562 66.4002 48.7549 66.0572 49.9608C65.7141 51.1666 66.0647 52.323 66.8403 52.5436C67.6158 52.7643 68.5226 51.9656 68.8657 50.7597Z" fill="#010001"/>
<path d="M55.8516 47.4703C56.1946 46.2645 55.8439 45.1081 55.0684 44.8874C54.2928 44.6668 53.386 45.4655 53.043 46.6713C52.7 47.8772 53.0506 49.0336 53.8261 49.2542C54.6017 49.4748 55.5086 48.6762 55.8516 47.4703Z" fill="#010001"/>
<path d="M70.7477 35.71C70.7077 35.8658 70.7059 36.029 70.7424 36.1857C70.779 36.3424 70.8528 36.4879 70.9577 36.61C71.0535 36.6701 71.1609 36.7092 71.273 36.7248C71.385 36.7403 71.4991 36.7318 71.6077 36.7C72.6724 36.3604 73.5805 35.6509 74.1676 34.7C75.6176 32.86 76.9676 30.95 78.5576 29.25C80.1033 27.4944 82.0382 26.1246 84.2077 25.25C85.0977 24.93 86.1277 24.63 86.5077 23.77C83.6977 23.33 80.3277 22.77 77.8577 24.39C75.3674 26.0418 73.3785 28.3455 72.1077 31.0501C71.4116 32.522 70.9526 34.0947 70.7477 35.71V35.71Z" fill="#010001"/>
<path d="M65.0876 28.96C63.9258 31.0144 63.5693 33.4274 64.0876 35.73C64.1031 35.8669 64.1712 35.9924 64.2776 36.08C64.4776 36.21 64.7476 36.08 64.9076 35.85C65.8228 34.6912 66.6328 33.453 67.3276 32.15C69.4376 28.82 73.0376 25.68 76.1776 23.29C75.5005 23.5045 74.7974 23.6256 74.0876 23.65C73.4676 23.65 72.6377 24.07 72.0077 24.14C71.284 24.2138 70.5794 24.417 69.9276 24.74C67.9281 25.6303 66.242 27.1004 65.0876 28.96V28.96Z" fill="#010001"/>
<path d="M82.1378 31.09C81.2078 32.4 80.2678 33.88 80.3978 35.49C80.3981 35.6546 80.4626 35.8126 80.5778 35.9301C80.6431 35.9696 80.716 35.9952 80.7916 36.0056C80.8673 36.0159 80.9443 36.0106 81.0178 35.99C81.5041 35.8632 81.9582 35.6356 82.351 35.3221C82.7437 35.0086 83.0663 34.6161 83.2977 34.1701C83.8177 33.3101 84.3978 32.5701 84.9778 31.7501C85.491 30.9005 86.1319 30.1348 86.8778 29.48C88.8778 27.98 91.2878 26.7301 93.3378 25.4201C91.5778 24.6301 89.4178 23.5 87.7078 24.58C85.4878 25.99 83.6478 28.97 82.1378 31.09Z" fill="#010001"/>
<path d="M102.268 89.2499H103.208C103.645 86.3618 103.772 83.4352 103.588 80.52C103.585 80.4579 103.606 80.3971 103.647 80.3505C103.688 80.3039 103.746 80.2751 103.808 80.27V80.27C103.87 80.2672 103.93 80.2885 103.977 80.3295C104.024 80.3706 104.053 80.428 104.058 80.4899C104.243 83.4151 104.115 86.3517 103.678 89.2499H122.738C122.798 89.1199 122.868 89.0099 122.938 88.8799C124.249 86.3408 125.256 83.6555 125.938 80.8799C128.768 65.7599 116.988 60.79 108.848 62.17C103.688 63.04 100.738 66.98 99.0576 71.17C101.829 76.7676 102.943 83.0405 102.268 89.2499Z" fill="white"/>
<path d="M104.088 80.5C104.083 80.4381 104.054 80.3806 104.007 80.3396C103.96 80.2986 103.9 80.2772 103.838 80.28V80.28C103.776 80.2851 103.718 80.314 103.677 80.3606C103.636 80.4072 103.615 80.468 103.618 80.53C103.802 83.4453 103.675 86.3719 103.238 89.26H103.708C104.145 86.3618 104.273 83.4252 104.088 80.5V80.5Z" fill="#010001"/>
<path d="M123.198 89.25H123.268L123.358 89.0899C129.628 76.6699 126.608 69.54 124.248 66.4C122.848 64.5265 120.964 63.0707 118.798 62.1895C116.633 61.3084 114.267 61.0354 111.958 61.4L112.047 61.87C114.274 61.5254 116.552 61.795 118.637 62.6496C120.722 63.5043 122.534 64.9116 123.878 66.7199C125.618 69.0399 127.707 73.5999 125.938 80.9699C125.552 82.9888 124.99 84.9698 124.258 86.89C123.945 87.6945 123.592 88.4822 123.198 89.25V89.25Z" fill="#010001"/>
<path d="M122.738 89.25H123.198C123.593 88.4692 123.947 87.6681 124.258 86.85C124.991 84.9298 125.553 82.9489 125.938 80.9301C125.256 83.7056 124.249 86.3909 122.938 88.9301C122.868 89.0201 122.798 89.13 122.738 89.25Z" fill="#010001"/>
<path d="M50.7275 54.25C50.1675 54.62 49.6475 55.05 49.0775 55.39C48.4929 55.6919 47.9255 56.0257 47.3776 56.39C46.8032 56.8757 46.3549 57.4931 46.071 58.1897C45.7872 58.8862 45.6763 59.6412 45.7476 60.39C45.9023 61.8771 46.4512 63.2959 47.3375 64.5C47.8487 65.2685 48.4497 65.9735 49.1276 66.5999C50.9072 68.1842 53.0793 69.2617 55.4175 69.7199C57.1267 70.0762 58.8728 70.224 60.6175 70.16C61.6623 70.2447 62.7081 70.0111 63.6175 69.49C65.6175 68.16 65.6175 65.3499 65.4475 63.2299C65.1326 60.0859 64.2196 57.0311 62.7576 54.2299C62.5067 53.5547 62.061 52.9691 61.4772 52.5472C60.8933 52.1253 60.1974 51.8861 59.4775 51.86V51.86C58.6024 51.7466 57.7187 51.7132 56.8375 51.76C56.2437 51.8667 55.6658 52.0482 55.1175 52.3C53.5923 52.8006 52.1215 53.4538 50.7275 54.25Z" fill="#FCDE57"/>
<path d="M57.6079 54.81C57.6079 54.81 55.7479 53.38 55.8879 52.81C56.0279 52.24 56.9979 52.28 58.1379 52.55C59.2779 52.82 60.1378 53.17 60.0378 53.78C59.9378 54.39 57.6079 54.81 57.6079 54.81Z" fill="black"/>
<path d="M54.8277 52.72C57.3877 51.06 61.7277 51.55 62.9577 54.72C63.0677 55 63.5077 54.8499 63.3977 54.5699C62.0577 51.1499 57.3976 50.57 54.5576 52.37C54.3076 52.53 54.5577 52.92 54.8277 52.76V52.72Z" fill="black"/>
<path d="M100.188 22.5C100.698 22.28 101.188 21.41 101.668 21.27C103.772 20.6223 105.787 19.7152 107.668 18.5699C108.372 19.905 108.664 21.4189 108.508 22.92V22.92C108.098 25.53 107.338 28.6 104.308 29.24C103.628 29.38 103.788 28.64 103.308 28.24C101.308 26.36 101.658 28.94 101.418 28.8C100.586 28.3055 99.9561 27.5335 99.6378 26.62C98.9578 25.14 98.4877 23.25 100.188 22.5Z" fill="#FCDE57"/>
<path d="M101.357 28.25C100.357 27.25 99.2775 26 99.3575 24.46C99.4458 23.8542 99.6905 23.2819 100.068 22.7997C100.445 22.3174 100.941 21.9418 101.508 21.71C102.052 21.4424 102.622 21.228 103.207 21.0699C104.032 20.8349 104.825 20.499 105.567 20.0699L106.768 19.33L107.297 19.02C107.378 18.9933 107.456 18.9564 107.527 18.91C107.597 18.91 107.717 18.91 107.527 18.91C107.907 18.97 108.027 18.39 107.657 18.34C107.373 18.3488 107.098 18.4429 106.868 18.61C106.448 18.84 106.038 19.1 105.638 19.35C105.238 19.6 105.018 19.7701 104.638 19.9301C104.079 20.1675 103.508 20.3745 102.927 20.55C102.233 20.7333 101.562 20.9949 100.927 21.33C100.339 21.613 99.8279 22.0333 99.4363 22.5554C99.0448 23.0775 98.7845 23.6861 98.6774 24.33C98.5174 26.12 99.6775 27.59 100.888 28.76C101.158 29.03 101.547 28.5899 101.277 28.3199L101.357 28.25Z" fill="#010001"/>
<path d="M101.838 28.82C101.773 28.5708 101.773 28.3093 101.838 28.0601C101.958 27.7601 102.348 27.78 102.598 27.82C103.388 27.96 103.398 28.8201 103.248 29.4301C103.237 29.4868 103.244 29.5452 103.266 29.5984C103.288 29.6516 103.325 29.6973 103.373 29.73C103.42 29.7627 103.476 29.7811 103.534 29.7829C103.591 29.7847 103.648 29.7698 103.698 29.74C103.868 29.6204 104.058 29.5292 104.258 29.47C104.439 29.4051 104.637 29.4051 104.818 29.47C105.108 29.61 104.968 30.15 104.878 30.37C104.461 31.0843 103.801 31.6242 103.018 31.8901C102.978 31.9078 102.942 31.9342 102.913 31.9672C102.884 32.0002 102.863 32.0391 102.851 32.0812C102.839 32.1233 102.836 32.1677 102.843 32.211C102.85 32.2543 102.866 32.2956 102.89 32.332C102.915 32.3683 102.947 32.3988 102.984 32.4214C103.022 32.444 103.064 32.4581 103.108 32.4627C103.151 32.4673 103.195 32.4622 103.237 32.4479C103.278 32.4336 103.316 32.4105 103.348 32.3801C104.348 31.9101 105.418 31.26 105.558 30.09C105.624 29.85 105.598 29.5939 105.485 29.372C105.372 29.1501 105.18 28.9783 104.948 28.8901C104.671 28.8458 104.388 28.8584 104.116 28.9272C103.845 28.996 103.59 29.1194 103.368 29.2901L103.818 29.6C103.981 29.095 103.956 28.5482 103.748 28.0601C103.639 27.8372 103.474 27.6468 103.269 27.5081C103.063 27.3694 102.825 27.2873 102.578 27.2701C102.346 27.219 102.105 27.2394 101.885 27.3287C101.665 27.418 101.478 27.5719 101.348 27.7701C101.198 28.1836 101.198 28.6366 101.348 29.0501C101.428 29.4201 101.988 29.22 101.908 28.86L101.838 28.82Z" fill="#010001"/>
<path d="M55.0875 60.8499C55.0299 60.8378 54.9793 60.8042 54.9458 60.7558C54.9123 60.7075 54.8985 60.6481 54.9074 60.5899L55.0274 59.8299C55.1365 58.9149 55.3513 58.0156 55.6675 57.15C56.1031 56.1215 56.7007 55.1694 57.4375 54.3299C57.4558 54.3017 57.4802 54.2779 57.5088 54.2601C57.5373 54.2423 57.5694 54.231 57.6028 54.227C57.6362 54.223 57.67 54.2263 57.702 54.2368C57.734 54.2473 57.7633 54.2646 57.7878 54.2877C57.8123 54.3107 57.8315 54.3388 57.844 54.3701C57.8564 54.4013 57.8619 54.435 57.86 54.4686C57.858 54.5022 57.8487 54.5349 57.8327 54.5645C57.8168 54.5941 57.7946 54.6199 57.7675 54.64C57.0661 55.4421 56.4957 56.3499 56.0775 57.3299C55.7762 58.1597 55.5748 59.0225 55.4775 59.9C55.4775 60.16 55.3975 60.42 55.3475 60.67C55.3427 60.6991 55.3322 60.7269 55.3164 60.7518C55.3006 60.7767 55.28 60.7982 55.2557 60.815C55.2315 60.8318 55.204 60.8436 55.1751 60.8496C55.1463 60.8556 55.1164 60.8557 55.0875 60.8499Z" fill="#010001"/>
<path d="M100.918 69.09C101.696 67.5325 102.809 66.1665 104.178 65.09C105.311 64.0093 106.68 63.2081 108.178 62.75C109.739 62.5032 111.317 62.3861 112.898 62.4001C113.207 62.3801 113.518 62.3801 113.828 62.4001H113.948H114.108C113.878 62.3401 114.258 62.48 114.388 62.51C114.644 62.5652 114.906 62.5853 115.168 62.57C115.32 62.5507 115.46 62.4767 115.561 62.3616C115.662 62.2465 115.718 62.0983 115.718 61.945C115.718 61.7916 115.662 61.6435 115.561 61.5285C115.46 61.4134 115.32 61.3393 115.168 61.32H114.808C114.608 61.32 114.898 61.32 114.708 61.32H114.568H114.438C113.952 61.1933 113.449 61.1462 112.948 61.1801C111.68 61.1645 110.414 61.275 109.168 61.51C107.257 61.9295 105.445 62.7102 103.828 63.8101C102.14 65.0409 100.769 66.6553 99.8277 68.5201C99.4777 69.2401 100.548 69.8801 100.908 69.1501L100.918 69.09Z" fill="#010001"/>
<path d="M103.668 80.53C103.783 81.2146 104.096 81.8503 104.569 82.3586C105.042 82.8669 105.653 83.2255 106.328 83.39C107.723 83.7256 109.189 83.6136 110.518 83.0699C111.673 82.6655 112.673 81.9103 113.377 80.9099C114.082 79.9094 114.456 78.7136 114.448 77.4899C114.448 77.1099 113.858 77.1499 113.858 77.4899C113.868 78.5407 113.56 79.57 112.975 80.4427C112.39 81.3154 111.554 81.9907 110.578 82.3799C109.51 82.8499 108.34 83.0392 107.178 82.93C105.928 82.79 104.068 81.69 103.998 80.29C103.998 79.91 103.648 80.1199 103.668 80.4999V80.53Z" fill="#010001"/>
<path d="M103.888 81.6501C103.823 81.6501 103.761 81.6251 103.714 81.5804C103.668 81.5356 103.64 81.4746 103.638 81.4101C103.476 77.1479 102.182 73.0058 99.8877 69.4101C100.358 70.3201 99.8877 68.99 99.8877 68.99C99.8877 68.99 100.108 68.6601 100.188 68.7801C102.547 72.5802 103.893 76.9216 104.098 81.39C104.099 81.4229 104.094 81.4556 104.083 81.4865C104.071 81.5173 104.054 81.5456 104.032 81.5697C104.009 81.5939 103.982 81.6135 103.953 81.6272C103.923 81.641 103.891 81.6488 103.858 81.6501H103.888Z" fill="#010001"/>
<path d="M96.3479 65.25C96.4941 65.033 96.7098 64.8723 96.9596 64.7945C97.2094 64.7167 97.4781 64.7263 97.7217 64.8219C97.9652 64.9174 98.1689 65.0931 98.2991 65.32C98.4293 65.5469 98.4782 65.8114 98.4379 66.0699L98.2379 65.77C98.4479 65.83 98.6779 65.77 98.8879 65.77C99.1133 65.8103 99.318 65.9268 99.4679 66.0999C99.6001 66.2739 99.6716 66.4864 99.6716 66.7049C99.6716 66.9234 99.6001 67.136 99.4679 67.31L99.1578 66.8599C99.427 66.7899 99.7125 66.8216 99.9597 66.9489C100.207 67.0762 100.399 67.2903 100.498 67.55C100.527 68.1994 100.393 68.8459 100.108 69.43C99.9479 69.77 99.2679 69.59 99.4379 69.25C99.6713 68.7878 99.8428 68.297 99.9479 67.79C99.9479 67.48 99.5478 67.3799 99.2778 67.4399C99.2211 67.4501 99.1627 67.4438 99.1095 67.4216C99.0563 67.3994 99.0106 67.3624 98.9779 67.3149C98.9452 67.2674 98.9268 67.2115 98.925 67.1539C98.9233 67.0963 98.9382 67.0393 98.9679 66.9899C99.008 66.945 99.0371 66.8914 99.053 66.8333C99.0689 66.7752 99.0711 66.7142 99.0594 66.6551C99.0478 66.596 99.0227 66.5405 98.986 66.4928C98.9493 66.445 98.902 66.4064 98.8479 66.38C98.7135 66.3443 98.5722 66.3443 98.4379 66.38C98.2995 66.3831 98.1614 66.3662 98.0278 66.3299C97.9646 66.3101 97.9098 66.2699 97.8718 66.2157C97.8338 66.1614 97.8148 66.0962 97.8179 66.03C97.8419 65.9055 97.8238 65.7765 97.7664 65.6635C97.7089 65.5505 97.6154 65.46 97.5007 65.4061C97.386 65.3522 97.2566 65.3379 97.1329 65.3658C97.0093 65.3937 96.8984 65.4621 96.8179 65.56C96.5879 65.86 96.0879 65.56 96.3179 65.25H96.3479Z" fill="#010001"/>
<path d="M93.4777 67.54C93.4719 67.4935 93.4719 67.4465 93.4777 67.4C93.4823 67.3668 93.4823 67.3332 93.4777 67.3V67.2499C93.4725 67.1533 93.4725 67.0565 93.4777 66.9599V66.89C93.4777 66.89 93.4777 66.82 93.4777 66.89C93.4777 66.96 93.4777 66.89 93.4777 66.89C93.4744 66.8667 93.4744 66.8431 93.4777 66.8199C93.4777 66.8199 93.4777 66.7499 93.4777 66.8199V66.76C93.5927 66.6843 93.722 66.6332 93.8577 66.6099C93.9758 66.5754 94.1003 66.5684 94.2216 66.5892C94.3428 66.61 94.4577 66.6581 94.5576 66.7299C94.6383 66.8178 94.7028 66.9194 94.7477 67.03C94.7952 67.1696 94.8286 67.3136 94.8477 67.4599C94.8545 67.4894 94.8674 67.5172 94.8855 67.5414C94.9036 67.5657 94.9265 67.586 94.9528 67.601C94.979 67.616 95.0081 67.6255 95.0382 67.6287C95.0683 67.632 95.0988 67.629 95.1277 67.6199C95.1857 67.6036 95.235 67.565 95.2649 67.5126C95.2948 67.4603 95.303 67.3982 95.2876 67.3399C95.2532 67.0184 95.1284 66.7133 94.9276 66.4599C94.8008 66.3274 94.6429 66.2288 94.4683 66.1729C94.2936 66.117 94.1078 66.1057 93.9276 66.14C93.759 66.1405 93.5926 66.1785 93.4404 66.2512C93.2883 66.3238 93.1541 66.4293 93.0476 66.56C92.9318 66.7704 92.883 67.0111 92.9076 67.2499C92.9156 67.4501 92.9494 67.6483 93.0077 67.8399C93.0241 67.898 93.0625 67.9473 93.1149 67.9772C93.1672 68.0072 93.2293 68.0153 93.2876 67.9999C93.3457 67.9836 93.395 67.945 93.4249 67.8926C93.4549 67.8403 93.463 67.7782 93.4476 67.7199L93.4777 67.54Z" fill="#010001"/>
<path d="M99.4878 69.5601C100.628 71.0701 100.618 73.31 100.488 75.11C100.429 77.0782 100.027 79.0208 99.2977 80.85C99.1477 81.18 99.6377 81.47 99.7877 81.14C100.565 79.2316 100.995 77.1997 101.058 75.14C101.158 73.25 101.148 70.8801 99.9578 69.3101C99.7378 69.0201 99.2378 69.31 99.4578 69.59L99.4878 69.5601Z" fill="#010001"/>
<path d="M89.9376 77.25C89.9028 77.2496 89.8685 77.2413 89.8373 77.2257C89.8061 77.2101 89.7789 77.1877 89.7577 77.16C89.7161 77.1171 89.6929 77.0597 89.6929 77C89.6929 76.9403 89.7161 76.8829 89.7577 76.84C91.0774 75.7455 92.0763 74.3143 92.6484 72.6981C93.2206 71.0819 93.3447 69.3411 93.0077 67.66C92.9943 67.6294 92.9877 67.5962 92.9884 67.5627C92.9891 67.5293 92.9971 67.4963 93.0118 67.4663C93.0266 67.4363 93.0477 67.4098 93.0737 67.3888C93.0998 67.3678 93.1301 67.3527 93.1626 67.3446C93.1951 67.3365 93.2289 67.3356 93.2617 67.3419C93.2946 67.3482 93.3256 67.3615 93.3528 67.3811C93.3799 67.4007 93.4024 67.4259 93.4188 67.4551C93.4352 67.4842 93.4451 67.5167 93.4476 67.55C93.8004 69.3141 93.6709 71.1407 93.0725 72.8373C92.4741 74.5339 91.4291 76.0375 90.0476 77.1899C90.0183 77.2212 89.9798 77.2423 89.9376 77.25V77.25Z" fill="#010001"/>
<path d="M1.84629 43.36C2.84066 42.58 3.7257 41.76 4.62063 40.89H3.8649C4.40919 41.6597 4.86613 42.4881 5.22719 43.36C5.3664 43.72 5.44602 44.22 5.79405 44.45C5.95219 44.532 6.13076 44.5653 6.30762 44.5458C6.48449 44.5262 6.65179 44.4546 6.78843 44.34C7.93196 43.5 9.19482 42.78 10.2687 41.86C10.7858 41.4 10.0698 40.6101 9.54275 41.0601C8.60803 41.8701 7.49439 42.46 6.50002 43.21C6.40058 43.27 6.21168 43.37 6.16196 43.47C6.11225 43.57 6.07243 43.55 6.24147 43.53C6.41051 43.51 6.44031 43.53 6.33093 43.39C6.28894 43.1785 6.21163 42.9756 6.10224 42.79C6.02269 42.59 5.93318 42.4 5.83374 42.2C5.48538 41.4984 5.07612 40.8291 4.61068 40.2C4.51013 40.0998 4.37433 40.0437 4.23281 40.0437C4.09129 40.0437 3.95549 40.0998 3.85494 40.2C2.96995 41.06 2.04515 41.88 1.09055 42.67C0.553588 43.1 1.26963 43.9 1.80659 43.46L1.84629 43.36Z" fill="#010001"/>
<path d="M4.57772 33.38C5.79772 33.65 7.01777 33.86 8.24777 34.02L7.8077 33.4C7.5651 34.2541 7.22977 35.0789 6.8077 35.86C6.56173 36.1948 6.36948 36.5659 6.23776 36.96C6.21689 37.1707 6.27632 37.3816 6.40426 37.5503C6.5322 37.719 6.71916 37.8332 6.9277 37.87C7.6077 38.07 8.2777 38.24 8.9277 38.46C9.62605 38.71 10.3412 38.9106 11.0677 39.0601C11.2017 39.07 11.3346 39.0294 11.4404 38.9465C11.5462 38.8637 11.6174 38.7443 11.6399 38.6118C11.6624 38.4793 11.6346 38.3433 11.5621 38.2301C11.4896 38.117 11.3775 38.0349 11.2478 38C10.5311 37.8505 9.82595 37.65 9.13778 37.4L7.99777 37.0501L7.49777 36.91L7.26779 36.86H7.20773C7.11773 36.86 7.11773 36.86 7.20773 36.86L7.3077 37.13C7.3077 37.13 7.3077 37.18 7.3077 37.13C7.36684 37.0471 7.42033 36.9602 7.46774 36.87L7.71774 36.4301C7.87774 36.1401 8.02768 35.83 8.15768 35.53C8.43317 34.9084 8.66055 34.2665 8.83773 33.61C8.86094 33.4695 8.82773 33.3256 8.74533 33.2095C8.66292 33.0934 8.53806 33.0145 8.39779 32.99C7.16779 32.83 5.93775 32.62 4.72775 32.35C4.04775 32.21 3.87769 33.27 4.54769 33.41L4.57772 33.38Z" fill="#010001"/>
<path d="M77.1779 21.79C77.1179 22.62 76.9179 22.99 76.8479 23.79C76.8235 23.9692 76.8235 24.1508 76.8479 24.33C76.9394 24.4988 77.0501 24.6566 77.1779 24.8C77.9014 25.4385 78.7755 25.8823 79.7179 26.09C80.6831 26.2436 81.6617 26.2973 82.6379 26.25C83.4079 26.25 84.0779 26.1 84.8479 26.09C85.3999 26.0379 85.9437 25.9204 86.4679 25.74C86.9979 25.56 87.2579 25.74 87.7079 25.45C88.0303 25.1375 88.331 24.8034 88.6079 24.45C88.7379 24.25 88.6079 24.06 88.6079 23.83C88.5729 23.3224 88.5028 22.8178 88.3979 22.3199C88.2886 21.9289 88.228 21.5259 88.2179 21.12C85.718 22.1481 83.0298 22.6387 80.3279 22.5601C79.7613 22.587 79.1942 22.5228 78.6479 22.37C78.1755 22.2108 77.7565 21.9235 77.4379 21.54L77.1779 21.79Z" fill="#808184"/>
<path d="M88.6676 0.07L86.6076 12.89L78.8276 12.82L76.7676 0" fill="url(#paint0_linear_163_515)"/>
<path d="M78.2477 18.01C78.0977 19.01 77.8277 20.01 77.7077 21.01C77.6625 21.1327 77.6625 21.2674 77.7077 21.39C77.7726 21.4722 77.8592 21.5345 77.9577 21.5699C79.3734 22.2724 80.9192 22.6742 82.4977 22.75C84.1346 22.9054 85.7834 22.626 87.2776 21.9399C87.4076 21.8699 87.4576 21.89 87.5276 21.77C87.6164 21.638 87.6839 21.4929 87.7277 21.34C87.7922 19.7943 87.6098 18.2483 87.1877 16.76C87.0677 16.27 87.0677 15.76 86.9577 15.29C86.8477 14.82 86.8377 13.78 86.6977 13.13C86.6922 12.9684 86.6476 12.8106 86.5677 12.67C86.3477 12.3 85.7677 12.19 85.3577 12.04C84.4231 11.7257 83.4516 11.5341 82.4677 11.47C81.4893 11.5788 80.5323 11.8315 79.6277 12.22C78.4877 12.67 78.7777 13.7501 78.6277 14.8101C78.4777 15.8701 78.4077 16.93 78.2477 18.01Z" fill="#FDE88A"/>
<path d="M86.7776 12.83C86.5876 12.01 84.8876 11.38 82.7776 11.38C80.6676 11.38 78.9376 12.01 78.7776 12.83C78.7727 12.8798 78.7727 12.9301 78.7776 12.98C78.7866 13.1691 78.8609 13.3493 78.9877 13.49C79.5177 14.12 80.9876 14.5699 82.8276 14.5699C84.6676 14.5699 86.1476 14.12 86.6676 13.49C86.7944 13.3493 86.8687 13.1691 86.8777 12.98C86.8503 12.9262 86.8167 12.8759 86.7776 12.83ZM82.7776 14.28C80.7076 14.28 79.2676 13.71 79.0576 13.13C79.0378 13.0825 79.0276 13.0315 79.0276 12.98C79.0276 12.9285 79.0378 12.8775 79.0576 12.83C79.2676 12.25 80.7076 11.6801 82.7776 11.6801C84.8476 11.6801 86.2777 12.26 86.4977 12.83C86.5175 12.8775 86.5276 12.9285 86.5276 12.98C86.5276 13.0315 86.5175 13.0825 86.4977 13.13C86.2477 13.7 84.7777 14.25 82.7477 14.25L82.7776 14.28Z" fill="#010001"/>
<path d="M88.8275 24.17V23.99L88.2875 20.8199V20.76C88.2372 20.4666 88.0893 20.1987 87.8676 20L87.9575 20.64V20.76C87.9624 20.8099 87.9624 20.8602 87.9575 20.91C87.9622 20.9298 87.9622 20.9502 87.9575 20.97C87.9624 20.9998 87.9624 21.0303 87.9575 21.0601V21.0601C87.8475 21.6001 87.1275 22.06 86.0275 22.38C85.8005 22.4483 85.5703 22.5051 85.3375 22.55C83.6446 22.8568 81.9104 22.8568 80.2175 22.55C79.9675 22.55 79.7376 22.44 79.5176 22.38C78.4276 22.07 77.7075 21.6001 77.5975 21.0601C77.5927 21.0303 77.5927 20.9998 77.5975 20.97C77.5929 20.9502 77.5929 20.9298 77.5975 20.91C77.5927 20.8602 77.5927 20.8099 77.5975 20.76V20.64L77.6975 20C77.4468 20.2076 77.2886 20.506 77.2576 20.83L76.6675 24.11V24.24C76.6675 25.46 79.3476 26.41 82.7676 26.41C86.1876 26.41 88.6375 25.53 88.8475 24.41V24.2L88.8275 24.17ZM82.7375 26.12C79.2775 26.12 76.9475 25.12 76.9375 24.24C76.9316 24.1601 76.9316 24.0799 76.9375 24L77.0375 23.46L77.3776 21.5601C77.7567 22.0464 78.2828 22.3971 78.8776 22.5601C79.0468 22.6285 79.2206 22.6852 79.3976 22.73C80.4781 23.0114 81.591 23.1493 82.7075 23.14C83.8208 23.15 84.9306 23.0121 86.0076 22.73L86.5375 22.5699C87.1282 22.3983 87.6518 22.0492 88.0375 21.5699L88.3575 23.46L88.4675 24.1C88.4771 24.1596 88.4771 24.2204 88.4675 24.28C88.4724 24.3299 88.4724 24.3802 88.4675 24.4301C88.2875 25.2501 86.0275 26.12 82.7375 26.12V26.12Z" fill="#010001"/>
<path d="M82.7377 19.63C83.8277 19.63 84.5377 22.93 83.0677 22.7C82.2177 22.57 81.2677 22.94 81.0677 22.05C80.8377 20.69 81.4477 19.64 82.7377 19.63Z" fill="#F7B759"/>
<path d="M87.9277 20.76V20.64L87.8377 20L86.8377 12.83C86.8426 12.8798 86.8426 12.9301 86.8377 12.98C86.8287 13.1691 86.7545 13.3493 86.6278 13.49L87.5277 19.73L87.5877 20.14L87.6777 20.73C87.6975 20.7775 87.7077 20.8285 87.7077 20.88C87.7077 20.9315 87.6975 20.9825 87.6777 21.03C87.5277 21.49 86.6777 21.95 85.3577 22.22C84.9973 22.2915 84.6335 22.3449 84.2678 22.38C83.2708 22.4903 82.2647 22.4903 81.2678 22.38C80.9052 22.3458 80.5446 22.2923 80.1877 22.22C78.8677 21.95 78.0177 21.49 77.8677 21.03C77.8479 20.9825 77.8377 20.9315 77.8377 20.88C77.8377 20.8285 77.8479 20.7775 77.8677 20.73V20.73L77.9477 20.14L78.0078 19.73L78.9077 13.49C78.7809 13.3493 78.7067 13.1691 78.6977 12.98C78.6928 12.9301 78.6928 12.8798 78.6977 12.83V12.83L77.6977 20L77.5977 20.64V20.76C77.5709 20.8582 77.5709 20.9619 77.5977 21.0601C77.7077 21.6001 78.4278 22.06 79.5178 22.38C79.7378 22.44 79.9677 22.5 80.2177 22.55C81.9106 22.8568 83.6448 22.8568 85.3377 22.55C85.5704 22.5051 85.8007 22.4483 86.0277 22.38C87.1277 22.07 87.8477 21.6001 87.9577 21.0601C87.9845 20.9619 87.9845 20.8582 87.9577 20.76H87.9277Z" fill="#010001"/>
<path d="M52.2376 59.42C52.1006 60.0637 52.1598 60.7337 52.4076 61.3434C52.6554 61.953 53.0804 62.4743 53.6276 62.8399C54.1881 63.1874 54.8289 63.3837 55.4878 63.41C56.1467 63.4363 56.8012 63.2916 57.3876 62.99C57.827 62.783 58.1806 62.4294 58.3876 61.99C59.2276 59.99 56.1775 60.45 55.2175 60.26C54.2575 60.07 52.6576 57.72 52.2376 59.42Z" fill="#010001"/>
<path d="M36.7677 55.67C36.6976 54.4816 36.8777 53.2917 37.2962 52.1772C37.7148 51.0627 38.3625 50.0484 39.1976 49.1999C40.0776 48.3199 43.2677 47.7799 44.1277 48.6899C45.8577 50.4999 44.3077 55.03 42.3777 56.9C41.9226 57.3234 41.3872 57.6513 40.8032 57.8643C40.2192 58.0773 39.5985 58.171 38.9776 58.14C38.6702 58.1234 38.369 58.0462 38.0914 57.913C37.8138 57.7798 37.5653 57.5931 37.36 57.3636C37.1547 57.1341 36.9966 56.8665 36.895 56.5759C36.7934 56.2852 36.7501 55.9774 36.7677 55.67V55.67Z" fill="white"/>
<path d="M38.3413 68.996C38.9136 67.8743 38.1052 66.3159 36.5359 65.5153C34.9665 64.7146 33.2304 64.9749 32.6582 66.0966C32.0859 67.2182 32.8942 68.7765 34.4636 69.5771C36.0329 70.3778 37.769 70.1177 38.3413 68.996Z" fill="white"/>
<path d="M36.0879 70.42C35.4657 70.3819 34.8589 70.2114 34.3079 69.92C32.5779 69.04 31.7079 67.28 32.3079 65.99C32.4923 65.6591 32.7543 65.378 33.0713 65.1708C33.3883 64.9635 33.7509 64.8363 34.1279 64.8C34.9924 64.711 35.8641 64.8743 36.6378 65.27C37.4115 65.6657 38.0541 66.277 38.4879 67.03C38.6771 67.3554 38.785 67.7217 38.8024 68.0978C38.8198 68.4738 38.7462 68.8484 38.5879 69.1899C38.4054 69.5232 38.1441 69.8068 37.8269 70.016C37.5097 70.2251 37.1462 70.3535 36.768 70.39C36.5424 70.4177 36.315 70.4277 36.0879 70.42V70.42ZM34.8679 65.42C34.6684 65.4 34.4675 65.4 34.268 65.42C33.999 65.4429 33.7394 65.5303 33.5114 65.6748C33.2833 65.8193 33.0935 66.0166 32.9579 66.25C32.4679 67.25 33.2179 68.56 34.6179 69.25C35.2615 69.5919 35.9945 69.728 36.7179 69.64C36.9886 69.6186 37.2501 69.532 37.48 69.3874C37.7099 69.2429 37.9013 69.0448 38.0379 68.81V68.81C38.1463 68.5625 38.1939 68.2925 38.1765 68.0228C38.1591 67.7531 38.0773 67.4915 37.9379 67.26C37.5829 66.6176 37.0381 66.1007 36.3779 65.78C35.9121 65.5695 35.409 65.4539 34.898 65.4399L34.8679 65.42Z" fill="#010001"/>
<path d="M19.398 34.9899C19.685 35.0523 19.9832 35.041 20.2647 34.9571C20.5462 34.8732 20.8019 34.7194 21.008 34.51C21.248 34.25 21.3979 33.93 21.6179 33.65C21.836 33.3886 22.0806 33.1506 22.3479 32.9399C23.4965 31.8853 24.7771 30.9845 26.1579 30.26C27.4075 29.67 28.7762 29.3758 30.1579 29.4C30.7282 29.4291 31.2844 29.5884 31.7836 29.8658C32.2828 30.1431 32.7118 30.5311 33.0379 30.9999C33.1979 31.2599 33.278 31.19 33.498 31.4C33.5352 31.4399 33.58 31.4719 33.6298 31.4942C33.6796 31.5165 33.7333 31.5287 33.7879 31.53C33.8682 31.5184 33.9442 31.4865 34.0089 31.4376C34.0736 31.3886 34.1249 31.3241 34.1579 31.2499C34.4179 30.8099 35.458 30.66 35.508 30.16C35.558 29.66 34.5779 28.64 34.1879 28.26C34.0356 28.1173 33.8596 28.0023 33.6679 27.92C33.0223 27.5622 32.3286 27.2995 31.6079 27.14C30.6635 27.0128 29.705 27.0364 28.768 27.2099C28.2885 27.2588 27.8157 27.3594 27.3579 27.51C26.1469 27.8337 24.9788 28.3003 23.878 28.9C22.938 29.57 22.4779 30.6499 21.5679 31.3499C20.8825 31.8996 20.2884 32.5544 19.8079 33.29C19.5779 33.68 18.648 34.8099 19.398 34.9899Z" fill="#FCDE57"/>
<path d="M14.9375 40.9C14.1775 43.28 13.0775 45.7099 12.7575 48.1899C12.5311 49.6487 12.4841 51.1298 12.6175 52.6C12.7747 53.8883 13.0594 55.1579 13.4675 56.39C13.8875 57.62 14.4675 59.67 15.4675 60.51C16.591 61.2529 17.8776 61.7127 19.2175 61.85C19.9766 62.0339 20.7634 62.0746 21.5374 61.97C23.4374 61.53 26.6275 59.12 27.9775 57.7C29.3275 56.28 31.1974 54.7 32.2874 52.9C33.2274 51.32 34.2875 48.66 35.0575 47.02C36.8575 43.42 36.1475 42.59 36.9675 40.02C37.5375 38.22 36.8475 36.02 36.9675 34.11C36.8584 33.1736 36.6264 32.2557 36.2774 31.38C35.7774 29.67 35.2275 29.71 33.5975 28.98C33.2934 29.1259 33.0544 29.3797 32.9268 29.692C32.7993 30.0043 32.7924 30.3529 32.9074 30.67C33.0971 31.2779 33.3698 31.8566 33.7175 32.39C34.0609 33.2917 34.2731 34.238 34.3475 35.2C35.0275 38.64 33.9474 41.84 32.6674 45.12C31.4545 48.3012 29.7689 51.2813 27.6674 53.96C26.9106 55.0931 25.9472 56.0735 24.8275 56.85C23.8704 57.5441 22.7919 58.0529 21.6475 58.35C20.7575 58.52 19.6474 59.08 18.7774 58.91C17.3765 58.5177 16.1804 57.6009 15.4375 56.35C14.8742 55.0209 14.5526 53.6021 14.4875 52.16C14.2051 47.3188 15.4541 42.5115 18.0575 38.42C19.0575 36.97 20.2374 35.12 20.5274 34.78C20.8174 34.44 20.8374 34.1 20.5274 33.89C20.2174 33.68 19.1875 34.29 18.8175 34.54C18.1901 35.0407 17.6467 35.6382 17.2075 36.3101C16.2103 37.7089 15.4439 39.2585 14.9375 40.9V40.9Z" fill="#FCDE57"/>
<path d="M29.8879 51.85C29.9479 51.85 29.7278 51.73 29.7978 51.71C29.8678 51.69 30.0278 51.19 30.0778 51.12C30.4143 50.7606 30.7189 50.3724 30.9878 49.96C31.5778 48.81 32.3478 47.76 32.8278 46.55C33.2262 45.5474 33.3538 44.4576 33.1978 43.39C32.3778 43.32 33.1978 43.5 32.3478 43.39C30.5878 42.76 26.5279 42.02 24.6379 41.53C23.6979 41.28 24.9478 42.1701 24.3178 42.9301C22.9678 44.5401 20.9878 45.26 22.5478 46.52C23.3978 47.2 26.6378 49.62 27.4878 50.3C28.185 50.9608 28.9988 51.4863 29.8879 51.85Z" fill="#FEF8DD"/>
<path d="M45.8777 61.15C46.0661 61.2383 46.2698 61.2892 46.4777 61.3C46.8677 61.3 49.6276 61.8199 49.9476 61.5999C50.6081 61.0826 51.1907 60.4731 51.6776 59.79C52.2276 59.06 52.4177 56.1199 52.5077 55.2199C52.5077 54.7799 51.1877 54.3799 50.9877 53.9599C50.7877 53.5399 49.8576 53.1199 49.5876 52.8499C48.326 51.741 46.948 50.772 45.4777 49.9599C44.1777 49.6399 45.1377 53.89 44.2377 54.79C43.6477 55.38 43.2376 56.0999 42.6776 56.7099C42.3891 57.0317 42.0748 57.3294 41.7377 57.5999C41.5477 57.7399 41.3576 57.88 41.1576 58.01C40.9576 58.14 40.6777 58.24 40.6277 58.38C40.5777 58.52 41.3977 58.8999 41.6277 58.9899C42.0377 59.1899 42.4477 59.3999 42.8477 59.6199C43.6577 60.0599 44.4676 60.52 45.3076 60.89L45.8777 61.15Z" fill="#FCDE57"/>
<path d="M22.6878 45.1201C22.5236 44.6091 22.4995 44.0635 22.6179 43.5401C22.6463 43.4184 22.69 43.3007 22.7479 43.19C23.1879 42.25 24.6279 41.7 24.4979 43.09C24.4491 43.975 24.0709 44.8098 23.4378 45.4301C23.0878 45.6901 22.8178 45.5601 22.6878 45.1201Z" fill="#FCDE57"/>
<path d="M36.0875 57.64C36.0875 57.64 36.3375 61.14 32.2375 66.59C31.9275 67 31.5875 67.41 31.2375 67.8L29.0175 70.3101C28.7356 70.6344 28.5931 71.057 28.6212 71.4858C28.6493 71.9147 28.8456 72.3151 29.1674 72.6H29.2275C30.3375 73.49 30.9175 73.05 31.4775 72.36L33.7774 69.54C34.1953 69.0182 34.6607 68.5361 35.1674 68.1C37.2474 66.21 43.1675 61.1 44.4875 60.45" fill="white"/>
<path d="M29.878 73.25C29.5524 73.141 29.2504 72.9713 28.9879 72.75C28.7761 72.582 28.6017 72.3716 28.476 72.1322C28.3503 71.8928 28.2761 71.6298 28.258 71.36C28.2344 71.1243 28.2634 70.8864 28.3429 70.6633C28.4225 70.4402 28.5505 70.2375 28.7179 70.0699L30.9379 67.5601C31.3479 67.0901 31.6579 66.72 31.9379 66.36C35.9379 61.11 35.7179 57.68 35.7179 57.65H36.4979C36.4979 57.8 36.5879 61.31 32.4979 66.79C32.2179 67.16 31.9079 67.54 31.4979 68.02L29.2779 70.53C29.1651 70.6578 29.0787 70.8067 29.0238 70.968C28.9689 71.1294 28.9465 71.2999 28.9579 71.47C28.9847 71.8093 29.1425 72.125 29.398 72.35C30.398 73.11 30.7279 72.7999 31.2279 72.1899L33.5279 69.37C33.9529 68.8323 34.4321 68.3397 34.9579 67.9C37.0879 65.9 42.9579 60.8999 44.3479 60.1899L44.648 60.78C43.368 61.45 37.4579 66.51 35.4079 68.39C34.9141 68.8088 34.4621 69.2743 34.0579 69.78L31.7479 72.61C31.5568 72.9148 31.2667 73.1447 30.9263 73.2612C30.5859 73.3777 30.2158 73.3737 29.878 73.25V73.25Z" fill="#010001"/>
<path d="M36.5176 57.79C36.5176 57.79 36.7575 61.29 32.6675 66.73C32.3475 67.15 32.0075 67.5499 31.6675 67.9399L29.4476 70.46C29.3076 70.6198 29.2006 70.8058 29.1329 71.0072C29.0651 71.2086 29.0379 71.4214 29.0528 71.6333C29.0677 71.8452 29.1243 72.0521 29.2195 72.2421C29.3147 72.432 29.4467 72.6013 29.6076 72.74V72.74C29.7692 72.8826 29.9579 72.9911 30.1625 73.059C30.3671 73.1268 30.5832 73.1528 30.798 73.135C31.0128 73.1173 31.2219 73.0562 31.4125 72.9557C31.6032 72.8552 31.7715 72.7173 31.9075 72.55L34.2176 69.73C34.6296 69.203 35.0955 68.7205 35.6076 68.29C37.6776 66.39 43.6075 61.29 44.9175 60.63" fill="#BBBDBF"/>
<path d="M30.0877 73.39C29.8304 73.3086 29.5924 73.1759 29.3877 73C29.0036 72.6527 28.7691 72.1699 28.7337 71.6533C28.6983 71.1367 28.8646 70.6265 29.1977 70.23L31.4177 67.72C31.8177 67.27 32.1377 66.89 32.4177 66.53C36.4177 61.27 36.2077 57.8401 36.1977 57.8101H36.8677C36.8677 57.9601 37.0777 61.5 32.9577 66.98C32.6677 67.36 32.3477 67.75 31.9577 68.22L29.7377 70.73C29.6257 70.8562 29.5397 71.0035 29.4848 71.1631C29.4299 71.3227 29.407 71.4916 29.4177 71.66C29.429 71.8292 29.4739 71.9943 29.5496 72.146C29.6254 72.2977 29.7306 72.4327 29.8589 72.5435C29.9873 72.6542 30.1364 72.7383 30.2975 72.7909C30.4587 72.8435 30.6287 72.8636 30.7977 72.85C30.9685 72.8351 31.1346 72.7859 31.2858 72.7051C31.4371 72.6243 31.5703 72.5137 31.6777 72.38L33.9877 69.5699C34.4107 69.0307 34.8863 68.5349 35.4076 68.09C37.5376 66.09 43.4077 61.09 44.7977 60.38L45.1077 60.98C43.8277 61.64 37.9177 66.71 35.8577 68.59C35.3637 69.0052 34.9147 69.4711 34.5178 69.98L32.1977 72.8101C32.0337 73.0118 31.8303 73.1779 31.5999 73.2982C31.3695 73.4186 31.117 73.4907 30.8577 73.51C30.5954 73.5251 30.3329 73.4842 30.0877 73.39V73.39Z" fill="#010001"/>
<path d="M39.0875 58.71C38.961 58.6773 38.8398 58.6268 38.7275 58.5601L39.0275 58.03C39.1107 58.0348 39.1942 58.0348 39.2775 58.03C40.3775 58.36 42.3775 57.23 43.7075 54.83C44.3189 53.7504 44.6619 52.5399 44.7075 51.3C44.7075 50.3 44.4675 49.58 43.9175 49.3C43.8475 49.3 43.6976 49.02 43.6276 49L43.8175 48.52C43.9415 48.5509 44.0596 48.6016 44.1675 48.67C44.5913 48.9622 44.9277 49.3639 45.1409 49.8324C45.354 50.3009 45.4359 50.8185 45.3776 51.33C45.3355 52.6788 44.9647 53.997 44.2975 55.17C42.6875 58.03 40.3975 59.13 39.0875 58.71Z" fill="#010001"/>
<path d="M48.0879 61.9399C47.9872 61.9103 47.89 61.8701 47.7979 61.8199L48.1279 61.23L48.2878 61.3C49.1178 61.55 50.6378 60.68 51.6578 58.84C52.6778 57 52.6579 55.0699 51.7979 54.5699L51.6279 54.5L51.8279 53.86C51.9285 53.8896 52.0258 53.9298 52.1179 53.98C53.3779 54.68 53.4279 56.98 52.2479 59.16C51.0679 61.34 49.1579 62.2499 48.0879 61.9399Z" fill="#010001"/>
<path d="M46.5878 61.25C46.4778 61.25 46.2477 61.38 46.1577 61.33L46.4878 60.74C47.2878 61.19 49.0578 60.12 50.1478 58.14C50.6199 57.3123 50.8841 56.3824 50.9177 55.4301C50.9177 54.6601 50.7678 53.89 50.3678 53.67L50.2078 53.6L50.3978 52.96C50.4978 52.96 50.5178 53.24 50.6078 53.29C50.9548 53.5206 51.2317 53.8423 51.4081 54.2197C51.5845 54.5972 51.6535 55.0159 51.6078 55.4301C51.5725 56.4843 51.2807 57.514 50.7578 58.4301C49.4978 60.6701 47.6678 61.53 46.5878 61.25Z" fill="#010001"/>
<path d="M51.6376 54.51L44.0275 49.4399C39.7375 45.8399 37.0275 38.1401 36.9375 37.8101L37.5675 37.59C37.5675 37.67 40.3175 45.45 44.4275 48.9L52.0076 53.9L51.6376 54.51Z" fill="#010001"/>
<path d="M39.2477 58.08C35.8277 56.97 31.4476 57.0801 28.7976 57.3001C28.5928 57.5567 28.3725 57.8005 28.1377 58.03C30.5577 57.79 35.2077 57.54 38.7677 58.63L39.0276 58.71L48.0276 61.94L48.2477 61.3101L39.2477 58.08Z" fill="#010001"/>
<path d="M18.8677 62.19C18.1358 62.122 17.4216 61.9258 16.7578 61.61C14.1278 60.37 12.5177 57.39 12.2477 53.21C12.0913 48.5496 13.0982 43.9237 15.1777 39.7501C19.6777 30.2301 27.7077 24.55 33.0777 27.09C38.4477 29.63 39.1577 39.44 34.6577 48.96C30.7177 57.25 24.0877 62.68 18.8677 62.19ZM30.8677 27.19C25.9577 26.72 19.5977 31.9801 15.7777 40.0601C13.7451 44.1343 12.7556 48.6492 12.8978 53.2C13.1578 57.12 14.6377 59.9101 17.0377 61.0501C22.0377 63.4301 29.7277 57.89 34.0377 48.71C38.3777 39.52 37.8178 30.1 32.7678 27.71C32.1704 27.4198 31.5278 27.2339 30.8677 27.1601V27.19Z" fill="#010001"/>
<path d="M19.1575 59.25C18.5885 59.1984 18.0333 59.046 17.5176 58.8C16.8121 58.4316 16.1881 57.9247 15.6829 57.3095C15.1778 56.6944 14.8018 55.9837 14.5776 55.2199C13.2476 51.3999 14.0376 45.7399 16.6376 40.4399C20.6376 32.4399 27.1976 27.4399 31.3876 29.4399C35.5776 31.4399 36.0876 39.71 32.2676 47.8C30.6561 51.3956 28.2202 54.561 25.1575 57.04C23.5008 58.4953 21.3624 59.2829 19.1575 59.25V59.25ZM29.7476 29.6999C25.9076 29.3299 20.6076 33.8699 17.2276 40.6999C14.6976 45.8499 13.9176 51.3099 15.2276 54.9699C15.424 55.6518 15.7554 56.2873 16.202 56.8387C16.6486 57.3901 17.2014 57.8463 17.8276 58.18C19.7176 59.07 22.1976 58.48 24.8276 56.51C27.8028 54.0938 30.1667 51.0105 31.7276 47.51V47.51C35.3976 39.75 35.1375 31.91 31.1675 30.02C30.7184 29.8239 30.2372 29.712 29.7476 29.6899V29.6999Z" fill="#010001"/>
<path d="M22.8479 46.02C22.7335 46.0092 22.6219 45.9788 22.5179 45.9301C21.7879 45.5801 21.6679 44.43 22.2279 43.24C22.5027 42.577 23.0166 42.0416 23.6678 41.74C23.7981 41.6806 23.9397 41.6498 24.0829 41.6498C24.226 41.6498 24.3676 41.6806 24.4979 41.74C24.7002 41.8515 24.8672 42.0173 24.9803 42.2188C25.0934 42.4202 25.148 42.6492 25.1379 42.88C25.1465 43.4172 25.0264 43.9487 24.7878 44.4301C24.3078 45.4701 23.5179 46.08 22.8479 46.02ZM24.1079 42.38H23.9078C23.4506 42.6256 23.096 43.0263 22.9078 43.51C22.4878 44.39 22.5978 45.13 22.9078 45.25C23.2178 45.37 23.8079 44.99 24.2179 44.11C24.4079 43.7389 24.5041 43.3269 24.4979 42.91C24.4979 42.63 24.3979 42.44 24.2679 42.38H24.1079Z" fill="#010001"/>
<path d="M29.1578 52.47L22.3679 47.07C21.9132 46.5167 21.6349 45.8399 21.5689 45.1269C21.503 44.4138 21.6524 43.6972 21.9979 43.07C22.2611 42.4344 22.7083 41.892 23.2821 41.5125C23.8558 41.1329 24.5299 40.9335 25.2179 40.94L33.6778 43.1501L33.4979 43.84L25.0678 41.64C24.5465 41.6731 24.0455 41.8543 23.6239 42.1626C23.2022 42.4709 22.8774 42.8933 22.6878 43.38C22.4223 43.87 22.2985 44.4242 22.3303 44.9806C22.3621 45.537 22.5483 46.0735 22.8679 46.5301L29.6379 51.9201L29.1578 52.47Z" fill="#010001"/>
<path d="M32.4777 46.82L28.6177 45.3L28.7177 45.03L32.5777 46.55L32.4777 46.82Z" fill="#010001"/>
<path d="M31.0277 49.42L27.6377 47.48L27.7777 47.23L31.1677 49.16L31.0277 49.42Z" fill="#010001"/>
<path d="M35.6677 61.39C35.0135 61.1029 34.2918 61.0051 33.5847 61.1077C32.8777 61.2102 32.2135 61.5089 31.6677 61.97L31.5978 62.03C30.8858 62.4138 30.2856 62.9758 29.8561 63.6612C29.4266 64.3467 29.1826 65.1318 29.1478 65.9399V66.04C28.9497 66.4838 28.8522 66.9659 28.8626 67.4518C28.8729 67.9376 28.9909 68.4151 29.2078 68.85C29.8978 69.98 31.1077 70.49 31.9177 70C32.1653 69.8363 32.3544 69.5981 32.4578 69.3199C32.6813 69.5159 32.9427 69.6641 33.2257 69.7549C33.5088 69.8457 33.8074 69.8773 34.1032 69.8479C34.399 69.8185 34.6856 69.7287 34.9452 69.584C35.2048 69.4392 35.432 69.2427 35.6126 69.0066C35.7931 68.7704 35.9232 68.4997 35.9948 68.2112C36.0664 67.9227 36.0779 67.6225 36.0287 67.3293C35.9795 67.0362 35.8706 66.7563 35.7088 66.5069C35.5469 66.2576 35.3355 66.0443 35.0878 65.88C36.4478 65.88 37.0878 65.63 37.4878 64.88C38.0878 63.74 37.2277 62.18 35.6677 61.39Z" fill="white"/>
<path d="M31.0876 70.51C30.6261 70.4548 30.1843 70.291 29.7984 70.032C29.4125 69.773 29.0935 69.4262 28.8676 69.02C28.6248 68.5438 28.4907 68.0195 28.4752 67.4851C28.4596 66.9507 28.5628 66.4196 28.7775 65.9301C28.8189 65.0697 29.0819 64.2346 29.541 63.5057C30 62.7769 30.6396 62.179 31.3977 61.77V61.77C31.9924 61.2634 32.7183 60.9353 33.4916 60.8239C34.2649 60.7124 35.054 60.822 35.7676 61.14V61.14C37.4976 62.02 38.3676 63.78 37.7676 65.07C37.5807 65.437 37.2936 65.7436 36.9396 65.9542C36.5857 66.1648 36.1794 66.2709 35.7676 66.26C36.0748 66.6999 36.2394 67.2235 36.2394 67.76C36.2394 68.2965 36.0748 68.8201 35.7676 69.26C35.3682 69.6797 34.8443 69.9597 34.2735 70.0587C33.7027 70.1578 33.1151 70.0706 32.5976 69.8101C32.4668 70.0239 32.2889 70.2051 32.0776 70.34C31.7742 70.5008 31.4273 70.5604 31.0876 70.51ZM34.3576 61.39C33.455 61.3475 32.5684 61.6394 31.8676 62.21L31.7976 62.28C31.123 62.6315 30.5523 63.1532 30.1418 63.7935C29.7313 64.4338 29.4954 65.1704 29.4576 65.9301V65.9301L29.3876 66.15C29.2201 66.5417 29.1379 66.9645 29.1466 67.3904C29.1552 67.8163 29.2544 68.2354 29.4376 68.62C30.0276 69.62 31.0576 70.05 31.6876 69.62C31.8738 69.4991 32.0146 69.3197 32.0876 69.11L32.2276 68.77L32.5476 68.9201C32.9547 69.1824 33.4372 69.3031 33.92 69.2633C34.4028 69.2235 34.8589 69.0255 35.2176 68.7C35.4545 68.265 35.5399 67.7636 35.4603 67.2747C35.3806 66.7858 35.1403 66.3373 34.7775 66L34.3076 65.4201H35.0576C36.4076 65.4801 36.8576 65.15 37.1376 64.59C37.6276 63.59 36.8776 62.28 35.4776 61.59C35.1314 61.4508 34.7607 61.3829 34.3876 61.39H34.3576Z" fill="#010001"/>
<path d="M35.2175 66.25C34.5965 66.2129 33.9901 66.046 33.4375 65.76L33.7476 65.16C35.1476 65.88 36.6775 65.68 37.1675 64.73C37.6575 63.78 36.9076 62.42 35.5076 61.73L35.8175 61.13C37.5475 62.02 38.4175 63.7801 37.8175 65.0601C37.5488 65.4917 37.159 65.8347 36.6967 66.0463C36.2343 66.2579 35.7199 66.3288 35.2175 66.25Z" fill="#010001"/>
<path d="M33.7079 69.9399C32.8462 69.877 32.0253 69.5487 31.3579 69L31.7679 68.48C33.0079 69.48 34.6178 69.57 35.2878 68.73L35.7379 69.14C35.49 69.4282 35.1756 69.6517 34.8219 69.7911C34.4682 69.9305 34.0858 69.9815 33.7079 69.9399V69.9399Z" fill="#010001"/>
<path d="M126.818 74.49C126.81 70.9366 125.452 67.519 123.018 64.9301C121.378 63.268 119.296 62.112 117.018 61.6C113.555 61.1887 110.044 61.5964 106.768 62.7901C103.088 64.3801 100.248 68.1501 100.258 68.7901C100.273 69.0593 100.342 69.3226 100.461 69.5644C100.581 69.8061 100.747 70.0213 100.952 70.1969C101.157 70.3725 101.394 70.5049 101.652 70.5862C101.909 70.6675 102.179 70.6961 102.448 70.6701C105.508 69.8301 105.878 66.83 110.448 66.09C116.868 65.03 119.448 66.86 121.608 69.09C123.968 71.53 124.708 74.2 124.928 77.59C125.296 81.4074 124.709 85.2566 123.218 88.7901C124.329 86.9542 125.212 84.9896 125.848 82.94C126.476 80.1666 126.801 77.3335 126.818 74.49Z" fill="#010001"/>
</g>
</g>
<defs>
<linearGradient id="paint0_linear_163_515" x1="83.1376" y1="-10.43" x2="81.5676" y2="28.82" gradientUnits="userSpaceOnUse">
<stop offset="0.29" stop-color="#F6F6F6"/>
<stop offset="1" stop-color="#FCDE58"/>
</linearGradient>
<clipPath id="clip0_163_515">
<rect width="126.2" height="90.62" fill="white" transform="translate(0.887695)"/>
</clipPath>
</defs>
</svg>
