<svg width="177" height="160" viewBox="0 0 177 160" fill="none" xmlns="http://www.w3.org/2000/svg">
<path d="M98.6523 159.077C98.6523 159.077 101.626 157.403 101.016 154.47C100.406 151.537 101.157 122.481 106.167 113.114C107.193 110.682 107.985 108.157 108.531 105.574C108.816 104.18 108.954 102.761 108.945 101.338" stroke="#010001" stroke-opacity="0.38" stroke-width="0.5" stroke-linecap="round" stroke-linejoin="round"/>
<path d="M79.647 160.335L96.5722 159.274" stroke="#010001" stroke-width="0.75" stroke-linecap="round" stroke-linejoin="round"/>
<path d="M116.264 158.092C113.77 157.534 113.77 151.526 113.77 148.779C113.68 146.938 113.137 145.148 112.19 143.57C110.989 142.211 110.13 140.582 109.685 138.82C109.13 137.047 112.092 125.589 112.474 121.683V121.562C113.089 117.669 114.578 113.967 116.83 110.739C119.008 107.751 120.653 105.136 123.997 102.914C129.442 99.2809 131.621 99.4232 139.648 98.9526" stroke="#010001" stroke-opacity="0.38" stroke-width="0.5" stroke-linecap="round" stroke-linejoin="round"/>
<path d="M118.671 158.344L137.317 159.493" stroke="#010001" stroke-opacity="0.38" stroke-width="0.5" stroke-linecap="round" stroke-linejoin="round"/>
<path d="M118.399 97.4204C118.415 99.4601 118.243 101.497 117.887 103.505" stroke="#010001" stroke-opacity="0.38" stroke-width="0.5" stroke-linecap="round" stroke-linejoin="round"/>
<path d="M114.096 109.918C114.998 107.396 116.394 105.082 118.204 103.114C120.013 101.146 122.198 99.563 124.628 98.4601C124.628 98.4601 131.893 95.1114 135.52 92.2441" stroke="#010001" stroke-opacity="0.38" stroke-width="0.5" stroke-linecap="round" stroke-linejoin="round"/>
<path d="M129.181 98.9523C129.181 98.9523 134.943 95.5269 136.13 93.4805" stroke="#010001" stroke-opacity="0.38" stroke-width="0.5" stroke-linecap="round" stroke-linejoin="round"/>
<path d="M136.13 91.2261C136.13 91.2261 131.501 92.4189 131.958 90.0113C131.958 90.0113 128.593 90.9416 128.234 88.4026C128.14 87.7079 128.312 87.0032 128.717 86.4319C129.122 85.8607 129.728 85.4658 130.412 85.3275L132.198 85.0539C132.056 85.0539 128.244 82.6025 130.205 79.582C131.817 77.1197 134.169 78.4877 135.346 77.4809C136.522 76.4741 135.52 74.5151 135.52 74.5151" stroke="#010001" stroke-opacity="0.38" stroke-width="0.5" stroke-linecap="round" stroke-linejoin="round"/>
<path d="M119.847 8.14215C119.847 8.14215 122.167 7.39798 122.537 9.64143C122.537 9.64143 122.995 10.5169 123.626 9.64143C123.508 9.21315 123.501 8.76136 123.607 8.32976C123.713 7.89817 123.929 7.50139 124.232 7.17782C124.535 6.85426 124.917 6.61487 125.339 6.48281C125.762 6.35074 126.211 6.33048 126.643 6.42399C126.643 6.42399 127.852 6.79609 127.526 7.68252C127.967 7.41686 128.462 7.25346 128.975 7.20424C129.487 7.15502 130.004 7.2212 130.488 7.39798C130.524 7.21815 130.597 7.04795 130.703 6.8985C130.808 6.74906 130.945 6.62374 131.102 6.53076C131.259 6.43778 131.434 6.37923 131.616 6.35895C131.797 6.33867 131.981 6.3571 132.154 6.41305C132.154 6.41305 132.906 6.83986 132.906 7.26666C132.965 6.91783 133.131 6.59631 133.381 6.3471C133.631 6.09788 133.952 5.93343 134.3 5.87681C134.791 5.75788 135.306 5.79626 135.774 5.98657C136.242 6.17688 136.639 6.50956 136.909 6.93798C137.179 7.3664 137.309 7.86907 137.281 8.37548C137.253 8.8819 137.067 9.36666 136.751 9.76181L136.696 9.82747C136.696 9.82747 135.857 11.6113 137.328 11.7098C138.798 11.8083 140.475 10.7358 142.305 12.2022C144.135 13.6687 143.122 16.0216 141.543 16.8095" stroke="#010001" stroke-opacity="0.38" stroke-width="0.5" stroke-linecap="round" stroke-linejoin="round"/>
<path d="M100.329 85.8203C100.329 85.8203 99.4036 84.2335 97.9115 85.8203C97.8033 85.9942 97.746 86.1952 97.746 86.4003C97.746 86.6054 97.8033 86.8064 97.9115 86.9803C97.9115 86.9803 95.1342 84.1021 91.6163 85.492C88.0984 86.8818 89.5252 88.7751 89.5252 88.7751C89.5252 88.7751 87.8152 90.2634 90.4509 91.5438C90.4509 91.5438 86.835 91.0623 85.6805 92.6382C84.526 94.214 86.5191 96.1401 88.643 95.9213C88.643 95.9213 87.7172 99.6968 90.5925 99.8829C90.5925 99.8829 92.3352 100.299 92.8362 99.3247C92.8362 99.3247 91.747 101.7 95.0144 100.857C95.0144 100.857 96.6373 100.539 96.6373 99.7625C96.6373 99.7625 96.7788 101.535 98.358 101.535C99.9373 101.535 100.536 100.999 100.623 100.266C100.623 100.266 100.918 103.199 103.357 103.396C106.254 103.626 107.442 101.787 107.605 100.266C107.605 100.266 107.899 101.36 110.317 101.36C110.317 101.36 112.8 105.946 115.36 102.104" stroke="#010001" stroke-opacity="0.38" stroke-width="0.5" stroke-linecap="round" stroke-linejoin="round"/>
<path d="M85.1799 91.2264C85.007 91.4993 84.7626 91.719 84.4736 91.8615C84.1847 92.0041 83.8622 92.0639 83.5416 92.0345C83.221 92.0052 82.9146 91.8877 82.6561 91.6949C82.3976 91.5022 82.1968 91.2417 82.0759 90.9419C82.0759 90.9419 81.3353 94.6737 77.7193 93.6012C77.7193 93.6012 78.9174 96.0635 75.0292 95.7899C71.1409 95.5163 71.0865 92.7257 71.1736 91.5219C71.1736 91.5219 67.8517 95.0677 64.4101 93.645C64.4101 93.645 63.0269 93.1306 64.0833 91.3687C62.9019 92.7256 61.4707 93.8404 59.8684 94.6518C58.605 95.1333 55.6534 94.8926 55.9802 92.0034" stroke="#010001" stroke-opacity="0.38" stroke-width="0.5" stroke-linecap="round" stroke-linejoin="round"/>
<path d="M54.0956 90.9855C54.0956 90.9855 48.4648 95.363 44.9142 90.0115C44.9142 90.0115 43.0409 88.2605 45.339 87.4945C45.339 87.4945 42.3439 85.8858 45.1321 84.7695" stroke="#010001" stroke-opacity="0.38" stroke-width="0.5" stroke-linecap="round" stroke-linejoin="round"/>
<path d="M42.627 82.8105C35.8852 84.6272 36.5714 79.6697 36.5714 79.6697C34.001 79.6697 35.4823 77.481 35.4823 77.481C35.4823 77.481 34.7852 71.1336 41.8864 74.6903" stroke="#010001" stroke-opacity="0.38" stroke-width="0.5" stroke-miterlimit="10" stroke-linecap="round"/>
<path d="M42.2024 73.629C42.2024 73.629 35.918 70.3459 40.6122 66.056C43.945 62.9808 47.0055 66.9643 47.0055 66.9643C47.0055 66.9643 45.4698 64.2393 47.5609 62.3461C49.6521 60.4528 52.7017 62.9042 52.7017 62.9042" stroke="#010001" stroke-opacity="0.38" stroke-width="0.5" stroke-linecap="round" stroke-linejoin="round"/>
<path d="M55.8383 55.5721C55.8383 55.5721 52.4947 56.4804 52.7016 52.5735C52.9085 48.6666 57.7116 50.3848 57.7116 50.3848C57.7116 50.3848 54.7928 45.6352 57.7116 43.0525C58.644 42.2984 59.7445 41.783 60.9188 41.5504C62.0931 41.3179 63.306 41.3752 64.4534 41.7174" stroke="#010001" stroke-opacity="0.38" stroke-width="0.5" stroke-linecap="round" stroke-linejoin="round"/>
<g opacity="0.1">
<path d="M118.202 47.0467C118.306 47.5165 118.482 47.967 118.725 48.3818C119.178 48.8347 119.776 49.1103 120.413 49.1588C121.124 49.3452 121.864 49.3898 122.591 49.2901C122.955 49.2385 123.296 49.0831 123.574 48.8426C123.852 48.602 124.055 48.2864 124.16 47.9331C124.356 47.0029 123.604 46.0289 123.909 45.1316C124.105 44.7212 124.434 44.3897 124.841 44.1909C125.248 43.9922 125.711 43.938 126.153 44.0372C127.046 44.1466 127.896 44.5297 128.789 44.5515C129.233 44.5571 129.673 44.4717 130.083 44.3005C130.493 44.1292 130.864 43.8758 131.174 43.5557L131.544 47.2437C131.547 47.497 131.631 47.7428 131.784 47.9441C131.927 48.0736 132.105 48.1574 132.296 48.1848C132.954 48.2613 133.619 48.2613 134.278 48.1848C134.944 48.0971 135.619 48.2694 136.162 48.6663C136.288 48.7713 136.391 48.902 136.463 49.0499C136.535 49.1978 136.575 49.3594 136.581 49.524C136.586 49.6886 136.556 49.8524 136.493 50.0046C136.43 50.1567 136.336 50.2937 136.217 50.4064C135.922 50.6143 135.541 50.6253 135.258 50.8441C134.67 51.3147 135.04 52.2887 135.563 52.8359C136.086 53.3831 136.794 53.9302 136.772 54.6744C136.718 55.0077 136.575 55.32 136.358 55.5781C136.141 55.8363 135.859 56.0308 135.541 56.1409C134.904 56.3445 134.296 56.6315 133.733 56.9945C132.873 57.673 132.644 58.9096 131.893 59.7085C131.021 60.3687 130.056 60.8927 129.028 61.2625C128.07 61.7878 127.231 62.9806 127.776 63.9327C128.32 64.8848 129.856 65.2788 129.529 66.2637C129.409 66.6577 128.963 66.9203 128.919 67.3581C128.876 67.7958 129.464 68.2117 130.008 68.2445C130.517 68.1908 131.03 68.2092 131.533 68.2992C131.773 68.6932 131.337 69.1747 130.902 69.2951C130.449 69.3439 130.008 69.4658 129.595 69.6562C129.465 69.7847 129.363 69.9389 129.295 70.1091C129.228 70.2792 129.196 70.4616 129.202 70.6446C129.208 70.8277 129.252 71.0075 129.331 71.1727C129.41 71.3379 129.522 71.4848 129.66 71.6042C130.246 72.0602 130.957 72.3239 131.697 72.3593C132.437 72.4007 133.154 72.6345 133.777 73.0378C134.139 73.3616 134.392 73.7902 134.501 74.2646C134.61 74.7389 134.57 75.2356 134.387 75.6862C134.027 76.5836 133.428 77.6232 132.492 77.8749C131.745 77.977 131.058 78.3414 130.553 78.9036C130.368 79.1772 130.117 78.9036 130.117 79.2757C130.117 80.1731 129.497 81.4645 129.834 82.2743C130.172 83.0841 131.294 84.463 131.011 85.1525C130.466 86.4547 129.137 86.4219 128.462 87.6586C128.059 88.3808 127.547 87.6586 128.211 88.1729C128.876 88.6873 129.301 90.1427 130.063 90.4492C130.825 90.7556 132.111 89.9786 132.764 90.6024C133.129 90.907 133.401 91.3092 133.548 91.7624C133.608 92.1746 133.545 92.5955 133.367 92.9716C133.188 93.3477 132.903 93.662 132.546 93.8745C131.86 94.3342 130.934 95.7021 130.128 95.8991C126.248 97.0927 122.637 99.037 119.498 101.623C118.681 100.725 120.13 97.2452 121.154 96.6214C122.178 95.9976 123.474 95.6365 124.149 94.6297C124.492 94.071 124.606 93.3999 124.466 92.7586C124.325 92.1172 123.942 91.5559 123.397 91.1933C123.904 91.5313 124.492 91.726 125.1 91.7568C125.707 91.7876 126.312 91.6534 126.85 91.3684C125.561 89.2271 123.716 87.4791 121.513 86.3125C121.579 85.3604 122.602 84.8132 123.016 83.9377C123.485 82.8433 122.896 81.6943 122.319 80.6546C121.742 79.615 121.045 78.5972 119.934 78.4659C118.442 78.2908 117.07 79.9652 115.654 79.4727C115.327 79.3633 115.044 79.1335 114.717 79.035C114.367 78.9688 114.006 78.9816 113.662 79.0725C113.317 79.1633 112.997 79.3299 112.724 79.5602C112.182 80.0346 111.558 80.4055 110.883 80.6546C110.544 80.7594 110.177 80.7279 109.86 80.5667C109.543 80.4055 109.301 80.1271 109.184 79.7901C109.707 78.9146 110.763 78.5753 111.591 77.9844C112.419 77.3934 112.953 76.0692 112.179 75.4235C111.406 74.7779 110.001 75.522 109.249 74.8545C109.033 74.6092 108.843 74.3414 108.683 74.0556C108.369 73.6878 107.972 73.4014 107.524 73.2205C107.077 73.0395 106.593 72.9694 106.113 73.016C105.154 73.016 104.207 73.3114 103.248 73.3661C103.041 72.2718 104.141 71.1774 105.263 70.9585C106.411 70.838 107.568 70.838 108.716 70.9585C109.29 71.007 109.867 70.8983 110.385 70.644C110.902 70.3896 111.342 69.9991 111.657 69.514C111.798 69.2185 111.874 68.8683 112.136 68.6823C112.296 68.5802 112.48 68.5201 112.669 68.5072C113.661 68.3868 114.946 68.2336 115.937 68.146C116.928 68.0585 118.017 67.763 118.006 66.7562C118.653 66.6496 119.248 66.3348 119.702 65.8592C120.156 65.3836 120.443 64.7728 120.522 64.1188C120.753 62.7611 120.693 61.3697 120.348 60.0368C121.332 59.629 122.2 58.9822 122.875 58.1545C123.964 56.8522 124.334 54.6525 122.994 53.6348C122.142 53.1293 121.133 52.9578 120.163 53.1532C117.549 53.4049 114.804 53.8646 112.386 52.8578C112.215 52.7981 112.062 52.6965 111.94 52.5623C111.613 52.1245 112.059 51.5445 112.397 51.1068C112.756 50.5863 112.969 49.979 113.015 49.3478C113.061 48.7166 112.938 48.0846 112.658 47.5173C112.31 46.7731 110.861 46.0618 111.352 45.3942C111.842 44.7266 114.042 45.0549 114.619 45.0768C116.078 45.0987 117.636 45.4817 118.202 47.0467Z" fill="#F57D24"/>
</g>
<path opacity="0.1" d="M65.4121 60.0915C65.3468 60.9342 66.1092 61.5799 66.8389 62.0067C67.4219 62.3378 68.0258 62.6303 68.6469 62.8822C69.2134 63.135 69.8242 63.2727 70.4439 63.2871C71.5598 63.1335 72.6037 62.6453 73.4391 61.8863C73.7549 61.6734 74.0313 61.4068 74.2559 61.0983C74.3722 60.8917 74.4431 60.6625 74.4639 60.426C74.4847 60.1896 74.4549 59.9514 74.3765 59.7275C74.2981 59.5036 74.1729 59.2991 74.0093 59.1278C73.8458 58.9566 73.6476 58.8225 73.4282 58.7345C72.5568 58.439 71.8271 58.9534 71.0103 59.1285C70.441 59.2284 69.8549 59.1481 69.333 58.8987C68.1568 58.4938 65.5755 58.2749 65.4121 60.0915Z" fill="#F57D24"/>
<path opacity="0.1" d="M74.4736 63.8672C74.4736 64.3268 74.8657 64.6879 75.2687 64.9615C75.5879 65.1474 75.919 65.3119 76.2598 65.454C76.5766 65.5913 76.9169 65.6657 77.2618 65.6729C77.8801 65.5913 78.4583 65.32 78.9173 64.8959C79.0942 64.7819 79.2461 64.633 79.3639 64.4581C79.4274 64.3441 79.466 64.2177 79.4772 64.0875C79.4883 63.9573 79.4716 63.8262 79.4283 63.703C79.385 63.5797 79.3161 63.4672 79.2261 63.3728C79.1361 63.2785 79.0271 63.2045 78.9064 63.1558C78.4272 63.0026 78.0242 63.2762 77.5776 63.3747C77.264 63.4292 76.9414 63.3873 76.6519 63.2543C75.9984 62.926 74.5608 62.7728 74.4736 63.8672Z" fill="#F57D24"/>
<g opacity="0.1">
<path opacity="0.1" d="M92.8036 83.9925C92.7382 84.7586 93.4353 85.3386 94.0888 85.7216C94.6183 86.0251 95.1678 86.292 95.7334 86.5205C96.247 86.7538 96.8034 86.8768 97.3671 86.8817C98.377 86.7514 99.3212 86.3076 100.068 85.6122C100.361 85.425 100.616 85.1836 100.82 84.9009C100.923 84.7137 100.986 84.5067 101.004 84.2934C101.021 84.0801 100.994 83.8654 100.923 83.6636C100.852 83.4618 100.739 83.2775 100.591 83.1229C100.444 82.9683 100.266 82.8469 100.068 82.7668C99.2839 82.5042 98.6196 82.9529 97.8898 83.117C97.3735 83.2121 96.8406 83.1433 96.3651 82.9201C95.2977 82.537 92.9561 82.34 92.8036 83.9925Z" fill="#F57D24"/>
</g>
<g opacity="0.1">
<path opacity="0.1" d="M110.981 11.5126C111.125 11.4059 111.247 11.2721 111.341 11.1187C111.419 10.9468 111.46 10.7603 111.46 10.5715C111.52 10.2496 111.52 9.91938 111.46 9.59751C111.434 9.44388 111.366 9.30045 111.265 9.18276C111.163 9.06508 111.031 8.97764 110.883 8.92995C110.153 8.78768 110.458 7.62765 110.175 6.94915C110.042 6.60115 109.834 6.28667 109.567 6.0277C109.3 5.76873 108.98 5.57152 108.629 5.44986C108.229 5.3949 107.821 5.45278 107.452 5.61705C107.083 5.78131 106.766 6.04549 106.538 6.38007C105.753 7.2884 104.294 10.1009 105.568 11.1843C105.971 11.5345 106.505 11.3704 106.973 11.447C107.421 11.5391 107.846 11.7226 108.22 11.9861C108.595 12.2496 108.912 12.5876 109.152 12.9791C109.783 12.5523 110.382 11.9942 110.981 11.5126Z" fill="#F57D24"/>
</g>
<path d="M72.6112 38.6965C72.6112 38.6965 70.03 35.096 74.4737 34.8115C78.9173 34.5269 77.9916 37.9742 77.9916 37.9742L79.7451 37.4161C79.7451 37.4161 77.6213 32.6665 83.7313 32.579C89.8414 32.4914 89.3839 35.5556 89.1116 36.3983C89.1116 36.3983 88.9701 37.6568 88.1314 37.8429C88.1314 37.8429 92.9128 37.1863 93.5118 40.0316C93.7247 40.7808 93.6852 41.5796 93.3997 42.304C93.1141 43.0283 92.5983 43.6376 91.9325 44.037C91.9325 44.037 96.4307 39.4188 100.646 41.4215C104.861 43.4241 102.41 47.9876 102.41 47.9876" stroke="#010001" stroke-opacity="0.38" stroke-width="0.5" stroke-linecap="round" stroke-linejoin="round"/>
<path d="M80.6489 31.8897C80.6489 31.8897 75.7587 29.3836 79.8429 26.4179C79.8429 26.4179 73.722 23.9009 76.5755 18.2211C79.4291 12.5414 81.0192 18.2211 81.0192 18.2211C81.0192 18.2211 80.8231 15.715 84.0906 16.4373C84.0906 16.4373 78.8082 9.72886 87.8916 9.25828C87.8916 9.25828 88.7303 1.34603 97.2583 3.1189C97.537 2.5095 98.0398 2.03229 98.6612 1.78743C99.2826 1.54257 99.9743 1.5491 100.591 1.80565C101.061 1.88146 101.493 2.10995 101.822 2.45613C102.151 2.80231 102.357 3.24713 102.41 3.72252C102.464 4.19792 102.36 4.67771 102.116 5.08849C101.872 5.49927 101.501 5.8184 101.059 5.99707C101.059 5.99707 105.111 4.44308 105.525 9.95868" stroke="#010001" stroke-opacity="0.38" stroke-width="0.5" stroke-linecap="round" stroke-linejoin="round"/>
<path d="M117.658 21.7447C117.658 21.7447 112.376 22.1168 114.39 18.013C114.39 18.013 111.57 16.7326 115.185 14.4344C114.979 13.9047 114.89 13.3359 114.925 12.768C114.961 12.2001 115.119 11.647 115.39 11.1473C115.661 10.6477 116.038 10.2137 116.493 9.87599C116.949 9.53826 117.473 9.30491 118.028 9.19238" stroke="#010001" stroke-opacity="0.38" stroke-width="0.5" stroke-linecap="round" stroke-linejoin="round"/>
<path d="M104.207 4.00533C104.207 4.00533 103.826 -0.547238 109.392 0.404859C114.957 1.35696 112.343 7.21181 112.343 7.21181C112.343 7.21181 114.521 5.69064 117.353 7.93409" stroke="#010001" stroke-opacity="0.38" stroke-width="0.5" stroke-miterlimit="10" stroke-linecap="round"/>
<path d="M0.35791 149.381C13.2872 150.416 26.2781 150.416 39.2074 149.381C61.5892 147.707 71.6093 149.381 71.6093 149.381" stroke="#010001" stroke-opacity="0.38" stroke-width="0.5" stroke-linecap="round" stroke-linejoin="round"/>
<path d="M116.83 149.381C116.83 149.381 146.716 150.125 159.513 148.166C172.311 146.207 189.824 147.334 189.824 147.334" stroke="#010001" stroke-opacity="0.38" stroke-width="0.5" stroke-linecap="round" stroke-linejoin="round"/>
<path d="M115.894 68.6387L117.843 70.904C118.29 71.4241 118.538 72.088 118.54 72.7754V78.3238" stroke="#010001" stroke-opacity="0.38" stroke-width="0.5" stroke-linecap="round" stroke-linejoin="round"/>
<path d="M118.191 67.6538L120.37 69.4923C120.715 69.7968 120.991 70.1724 121.179 70.5934C121.366 71.0145 121.462 71.4713 121.459 71.9328L122.091 79.4401" stroke="#010001" stroke-opacity="0.38" stroke-width="0.5" stroke-linecap="round" stroke-linejoin="round"/>
<path opacity="0.5" d="M29.7512 117.089C30.0738 117.074 30.3879 116.98 30.6661 116.815C32.4526 115.788 34.0126 114.407 35.2514 112.755V112.755C37.4296 110.107 33.9662 106.189 31.3849 108.936C30.2958 110.129 31.6681 111.628 31.1453 112.799C30.1215 115.25 28.0086 117.089 29.7512 117.089Z" fill="#F57D24"/>
<path opacity="0.5" d="M24.4597 120.114C24.6617 119.989 24.831 119.818 24.9536 119.615C25.828 118.38 26.4358 116.976 26.7386 115.493V115.493C27.2567 113.021 23.1969 111.551 22.659 114.283C22.4174 115.155 22.7281 120.968 24.4597 120.114Z" fill="#F57D24"/>
<g opacity="0.5">
<path d="M39.6916 107.891C40.0181 108.021 40.3724 108.066 40.721 108.022C43.012 107.918 45.2573 107.343 47.3179 106.332C50.7397 104.627 48.7678 98.4939 45.0126 100.344C43.7368 100.985 37.0673 106.609 39.6916 107.891Z" fill="#F57D24"/>
</g>
<path opacity="0.5" d="M20.2222 126.296C20.3391 126.406 20.4813 126.485 20.636 126.526C21.6216 126.852 22.6626 126.975 23.6965 126.887V126.887C25.4065 126.712 25.5263 123.823 23.6965 124.009C22.9886 124.03 19.34 125.355 20.2222 126.296Z" fill="#F57D24"/>
<g opacity="0.7">
<path opacity="0.5" d="M16.8307 130.436C16.7413 130.346 16.6276 130.285 16.504 130.26C15.7296 130.019 14.913 129.944 14.1079 130.042V130.042C12.7682 130.195 12.7029 132.471 14.1623 132.296C14.6742 132.241 17.5495 131.169 16.8307 130.436Z" fill="#F57D24"/>
</g>
<g opacity="0.5">
<path opacity="0.5" d="M4.24152 131.262C4.34574 131.331 4.46564 131.372 4.59005 131.382C5.38982 131.504 6.20632 131.456 6.98617 131.24V131.24C8.28224 130.89 8.02083 128.635 6.59406 129.051C6.12573 129.149 3.41378 130.638 4.24152 131.262Z" fill="#F57D24"/>
</g>
<path d="M90.6255 160.981C90.6255 160.981 106.167 162.075 111.493 150.037C117.418 136.675 109.315 130.963 103.14 132.462C96.9643 133.961 92.7275 146.229 92.7275 146.229L90.6255 160.981Z" fill="#FCDE58"/>
<path d="M76.0853 104.643C73.4472 105.258 70.9732 106.441 68.8336 108.109C66.6939 109.777 64.9394 111.891 63.6909 114.306C62.6017 116.495 62.0681 118.957 60.4997 120.807C59.6284 121.814 58.5066 122.591 57.7006 123.652C55.5223 126.508 56.3283 130.82 58.5828 133.6C60.8373 136.38 64.1919 137.977 67.492 139.389C73.6204 141.743 80.3144 142.178 86.6935 140.637C88.0481 140.203 89.3604 139.646 90.6143 138.973C92.2463 138.25 93.745 137.254 95.0471 136.029C97.4247 134.101 99.372 131.692 100.762 128.958C102.153 126.224 102.955 123.227 103.118 120.161C103.27 114.766 100.242 108.692 94.5679 106.799C92.3896 106.066 89.8411 104.862 87.5103 104.534C83.633 103.997 79.9517 103.669 76.0853 104.643Z" fill="#FCDE58"/>
<path d="M91.8889 104.085C92.6901 103.302 93.6642 102.721 94.7316 102.389L101.462 99.6747C102.035 99.3747 102.685 99.26 103.325 99.3464C103.801 99.508 104.213 99.8186 104.501 100.233C105.267 101.325 105.65 102.641 105.59 103.976C105.512 105.299 105.286 106.61 104.915 107.882C104.745 108.715 104.475 109.524 104.109 110.29C103.285 111.457 102.394 112.575 101.441 113.639C100.401 115.369 99.7362 117.301 99.4911 119.308C99.4911 119.1 98.4019 118.082 98.2494 117.896L96.9098 116.364C96.0385 115.335 95.1672 114.306 94.3177 113.256C93.4682 112.205 92.6513 111.133 91.878 110.027C91.2297 109.378 90.7929 108.546 90.6255 107.642C90.6473 106.349 91.0912 105.099 91.8889 104.085V104.085Z" fill="#FCDE57"/>
<path d="M74.8656 106.394C74.6948 105.792 74.665 105.159 74.7785 104.544C75.1715 101.538 76.4024 98.7038 78.3291 96.3696C78.4827 96.1359 78.6913 95.9437 78.9363 95.8101C79.1813 95.6766 79.4553 95.6056 79.7341 95.6035C80.4747 95.713 80.7143 96.6979 80.8232 97.3873C81.3207 100.158 82.5043 102.759 84.2649 104.949C84.4174 105.146 84.6025 105.398 84.5263 105.639C84.4762 105.782 84.3853 105.908 84.2649 106C82.5223 107.477 76.031 109.655 74.8656 106.394Z" fill="#FCDE57"/>
<path d="M74.9857 104.545C75.326 101.967 76.2909 99.5134 77.7956 97.3984C78.1326 96.8291 78.5765 96.3311 79.1026 95.932C79.7561 95.538 80.1917 96.0305 80.4422 96.6324C80.5974 97.191 80.7247 97.7572 80.8234 98.3286C80.974 98.9742 81.1632 99.6101 81.3897 100.233C81.8945 101.609 82.5716 102.914 83.4047 104.118C83.5571 104.337 83.9057 104.118 83.7532 103.91C82.8685 102.639 82.1647 101.25 81.662 99.7841C81.4219 99.0673 81.2255 98.3363 81.0739 97.5954C81.0129 97.0413 80.8505 96.5033 80.5947 96.0086C79.059 93.5025 76.3362 98.9196 75.8569 99.9921C75.2134 101.444 74.7806 102.98 74.5718 104.556C74.5718 104.818 74.9421 104.818 74.9857 104.556V104.545Z" fill="#010001"/>
<path d="M97.3127 145.222C97.3127 145.222 99.3058 145.342 103.031 140.232C105.111 137.375 104.12 133.666 103.205 130.711C102.867 129.616 102.845 128.522 102.508 127.844C102.17 127.165 101.517 127.231 101.517 127.231L98.0859 122.788L86.1055 131.346L93.6205 141.195L97.3127 145.222Z" fill="#FCDE58"/>
<path d="M60.8374 139.52C60.8374 139.52 59.977 139.52 58.3651 137.332C56.7532 135.143 59.0186 131.729 59.0186 131.729L60.4998 129.813L65.6514 133.501L62.384 137.77L60.8374 139.52Z" fill="#FCDE58"/>
<path d="M91.8127 161.265C90.0341 163.355 87.7443 164.943 85.169 165.873C79.1569 168.236 72.5568 166.048 66.3705 160.981C57.8425 153.999 53.9761 144.565 60.9248 135.997C67.8735 127.428 83.0779 122.864 91.5949 129.846C100.112 136.828 98.7832 152.675 91.8127 161.265Z" fill="#FCDE58"/>
<path d="M57.7006 143.143L57.3848 143.088C57.8992 140.434 59.0844 137.958 60.8264 135.898L61.0769 136.106C59.3719 138.123 58.2095 140.546 57.7006 143.143V143.143Z" fill="#010001"/>
<path d="M72.8397 164.942C72.8397 164.942 67.0237 162.021 63.484 163.914L58.9096 161.44C58.8398 161.401 58.7835 161.341 58.7477 161.269C58.712 161.196 58.6985 161.115 58.709 161.035C58.7196 160.955 58.7536 160.88 58.8068 160.82C58.86 160.76 58.93 160.717 59.0077 160.696C60.3991 160.331 61.8709 160.431 63.2008 160.981C63.2008 160.981 62.1879 155.629 63.7563 151.941C65.3246 148.253 74.1031 156.746 74.1031 156.746L72.8397 164.942Z" fill="#FCDE58"/>
<path d="M62.3077 157.041C62.3077 157.041 56.862 154.163 52.9847 155.356L48.8787 151.985C48.8206 151.94 48.7778 151.877 48.7561 151.807C48.7345 151.736 48.735 151.66 48.7575 151.59C48.7801 151.519 48.8237 151.458 48.8824 151.413C48.9411 151.368 49.012 151.342 49.0856 151.34C50.5582 151.231 52.0252 151.616 53.257 152.434C53.257 152.434 53.257 146.962 55.5006 143.679C57.7442 140.396 64.7692 150.366 64.7692 150.366L62.3077 157.041Z" fill="#FCDE58"/>
<path d="M62.7654 157.818L62.6347 157.687L62.4169 157.435V157.381L62.199 157.173C61.8614 156.998 57.1563 154.656 53.6057 155.367C53.3891 155.412 53.1653 155.407 52.9506 155.354C52.7359 155.301 52.5355 155.201 52.3641 155.061L48.8135 152.15C48.7239 152.082 48.6586 151.986 48.6272 151.878C48.5959 151.769 48.6001 151.654 48.6393 151.548C48.6762 151.443 48.7437 151.351 48.833 151.284C48.9223 151.218 49.0293 151.18 49.1403 151.176C50.5206 151.087 51.8963 151.41 53.0938 152.106C53.0938 150.902 53.3988 146.47 55.3592 143.559C55.4863 143.351 55.6596 143.176 55.8657 143.046C56.0717 142.917 56.3047 142.838 56.5464 142.815C57.6355 142.716 59.1168 143.636 60.9901 145.54L60.7614 145.77C58.9752 143.964 57.494 143.056 56.5682 143.143C56.3755 143.161 56.1899 143.225 56.0269 143.329C55.8639 143.434 55.7283 143.577 55.6315 143.745C53.4532 147.028 53.4532 152.369 53.4532 152.423V152.741L53.1919 152.544C52.0063 151.772 50.6039 151.407 49.1947 151.504C49.1481 151.502 49.1023 151.517 49.0647 151.544C49.0272 151.572 49 151.612 48.9878 151.657C48.9724 151.7 48.9716 151.747 48.9854 151.791C48.9991 151.834 49.0268 151.872 49.064 151.898L52.5057 154.809C52.6396 154.918 52.7963 154.996 52.9642 155.035C53.132 155.075 53.3067 155.076 53.4751 155.039C57.2544 154.284 62.101 156.79 62.3079 156.899L62.6129 157.195L62.8198 157.435L62.9505 157.567L62.7654 157.818Z" fill="#010001"/>
<path d="M67.4379 139.586C70.2221 140.705 73.1606 141.388 76.151 141.611C79.2117 141.934 82.3036 141.79 85.3215 141.184C87.1934 140.748 88.9991 140.064 90.691 139.148C90.9306 139.039 90.6909 138.678 90.484 138.798C88.9582 139.624 87.338 140.26 85.6591 140.691C84.2282 141.025 82.77 141.226 81.3026 141.293C78.2108 141.475 75.1086 141.243 72.0776 140.604C70.5087 140.278 68.9735 139.806 67.4923 139.192C67.2418 139.094 67.1438 139.488 67.3834 139.586H67.4379Z" fill="#010001"/>
<path d="M94.6224 106.602C92.4944 105.729 90.3114 104.998 88.0876 104.413C85.6744 103.966 83.222 103.768 80.7686 103.822C76.5726 103.905 72.4993 105.259 69.0822 107.707C67.539 108.818 66.1791 110.166 65.0523 111.702C63.9181 113.401 63.0066 115.24 62.3404 117.174C61.9552 118.205 61.4547 119.189 60.8483 120.106C60.1545 120.989 59.3776 121.803 58.5284 122.536C57.8384 123.171 57.283 123.939 56.8956 124.795C56.5082 125.65 56.2967 126.576 56.2739 127.515C56.2532 129.661 56.9386 131.754 58.2235 133.469C59.7251 135.333 61.6132 136.845 63.7563 137.901C63.9959 138.021 64.1919 137.671 63.9632 137.551C60.4126 135.646 57.0907 132.746 56.7095 128.456C56.6035 127.511 56.7013 126.553 56.9963 125.648C57.2914 124.744 57.7768 123.914 58.4195 123.214C59.1492 122.448 59.9988 121.803 60.6849 121.026C61.3138 120.253 61.8375 119.399 62.2424 118.487C62.9482 116.609 63.7778 114.781 64.7256 113.015C65.7287 111.408 66.9912 109.981 68.4613 108.791C71.6268 106.238 75.4896 104.711 79.5379 104.413C82.1997 104.263 84.8699 104.41 87.4995 104.851C89.9609 105.212 92.2154 106.339 94.5571 107.116C94.8076 107.204 94.9056 106.81 94.666 106.722L94.6224 106.602Z" fill="#010001"/>
<path d="M91.2461 105.562C91.581 104.692 92.1839 103.952 92.9669 103.45C93.7601 103.011 94.5912 102.644 95.4501 102.356L101.364 99.97C101.802 99.7623 102.268 99.6221 102.747 99.5542C103.014 99.54 103.28 99.589 103.524 99.6974C103.768 99.8058 103.983 99.9704 104.152 100.178C104.736 100.873 105.113 101.718 105.241 102.618C105.428 104.603 105.182 106.604 104.523 108.484C104.271 109.527 103.795 110.502 103.129 111.34C102.497 112.096 101.789 112.774 101.223 113.529C101.204 113.561 101.195 113.597 101.195 113.633C101.195 113.67 101.204 113.706 101.223 113.737C101.964 115.095 102.448 116.579 102.649 118.115C103.189 121.826 102.447 125.611 100.547 128.839C98.8643 131.657 96.6786 134.139 94.0996 136.161C93.9035 136.325 94.1867 136.609 94.3937 136.445C98.3799 133.162 101.865 128.938 102.922 123.761C103.517 120.869 103.295 117.866 102.279 115.094C102.092 114.548 101.855 114.02 101.571 113.518V113.726C102.192 112.862 102.976 112.139 103.619 111.308C104.199 110.546 104.621 109.675 104.86 108.747C105.556 106.773 105.827 104.673 105.655 102.586C105.394 100.933 104.305 98.7115 102.312 99.1602C101.789 99.3 101.279 99.483 100.787 99.7074L98.9898 100.43L95.7224 101.754C94.6539 102.115 93.6248 102.584 92.651 103.155C91.8379 103.719 91.212 104.516 90.854 105.442C90.756 105.683 91.148 105.792 91.2461 105.551V105.562Z" fill="#010001"/>
<path d="M74.7596 122.648C75.046 121.826 74.8502 121.01 74.3223 120.824C73.7943 120.638 73.1342 121.153 72.8477 121.975C72.5613 122.796 72.7571 123.613 73.285 123.798C73.813 123.984 74.4731 123.469 74.7596 122.648Z" fill="#010001"/>
<path d="M65.9339 119.815C66.2203 118.993 66.0245 118.177 65.4966 117.991C64.9686 117.805 64.3085 118.32 64.022 119.142C63.7356 119.963 63.9314 120.78 64.4593 120.965C64.9873 121.151 65.6474 120.636 65.9339 119.815Z" fill="#010001"/>
<path d="M76.7391 112.391C76.7391 112.61 76.6737 112.873 76.848 113.015C76.9085 113.063 76.9791 113.097 77.0545 113.115C77.13 113.132 77.2083 113.131 77.2836 113.114C78.0289 112.926 78.6844 112.48 79.1352 111.855C80.2243 110.64 81.2154 109.371 82.4026 108.265C83.5404 107.109 84.9315 106.236 86.465 105.716C87.0858 105.53 87.8156 105.365 88.1096 104.785C86.1928 104.37 83.8947 103.833 82.1194 104.862C80.3353 105.904 78.8699 107.418 77.8826 109.239C77.3406 110.224 76.9547 111.287 76.7391 112.391V112.391Z" fill="#010001"/>
<path d="M73.1013 107.477C72.2116 108.852 71.8658 110.511 72.1319 112.128C72.1325 112.174 72.1425 112.219 72.1612 112.26C72.18 112.302 72.2071 112.339 72.2409 112.369C72.3825 112.479 72.5676 112.369 72.6983 112.238C73.3719 111.492 73.977 110.686 74.5063 109.83C76.3245 107.56 78.5074 105.611 80.9649 104.063C80.4921 104.186 80.0044 104.241 79.5163 104.227C79.0915 104.227 78.5034 104.457 78.0678 104.479C77.5656 104.499 77.0712 104.611 76.6083 104.807C75.2013 105.328 73.9804 106.257 73.1013 107.477V107.477Z" fill="#010001"/>
<path d="M84.7767 109.666C83.9864 110.463 83.4972 111.512 83.3934 112.632C83.3879 112.69 83.3948 112.748 83.4136 112.803C83.4324 112.857 83.4627 112.907 83.5024 112.949C83.5446 112.979 83.5924 113.001 83.6429 113.012C83.6933 113.023 83.7455 113.024 83.7964 113.015C84.1373 112.948 84.46 112.808 84.7435 112.607C85.0269 112.405 85.2646 112.145 85.441 111.844C85.8331 111.275 86.2688 110.75 86.7044 110.235C87.0976 109.673 87.571 109.171 88.1094 108.747C89.5144 107.795 91.257 107.029 92.7164 106.208C91.5402 105.584 90.2659 104.961 89.0461 105.639C87.3966 106.717 85.951 108.08 84.7767 109.666V109.666Z" fill="#010001"/>
<path d="M59.28 138.152C58.7707 137.489 58.422 136.715 58.2613 135.893C58.1006 135.07 58.1324 134.222 58.3542 133.414C58.4523 133.173 58.0602 133.064 57.9622 133.304C57.7229 134.165 57.6859 135.07 57.8541 135.947C58.0223 136.824 58.3912 137.651 58.9315 138.36C59.0622 138.579 59.4216 138.36 59.28 138.152V138.152Z" fill="#010001"/>
<path d="M92.6184 161.014H92.1392V160.685C95.9838 160.762 105.459 160.007 110.469 151.361C115.218 143.175 113.486 138.229 112.038 136.04C111.185 134.734 109.994 133.686 108.593 133.01C107.193 132.333 105.635 132.053 104.087 132.199V131.871C105.695 131.718 107.313 132.009 108.768 132.713C110.223 133.417 111.459 134.507 112.343 135.865C113.835 138.141 115.61 143.197 110.785 151.536C105.96 159.875 96.7789 161.014 92.6184 161.014Z" fill="#010001"/>
<path d="M80.0064 116.32C76.0528 114.93 72.2953 115.39 71.0754 118.902C69.8556 122.415 71.7071 127.395 75.6607 128.752C79.6143 130.109 84.1669 127.417 85.3867 123.915C86.6065 120.413 83.9599 117.71 80.0064 116.32ZM75.8894 128.117C72.3606 126.88 70.7051 122.426 71.7943 119.296C72.8834 116.167 76.2488 115.751 79.7777 116.987C83.3065 118.224 85.6699 120.664 84.5807 123.794C83.9284 125.473 82.6757 126.847 81.0681 127.647C79.4605 128.446 77.6137 128.614 75.8894 128.117V128.117Z" fill="#010001"/>
<path d="M65.2704 112.906C63.0922 112.129 60.6852 113.223 59.6832 116.112C58.6812 119.001 59.5089 122.35 61.709 123.127C63.909 123.904 66.7952 121.365 67.7972 118.487C68.7992 115.609 67.4814 113.672 65.2704 112.906ZM61.905 122.58C59.9337 121.89 59.1822 118.925 60.0753 116.353C60.9684 113.781 63.1248 112.753 65.0853 113.453C65.5855 113.592 66.0493 113.84 66.4439 114.179C66.8386 114.517 67.1545 114.939 67.3694 115.414C67.5844 115.888 67.6931 116.405 67.688 116.926C67.6829 117.448 67.564 117.962 67.3398 118.432C66.4467 121.004 63.8655 123.269 61.905 122.58V122.58Z" fill="#010001"/>
<path d="M68.0475 116.966C68.0475 116.966 68.0475 116.309 69.0386 116.309C69.5599 116.274 70.0817 116.369 70.5571 116.587C71.0324 116.805 71.4463 117.138 71.7615 117.557L72.513 116.747C72.513 116.747 72.4259 116.178 71.5655 115.707C71.0213 115.386 70.4142 115.187 69.7861 115.125C69.158 115.062 68.5239 115.138 67.9277 115.346L68.0475 116.966Z" fill="#010001"/>
<path d="M84.9617 124.911C84.9617 124.911 85.7895 123.116 87.14 123.247L101.233 126.705L101.647 125.534C101.647 125.534 86.8242 120.872 85.9964 120.062C84.847 118.828 83.4713 117.829 81.9448 117.119L84.7548 120.227L85.2231 123.51L84.9617 124.911Z" fill="#010001"/>
<path d="M59.5522 115.226C59.5522 115.226 59.9552 115.423 59.8572 115.729C59.8572 115.729 60.9463 113.65 61.4909 113.541C61.4909 113.541 60.4018 114.11 59.9988 113.913L59.5522 115.226Z" fill="#010001"/>
<path d="M99.0229 126.169C99.0229 126.169 100.45 126.618 100.45 127.187C100.45 127.756 101.855 129.376 102.41 128.719C102.966 128.063 103.499 125.929 101.626 125.535C100.721 125.541 99.8299 125.758 99.0229 126.169V126.169Z" fill="#010001"/>
<path d="M99.9157 127.603C100.35 127.307 100.873 127.17 101.396 127.214C101.919 127.257 102.411 127.48 102.791 127.844C102.931 128.564 102.979 129.3 102.933 130.033C102.78 130.569 101.103 131.422 101.103 131.422L99.5454 130.427L99.9157 127.603Z" fill="#FCDE58"/>
<path d="M101.517 127.34C102.486 127.231 102.758 128.314 102.758 129.08C102.731 129.397 102.731 129.715 102.758 130.032C102.838 130.408 102.955 130.774 103.107 131.126C103.684 132.597 104.011 134.154 104.076 135.734C104.104 137.2 103.788 138.653 103.154 139.974C102.52 141.295 101.586 142.448 100.428 143.34C99.7647 143.859 99.0002 144.232 98.1839 144.434C97.378 144.62 96.5502 144.686 95.7334 144.817C95.472 144.817 95.5809 145.244 95.8423 145.211C96.6591 145.08 97.4869 145.014 98.2928 144.828C99.0543 144.654 99.7753 144.334 100.417 143.887C101.67 142.977 102.692 141.781 103.398 140.399C104.104 139.016 104.475 137.485 104.479 135.931C104.413 134.209 104.045 132.512 103.39 130.919C103.195 130.48 103.084 130.009 103.063 129.529C103.085 129.099 103.052 128.669 102.965 128.248C102.893 127.894 102.698 127.578 102.414 127.355C102.131 127.132 101.778 127.018 101.419 127.034C101.157 127.034 101.157 127.471 101.419 127.438L101.517 127.34Z" fill="#010001"/>
<path d="M100.939 127.176C100.781 127.089 100.598 127.059 100.42 127.091C100.242 127.123 100.081 127.214 99.9617 127.35C99.8426 127.486 99.7732 127.659 99.7648 127.841C99.7565 128.022 99.8097 128.2 99.9158 128.347V128.095C99.8069 128.205 99.6434 128.227 99.5236 128.325C99.401 128.422 99.3131 128.557 99.2732 128.708C99.2451 128.857 99.266 129.012 99.3328 129.148C99.3996 129.284 99.5086 129.395 99.6435 129.463V129.091C99.4559 129.133 99.2906 129.244 99.1799 129.402C99.0691 129.56 99.0209 129.753 99.0444 129.945C99.1504 130.273 99.3609 130.558 99.6435 130.755C99.8504 130.908 100.057 130.558 99.8504 130.404C99.6795 130.277 99.5444 130.107 99.4583 129.912C99.3712 129.715 99.5672 129.529 99.7524 129.485C99.7868 129.468 99.8157 129.441 99.8359 129.408C99.8562 129.376 99.8669 129.338 99.8669 129.299C99.8669 129.26 99.8562 129.223 99.8359 129.19C99.8157 129.157 99.7868 129.13 99.7524 129.113C99.7128 129.099 99.677 129.076 99.6478 129.045C99.6186 129.015 99.5969 128.978 99.5842 128.938C99.5715 128.897 99.5683 128.855 99.5748 128.813C99.5813 128.771 99.5974 128.732 99.6217 128.697C99.6942 128.63 99.7793 128.578 99.8722 128.544C99.9608 128.503 100.042 128.448 100.112 128.38C100.135 128.344 100.148 128.302 100.148 128.259C100.148 128.217 100.135 128.175 100.112 128.139C100.052 128.071 100.018 127.983 100.015 127.892C100.012 127.801 100.041 127.712 100.096 127.64C100.151 127.567 100.23 127.517 100.318 127.496C100.406 127.475 100.499 127.486 100.58 127.526C100.809 127.636 101.016 127.285 100.776 127.176H100.939Z" fill="#010001"/>
<path d="M59.988 113.945L63.299 115.368L62.8743 116.265L59.5415 115.226L59.988 113.945Z" fill="#010001"/>
<path d="M110.36 137.583C111.885 139.367 111.842 141.315 111.852 143.668C111.852 150.004 109.936 152.576 108.258 154.918C109.347 153.244 112.168 149.271 112.702 147.345C113.265 145.459 113.63 143.519 113.791 141.556C113.942 139.103 113.164 136.683 111.613 134.782C110.545 133.559 109.15 132.67 107.594 132.221C107.017 132.035 103.782 131.269 103.738 132.221C103.683 133.137 103.984 134.04 104.577 134.738C105.209 135.176 107.485 134.213 110.36 137.583Z" fill="#010001"/>
<path d="M62.1882 124.407C61.7852 124.637 61.404 124.911 61.001 125.129C60.5842 125.305 60.1803 125.51 59.7921 125.742C59.3843 126.055 59.0555 126.459 58.8323 126.923C58.609 127.387 58.4975 127.897 58.5069 128.413C58.5468 129.451 58.8627 130.46 59.4218 131.335C59.7291 131.88 60.0943 132.39 60.5109 132.856C61.6741 134.022 63.125 134.857 64.715 135.274C65.8809 135.59 67.0801 135.767 68.2873 135.8C68.9953 135.893 69.715 135.775 70.3567 135.46C71.7617 134.618 71.8924 132.67 71.8815 131.203C71.7925 129.011 71.286 126.856 70.3894 124.856C70.2966 124.559 70.1528 124.282 69.9646 124.035C69.5132 123.527 68.9018 123.191 68.2329 123.083V123.083C67.6362 122.972 67.0316 122.91 66.4249 122.897C66.0121 122.955 65.6068 123.058 65.216 123.203C64.1693 123.502 63.155 123.906 62.1882 124.407V124.407Z" fill="white"/>
<path d="M68.4834 124.167C67.4758 124.262 66.529 124.694 65.7933 125.392C65.6116 125.58 65.4108 125.749 65.1942 125.896C64.9001 126.06 64.5407 125.797 64.2684 125.699C63.7805 125.507 63.2539 125.435 62.7328 125.491C62.326 125.531 61.9465 125.715 61.6614 126.009C61.3764 126.303 61.2042 126.69 61.1753 127.099C61.2185 127.567 61.433 128.001 61.7771 128.319C62.1213 128.636 62.5706 128.814 63.0377 128.818V128.435C62.2536 128.435 61.1535 128.785 61.2515 129.781C61.3496 130.776 62.6783 131.094 63.5605 130.875C63.6039 130.854 63.6386 130.818 63.6584 130.773C63.6783 130.729 63.682 130.679 63.6691 130.632C63.6562 130.586 63.6273 130.545 63.5876 130.517C63.5479 130.49 63.4997 130.477 63.4516 130.481C62.8199 130.667 61.6654 130.645 61.6436 129.715C61.6436 129.025 62.5258 128.872 63.0377 128.872C63.31 128.872 63.2991 128.5 63.0377 128.467C62.7931 128.455 62.5542 128.388 62.3378 128.273C62.1214 128.158 61.9328 127.996 61.7852 127.8C61.6438 127.61 61.5674 127.38 61.5674 127.143C61.5674 126.906 61.6438 126.676 61.7852 126.487C62.1011 126.188 62.5024 125.997 62.9324 125.94C63.3623 125.883 63.7992 125.963 64.1813 126.169C64.4754 126.279 64.8566 126.563 65.1833 126.432C65.5043 126.24 65.7975 126.004 66.0546 125.731C66.7131 125.114 67.5546 124.729 68.4508 124.637C68.7121 124.637 68.7121 124.221 68.4508 124.232L68.4834 124.167Z" fill="#010001"/>
<path d="M66.8929 125.064C66.8929 125.064 65.684 123.97 65.8038 123.587C65.9236 123.204 66.5771 123.269 67.3613 123.499C68.1454 123.729 68.7444 124.013 68.6138 124.429C68.4831 124.845 66.8929 125.064 66.8929 125.064Z" fill="black"/>
<path d="M65.0635 123.499C66.9042 122.405 69.8666 122.974 70.5854 125.195C70.6508 125.392 70.9667 125.305 70.9013 125.108C70.1171 122.689 66.9368 122.076 64.9001 123.215C64.8626 123.236 64.8352 123.272 64.8239 123.314C64.8127 123.356 64.8186 123.401 64.8403 123.439C64.8619 123.477 64.8976 123.504 64.9395 123.516C64.9813 123.527 65.026 123.521 65.0635 123.499V123.499Z" fill="black"/>
<path d="M63.2117 124.134L61.1533 123.324C60.9515 123.417 60.7863 123.575 60.6838 123.774C60.5813 123.972 60.5472 124.198 60.587 124.418V124.418L66.2831 127.603H66.4029C67.0309 127.541 67.6647 127.589 68.2763 127.745L68.5376 127.143C68.0006 126.721 67.5305 126.219 67.1435 125.655H67.0673L63.2117 124.145" fill="#FCDE58"/>
<path d="M68.3634 127.92H68.2654C67.6649 127.765 67.0419 127.716 66.4248 127.778H66.2723L60.489 124.495V124.385C60.4374 124.141 60.4708 123.885 60.5838 123.662C60.6968 123.439 60.8824 123.262 61.1098 123.16H61.1642L67.2416 125.545C67.6269 126.101 68.089 126.598 68.6139 127.023L68.6902 127.077V127.165L68.3634 127.92ZM66.9258 127.482C67.3619 127.488 67.7963 127.539 68.2218 127.636L68.3961 127.209C67.8882 126.796 67.4409 126.314 67.0674 125.775V125.775L61.2078 123.477C61.044 123.564 60.9116 123.701 60.8295 123.868C60.7474 124.035 60.7197 124.224 60.7504 124.407L66.3703 127.548H66.4248C66.5903 127.516 66.7576 127.494 66.9258 127.482V127.482Z" fill="#010001"/>
<path d="M69.6812 127.713L69.8119 128.424L68.2871 127.767L68.5376 127.176L69.6812 127.713Z" fill="#010001"/>
<path d="M69.932 128.631L68.0913 127.843L68.4398 127.012L69.7468 127.636L69.932 128.631ZM68.4072 127.712L69.6052 128.226L69.529 127.811L68.5596 127.34L68.4072 127.712Z" fill="#010001"/>
<path d="M66.1744 127.669C66.1634 127.279 66.2366 126.891 66.3888 126.532C66.5411 126.173 66.7689 125.851 67.0566 125.589L67.2309 125.764C66.9661 125.996 66.7562 126.285 66.6168 126.608C66.4773 126.932 66.4118 127.283 66.4249 127.636L66.1744 127.669Z" fill="#010001"/>
<path d="M97.5631 104.468C97.9225 104.348 98.2602 103.757 98.6523 103.68C100.114 103.315 101.526 102.771 102.856 102.061C103.287 103.012 103.427 104.071 103.259 105.103V105.103C102.867 106.887 102.17 108.988 100.101 109.305C99.6325 109.371 99.7741 108.867 99.5018 108.561C98.2275 107.182 98.3364 108.977 98.173 108.867C97.6373 108.482 97.2521 107.921 97.0839 107.281C96.6047 106.252 96.3542 104.917 97.5631 104.468Z" fill="white"/>
<path d="M98.1297 108.484C97.7464 108.143 97.4379 107.726 97.2241 107.259C97.0103 106.791 96.8959 106.284 96.8881 105.77C96.9751 105.354 97.1685 104.967 97.4492 104.649C97.7299 104.33 98.0883 104.091 98.4891 103.954C98.8744 103.79 99.2761 103.669 99.6872 103.592C100.265 103.459 100.824 103.257 101.354 102.991L102.214 102.531L102.595 102.345L102.748 102.279C102.748 102.279 102.878 102.279 102.748 102.279C103.009 102.279 103.118 101.929 102.857 101.885C102.66 101.876 102.466 101.93 102.301 102.038C102.007 102.181 101.713 102.334 101.43 102.498C101.147 102.662 100.983 102.761 100.744 102.859C100.353 103.007 99.9526 103.127 99.5456 103.22C99.0612 103.319 98.5898 103.473 98.1406 103.68C97.7266 103.848 97.359 104.114 97.0689 104.455C96.7788 104.796 96.5748 105.202 96.4742 105.639C96.4494 106.23 96.5558 106.82 96.7856 107.365C97.0154 107.91 97.3629 108.397 97.803 108.791C97.9882 108.988 98.2713 108.692 98.097 108.506L98.1297 108.484Z" fill="#010001"/>
<path d="M98.4345 108.911C98.3921 108.739 98.3921 108.558 98.4345 108.386C98.5325 108.189 98.7939 108.211 98.9682 108.255C99.5128 108.386 99.4801 108.966 99.3494 109.349C99.3413 109.387 99.3441 109.427 99.3574 109.464C99.3707 109.5 99.394 109.533 99.4247 109.557C99.4554 109.581 99.4922 109.595 99.5309 109.599C99.5696 109.603 99.6087 109.596 99.6435 109.579C99.7687 109.504 99.9046 109.448 100.046 109.415C100.155 109.415 100.33 109.349 100.428 109.415C100.526 109.48 100.515 109.885 100.428 110.038C100.112 110.514 99.6363 110.86 99.088 111.012C99.0632 111.025 99.0413 111.042 99.0238 111.064C99.0062 111.086 98.9935 111.111 98.9863 111.137C98.9791 111.164 98.9776 111.192 98.982 111.22C98.9864 111.247 98.9966 111.274 99.0118 111.297C99.0243 111.32 99.0413 111.341 99.0619 111.358C99.0825 111.374 99.1063 111.386 99.1317 111.394C99.1571 111.401 99.1837 111.403 99.2099 111.399C99.2361 111.396 99.2613 111.387 99.2841 111.374C99.9702 111.078 100.765 110.684 100.907 109.874C100.955 109.711 100.945 109.536 100.877 109.38C100.809 109.223 100.689 109.096 100.537 109.021C100.351 108.977 100.158 108.972 99.97 109.008C99.7823 109.044 99.6043 109.119 99.4474 109.229L99.7415 109.458C99.8716 109.105 99.8716 108.717 99.7415 108.364C99.6758 108.206 99.5696 108.068 99.4338 107.964C99.2981 107.86 99.1374 107.795 98.9682 107.773C98.8103 107.727 98.6422 107.731 98.4865 107.784C98.3308 107.837 98.1948 107.936 98.0969 108.069C97.9739 108.347 97.947 108.659 98.0206 108.955C98.0206 109.207 98.4563 109.097 98.4128 108.846L98.4345 108.911Z" fill="#010001"/>
<path d="M97.6613 146.229L97.4326 148.265L98.0425 147.914L98.7287 146.404L98.3584 145.857L97.7594 145.485L97.6613 146.229Z" fill="white"/>
<path d="M97.563 144.773C97.6138 145.251 97.8028 145.704 98.1066 146.076C98.4105 146.447 98.8159 146.721 99.2729 146.863C100.214 147.175 101.229 147.175 102.17 146.863C102.983 146.636 103.704 146.157 104.231 145.495C104.759 144.834 105.067 144.022 105.111 143.176C105.111 142.913 104.719 142.913 104.708 143.176C104.677 143.909 104.425 144.616 103.985 145.202C103.546 145.788 102.939 146.226 102.246 146.459C101.488 146.74 100.671 146.823 99.872 146.699C99.0224 146.546 97.9551 145.846 97.966 144.872C97.9553 144.826 97.9296 144.785 97.893 144.756C97.8565 144.727 97.8112 144.711 97.7645 144.711C97.7178 144.711 97.6725 144.727 97.6359 144.756C97.5993 144.785 97.5736 144.826 97.563 144.872V144.773Z" fill="#010001"/>
<path d="M98.4671 146.305C98.3856 147.108 97.9947 147.846 97.378 148.363C97.3404 148.401 97.3193 148.452 97.3193 148.505C97.3193 148.558 97.3404 148.61 97.378 148.647C97.4155 148.685 97.4665 148.706 97.5196 148.706C97.5727 148.706 97.6236 148.685 97.6612 148.647C98.0043 148.355 98.2867 147.998 98.4923 147.596C98.6979 147.194 98.8225 146.756 98.8592 146.305C98.8592 146.043 98.4562 146.043 98.4562 146.305H98.4671Z" fill="#010001"/>
<path d="M80.0174 167C78.0351 167 76.0703 166.628 74.2232 165.906C73.7129 165.712 73.2239 165.467 72.7637 165.172L72.6439 165.096C72.6439 165.096 67.5577 162.535 64.1269 163.826C63.9146 163.909 63.687 163.945 63.4597 163.932C63.2323 163.919 63.0104 163.857 62.809 163.75L58.7901 161.561C58.6937 161.506 58.6155 161.424 58.5652 161.325C58.5149 161.225 58.4946 161.114 58.5069 161.003C58.5223 160.892 58.5713 160.788 58.6473 160.706C58.7232 160.624 58.8225 160.567 58.9317 160.543C60.2684 160.192 61.679 160.249 62.9833 160.707C62.7981 159.515 62.2318 155.104 63.6041 151.876C63.6942 151.639 63.8405 151.427 64.0302 151.259C64.22 151.091 64.4475 150.973 64.6932 150.913C66.0002 150.585 68.2002 151.624 71.228 154.032C71.2471 154.045 71.2634 154.061 71.2757 154.081C71.288 154.1 71.2961 154.122 71.2994 154.145C71.3028 154.167 71.3014 154.191 71.2953 154.213C71.2891 154.235 71.2784 154.255 71.2638 154.273C71.2492 154.291 71.2311 154.305 71.2106 154.316C71.19 154.326 71.1676 154.332 71.1447 154.333C71.1219 154.334 71.099 154.33 71.0777 154.321C71.0564 154.313 71.0371 154.3 71.0211 154.284C68.1131 151.985 65.9457 150.924 64.7586 151.23C64.5639 151.282 64.3843 151.379 64.2346 151.514C64.085 151.649 63.9696 151.818 63.8981 152.007C62.3733 155.608 63.3427 160.893 63.3536 160.948L63.4189 161.266L63.1249 161.123C61.8135 160.589 60.365 160.497 58.997 160.861C58.9578 160.879 58.9246 160.909 58.9013 160.945C58.8781 160.982 58.8657 161.025 58.8657 161.069C58.8657 161.112 58.8781 161.155 58.9013 161.192C58.9246 161.229 58.9578 161.258 58.997 161.277L63.0159 163.465C63.1826 163.553 63.3664 163.604 63.5545 163.613C63.7426 163.623 63.9305 163.591 64.1051 163.52C67.6774 162.185 72.6875 164.713 72.8944 164.811L73.036 164.899C73.4301 165.185 73.8493 165.434 74.2885 165.643C80.8233 168.16 87.5542 166.234 92.2266 160.478C95.7704 156.054 97.6246 150.504 97.4545 144.828C97.4545 144.785 97.4716 144.743 97.5023 144.712C97.5329 144.681 97.5745 144.664 97.6178 144.664V144.664C97.6611 144.664 97.7027 144.681 97.7334 144.712C97.764 144.743 97.7812 144.785 97.7812 144.828C97.9477 150.58 96.067 156.203 92.4771 160.686C91.0065 162.612 89.1225 164.18 86.9652 165.273C84.808 166.366 82.4331 166.957 80.0174 167Z" fill="#010001"/>
<path d="M123.528 37.9195C122.395 37.2409 121.542 36.1773 121.121 34.921C120.686 33.2575 121.906 31.1892 123.811 31.6379C123.857 31.6519 123.905 31.6533 123.951 31.6418C123.998 31.6303 124.04 31.6063 124.073 31.5726C124.107 31.5388 124.131 31.4965 124.142 31.4502C124.154 31.4038 124.152 31.3552 124.138 31.3096C123.607 29.6668 123.506 27.9143 123.844 26.2208C124.12 25.4292 124.6 24.7254 125.236 24.1813C125.871 23.6371 126.639 23.2722 127.46 23.1237C130.281 22.4124 134.071 22.6203 136.293 24.6558C136.319 24.6878 136.351 24.7136 136.388 24.7313C136.424 24.749 136.465 24.7582 136.505 24.7582C136.546 24.7582 136.586 24.749 136.623 24.7313C136.66 24.7136 136.692 24.6878 136.718 24.6558C137.414 23.5496 138.399 22.6569 139.566 22.0755C140.733 21.4941 142.036 21.2464 143.334 21.3593C144.631 21.4723 145.873 21.9417 146.923 22.7161C147.973 23.4905 148.79 24.5402 149.286 25.7502C149.298 25.7896 149.318 25.8259 149.345 25.8564C149.372 25.887 149.406 25.911 149.443 25.9268C149.481 25.9425 149.522 25.9496 149.562 25.9475C149.603 25.9453 149.643 25.934 149.679 25.9144C150.417 25.5644 151.237 25.4246 152.049 25.5103C152.862 25.5959 153.635 25.9037 154.285 26.4002C154.935 26.8967 155.437 27.5628 155.737 28.3262C156.037 29.0895 156.122 29.9208 155.985 30.7296C155.972 30.7808 155.975 30.8345 155.992 30.8843C156.009 30.9341 156.041 30.9778 156.082 31.0102C156.123 31.0426 156.173 31.0622 156.226 31.0668C156.278 31.0714 156.33 31.0607 156.377 31.036C156.959 30.7446 157.604 30.602 158.254 30.6209C158.904 30.6398 159.539 30.8195 160.104 31.1443C160.668 31.469 161.144 31.9286 161.49 32.4824C161.835 33.0362 162.039 33.6671 162.084 34.3191C162.131 35.033 162.036 35.7493 161.804 36.4258C161.572 37.1024 161.208 37.7255 160.733 38.2588C160.231 38.9878 159.831 39.7833 159.546 40.6226C159.426 40.9509 159.949 41.0932 160.069 40.7649C160.381 39.794 160.837 38.8755 161.419 38.0399C161.865 37.475 162.204 36.8335 162.421 36.1467C162.806 34.8547 162.681 33.4637 162.073 32.2617C161.506 31.2323 160.563 30.4649 159.443 30.1217C158.323 29.7786 157.114 29.8867 156.072 30.4231L156.475 30.7296C156.648 29.8136 156.564 28.8673 156.234 27.9962C155.903 27.1251 155.338 26.3634 154.601 25.7961C153.865 25.2287 152.986 24.8779 152.063 24.7829C151.14 24.6878 150.209 24.8522 149.374 25.2577L149.777 25.4219C149.252 24.1062 148.374 22.9625 147.241 22.1182C146.108 21.2739 144.764 20.762 143.359 20.6395C141.953 20.517 140.542 20.7887 139.281 21.4243C138.02 22.06 136.959 23.0347 136.217 24.24L136.642 24.1853C134.137 21.8871 129.682 21.6135 126.578 22.7188C122.679 24.1086 122.788 27.928 123.583 31.3643L123.92 31.025C123.517 30.9571 123.105 30.973 122.708 31.0718C122.311 31.1707 121.939 31.3503 121.615 31.5997C121.29 31.849 121.019 32.1627 120.82 32.5213C120.621 32.8799 120.498 33.2757 120.457 33.6843C120.196 35.6651 121.731 37.3176 123.223 38.3463C123.507 38.5543 123.779 38.0837 123.496 37.8758L123.528 37.9195Z" fill="#010001" fill-opacity="0.38"/>
<path d="M160.385 44.4857C160.708 44.56 160.999 44.7354 161.217 44.9866C161.435 45.2378 161.568 45.552 161.597 45.8839C161.626 46.2159 161.55 46.5486 161.379 46.8342C161.208 47.1197 160.951 47.3435 160.646 47.4733L160.984 47.9111C161.277 47.5298 161.644 47.2127 162.064 46.9793C162.483 46.746 162.946 46.6012 163.423 46.5541C164.404 46.5541 165.471 47.8016 164.665 48.7428C164.469 48.9617 164.665 49.3338 164.992 49.1696C166.495 48.2722 168.499 48.0752 169.773 49.476C170.095 49.8033 170.312 50.2213 170.393 50.6747C170.474 51.128 170.416 51.5955 170.228 52.0152C170.039 52.435 169.728 52.7873 169.335 53.0257C168.943 53.264 168.488 53.3771 168.03 53.3501C167.984 53.3518 167.939 53.3654 167.899 53.3896C167.859 53.4139 167.826 53.4479 167.804 53.4884C167.781 53.529 167.768 53.5748 167.768 53.6215C167.768 53.6681 167.779 53.7141 167.802 53.755C168.629 55.2543 169.087 57.2788 167.976 58.7672C167.763 59.0753 167.49 59.3365 167.173 59.5349C166.856 59.7333 166.503 59.8647 166.133 59.9211C165.764 59.9774 165.388 59.9575 165.027 59.8626C164.666 59.7677 164.328 59.5998 164.033 59.3691C163.981 59.3296 163.916 59.3104 163.851 59.315C163.785 59.3197 163.724 59.3479 163.677 59.3945C163.631 59.4411 163.603 59.5029 163.598 59.5686C163.594 59.6343 163.613 59.6994 163.652 59.7521C164.197 60.4197 163.445 61.2404 162.857 61.4484C162.35 61.547 161.828 61.547 161.321 61.4484C160.717 61.3718 160.106 61.3718 159.502 61.4484C158.337 61.643 157.291 62.282 156.583 63.2322C156.464 63.3854 156.518 63.7356 156.779 63.7028C157.354 63.5889 157.948 63.6359 158.497 63.8385C159.047 64.0412 159.53 64.3917 159.894 64.8518C160.084 65.1166 160.213 65.4207 160.27 65.7418C160.328 66.0629 160.313 66.3928 160.228 66.7076C160.142 67.0223 159.988 67.3138 159.775 67.5608C159.563 67.8077 159.299 68.0039 159.001 68.1349C158.686 68.2663 159.001 68.7368 159.285 68.6055C159.914 68.3134 160.408 67.7891 160.663 67.1412C160.919 66.4934 160.916 65.7716 160.657 65.1254C160.312 64.4193 159.746 63.847 159.045 63.4968C158.344 63.1467 157.548 63.0383 156.779 63.1884L156.976 63.6481C157.358 63.1249 157.859 62.7003 158.436 62.4092C159.013 62.1182 159.651 61.9689 160.297 61.9737C161.278 61.9737 162.334 62.3348 163.271 61.8971C163.507 61.8082 163.719 61.666 163.892 61.4814C164.065 61.2969 164.193 61.0749 164.266 60.8327C164.34 60.5905 164.357 60.3345 164.317 60.0846C164.276 59.8346 164.179 59.5973 164.033 59.391L163.652 59.774C164.292 60.303 165.108 60.568 165.935 60.5151C166.762 60.4623 167.538 60.0957 168.107 59.4895C169.718 57.8807 169.272 55.309 168.27 53.5033L168.03 53.9192C168.508 53.9536 168.986 53.8624 169.418 53.6546C169.85 53.4469 170.22 53.1296 170.493 52.7342C170.765 52.3387 170.931 51.8787 170.973 51.3995C171.014 50.9203 170.931 50.4384 170.731 50.0013C169.642 47.5718 166.723 47.5171 164.719 48.7209L165.046 49.1477C165.206 48.9491 165.324 48.7193 165.391 48.4727C165.459 48.2262 165.474 47.9683 165.437 47.7153C165.401 47.4623 165.312 47.2197 165.177 47.0029C165.042 46.7861 164.864 46.5997 164.654 46.4556C163.293 45.3612 161.572 46.5212 160.591 47.5499C160.551 47.5998 160.529 47.6618 160.529 47.7259C160.528 47.79 160.549 47.8524 160.588 47.903C160.627 47.9537 160.682 47.9896 160.744 48.005C160.806 48.0203 160.871 48.0143 160.929 47.9877C161.329 47.8024 161.66 47.4964 161.879 47.1125C162.097 46.7286 162.19 46.2859 162.146 45.8461C162.101 45.4063 161.921 44.9914 161.631 44.6592C161.341 44.3271 160.954 44.0943 160.526 43.9933C160.46 43.9825 160.392 43.9968 160.335 44.0335C160.278 44.0701 160.237 44.1265 160.22 44.1918C160.202 44.2571 160.209 44.3266 160.24 44.387C160.27 44.4473 160.322 44.4942 160.385 44.5186V44.4857Z" fill="#010001" fill-opacity="0.38"/>
<path d="M155.309 70.7836C156.115 68.7809 158.359 70.2473 159.383 71.0024C159.601 71.1666 159.819 70.893 159.786 70.696C159.682 69.9586 159.83 69.2074 160.207 68.566C160.584 67.9246 161.167 67.431 161.86 67.1663C162.552 66.9015 163.314 66.8814 164.02 67.1092C164.726 67.337 165.334 67.7991 165.743 68.4197C165.907 68.6714 166.364 68.5182 166.244 68.2118C165.955 67.4831 165.941 66.6729 166.206 65.9347C166.471 65.1966 166.996 64.5817 167.682 64.2064C169.544 63.2324 171.723 64.8631 171.919 66.7891C171.922 66.8361 171.938 66.8814 171.963 66.921C171.988 66.9606 172.023 66.9932 172.064 67.016C172.105 67.0388 172.151 67.051 172.198 67.0515C172.245 67.052 172.291 67.0408 172.333 67.019C172.971 66.6021 173.716 66.3798 174.477 66.379C175.238 66.3782 175.983 66.5988 176.623 67.0142C177.262 67.4297 177.768 68.0222 178.079 68.7202C178.39 69.4182 178.494 70.1918 178.377 70.9477C178.377 71.1447 178.573 71.2323 178.726 71.2104C181.895 70.7289 184.008 78.455 180.338 78.5645C180.044 78.5645 179.957 79.0351 180.262 79.1117C181.215 79.302 182.06 79.8499 182.625 80.6438C183.061 81.2785 183.093 82.165 183.594 82.745C183.915 83.0257 184.284 83.2446 184.683 83.3906C185.144 83.6153 185.552 83.9347 185.882 84.3282C186.211 84.7218 186.455 85.1806 186.596 85.6748C186.738 86.1691 186.774 86.6877 186.703 87.197C186.632 87.7063 186.455 88.195 186.184 88.6311C185.913 89.0673 185.554 89.4412 185.129 89.7287C184.705 90.0161 184.225 90.2106 183.721 90.2995C183.217 90.3884 182.699 90.3698 182.203 90.2447C181.706 90.1197 181.242 89.8911 180.839 89.5738C180.798 89.5487 180.751 89.535 180.703 89.5339C180.655 89.5329 180.608 89.5447 180.566 89.568C180.524 89.5913 180.488 89.6254 180.464 89.6668C180.439 89.7082 180.426 89.7554 180.425 89.8036C180.534 90.8214 180.425 91.6859 179.336 92.1455C178.832 92.2845 178.345 92.4828 177.887 92.7365C176.983 93.3494 174.794 95.5928 173.945 93.6448C173.921 93.604 173.886 93.5702 173.845 93.5467C173.804 93.5232 173.758 93.5108 173.71 93.5108C173.663 93.5108 173.617 93.5232 173.576 93.5467C173.535 93.5702 173.5 93.604 173.476 93.6448C172.605 95.2098 170.318 98.2521 168.455 95.9321C168.43 95.9001 168.398 95.8743 168.361 95.8566C168.324 95.8389 168.284 95.8297 168.243 95.8297C168.202 95.8297 168.162 95.8389 168.125 95.8566C168.088 95.8743 168.056 95.9001 168.031 95.9321C167.234 97.3338 165.977 98.4137 164.474 98.9866C162.972 99.5596 161.319 99.5901 159.797 99.0729C159.263 98.8868 158.708 98.3287 158.13 98.2083C157.553 98.088 156.704 98.4382 156.028 98.3287C155.081 98.178 154.197 97.7562 153.483 97.1138C152.768 96.4713 152.253 95.6355 151.998 94.7064C151.986 94.6598 151.962 94.6173 151.927 94.5833C151.893 94.5493 151.851 94.525 151.805 94.5128C151.758 94.5006 151.709 94.5009 151.663 94.5138C151.617 94.5266 151.575 94.5515 151.541 94.586C151.205 94.9995 150.79 95.3418 150.321 95.5928C148.851 96.1728 148.383 95.0784 148.056 94.1592C147.598 92.9007 147.696 90.1648 149.853 90.7667C149.919 90.7775 149.987 90.7631 150.044 90.7265C150.101 90.6898 150.142 90.6334 150.159 90.5681C150.177 90.5028 150.17 90.4333 150.139 90.373C150.109 90.3126 150.057 90.2657 149.994 90.2414C147.522 89.5519 146.88 92.5286 147.522 94.3014C147.849 95.1769 148.285 96.2494 149.319 96.3917C150.354 96.534 151.28 95.6475 151.933 94.969L151.476 94.8486C151.815 96.093 152.574 97.1802 153.623 97.9247C154.672 98.6692 155.946 99.0247 157.226 98.9306C158.217 98.8321 158.74 99.2918 159.655 99.6091C161.294 100.152 163.069 100.109 164.68 99.4891C166.291 98.8691 167.64 97.7093 168.499 96.2056L168.074 96.2604C168.434 96.692 168.924 96.9946 169.47 97.1229C170.016 97.2511 170.589 97.1981 171.102 96.9717C172.382 96.3071 173.389 95.2106 173.945 93.8746H173.4C174.13 95.549 176.156 94.6954 177.201 93.8746C177.826 93.2992 178.57 92.8695 179.379 92.6161C179.735 92.568 180.074 92.4368 180.371 92.2331C180.646 91.8893 180.837 91.4858 180.93 91.0545C181.023 90.6232 181.014 90.1761 180.904 89.7489L180.49 89.9897C183.224 92.058 187.548 90.1538 187.308 86.5533C187.243 85.7821 186.987 85.0394 186.565 84.3919C186.143 83.7443 185.568 83.2122 184.89 82.8435C183.583 81.9789 183.671 80.9721 182.712 79.9215C182.082 79.2104 181.243 78.7197 180.316 78.5207L180.24 79.057C184.792 78.9256 182.418 70.0284 178.475 70.6303L178.824 70.893C178.939 70.0399 178.808 69.1716 178.447 68.3911C178.085 67.6106 177.508 66.9506 176.785 66.4897C176.061 66.0288 175.221 65.7862 174.364 65.7908C173.508 65.7954 172.67 66.0469 171.951 66.5155L172.365 66.7563C172.349 66.2322 172.216 65.7184 171.978 65.2519C171.74 64.7853 171.402 64.3776 170.988 64.0582C170.574 63.7388 170.095 63.5155 169.585 63.4045C169.075 63.2936 168.547 63.2976 168.039 63.4164C167.531 63.5352 167.055 63.7658 166.646 64.0916C166.237 64.4174 165.905 64.8302 165.674 65.3004C165.443 65.7705 165.319 66.2863 165.31 66.8106C165.301 67.3348 165.408 67.8545 165.624 68.3322L166.114 68.1133C165.641 67.3727 164.928 66.8187 164.096 66.5451C163.264 66.2714 162.363 66.2948 161.546 66.6113C160.729 66.9279 160.046 67.5181 159.612 68.2823C159.178 69.0465 159.02 69.9377 159.165 70.8054L159.568 70.499C158.13 69.4047 155.604 68.3103 154.689 70.6085C154.558 70.9258 155.081 71.0681 155.211 70.7507L155.309 70.7836Z" fill="#010001" fill-opacity="0.38"/>
<path d="M136.01 100.419C137.785 103.625 142.838 101.721 143.307 98.5147H142.784C143.095 99.4972 143.781 100.315 144.692 100.79C145.603 101.264 146.664 101.355 147.642 101.043C148.619 100.731 149.434 100.041 149.906 99.1258C150.377 98.2105 150.468 97.1443 150.157 96.1618C150.133 96.0987 150.087 96.0469 150.027 96.0163C149.966 95.9858 149.897 95.9786 149.832 95.9963C149.767 96.014 149.711 96.0552 149.675 96.1121C149.638 96.1689 149.624 96.2373 149.635 96.3041C149.841 97.1282 149.728 98.0003 149.319 98.7438C148.909 99.4873 148.234 100.047 147.429 100.308C146.624 100.57 145.751 100.514 144.985 100.153C144.22 99.7913 143.62 99.151 143.307 98.3615C143.22 98.1426 142.828 98.066 142.784 98.3615C142.381 101.086 138.035 102.969 136.489 100.145C136.471 100.114 136.447 100.086 136.418 100.064C136.39 100.041 136.357 100.025 136.322 100.015C136.252 99.9956 136.177 100.005 136.113 100.041C136.05 100.078 136.003 100.138 135.984 100.209C135.964 100.279 135.973 100.355 136.01 100.419V100.419Z" fill="#010001" fill-opacity="0.38"/>
<g clip-path="url(#clip0_203_432)">
<g opacity="0.5">
<path opacity="0.5" d="M10.816 50.1494C7.13531 62.2425 9.18015 75.4682 18.3542 85.2293C21.9797 89.0826 28.5894 92.9249 31.7838 97.1447C40.2284 108.349 35.1992 123.263 37.1556 137.122C37.6862 140.953 38.8136 145.028 41.8642 147.405C43.815 148.717 46.0113 149.616 48.3193 150.048C60.2898 153.146 73.1778 156.2 84.7393 151.802C88.5637 150.336 92.0454 148.127 95.7151 146.25C104.9 141.641 115.08 139.498 124.741 136.022C133.583 132.824 142.58 128.449 147.952 120.398C151.092 115.543 153.293 110.137 154.44 104.463C155.657 98.3334 156.396 92.1181 156.651 85.8734C157.038 79.8213 157.834 73.6582 158.044 67.6616C158.74 47.9507 150.693 31.8155 136.424 18.6009C116.915 0.53347 86.4304 -3.74185 61.373 3.05425C41.0131 8.53998 25.2293 23.0428 14.6846 41.0991C13.0465 43.9531 11.748 46.9907 10.816 50.1494Z" fill="#FCDE58"/>
</g>
</g>
<defs>
<clipPath id="clip0_203_432">
<rect width="190" height="167" fill="white" transform="translate(0.0854492)"/>
</clipPath>
</defs>
</svg>
