<svg width="24" height="24" viewBox="0 0 24 24" fill="none" xmlns="http://www.w3.org/2000/svg">
<rect width="24" height="24" rx="2" fill="#F6F6F6"/>
<g clip-path="url(#clip0_19_245)">
<path d="M11.6477 19.4593C11.7723 19.4593 11.8918 19.4107 11.98 19.3241C12.0681 19.2376 12.1177 19.1202 12.1177 18.9979C12.1177 18.8755 12.0681 18.7582 11.98 18.6717C11.8918 18.5851 11.7723 18.5365 11.6477 18.5365C10.4927 18.5363 9.36164 18.2126 8.38742 17.6035C7.4132 16.9944 6.63629 16.1251 6.14758 15.0977C5.65888 14.0703 5.47885 12.9273 5.62853 11.8029C5.77821 10.6785 6.25147 9.61938 6.99271 8.74977C7.73396 7.88015 8.71239 7.23614 9.81333 6.8933C10.9143 6.55047 12.092 6.52304 13.2083 6.81423C14.3246 7.10542 15.333 7.70314 16.1154 8.53727C16.8979 9.37139 17.4217 10.4073 17.6256 11.5235C17.648 11.6458 17.7189 11.7545 17.8229 11.8254C17.9269 11.8964 18.0553 11.9238 18.18 11.9018C18.3046 11.8798 18.4152 11.81 18.4874 11.7079C18.5597 11.6058 18.5879 11.4798 18.5655 11.3574C18.3295 10.0686 17.7239 8.87256 16.8199 7.90973C15.9159 6.94691 14.7509 6.25718 13.4616 5.92154C12.1724 5.58589 10.8124 5.61822 9.54118 6.01475C8.27001 6.41127 7.14029 7.15553 6.28481 8.16019C5.42933 9.16486 4.88353 10.3882 4.71134 11.6868C4.53916 12.9853 4.7478 14.3051 5.31278 15.4913C5.87776 16.6775 6.77554 17.6809 7.90095 18.3838C9.02635 19.0866 10.3327 19.4597 11.6665 19.4593H11.6477Z" fill="#838383" stroke="#838383" stroke-width="0.75" stroke-miterlimit="10"/>
<path d="M18.8847 12.0585C18.9461 12.0582 19.0069 12.0457 19.0634 12.022C19.1199 11.9982 19.1711 11.9635 19.2137 11.9201C19.2603 11.8801 19.2972 11.8302 19.3216 11.7743C19.346 11.7184 19.3572 11.6579 19.3546 11.5971V7.61077C19.3546 7.4884 19.3051 7.37102 19.2169 7.2845C19.1288 7.19797 19.0093 7.14938 18.8847 7.14938C18.7608 7.15175 18.6428 7.20113 18.5551 7.28715C18.4675 7.37317 18.4171 7.48914 18.4147 7.61077V11.1265L14.843 11.0434C14.7207 11.0457 14.6041 11.0938 14.5167 11.1779C14.4294 11.2619 14.3779 11.3756 14.3731 11.4956C14.3706 11.5565 14.3807 11.6173 14.4027 11.6743C14.4247 11.7313 14.4583 11.7834 14.5014 11.8273C14.5444 11.8713 14.5959 11.9062 14.653 11.9301C14.7102 11.954 14.7715 11.9663 14.8336 11.9662L17.8603 12.0585H18.8847Z" fill="#838383" stroke="#838383" stroke-width="0.75" stroke-miterlimit="10"/>
</g>
<defs>
<clipPath id="clip0_19_245">
<rect width="16" height="15" fill="white" transform="matrix(-1 0 0 1 20 5.08008)"/>
</clipPath>
</defs>
</svg>
