<svg width="25" height="24" viewBox="0 0 25 24" fill="none" xmlns="http://www.w3.org/2000/svg">
<path d="M12.2441 0C15.4267 0 18.4789 1.26427 20.7294 3.51471C22.9798 5.76515 24.2441 8.8174 24.2441 12C24.2441 15.1826 22.9798 18.2348 20.7294 20.4853C18.4789 22.7357 15.4267 24 12.2441 24C9.06154 24 6.00923 22.7357 3.75879 20.4853C1.50835 18.2348 0.244141 15.1826 0.244141 12C0.244141 8.8174 1.50835 5.76515 3.75879 3.51471C6.00923 1.26427 9.06154 0 12.2441 0Z" fill="#FFD515"/>
<path d="M12.2441 0.5C15.2941 0.5 18.2192 1.71159 20.3759 3.86826C22.5325 6.02492 23.7441 8.95001 23.7441 12V12C23.7441 15.05 22.5325 17.975 20.3759 20.1317C18.2192 22.2884 15.2941 23.5 12.2441 23.5V23.5C9.19415 23.5 6.2691 22.2884 4.11243 20.1317C1.95576 17.975 0.744141 15.05 0.744141 12V12C0.744141 8.95001 1.95576 6.02492 4.11243 3.86826C6.2691 1.71159 9.19415 0.5 12.2441 0.5V0.5Z" stroke="white"/>
<path d="M5.74414 12.63L9.93408 16.82L14.1342 12.63L18.2642 8.5" stroke="white" stroke-width="1.5" stroke-linecap="round" stroke-linejoin="round"/>
</svg>
