<svg width="24" height="24" viewBox="0 0 24 24" fill="none" xmlns="http://www.w3.org/2000/svg">
<g clip-path="url(#clip0_5_387)">
<g clip-path="url(#clip1_5_387)">
<path d="M11.9959 9.04159L18.939 15.7132C19.1053 15.8742 19.3339 15.9677 19.5748 15.9733C19.7527 15.9745 19.9271 15.9277 20.0765 15.8383C20.2258 15.7489 20.3435 15.621 20.415 15.4705C20.4865 15.32 20.5087 15.1535 20.4787 14.9915C20.4488 14.8295 20.3681 14.6791 20.2467 14.559L12.6534 7.22025C12.4788 7.05929 12.2426 6.96813 11.9959 6.96664C11.8742 6.96767 11.754 6.99134 11.6423 7.03603C11.5306 7.08072 11.4297 7.14562 11.3457 7.22693L3.75238 14.5657C3.58972 14.7215 3.49906 14.9296 3.49953 15.146C3.49938 15.2586 3.5243 15.3701 3.57278 15.4734C3.62125 15.5767 3.69225 15.6697 3.78131 15.7466C3.8652 15.8242 3.96484 15.8858 4.07456 15.9279C4.18427 15.9699 4.30193 15.9916 4.42072 15.9916C4.5395 15.9916 4.65711 15.9699 4.76683 15.9279C4.87655 15.8858 4.97618 15.8242 5.06007 15.7466L11.9959 9.04159Z" fill="#474747"/>
</g>
</g>
<defs>
<clipPath id="clip0_5_387">
<rect width="24" height="24" fill="white" transform="translate(24) rotate(90)"/>
</clipPath>
<clipPath id="clip1_5_387">
<rect width="9" height="17" fill="white" transform="translate(20.5 7) rotate(90)"/>
</clipPath>
</defs>
</svg>
