<svg width="24" height="24" viewBox="0 0 24 24" fill="none" xmlns="http://www.w3.org/2000/svg">
<g clip-path="url(#clip0_2_4184)">
<path d="M12.0041 14.9584L5.06103 8.28684C4.89474 8.12583 4.66611 8.03233 4.42525 8.02672C4.24729 8.02552 4.07285 8.07236 3.92351 8.16174C3.77417 8.25112 3.65647 8.37904 3.58498 8.52953C3.51349 8.68002 3.49134 8.84656 3.52126 9.00856C3.55118 9.17056 3.63187 9.32091 3.75334 9.44101L11.3466 16.7798C11.5212 16.9407 11.7574 17.0319 12.0041 17.0334C12.1258 17.0324 12.246 17.0087 12.3577 16.964C12.4694 16.9193 12.5703 16.8544 12.6543 16.7731L20.2476 9.43433C20.4103 9.27849 20.5009 9.07044 20.5005 8.85399C20.5006 8.74141 20.4757 8.62989 20.4272 8.5266C20.3787 8.4233 20.3077 8.33033 20.2187 8.25344C20.1348 8.17578 20.0352 8.1142 19.9254 8.07216C19.8157 8.03012 19.6981 8.00847 19.5793 8.00847C19.4605 8.00847 19.3429 8.03012 19.2332 8.07216C19.1234 8.1142 19.0238 8.17578 18.9399 8.25344L12.0041 14.9584Z" fill="#474747"/>
</g>
<defs>
<clipPath id="clip0_2_4184">
<rect width="9" height="17" fill="white" transform="translate(3.5 17) rotate(-90)"/>
</clipPath>
</defs>
</svg>
