<svg width="17" height="14" viewBox="0 0 17 14" fill="none" xmlns="http://www.w3.org/2000/svg">
<g clip-path="url(#clip0_2_1299)">
<g opacity="0.5">
<path opacity="0.5" d="M6.037 13.4377V8.35197L0.204679 0.979234C0.142155 0.887324 0.105376 0.781077 0.0980437 0.671023C0.0907116 0.56097 0.113028 0.450961 0.162831 0.351938C0.212635 0.252916 0.288219 0.168322 0.381955 0.10658C0.475691 0.0448388 0.584372 0.00809305 0.697192 0H15.4464C15.5598 0.00706833 15.6693 0.0430567 15.7639 0.104382C15.8585 0.165708 15.9349 0.250202 15.9854 0.349393C16.036 0.448585 16.0589 0.558975 16.0519 0.669519C16.0449 0.780064 16.0081 0.886883 15.9454 0.979234L10.1131 8.41517L10.0418 12.4269C10.038 12.5193 10.0066 12.6087 9.95132 12.6839C9.89604 12.7591 9.81935 12.8169 9.73077 12.8502L6.8211 13.9621C6.73372 13.9933 6.63991 14.0038 6.54755 13.9925C6.45519 13.9812 6.36697 13.9485 6.29022 13.8972C6.21346 13.8459 6.15043 13.7774 6.10638 13.6974C6.06232 13.6175 6.03854 13.5284 6.037 13.4377ZM1.28685 0.884453L6.85353 7.94134C6.9176 8.01303 6.95216 8.10527 6.95067 8.20035V12.9702L9.14752 12.13L9.22528 8.213C9.227 8.14493 9.24955 8.07893 9.29007 8.02347L14.8891 0.884453H1.28685Z" fill="#FFD515"/>
<path opacity="0.5" d="M6.037 13.4377V8.35197L0.204679 0.979234C0.142155 0.887324 0.105376 0.781077 0.0980437 0.671023C0.0907116 0.56097 0.113028 0.450961 0.162831 0.351938C0.212635 0.252916 0.288219 0.168322 0.381955 0.10658C0.475691 0.0448388 0.584372 0.00809305 0.697192 0H15.4464C15.5598 0.00706833 15.6693 0.0430567 15.7639 0.104382C15.8585 0.165708 15.9349 0.250202 15.9854 0.349393C16.036 0.448585 16.0589 0.558975 16.0519 0.669519C16.0449 0.780064 16.0081 0.886883 15.9454 0.979234L10.1131 8.41517L10.0418 12.4269C10.038 12.5193 10.0066 12.6087 9.95132 12.6839C9.89604 12.7591 9.81935 12.8169 9.73077 12.8502L6.8211 13.9621C6.73372 13.9933 6.63991 14.0038 6.54755 13.9925C6.45519 13.9812 6.36697 13.9485 6.29022 13.8972C6.21346 13.8459 6.15043 13.7774 6.10638 13.6974C6.06232 13.6175 6.03854 13.5284 6.037 13.4377ZM1.28685 0.884453L6.85353 7.94134C6.9176 8.01303 6.95216 8.10527 6.95067 8.20035V12.9702L9.14752 12.13L9.22528 8.213C9.227 8.14493 9.24955 8.07893 9.29007 8.02347L14.8891 0.884453H1.28685Z" fill="#FFD515"/>
<path d="M6.037 13.4377V8.35197L0.204679 0.979234C0.142155 0.887324 0.105376 0.781077 0.0980437 0.671023C0.0907116 0.56097 0.113028 0.450961 0.162831 0.351938C0.212635 0.252916 0.288219 0.168322 0.381955 0.10658C0.475691 0.0448388 0.584372 0.00809305 0.697192 0H15.4464C15.5598 0.00706833 15.6693 0.0430567 15.7639 0.104382C15.8585 0.165708 15.9349 0.250202 15.9854 0.349393C16.036 0.448585 16.0589 0.558975 16.0519 0.669519C16.0449 0.780064 16.0081 0.886883 15.9454 0.979234L10.1131 8.41517L10.0418 12.4269C10.038 12.5193 10.0066 12.6087 9.95132 12.6839C9.89604 12.7591 9.81935 12.8169 9.73077 12.8502L6.8211 13.9621C6.73372 13.9933 6.63991 14.0038 6.54755 13.9925C6.45519 13.9812 6.36697 13.9485 6.29022 13.8972C6.21346 13.8459 6.15043 13.7774 6.10638 13.6974C6.06232 13.6175 6.03854 13.5284 6.037 13.4377ZM1.28685 0.884453L6.85353 7.94134C6.9176 8.01303 6.95216 8.10527 6.95067 8.20035V12.9702L9.14752 12.13L9.22528 8.213C9.227 8.14493 9.24955 8.07893 9.29007 8.02347L14.8891 0.884453H1.28685Z" fill="#FFD515"/>
<path d="M6.037 13.4377V8.35197L0.204679 0.979234C0.142155 0.887324 0.105376 0.781077 0.0980437 0.671023C0.0907116 0.56097 0.113028 0.450961 0.162831 0.351938C0.212635 0.252916 0.288219 0.168322 0.381955 0.10658C0.475691 0.0448388 0.584372 0.00809305 0.697192 0H15.4464C15.5598 0.00706833 15.6693 0.0430567 15.7639 0.104382C15.8585 0.165708 15.9349 0.250202 15.9854 0.349393C16.036 0.448585 16.0589 0.558975 16.0519 0.669519C16.0449 0.780064 16.0081 0.886883 15.9454 0.979234L10.1131 8.41517L10.0418 12.4269C10.038 12.5193 10.0066 12.6087 9.95132 12.6839C9.89604 12.7591 9.81935 12.8169 9.73077 12.8502L6.8211 13.9621C6.73372 13.9933 6.63991 14.0038 6.54755 13.9925C6.45519 13.9812 6.36697 13.9485 6.29022 13.8972C6.21346 13.8459 6.15043 13.7774 6.10638 13.6974C6.06232 13.6175 6.03854 13.5284 6.037 13.4377ZM1.28685 0.884453L6.85353 7.94134C6.9176 8.01303 6.95216 8.10527 6.95067 8.20035V12.9702L9.14752 12.13L9.22528 8.213C9.227 8.14493 9.24955 8.07893 9.29007 8.02347L14.8891 0.884453H1.28685Z" fill="#FFD515"/>
<path d="M6.037 13.4377V8.35197L0.204679 0.979234C0.142155 0.887324 0.105376 0.781077 0.0980437 0.671023C0.0907116 0.56097 0.113028 0.450961 0.162831 0.351938C0.212635 0.252916 0.288219 0.168322 0.381955 0.10658C0.475691 0.0448388 0.584372 0.00809305 0.697192 0H15.4464C15.5598 0.00706833 15.6693 0.0430567 15.7639 0.104382C15.8585 0.165708 15.9349 0.250202 15.9854 0.349393C16.036 0.448585 16.0589 0.558975 16.0519 0.669519C16.0449 0.780064 16.0081 0.886883 15.9454 0.979234L10.1131 8.41517L10.0418 12.4269C10.038 12.5193 10.0066 12.6087 9.95132 12.6839C9.89604 12.7591 9.81935 12.8169 9.73077 12.8502L6.8211 13.9621C6.73372 13.9933 6.63991 14.0038 6.54755 13.9925C6.45519 13.9812 6.36697 13.9485 6.29022 13.8972C6.21346 13.8459 6.15043 13.7774 6.10638 13.6974C6.06232 13.6175 6.03854 13.5284 6.037 13.4377ZM1.28685 0.884453L6.85353 7.94134C6.9176 8.01303 6.95216 8.10527 6.95067 8.20035V12.9702L9.14752 12.13L9.22528 8.213C9.227 8.14493 9.24955 8.07893 9.29007 8.02347L14.8891 0.884453H1.28685Z" fill="#FFD100"/>
</g>
<path d="M15.4462 1.22563C15.7934 1.22563 16.0748 0.951265 16.0748 0.612816C16.0748 0.274367 15.7934 0 15.4462 0C15.0991 0 14.8176 0.274367 14.8176 0.612816C14.8176 0.951265 15.0991 1.22563 15.4462 1.22563Z" fill="#FFD515"/>
<path d="M0.723809 1.22563C1.07097 1.22563 1.3524 0.951265 1.3524 0.612816C1.3524 0.274367 1.07097 0 0.723809 0C0.376646 0 0.0952148 0.274367 0.0952148 0.612816C0.0952148 0.951265 0.376646 1.22563 0.723809 1.22563Z" fill="#FFD515"/>
<path d="M9.67237 8.71211C9.9229 8.71211 10.126 8.51412 10.126 8.26988C10.126 8.02563 9.9229 7.82764 9.67237 7.82764C9.42184 7.82764 9.21875 8.02563 9.21875 8.26988C9.21875 8.51412 9.42184 8.71211 9.67237 8.71211Z" fill="#FFD515"/>
<path d="M6.48441 8.66774C6.7421 8.66774 6.95099 8.46409 6.95099 8.21287C6.95099 7.96165 6.7421 7.758 6.48441 7.758C6.22672 7.758 6.01782 7.96165 6.01782 8.21287C6.01782 8.46409 6.22672 8.66774 6.48441 8.66774Z" fill="#FFD515"/>
<path d="M9.55563 12.8881C9.83121 12.8881 10.0546 12.6703 10.0546 12.4016C10.0546 12.133 9.83121 11.9152 9.55563 11.9152C9.28004 11.9152 9.05664 12.133 9.05664 12.4016C9.05664 12.6703 9.28004 12.8881 9.55563 12.8881Z" fill="#FFD515"/>
<path d="M6.62656 13.9937C6.94509 13.9937 7.20331 13.7419 7.20331 13.4314C7.20331 13.1208 6.94509 12.8691 6.62656 12.8691C6.30803 12.8691 6.0498 13.1208 6.0498 13.4314C6.0498 13.7419 6.30803 13.9937 6.62656 13.9937Z" fill="#FFD515"/>
<path opacity="0.8" d="M1.28687 0.884521H14.8891L9.21882 8.2699L9.15402 12.13L6.9507 12.9639V8.21304L1.28687 0.884521Z" fill="#FFD515"/>
</g>
<defs>
<clipPath id="clip0_2_1299">
<rect width="16" height="14" fill="white" transform="translate(0.0878906)"/>
</clipPath>
</defs>
</svg>
